<svg width="37" height="42" viewBox="0 0 37 42" fill="none" xmlns="http://www.w3.org/2000/svg">
<path fill-rule="evenodd" clip-rule="evenodd" d="M37 0L33.6292 37.7956L18.4774 42L3.36722 37.8015L0 0H37ZM11.9473 12.3634L12.3707 17.1109L28.7526 17.111L28.6476 18.265L27.4884 31.2539L18.0639 33.8659L8.9904 31.3448L8.3415 24.0653H12.9913L13.321 27.7629L18 29.0275V29.0607L18.0616 29.0441L18.4797 29.1571L18.484 29.156L23.6502 27.7599L24.1878 21.7471H23.6848L23.6929 21.6562H18V21.7471H8.1345L6.88513 7.7271H29.5896L29.1826 12.2724L18 12.2725V12.3634L11.9473 12.3634Z" fill="white"/>
</svg>
