<svg width="42" height="42" viewBox="0 0 42 42" fill="none" xmlns="http://www.w3.org/2000/svg">
<path fill-rule="evenodd" clip-rule="evenodd" d="M36.6292 37.7956L40 0H3L6.36722 37.8015L21.4774 42L36.6292 37.7956ZM15.3707 17.1109L14.9473 12.3634L32.6725 12.3633L33.0873 7.7271H9.88513L11.1345 21.7471L27.1878 21.7471L26.6502 27.7599L21.484 29.156L21.4797 29.1571L16.321 27.7629L15.9913 24.0653H11.3415L11.9904 31.3448L21.4787 33.9812L21.5 33.9745L30.9799 31.3448L32.138 18.3559L32.2511 17.111L15.3707 17.1109Z" fill="#343434"/>
<path fill-rule="evenodd" clip-rule="evenodd" d="M33.2545 35.2981L21 38.6955V33.8836L21 33.8836L30.4884 31.2539L31.6476 18.265L31.7608 17.0201L21 17.02V12.2725L32.1826 12.2724L32.5977 7.6362H21V3H36.1377L33.2545 35.2981ZM21 21.6562V29.0607L26.1548 27.669L26.6929 21.6562L21 21.6562Z" fill="white" />
</svg>
