<svg fill="none" height="42" viewBox="0 0 42 42" width="42" xmlns="http://www.w3.org/2000/svg"><g clip-rule="evenodd" fill-rule="evenodd"><path d="m36.6292 37.7956 3.3708-37.7956h-37l3.36722 37.8015 15.11018 4.1985zm-21.2585-20.6847-.4234-4.7475 17.7252-.0001.4148-4.6362h-23.20217l1.24937 14.02h16.0533l-.5376 6.0128-5.1662 1.3961-.0043.0011-5.1587-1.3942-.3297-3.6976h-4.6498l.6489 7.2795 9.4883 2.6364.0213-.0067 9.4799-2.6297 1.1581-12.9889.1131-1.2449z" fill="#343434"/><path d="m33.2545 35.2981-12.2545 3.3974v-4.8119l9.4884-2.6297 1.1592-12.9889.1132-1.2449-10.7608-.0001v-4.7475l11.1826-.0001.4151-4.6362h-11.5977v-4.6362h15.1377zm-12.2545-13.6419v7.4045l5.1548-1.3917.5381-6.0128z" fill="#fff"/></g></svg>