<svg fill="none" height="44" viewBox="0 0 44 44" width="44" xmlns="http://www.w3.org/2000/svg"><path clip-rule="evenodd" d="m1 1h42.2903v42.2903h-42.2903zm11.1196 35.3409.0001-.0001c.9368 1.9869 2.7823 3.6334 5.9614 3.6334 3.5202 0 5.933-1.8736 5.933-5.9899v-13.569h-3.9742v13.5128c0 1.9869-.8233 2.4978-2.1293 2.4978-1.3623 0-1.9302-.9366-2.5546-2.0436l-3.2363 1.9585-.0001-.0003zm17.2892-2.2995-3.2359 1.8736c1.1637 2.2995 3.5483 4.0595 7.2387 4.0595 3.7755 0 6.586-1.9586 6.586-5.5357 0-3.3213-1.9021-4.7973-5.2804-6.2451l-.9934-.4259c-1.7031-.7381-2.4413-1.2208-2.4413-2.4131 0-.965.7382-1.7032 1.9021-1.7032 1.1355 0 1.8733.4826 2.5546 1.7032l3.0944-1.9871c-1.3058-2.2994-3.1225-3.1795-5.6491-3.1795-3.5486 0-5.8196 2.2711-5.8196 5.2519 0 3.2362 1.9021 4.7692 4.7694 5.9896l.9934.4261c1.8168.7947 2.8955 1.2772 2.8955 2.6399 0 1.1355-1.0501 1.9588-2.6968 1.9588-1.9587 0-3.0657-1.0219-3.9176-2.413z" fill="#fff" fill-rule="evenodd"/></svg>