<svg fill="none" height="46" viewBox="0 0 44 44" width="44" xmlns="http://www.w3.org/2000/svg" xmlns:xlink="http://www.w3.org/1999/xlink"><clipPath id="a"><path d="m0 0h44v44h-44z"/></clipPath><g clip-path="url(#a)"><path d="m36.2829 14.7257c-.4578-.1577-.9321-.3067-1.4205-.4477.0802-.3276.154-.651.2195-.9689 1.0752-5.21984.3721-9.42496-2.0287-10.80946-2.302-1.32756-6.067.05664-9.8694 3.36575-.3657.3182-.7323.65509-1.0989 1.00817-.2442-.23361-.488-.45935-.7312-.67528-3.9851-3.53832-7.9794-5.02942-10.3779-3.64092-2.2999 1.33142-2.981 5.28463-2.01303 10.23144.09346.4779.20274.9658.32629 1.462-.56533.1604-1.11109.3315-1.63328.5135-4.67202 1.6288-7.65578 4.1817-7.65578 6.8296 0 2.7348 3.20308 5.4781 8.06935 7.1412.38403.1313.78251.2555 1.19316.3733-.1333.5366-.24923 1.0623-.34656 1.5752-.92295 4.8611-.20219 8.7208 2.09165 10.0439 2.3693 1.3662 6.3456-.0383 10.2174-3.4228.306-.2674.6132-.5511.9209-.8486.3988.3841.7969.7475 1.1931 1.0884 3.7503 3.2274 7.4545 4.5305 9.7461 3.2039 2.367-1.3702 3.1362-5.5166 2.1375-10.5613-.0762-.3854-.1651-.7789-.2647-1.1795.2793-.0825.5534-.1678.8207-.2564 5.059-1.6762 8.3504-4.3858 8.3504-7.1573 0-2.6574-3.0799-5.2276-7.8461-6.8682zm-1.0973 12.236c-.2412.08-.4889.1571-.7411.232-.5585-1.768-1.3122-3.6481-2.2347-5.5905.8803-1.8963 1.6049-3.7522 2.1478-5.5089.4513.1307.8894.2685 1.3117.4139 4.0837 1.4057 6.5745 3.4842 6.5745 5.0857 0 1.706-2.6901 3.9206-7.0582 5.3678zm-1.8124 3.5915c.4417 2.2307.5047 4.2476.2121 5.8242-.2627 1.4167-.7913 2.3613-1.4448 2.7395-1.3908.805-4.3647-.2414-7.5722-3.0013-.3676-.3164-.738-.6543-1.1096-1.0119 1.2435-1.36 2.4862-2.9408 3.699-4.6967 2.1334-.1893 4.1488-.4988 5.9767-.9214.0899.3633.1699.7195.2388 1.0676zm-18.3286 8.4246c-1.3588.4798-2.4409.4936-3.0951.1164-1.392-.8027-1.97062-3.902-1.1813-8.059.0904-.4761.198-.9652.3221-1.4651 1.8077.3997 3.8084.6875 5.9468.8608 1.2211 1.7181 2.4998 3.2973 3.7882 4.6801-.2815.2717-.5619.5306-.8407.7744-1.7123 1.4965-3.4279 2.5584-4.94 3.0924zm-6.36556-12.0264c-2.15177-.7355-3.92879-1.6914-5.14685-2.7345-1.0945-.9373-1.64709-1.8679-1.64709-2.623 0-1.6069 2.39568-3.6563 6.39122-5.0494.48481-.1691.99231-.3284 1.51898-.478.5522 1.7962 1.2766 3.6743 2.1508 5.5733-.8855 1.9274-1.6202 3.8353-2.17782 5.6526-.37546-.1079-.73921-.2216-1.08924-.341zm2.13376-14.5246c-.82929-4.23833-.2785-7.43559 1.1075-8.23789 1.4764-.8547 4.7409.36391 8.1817 3.41908.2199.19528.4407.39966.6621.61112-1.2822 1.37672-2.549 2.94409-3.7592 4.65199-2.0754.1924-4.0621.5014-5.8887.9152-.1149-.4619-.2166-.9158-.3034-1.3595zm19.0353 4.7003c-.4367-.7543-.8849-1.4905-1.3419-2.2069 1.4079.178 2.7569.4142 4.0239.7034-.3805 1.219-.8545 2.4934-1.4126 3.8-.4002-.7601-.8236-1.5264-1.2694-2.2965zm-7.7625-7.56072c.8695.94202 1.7403 1.99382 2.5968 3.13502-.8631-.0408-1.7369-.0621-2.6179-.0621-.8727 0-1.74.0208-2.5978.0608.8573-1.1305 1.7358-2.1808 2.6189-3.13372zm-7.8123 7.57382c-.4362.7564-.8517 1.5184-1.2457 2.2819-.549-1.302-1.0186-2.5823-1.4023-3.8184 1.2591-.2818 2.6018-.5121 4.0007-.6869-.4634.723-.9154 1.4648-1.3527 2.2233zm1.3931 11.2654c-1.4455-.1613-2.8083-.3798-4.0671-.6538.3898-1.2584.8698-2.5659 1.4304-3.8959.395.763.8123 1.5254 1.2511 2.2833h.0001c.4469.7723.9101 1.5287 1.3855 2.2664zm6.4714 5.3488c-.8935-.964-1.7847-2.0303-2.6552-3.1773.845.033 1.7064.0501 2.5819.0501.8995 0 1.7886-.0203 2.6638-.0594-.8593 1.1678-1.727 2.2359-2.5905 3.1866zm8.9977-9.9663c.5899 1.3443 1.0871 2.6452 1.4819 3.882-1.2794.2918-2.6608.527-4.1163.7016.4581-.7259.9101-1.475 1.3545-2.2454.4496-.7796.8764-1.5603 1.2799-2.3382zm-2.9128 1.3964c-.6899 1.1959-1.3981 2.3378-2.117 3.4156-1.3095.0937-2.6624.1418-4.0412.1418-1.3733 0-2.709-.0426-3.9954-.1261-.748-1.0919-1.4716-2.2371-2.157-3.4211h.0002c-.6836-1.1808-1.3129-2.3714-1.883-3.5555.57-1.1868 1.1976-2.3789 1.8773-3.5575l-.0001.0003c.6814-1.1819 1.3986-2.3214 2.1397-3.4065 1.3124-.0992 2.6581-.1509 4.0182-.1509h.0001c1.3662 0 2.7137.0522 4.0258.1522.7296 1.0771 1.442 2.213 2.1261 3.395.692 1.1952 1.3276 2.3793 1.9024 3.5406-.573 1.1814-1.2073 2.3774-1.8961 3.5721zm3.8888-21.05168c1.4777.85218 2.0525 4.28903 1.124 8.79588-.0591.2875-.1259.5803-.1984.8773-1.8307-.4225-3.8188-.7369-5.9003-.9321-1.2125-1.7268-2.4691-3.2966-3.7304-4.65565.3391-.32623.6777-.63727 1.0149-.93082 3.2579-2.83522 6.303-3.95463 7.6902-3.15461zm-10.047 13.52058c2.1762 0 3.9405 1.7642 3.9405 3.9405 0 2.1764-1.7643 3.9407-3.9405 3.9407-2.1763 0-3.9405-1.7643-3.9405-3.9407 0-2.1763 1.7642-3.9405 3.9405-3.9405z" fill="#fff"/></g></svg>