<svg width="188" height="80" viewBox="0 0 188 80" fill="none" xmlns="http://www.w3.org/2000/svg">
<path d="M50.7313 27.4232L50.7057 27.4108C50.6911 27.4046 50.6765 27.3985 50.6637 27.384C50.6427 27.3586 50.6272 27.3281 50.6183 27.2949C50.6095 27.2617 50.6075 27.2266 50.6125 27.1924L52.0253 17.4523L58.6504 24.9253L51.7603 28.2311C51.7411 28.2398 51.7206 28.244 51.7 28.2435H51.6725C51.6634 28.2373 51.6543 28.229 51.636 28.2084C51.3796 27.8865 51.0729 27.6203 50.7313 27.4232ZM60.341 26.8296L67.4249 34.8179C68.8961 36.479 69.6326 37.3075 69.9013 38.2679C69.9415 38.4101 69.9744 38.5523 70 38.6987L53.0707 30.6136C53.0616 30.6093 53.0524 30.6052 53.0433 30.6012C52.9756 30.5703 52.8971 30.5352 52.8971 30.4569C52.8971 30.3786 52.9775 30.3415 53.0451 30.3106L53.067 30.3003L60.341 26.8296ZM69.7112 41.2625C69.3457 42.0374 68.6329 42.8412 67.4267 44.2035L59.44 53.2078L49.1102 50.782L49.0554 50.7697C48.964 50.7532 48.8671 50.7346 48.8671 50.6419C48.8279 50.1614 48.7014 49.6951 48.4954 49.2721C48.2895 48.8491 48.0085 48.4784 47.67 48.1832C47.628 48.1358 47.639 48.0616 47.6518 47.9936C47.6518 47.9833 47.6518 47.973 47.6554 47.9647L49.5982 34.5149L49.6055 34.4696C49.6165 34.3666 49.6329 34.247 49.7152 34.247C50.1315 34.1886 50.5334 34.0374 50.8973 33.8021C51.2613 33.5668 51.5801 33.2521 51.8352 32.8765C51.8517 32.8559 51.8626 32.8332 51.8845 32.8208C51.943 32.7899 52.0125 32.8208 52.0728 32.8497L69.7094 41.2625H69.7112ZM57.6032 55.279L44.4699 70.0891L46.7178 54.5083L46.7215 54.4876C46.7233 54.467 46.727 54.4464 46.7325 54.4279C46.7507 54.3784 46.7983 54.3578 46.8439 54.3372L46.8659 54.3269C47.3581 54.0901 47.7934 53.7249 48.1361 53.2614C48.1799 53.2037 48.2329 53.148 48.3006 53.1377C48.3181 53.1345 48.336 53.1345 48.3536 53.1377L57.6014 55.2811L57.6032 55.279ZM41.69 73.2238L40.2097 74.8931L23.8432 48.2203C23.8373 48.2105 23.8312 48.2009 23.825 48.1914C23.7994 48.1523 23.772 48.1131 23.7774 48.0678C23.7774 48.0348 23.7976 48.0059 23.8177 47.9812L23.8359 47.9544C23.8853 47.872 23.9273 47.7895 23.973 47.7009L24.0096 47.6288L24.015 47.6226C24.0406 47.5731 24.0644 47.5257 24.1082 47.4989C24.1466 47.4783 24.1996 47.4866 24.2417 47.4969L42.3736 51.7136C42.4243 51.7225 42.4721 51.7459 42.5125 51.7816C42.5362 51.8084 42.5417 51.8373 42.5472 51.8702C42.6737 52.4099 42.9091 52.9092 43.235 53.3293C43.5609 53.7494 43.9685 54.0788 44.426 54.2919C44.4772 54.3207 44.4552 54.3846 44.4315 54.4526C44.4196 54.4824 44.4104 54.5135 44.4041 54.5454C44.1756 56.1117 42.2164 69.5862 41.69 73.2238ZM38.5977 76.7088C37.5066 77.9269 36.8633 78.5719 36.1359 78.8316C35.4187 79.0874 34.649 79.0874 33.9318 78.8316C33.0801 78.5266 32.3435 77.6981 30.8723 76.037L14.4364 57.5028L18.7295 49.9948C18.7496 49.9577 18.7697 49.9247 18.8026 49.8979C18.8483 49.8608 18.9141 49.8773 18.969 49.8979C19.9543 50.2331 21.0123 50.1727 21.9626 49.7268C22.012 49.7062 22.0613 49.6918 22.0997 49.731C22.1189 49.7507 22.136 49.7728 22.1509 49.7969L38.5977 76.7088ZM12.8501 55.716L9.08149 51.4642L16.5272 47.8823C16.5463 47.8729 16.5668 47.868 16.5876 47.8679C16.6497 47.8679 16.6863 47.9379 16.7191 48.0018C16.794 48.1316 16.8732 48.2581 16.9567 48.381L16.9805 48.414C17.0024 48.449 16.9878 48.4841 16.9659 48.5171L12.8537 55.716H12.8501ZM7.41103 49.5826L2.64092 44.2035C1.82946 43.2884 1.24096 42.6248 0.831571 42.0539L15.3356 45.4462C15.3539 45.45 15.3721 45.4535 15.3905 45.4565C15.48 45.473 15.5787 45.4916 15.5787 45.5864C15.5787 45.6894 15.4709 45.7368 15.3795 45.776L15.3375 45.7966L7.41103 49.5826ZM0.00182763 39.2881C0.018357 38.9416 0.073623 38.5988 0.166314 38.2679C0.436803 37.3075 1.17151 36.479 2.64458 34.8179L8.74886 27.9343C11.5594 32.5341 14.3777 37.128 17.2035 41.7159C17.2528 41.7901 17.3076 41.8725 17.251 41.9344C16.9842 42.2662 16.7173 42.6289 16.5291 43.0226C16.5087 43.0732 16.4772 43.1171 16.4377 43.1503C16.4139 43.1668 16.3883 43.1606 16.3609 43.1545H16.3573L0 39.286L0.00182763 39.2881ZM10.3828 26.0918L18.5888 16.8361C19.3619 17.2174 22.171 18.5549 24.6803 19.7503C26.581 20.6571 28.3136 21.4815 28.8583 21.7494C28.9131 21.7741 28.9624 21.7988 28.9862 21.8607C29.0008 21.8978 28.9935 21.9452 28.9862 21.9843C28.8563 22.6524 28.8756 23.3465 29.0424 24.0041C29.2093 24.6617 29.5184 25.2622 29.942 25.7518C29.9969 25.8136 29.942 25.9022 29.8945 25.9785L29.8689 26.0217L21.5349 40.5783C21.513 40.6195 21.4929 40.6545 21.4564 40.6813C21.4125 40.7122 21.3504 40.6978 21.2992 40.6834C20.975 40.5876 20.6418 40.5364 20.3068 40.5309C20.0071 40.5309 19.6817 40.5927 19.3528 40.6607H19.3509C19.3144 40.6669 19.2815 40.6751 19.2522 40.6504C19.2199 40.6206 19.1922 40.5851 19.17 40.5453L10.3828 26.0918ZM20.2483 14.9668L30.8741 2.9844C32.3454 1.32533 33.0819 0.494768 33.9336 0.191808C34.6508 -0.063936 35.4205 -0.063936 36.1377 0.191808C36.9894 0.494768 37.7259 1.32533 39.1972 2.9844L41.5 5.5812L33.9409 18.7775C33.9222 18.8159 33.8967 18.8496 33.866 18.8764C33.8203 18.9115 33.7563 18.897 33.7015 18.8764C33.1056 18.6725 32.4747 18.6354 31.8633 18.7683C31.2519 18.9011 30.6784 19.2 30.1924 19.639C30.1431 19.6967 30.07 19.6637 30.0078 19.6328C29.0209 19.1485 21.3449 15.4903 20.2465 14.9647L20.2483 14.9668ZM43.1046 7.39072L50.0825 15.2594L48.4011 27.0028V27.0337C48.3996 27.0604 48.3947 27.0868 48.3865 27.112C48.3682 27.1532 48.3316 27.1615 48.2951 27.1738C47.9356 27.2966 47.597 27.4868 47.2935 27.7365C47.2805 27.7469 47.2683 27.7587 47.257 27.7715C47.2369 27.7962 47.2168 27.8189 47.1839 27.823C47.1571 27.824 47.1304 27.8191 47.1053 27.8086L36.4722 22.7139L36.4521 22.7036C36.3844 22.6727 36.304 22.6356 36.304 22.5573C36.2415 21.8891 36.048 21.2449 35.7374 20.6715C35.6863 20.5767 35.6296 20.4778 35.6735 20.3809L43.1046 7.39072ZM35.9147 25.1252L45.8826 29.886C45.9374 29.9149 45.9978 29.9417 46.0215 30.0056C46.031 30.044 46.031 30.0846 46.0215 30.123C45.9923 30.2879 45.9667 30.4755 45.9667 30.6651V30.9804C45.9667 31.0587 45.8954 31.0917 45.8296 31.1226L45.8095 31.1308C44.2304 31.8913 23.6404 41.7922 23.6093 41.7922C23.5782 41.7922 23.5453 41.7922 23.5143 41.7571C23.4594 41.6953 23.5143 41.6087 23.5636 41.5304C23.5723 41.5168 23.5809 41.5031 23.5892 41.4892L31.7806 27.1862L31.7953 27.1615C31.8428 27.0749 31.8976 26.978 31.9853 26.978L32.0676 26.9925C32.254 27.0213 32.4185 27.0481 32.5848 27.0481C33.8276 27.0481 34.979 26.3659 35.6735 25.1994C35.69 25.1683 35.711 25.1404 35.7356 25.117C35.785 25.0758 35.8581 25.0964 35.9147 25.1252ZM24.4994 44.0551L46.9426 33.2619C46.9426 33.2619 46.9755 33.2619 47.0066 33.2969C47.1291 33.435 47.2332 33.5277 47.3338 33.6143L47.3831 33.6493C47.4288 33.6782 47.4745 33.7112 47.4781 33.7648C47.4781 33.7854 47.4781 33.7977 47.4745 33.8163L45.5536 47.1362L45.5463 47.1898C45.5335 47.2929 45.5207 47.4103 45.4348 47.4103C44.9223 47.4493 44.4258 47.6287 43.9886 47.9329C43.5513 48.2371 43.1864 48.6569 42.9255 49.156L42.9164 49.1724C42.8908 49.2198 42.867 49.2652 42.825 49.2899C42.7866 49.3105 42.7373 49.3023 42.6971 49.292L24.7991 45.1289C24.7808 45.1247 24.5213 44.0592 24.5012 44.0572L24.4994 44.0551Z" fill="white"/>
<path fill-rule="evenodd" clip-rule="evenodd" d="M152.5 0L188 63H117L152.5 0Z" fill="url(#paint0_linear)"/>
<defs>
<linearGradient id="paint0_linear" x1="256.566" y1="144.154" x2="166.974" y2="20.9729" gradientUnits="userSpaceOnUse">
<stop/>
<stop offset="1" stop-color="white"/>
</linearGradient>
</defs>
</svg>
