<svg width="82" height="82" viewBox="0 0 82 82" fill="none" xmlns="http://www.w3.org/2000/svg">
<path fill-rule="evenodd" clip-rule="evenodd" d="M40.9978 0C0 0 0 0 0 42.0409C0 81.923 0 81.923 28.0399 81.9293C30.0899 82.3141 30.838 81.0172 30.838 79.9031C30.838 78.9048 30.8033 76.2603 30.7828 72.7524C19.3788 75.2936 16.9718 67.1171 16.9718 67.1171C15.1085 62.2616 12.4189 60.9668 12.4189 60.9668C8.69611 58.3584 12.6998 58.4108 12.6998 58.4108C16.8141 58.7071 18.9789 62.7429 18.9789 62.7429C22.6361 69.1665 28.5751 67.3125 30.9118 66.2364C31.2852 63.5205 32.343 61.6668 33.5156 60.6158C24.4114 59.5542 14.8398 55.9473 14.8398 39.8381C14.8398 35.2496 16.4369 31.4954 19.0609 28.5571C18.6386 27.4933 17.2323 23.2202 19.4627 17.4313C19.4627 17.4313 22.9045 16.3005 30.7377 21.7404C34.0073 20.807 37.515 20.3426 41.0019 20.3256C44.4828 20.3426 47.9905 20.8092 51.2664 21.7404C59.0933 16.3005 62.5291 17.4313 62.5291 17.4313C64.7656 23.2202 63.3593 27.4933 62.937 28.5571C65.5651 31.4954 67.1518 35.2475 67.1518 39.8381C67.1518 55.9872 57.566 59.5416 48.4311 60.5822C49.903 61.8789 51.215 64.4455 51.215 68.3676C51.215 73.9884 51.1639 78.5222 51.1639 79.9011C51.1639 81.0256 51.9019 82.333 53.9826 81.923C82.0001 81.923 82.0001 81.9293 82.0001 42.0409C82.0001 0 82.0001 0 40.9978 0Z" fill="white"/>
</svg>
