<svg width="111" height="110" viewBox="0 0 111 110" fill="none" xmlns="http://www.w3.org/2000/svg">
<path d="M3.17875 38.9597C3.17875 38.9597 0.551144 37.0656 3.70428 34.5366L11.0506 27.9676C11.0506 27.9676 13.1527 25.756 15.3752 27.6829L83.1676 79.0089V103.621C83.1676 103.621 83.1347 107.486 78.1751 107.059L3.17875 38.9597Z" fill="white"/>
<path d="M20.6466 54.8242L3.17301 70.7103C3.17301 70.7103 1.37748 72.046 3.17301 74.4328L11.2858 81.812C11.2858 81.812 13.2127 83.8812 16.0592 81.5273L34.5839 67.4805L20.6466 54.8242Z" fill="white"/>
<path d="M51.326 54.959L83.3719 30.4894L83.1639 6.0088C83.1639 6.0088 81.7953 0.665992 77.2298 3.44688L34.5859 42.2589L51.326 54.959Z" fill="white"/>
<path d="M78.1642 107.092C80.0254 108.997 82.2808 108.373 82.2808 108.373L107.254 96.0672C110.451 93.8885 110.002 91.1842 110.002 91.1842V17.6988C110.002 14.469 106.696 13.3523 106.696 13.3523L85.0507 2.91848C80.321 -0.00473559 77.2227 3.444 77.2227 3.444C77.2227 3.444 81.2079 0.575529 83.1567 6.00592V103.173C83.1567 103.841 83.0143 104.497 82.7297 105.089C82.1604 106.238 80.9232 107.311 77.9562 106.862L78.1642 107.092Z" fill="rgba(255, 255, 255, .2)"/>
</svg>
