<svg xmlns="http://www.w3.org/2000/svg" width="801" height="467"><path fill="#CCC" d="M801.5 24.5H.5v-18c0-2.761 2.261-5 5.05-5h790.899c2.79 0 5.051 2.239 5.051 5v18z"/><circle opacity=".71" fill="#E74C3C" cx="13.589" cy="14" r="4.709"/><circle opacity=".71" fill="#F1C40F" cx="29" cy="14" r="4.709"/><circle opacity=".71" fill="#2ECC71" cx="44.411" cy="14" r="4.709"/><path fill="#E6E6E6" d="M167.5 10.543c-.396-1.189-1.343-2.043-3-2.043h-91c-1.657 0-2.604.896-3 2.043l-4 12.427c-.344.998-2 1.529-2 1.529h109s-1.656-.438-2-1.529l-4-12.427z"/><path fill="#F2F2F2" d="M801.5 462.433c0 3.351-2.508 6.067-5.603 6.067H6.102C3.008 468.5.5 465.783.5 462.433V45.5h801v416.933z"/><path fill="#E6E6E6" d="M.5 24.5h801v21H.5z"/></svg>