<svg xmlns="http://www.w3.org/2000/svg" width="801" height="467"><path fill="#1C2022" d="M400.5 468.5H6.5a6 6 0 01-6-6v-363h400v369z"/><path fill="#2E3233" d="M393.5 137.5h7v221h-7z"/><path fill="#EDBE5F" d="M27.5 243.5h25.167v4H27.5zM86.5 243.5h149.875v4H86.5z"/><path fill="#EC5F67" d="M55.708 243.5h27.417v4H55.708z"/><path fill="#6099C1" d="M27.5 187.5h21.833v4H27.5z"/><path fill="#EC5F67" d="M36.833 195.5H54v4H36.833z"/><path fill="#AA759F" d="M56.833 195.5h63.542v4H56.833zM74.833 203.5H93.75v4H74.833z"/><path fill="#99C794" d="M96.833 203.5h57.833v4H96.833z"/><path fill="#EC5F67" d="M47.833 203.5h23.833v4H47.833zM47.833 211.5h11.083v4H47.833z"/><path fill="#CBCBCC" d="M61.833 211.5H233v4H61.833z"/><path fill="#EC5F67" d="M270.833 211.5h11.083v4h-11.083z"/><path fill="#99C794" d="M235.667 211.5h32.25v4h-32.25z"/><path fill="#EC5F67" d="M36.833 219.5H54v4H36.833z"/><path fill="#EDBE5F" d="M52.667 187.5H77v4H52.667z"/><path fill="#CBCBCC" d="M79.667 187.5H109v4H79.667zM27.667 227.5h6.708v4h-6.708z"/><g><path fill="#6099C1" d="M27.5 147.5h21.833v4H27.5z"/><path fill="#EDBE5F" d="M51.667 147.5h25.958v4H51.667z"/><path fill="#CBCBCC" d="M27.667 171.5h6.708v4h-6.708zM79.667 147.5h13.708v4H79.667z"/><path fill="#99C794" d="M36.5 155.5h101v4h-101zM36.5 163.5h80.375v4H36.5z"/></g><g><path fill="#6099C1" d="M27.5 115.5h27v4h-27zM27.5 123.5h27v4h-27zM27.5 131.5h27v4h-27z"/><path fill="#EDBE5F" d="M56.667 115.5H81v4H56.667zM56.667 123.5h43.917v4H56.667zM56.667 131.5H81v4H56.667z"/></g><g fill="#5A5A5A"><path d="M19 172.5h2v2h-2zM19 188.5h2v2h-2zM19 164.5h2v2h-2zM19 156.5h2v2h-2zM19 148.5h2v2h-2zM19 140.5h2v2h-2zM19 132.5h2v2h-2zM19 124.5h2v2h-2zM19 116.5h2v2h-2zM19 236.5h2v2h-2zM19 228.5h2v2h-2zM19 244.5h2v2h-2zM19 220.5h2v2h-2zM19 212.5h2v2h-2zM19 204.5h2v2h-2zM19 196.5h2v2h-2zM19 180.5h2v2h-2z"/></g><g><path fill="#24282A" d="M.5 72.5h400v27H.5z"/><path fill="#58A1D7" d="M325.5 93.5a2 2 0 01-2 2h-50a2 2 0 01-2-2v-14a2 2 0 012-2h50a2 2 0 012 2v14z"/><path fill="#191D1F" d="M388.5 93.5a2 2 0 01-2 2h-50a2 2 0 01-2-2v-14a2 2 0 012-2h50a2 2 0 012 2v14z"/></g><g><path fill="#24282A" d="M400.5 451.5h58v17h-58z"/><circle opacity=".71" fill="#2ECC71" cx="445.031" cy="459.344" r="4.531"/><path fill="#1C2022" d="M801.5 462.5a6 6 0 01-6 6h-337v-17h343v11z"/><g><path fill="#FEFEFE" d="M400.5 98.5h401v353h-401z"/><path d="M512.5 133.5h175v12h-175zM463.833 164.5h244.333v12H463.833z"/><path fill="#56A1D7" d="M720.167 162.591H736.5v15.818h-16.333z"/></g><g><path fill="#F1F1F1" d="M400.5 71.5h401v27h-401z"/><path fill="#CBCBCB" d="M739.5 90.5a2 2 0 01-2 2h-280a2 2 0 01-2-2v-11a2 2 0 012-2h280a2 2 0 012 2v11z"/><path fill="#F6CB93" d="M793.5 90.5a2 2 0 01-2 2h-28a2 2 0 01-2-2v-11a2 2 0 012-2h28a2 2 0 012 2v11z"/><path fill="#FEFEFE" d="M791.5 88.5a2 2 0 01-2 2h-6a2 2 0 01-2-2v-7a2 2 0 012-2h6a2 2 0 012 2v7z"/></g></g><g><path fill="#1C2022" d="M.5 45.5h801v27H.5z"/><path fill="#58A1D7" d="M376.5 64.5a2 2 0 01-2 2h-24a2 2 0 01-2-2v-11a2 2 0 012-2h24a2 2 0 012 2v11zM400.5 66.5h-12a2 2 0 01-2-2v-11a2 2 0 012-2h12v15z"/><path fill="#FFD399" d="M400.5 66.5h12a2 2 0 002-2v-11a2 2 0 00-2-2h-12v15zM452.5 64.5a2 2 0 01-2 2h-24a2 2 0 01-2-2v-11a2 2 0 012-2h24a2 2 0 012 2v11z"/></g></svg>