<svg xmlns="http://www.w3.org/2000/svg" width="801" height="467"><path fill="#171E27" d="M801.5 45.5v417a6 6 0 01-6 6H6.5a6 6 0 01-6-6v-417"/><path fill="#FFF" d="M137.5 468.5v-110c0-1.105.867-2 2.249-2h394.247c1.382 0 2.503.895 2.503 2v110H137.5z"/><path fill="#273040" d="M186.5 370.5h251v11h-251zM186.5 412.5h274v4h-274zM186.5 420.5h262v4h-262zM186.5 428.5h266v4h-266zM186.5 444.5h274v4h-274zM186.5 436.5h262v4h-262zM186.5 452.5h266v4h-266z"/><g><path fill="#FFF" d="M676.5 372.5a2 2 0 01-2 2h-111a2 2 0 01-2-2v-240a2 2 0 012-2h111a2 2 0 012 2v240z"/><g fill="#273040"><path d="M595.5 203.5h67v4h-67zM570.5 201.5h9v9h-9zM570.5 226.5h9v9h-9zM570.5 249.5h9v9h-9zM570.5 274.5h9v9h-9zM595.5 228.5h67v4h-67zM595.5 252.5h67v4h-67zM595.5 277.5h67v4h-67zM570.5 300.5h9v9h-9zM570.5 325.5h9v9h-9zM595.5 303.5h67v4h-67zM595.5 328.5h67v4h-67z"/></g><path fill="#273040" d="M561.5 151.5h115v33h-115z"/><path fill="#59CD90" d="M570.5 163.141l9.232 5.33-9.232 5.33z"/><path fill="#FFF" d="M595.5 166.5h67v4h-67z"/><g><path fill="#CBCBCB" d="M668.5 141.5a3 3 0 01-3 3h-10a3 3 0 110-6h10a3 3 0 013 3z"/><circle fill="#59CD90" cx="665.167" cy="141.5" r="4"/></g></g><g><path fill="#FFF" d="M153.049 105.026c-6.628.008-12.096-5.188-12.425-11.808v-.024a2.963 2.963 0 01-2.503-2.214c-.347-1.359-.816-3.392-.874-5.344a2.778 2.778 0 011.648-2.628c1.014-.455 2.46-.827 4.283-1.109 1.021-2.357 2.224-4.406 3.497-5.95 1.983-2.401 4.127-3.618 6.374-3.618s4.389 1.217 6.368 3.618c1.268 1.544 2.476 3.591 3.494 5.942 1.811.274 3.255.648 4.297 1.112a2.775 2.775 0 011.648 2.623c-.056 1.964-.525 3.996-.872 5.354a2.963 2.963 0 01-2.507 2.215v.023a12.443 12.443 0 01-12.433 11.807l.005.001z"/><path fill="#FFF" d="M153.041 74.398c5.756 0 10.423 12.373 10.423 18.13s-4.667 10.424-10.424 10.424-10.424-4.667-10.424-10.424c.002-5.757 4.669-18.13 10.425-18.13z"/><path fill="#FFF" d="M166.259 84.384l-4.252 1.5s.658 2.001.664 2.016c.006.015 4.236-.545 4.236-.545l-.648-2.971zM139.825 84.384l4.252 1.5s-.658 2.001-.664 2.016c-.006.015-4.236-.545-4.236-.545l.648-2.971zM148.666 84.029a1.326 1.326 0 011.34 1.116c.135.724.224 1.457.266 2.192.004.206-.015.412-.056.614a17.694 17.694 0 00-.209-1.473 1.326 1.326 0 00-1.34-1.116 36.35 36.35 0 00-4.776.363c.15-.465.311-.932.483-1.395a35.836 35.836 0 014.292-.301zM163.445 92.066c-3.754-.194-6.961-1.395-7.684-1.824-.564-.27-1.284-.842-1.491-2.272-.138 1.576.158 3.011 1.638 3.72.109.066 2.941 1.467 7.512 1.708a10.405 10.405 0 00.025-1.332zM142.649 92.066c3.754-.194 6.961-1.395 7.684-1.824.564-.27 1.284-.842 1.491-2.272.138 1.576-.158 3.011-1.638 3.72-.109.066-2.941 1.467-7.512 1.708a10.405 10.405 0 01-.025-1.332zM157.407 84.029a1.326 1.326 0 00-1.34 1.116 17.372 17.372 0 00-.266 2.192c-.004.206.015.412.056.614.053-.53.127-1.035.209-1.473a1.326 1.326 0 011.34-1.116 36.35 36.35 0 014.776.363 33.88 33.88 0 00-.483-1.395 35.836 35.836 0 00-4.292-.301z"/><path d="M143.924 82.902c1.023-2.482 2.252-4.63 3.55-6.212 1.769-2.145 3.641-3.233 5.565-3.233 1.923 0 3.796 1.088 5.565 3.232 1.303 1.58 2.536 3.727 3.55 6.212l.049.127-.127-.018c-.361-.048-.655-.082-1.014-.127h-.044l-.018-.041c-1.151-2.688-3.116-6.199-5.656-7.665a4.598 4.598 0 00-2.305-.669 4.6 4.6 0 00-2.305.669c-2.533 1.464-4.493 4.959-5.653 7.662l-.018.041h-.044c-.361.038-.655.074-1.014.127l-.127.018.046-.123z"/><path fill="#FFF" d="M163.564 90.767a29.583 29.583 0 01-.848-.035h-.087l-.011-.087c-.254-1.977-.822-4.29-1.61-6.514l-.051-.166.171.023c.322.043.634.091.938.142l.062.01.02.06c.761 2.22 1.3 4.511 1.53 6.451l.014.127-.128-.011z"/><path fill="#FFF" d="M162.635 85.761a38.034 38.034 0 00-.493-1.561l-.02-.06-.062-.01a26.076 26.076 0 00-.938-.142l-.165-.024.057.162c.175.493.339.99.491 1.488.541.063.846.107 1.13.147zM142.481 90.605c.231-1.94.775-4.231 1.53-6.451l.02-.06.062-.011c.299-.051.615-.099.938-.142l.171-.023-.057.162c-.787 2.224-1.359 4.536-1.61 6.514l-.011.087h-.087c-.281.016-.567.028-.848.035h-.127l.019-.111z"/><path fill="#FFF" d="M144.094 84.083l-.062.01-.02.06a38.12 38.12 0 00-.493 1.563c.529-.067.682-.06 1.125-.106a32.17 32.17 0 01.507-1.529l.057-.162-.171.023c-.328.044-.644.092-.943.141z"/><path d="M153.041 103.888a11.366 11.366 0 01-10.575-7.199 11.514 11.514 0 01-.781-4.626v-.071h.071c.37-.009.624-.019.887-.033h.082v.082a10.359 10.359 0 00.688 4.231c2.066 5.312 8.047 7.944 13.359 5.879a10.31 10.31 0 003.705-2.472 10.225 10.225 0 002.174-3.405c.522-1.347.757-2.788.688-4.231v-.083h.082c.369.019.623.027.887.033h.071v.071a11.528 11.528 0 01-.763 4.623 11.357 11.357 0 01-10.575 7.203v-.002z"/><path d="M142.762 93.398a11.256 11.256 0 01-.028-1.362v-.082h-.082c-.266.014-.52.024-.887.033h-.071v.071c-.016.455-.005.911.03 1.365h.034c.342 0 .677-.015.995-.03l.009.005zM164.391 91.992h-.071c-.269 0-.522-.014-.887-.033h-.082v.082c.018.45.009.9-.027 1.349l1.04.044c.036-.454.046-.91.03-1.365l-.003-.077z"/><path d="M164.977 92.224a24.758 24.758 0 01-6.438-.827 15.492 15.492 0 01-2.631-.955l-.02-.015c-1.775-.848-1.84-2.55-1.675-4.1.042-.392-.101-.91-.515-1.185a1.171 1.171 0 00-1.301 0c-.413.274-.557.791-.515 1.182.165 1.552.095 3.253-1.675 4.102l-.02.01c-.846.4-1.727.723-2.631.965-2.1.557-4.265.835-6.438.827h-.01a1.985 1.985 0 01-1.902-1.502c-.337-1.302-.786-3.252-.838-5.082a1.803 1.803 0 011.068-1.705c2.444-1.084 7.392-1.492 9.501-1.464a2.73 2.73 0 011.96.81 5.269 5.269 0 012.155-.497c.745.011 1.48.18 2.155.496a2.717 2.717 0 011.945-.809c1.268-.019 6.72.217 9.509 1.458.668.296 1.09.967 1.068 1.698-.052 1.833-.507 3.793-.833 5.093-.219.875-1 1.491-1.902 1.502h-.017zm-7.558-8.114a1.256 1.256 0 00-1.268 1.054c-.134.721-.223 1.45-.266 2.182-.01.837.29 1.41.887 1.703 2.235.997 4.833 1.49 7.942 1.505a.527.527 0 00.507-.393c.295-1.155.694-2.872.739-4.45a.37.37 0 00-.221-.351c-2.121-.953-6.665-1.279-8.321-1.254v.004zm-17.077 1.246a.371.371 0 00-.221.351c.046 1.575.444 3.296.739 4.45.06.231.268.393.507.393 3.111-.015 5.705-.507 7.948-1.506.598-.292.898-.866.887-1.705a17.357 17.357 0 00-.268-2.179 1.256 1.256 0 00-1.268-1.054c-.962-.015-5.922.18-8.324 1.25z"/><path fill="#FFF" d="M183.074 91.081a4.187 4.187 0 01-.582 1.235 4.266 4.266 0 01-.97 1.014c-.406.299-.858.53-1.338.685a5.32 5.32 0 01-1.685.254 5.511 5.511 0 01-1.98-.358 4.778 4.778 0 01-1.648-1.051 5.043 5.043 0 01-1.133-1.695 5.825 5.825 0 01-.418-2.267 5.638 5.638 0 01.408-2.185 5.105 5.105 0 011.093-1.665 4.9 4.9 0 011.582-1.062c.588-.25 1.22-.38 1.859-.38 1.565 0 2.784.465 3.655 1.395.871.93 1.305 2.201 1.3 3.812 0 .191-.007.371-.02.541-.014.17-.02.268-.02.295h-7.187c.011.317.091.627.235.909a2.485 2.485 0 001.338 1.206c.306.117.632.176.96.174.64 0 1.14-.143 1.501-.429.361-.286.633-.669.786-1.103l2.264.675zm-2.535-3.288a2.463 2.463 0 00-.153-.725 1.754 1.754 0 00-.408-.634 2.109 2.109 0 00-.695-.449 2.595 2.595 0 00-.99-.174 2.258 2.258 0 00-1.634.654 2.095 2.095 0 00-.614 1.333l4.494-.005zM186.713 93.858c.082.532.352 1.018.761 1.368.408.353.939.53 1.592.531.857 0 1.517-.221 1.98-.663.463-.442.695-1.153.695-2.134v-.735a2.762 2.762 0 01-1 .887c-.463.265-1.062.398-1.797.398a4.656 4.656 0 01-1.859-.368 4.43 4.43 0 01-1.481-1.021 4.813 4.813 0 01-.98-1.542 5.408 5.408 0 01-.01-3.839 4.996 4.996 0 01.96-1.562 4.445 4.445 0 013.368-1.447c.803 0 1.437.143 1.902.429.465.286.785.599.96.939v-1.188h2.613v8.964a6.621 6.621 0 01-.297 1.991 4.438 4.438 0 01-2.562 2.839c-.667.292-1.47.439-2.409.439a5.715 5.715 0 01-1.889-.295 5.088 5.088 0 01-1.486-.796 4.138 4.138 0 01-1.021-1.164 3.756 3.756 0 01-.489-1.372l2.449-.659zm2.695-2.675a2.252 2.252 0 001.705-.695c.442-.462.663-1.082.663-1.859s-.231-1.392-.694-1.846a2.302 2.302 0 00-1.675-.685 2.551 2.551 0 00-.95.174 2.172 2.172 0 00-.761.507 2.392 2.392 0 00-.507.806 2.843 2.843 0 00-.184 1.041c0 .789.224 1.412.673 1.869.458.46 1.084.709 1.73.688zM198.133 93.858c.082.532.352 1.018.761 1.368.408.353.939.53 1.592.531.857 0 1.517-.221 1.98-.663.463-.442.695-1.153.695-2.134v-.735a2.762 2.762 0 01-1 .887c-.463.265-1.062.398-1.797.398a4.656 4.656 0 01-1.859-.368 4.43 4.43 0 01-1.481-1.021 4.813 4.813 0 01-.98-1.542 5.408 5.408 0 01-.01-3.839 4.996 4.996 0 01.96-1.562 4.437 4.437 0 013.366-1.447c.803 0 1.437.143 1.902.429.465.286.785.599.96.939v-1.188h2.613v8.964a6.621 6.621 0 01-.297 1.991 4.438 4.438 0 01-2.562 2.839c-.667.292-1.47.439-2.409.439a5.715 5.715 0 01-1.889-.295 5.083 5.083 0 01-1.485-.796 4.138 4.138 0 01-1.021-1.164 3.777 3.777 0 01-.491-1.372l2.452-.659zm2.695-2.675a2.252 2.252 0 001.705-.695c.442-.462.663-1.082.663-1.859s-.232-1.392-.695-1.846a2.302 2.302 0 00-1.675-.685 2.58 2.58 0 00-.947.177 2.172 2.172 0 00-.761.507 2.392 2.392 0 00-.507.806 2.843 2.843 0 00-.184 1.041c0 .789.224 1.412.673 1.869a2.33 2.33 0 001.726.683h.002zM209.879 93.96h-2.433V79.177h2.433v5.579a2.712 2.712 0 011.245-.847c.473-.164.97-.25 1.471-.254a4.035 4.035 0 011.663.317 3.31 3.31 0 011.164.847c.315.37.548.802.685 1.268a5.26 5.26 0 01.224 1.552v6.322h-2.716V88.1a2.282 2.282 0 00-.439-1.429c-.292-.381-.765-.572-1.419-.572-.572 0-1.021.187-1.348.562a2.22 2.22 0 00-.531 1.395v5.904zM227.211 91.081a4.187 4.187 0 01-.582 1.235 4.266 4.266 0 01-.97 1.014c-.406.299-.858.53-1.338.685a5.32 5.32 0 01-1.685.254 5.511 5.511 0 01-1.98-.358 4.778 4.778 0 01-1.648-1.051 5.043 5.043 0 01-1.133-1.695 5.825 5.825 0 01-.418-2.267 5.638 5.638 0 01.408-2.185 5.105 5.105 0 011.093-1.665 4.9 4.9 0 011.582-1.062c.588-.25 1.22-.38 1.859-.38 1.565 0 2.784.465 3.655 1.395.871.93 1.305 2.201 1.301 3.812 0 .191-.007.371-.02.541-.014.17-.02.268-.02.295h-7.189c.011.317.091.627.235.909a2.485 2.485 0 001.338 1.206c.306.117.632.176.96.174.64 0 1.14-.143 1.501-.429.361-.286.633-.669.786-1.103l2.265.675zm-2.532-3.283a2.463 2.463 0 00-.153-.725 1.754 1.754 0 00-.408-.634 2.109 2.109 0 00-.695-.449 2.595 2.595 0 00-.99-.174 2.258 2.258 0 00-1.633.651 2.095 2.095 0 00-.613 1.328l4.492.003zM228.255 91.221a2.783 2.783 0 01.877-2.103 3.06 3.06 0 01.95-.612 5.249 5.249 0 011.174-.327l2.471-.368c.286-.041.483-.125.592-.254a.69.69 0 00.164-.46 1.212 1.212 0 00-.418-.919c-.279-.259-.705-.388-1.277-.388-.599 0-1.059.163-1.378.489a1.843 1.843 0 00-.541 1.141l-2.409-.507c.047-.414.172-.816.368-1.184.21-.403.494-.763.837-1.062.386-.33.829-.588 1.307-.761a5.046 5.046 0 011.797-.297 5.74 5.74 0 012.021.317c.507.177.97.459 1.359.829.345.34.605.756.761 1.215.157.467.236.957.235 1.449v4.945a12.03 12.03 0 00.123 1.592h-2.496a7.763 7.763 0 01-.101-1.205c-.29.424-.67.78-1.113 1.041-.483.299-1.099.449-1.847.449a3.848 3.848 0 01-1.44-.254 3.448 3.448 0 01-1.093-.673 2.848 2.848 0 01-.683-.96 2.767 2.767 0 01-.24-1.133zm4.023 1.001c.279.001.558-.036.827-.112.262-.073.503-.206.705-.388.214-.199.382-.443.489-.715.134-.355.196-.734.184-1.113v-.448l-2.267.347a1.792 1.792 0 00-.887.38c-.238.197-.358.493-.358.887.001.301.118.59.327.806.217.238.544.356.98.356zM248.565 92.143c0 .338.007.676.02 1.014.014.338.034.607.061.806h-2.588a3.514 3.514 0 01-.071-.489 7.383 7.383 0 01-.03-.674 2.781 2.781 0 01-1.073 1 3.502 3.502 0 01-1.746.408 4.844 4.844 0 01-1.98-.398 4.58 4.58 0 01-1.542-1.103 5.161 5.161 0 01-1.014-1.675 6.196 6.196 0 01-.01-4.175 5.153 5.153 0 01.99-1.665 4.835 4.835 0 014.605-1.395c.287.067.565.168.828.3.207.106.396.242.563.403.127.122.234.263.317.418v-5.743h2.67v12.968zm-7.595-3.227c0 .898.235 1.6.705 2.103a2.456 2.456 0 003.543 0c.477-.507.715-1.215.715-2.124 0-.898-.238-1.589-.715-2.073a2.488 2.488 0 00-3.521.01l-.001.001c-.481.491-.721 1.185-.721 2.083h-.005zM249.96 92.905a1.017 1.017 0 01.298-.737c.19-.2.455-.311.73-.306.576 0 1.042.467 1.042 1.042a.98.98 0 01-.306.73 1.017 1.017 0 01-.737.298 1.014 1.014 0 01-1.027-1.001v-.026zM253.375 81.955a1.482 1.482 0 112.964 0 1.482 1.482 0 01-2.964 0zm.236 11.993v-9.482h2.493v9.481l-2.493.001zM257.403 89.193c0-2.689 1.884-4.966 5.005-4.966 3.14 0 5.024 2.282 5.024 4.966s-1.884 4.986-5.025 4.986c-3.12.004-5.004-2.292-5.004-4.986zm7.44 0c0-1.472-.863-2.749-2.434-2.749-1.551 0-2.409 1.275-2.409 2.749 0 1.492.863 2.768 2.409 2.768 1.57.005 2.434-1.272 2.434-2.768z"/></g></svg>