<svg xmlns="http://www.w3.org/2000/svg" width="801" height="467"><path fill="#FFF" d="M801.5 45.5v417a6 6 0 01-6 6H6.5a6 6 0 01-6-6v-417"/><path fill="#666" d="M241.5 357.5h311v6h-311zM241.5 389.5h319v6h-319zM241.5 397.5h177v6h-177zM241.5 365.5h303v6h-303zM241.5 373.5h313v6h-313zM241.5 381.5h311v6h-311z"/><circle fill="#018F69" cx="205" cy="154.903" r="7.333"/><circle fill="#666" cx="205" cy="177.903" r="7.167"/><circle fill="#666" cx="205" cy="196.903" r="7.167"/><circle fill="#666" cx="205" cy="216.903" r="7.167"/><circle fill="none" stroke="#018F69" stroke-miterlimit="10" cx="205" cy="154.903" r="11"/><g><path fill="#1A1A1A" d="M241.5 117.5h241v11h-241z"/><path fill="#666" d="M241.5 135.5h319v6h-319zM241.5 143.5h303v6h-303zM241.5 151.5h190v6h-190z"/></g><g><path fill="#1C1B1A" d="M399.868 75.085c0 .321 0 .394.217.591l1.212 1.197v.051h-5.376v-2.299a3.74 3.74 0 01-3.565 2.496c-2.764 0-4.77-2.189-4.77-6.217 0-3.773 2.165-6.29 5.203-6.29a3.173 3.173 0 013.125 1.956v-5.071a.631.631 0 00-.245-.613l-1.155-1.124v-.052l5.355-.635v16.01zm-3.948-.729v-7.567a2.008 2.008 0 00-1.602-.759c-1.306 0-2.569 1.197-2.569 4.75 0 3.327 1.09 4.502 2.446 4.502a2.158 2.158 0 001.725-.926zm7.513 2.568V66.708a.693.693 0 00-.216-.613l-1.191-1.241v-.051h5.376v10.362c0 .321 0 .394.216.591l1.184 1.124v.051l-5.369-.007zm-.195-15.856c0-1.209.969-2.189 2.165-2.189 1.196 0 2.165.98 2.165 2.189s-.969 2.189-2.165 2.189c-1.196 0-2.165-.98-2.165-2.189zm18.67 13.995c0 .321 0 .416.216.613l1.212 1.197v.051h-5.405v-2.62a3.92 3.92 0 01-3.702 2.817c-2.396 0-3.681-1.766-3.681-5.108 0-1.613 0-3.379.051-5.363a.623.623 0 00-.216-.591l-1.191-1.204v-.051h5.333v6.662c0 2.189.318 3.649 1.674 3.649a2.16 2.16 0 001.746-1.102v-7.297a.691.691 0 00-.217-.613l-1.198-1.248v-.051h5.376v10.259zm18.301 1.861c0-.394.072-5.414.072-6.567 0-2.189-.339-3.7-1.862-3.7a2.41 2.41 0 00-1.912 1.051c.153.682.225 1.38.216 2.08 0 1.518-.051 3.452-.072 5.385a.621.621 0 00.217.591l1.212 1.124v.051h-5.427c0-.365.072-5.414.072-6.567 0-2.226-.339-3.7-1.84-3.7a2.162 2.162 0 00-1.79 1.08v7.443c0 .321 0 .394.216.591l1.184 1.124v.051h-5.369V66.745a.693.693 0 00-.216-.613l-1.191-1.277v-.051h5.376v2.598a3.858 3.858 0 013.854-2.795c1.79 0 3.002 1.007 3.515 2.919a4.19 4.19 0 014.041-2.919c2.396 0 3.753 1.788 3.753 5.166 0 1.613-.051 3.452-.072 5.385a.586.586 0 00.245.591l1.184 1.124v.051h-5.406zm-67.541-1.591l1.595 1.54v.051h-8.09v-.051l1.624-1.54a.624.624 0 00.216-.591v-9.844c0-.416 0-.978.072-1.459l-5.456 13.682h-.065l-5.651-12.587c-.123-.314-.159-.336-.238-.547v8.253a2.894 2.894 0 00.267 1.613l2.273 3.021v.051h-6.033v-.051l2.273-3.028c.24-.498.333-1.055.267-1.605V63.12a1.78 1.78 0 00-.375-1.248l-1.609-2.109v-.053h5.773l4.835 10.661 4.258-10.661h5.651v.051l-1.588 1.788a.631.631 0 00-.245.613v12.58a.589.589 0 00.246.591zm6.329-4.932v.051c0 3.123 1.595 4.378 3.464 4.378a3.929 3.929 0 003.681-2.255h.051c-.65 3.087-2.54 4.546-5.369 4.546-3.053 0-5.932-1.861-5.932-6.173 0-4.531 2.887-6.341 6.076-6.341 2.569 0 5.304 1.226 5.304 5.166v.628h-7.275zm0-.628h3.558v-.635c0-3.211-.657-4.064-1.645-4.064-1.198 0-1.927 1.277-1.927 4.699h.014z"/><path fill="#666" d="M.5 90.5h801v1H.5z"/><path fill="#018F69" d="M782.5 73.5a2 2 0 01-2 2h-52a2 2 0 01-2-2v-12a2 2 0 012-2h52a2 2 0 012 2v12z"/></g></svg>