<svg xmlns="http://www.w3.org/2000/svg" xmlns:xlink="http://www.w3.org/1999/xlink" width="801" height="467" x="0" y="0" enable-background="new 0 0 801 467" version="1.1" viewBox="0 0 801 467" xml:space="preserve"><g id="achtergrond" display="none"><rect width="900" height="600" x="-49.5" y="-70.5" fill="#3FA9F5" display="inline"/></g><g id="_x30_0_browser_window" display="none"><path fill="#CCC" d="M801.5,24.5H0.5v-18c0-2.761,2.261-5,5.05-5h790.899c2.79,0,5.051,2.239,5.051,5V24.5z" display="inline"/><circle cx="13.589" cy="14" r="4.709" fill="#E74C3C" display="inline" opacity=".71"/><circle cx="29" cy="14" r="4.709" fill="#F1C40F" display="inline" opacity=".71"/><circle cx="44.411" cy="14" r="4.709" fill="#2ECC71" display="inline" opacity=".71"/><path fill="#E6E6E6" d="M167.5,10.543c-0.396-1.189-1.343-2.043-3-2.043h-91c-1.657,0-2.604,0.896-3,2.043 l-4,12.427c-0.344,0.998-2,1.529-2,1.529h109c0,0-1.656-0.438-2-1.529L167.5,10.543z" display="inline"/><path fill="#F2F2F2" d="M801.5,462.433c0,3.351-2.508,6.067-5.603,6.067H6.102c-3.094,0-5.602-2.717-5.602-6.067 V45.5h801V462.433z" display="inline"/><rect width="801" height="21" x=".5" y="24.5" fill="#E6E6E6" display="inline"/></g><g id="_x30_3_Vue_documentation" display="none"><path id="bg_1_" fill="#FFF" d="M801.5,45.5v417c0,3.314-2.686,6-6,6H6.5c-3.314,0-6-2.686-6-6v-417" display="inline"/><g id="documentation" display="inline"><g id="alinea_3"><rect width="303" height="4" x="247.5" y="419.5" fill="#999"/><rect width="300" height="4" x="247.5" y="427.5" fill="#999"/><rect width="233" height="4" x="247.5" y="435.5" fill="#999"/><rect width="303" height="4" x="247.5" y="451.5" fill="#999"/><rect width="293" height="4" x="247.5" y="443.5" fill="#999"/></g><g id="alinea_2_1_"><rect width="307" height="4" x="247.5" y="360.5" fill="#999"/><rect width="303" height="4" x="247.5" y="392.5" fill="#999"/><rect width="187" height="4" x="247.5" y="400.5" fill="#999"/><rect width="303" height="4" x="247.5" y="368.5" fill="#999"/><rect width="305" height="4" x="247.5" y="376.5" fill="#999"/><rect width="293" height="4" x="247.5" y="384.5" fill="#999"/></g><g id="alinea_1_1_"><rect width="303" height="4" x="247.5" y="138.5" fill="#999"/><rect width="300" height="4" x="247.5" y="146.5" fill="#999"/><rect width="233" height="4" x="247.5" y="154.5" fill="#999"/></g><g id="titel__x2B__ondertitel"><rect width="241" height="14" x="247.5" y="91.5" fill="#35495E"/><rect width="104" height="8" x="247.5" y="113.5" fill="#4D4D4D"/><rect width="307" height="2" x="247.5" y="130.5" fill="#4D4D4D"/></g></g><g id="sidebar" display="inline"><g id="navigation_1_"><g id="blok_3_4_"><g id="onderwerpen_2_"><rect width="56" height="4" x="21.5" y="345.5" fill="#999"/><rect width="64" height="4" x="21.5" y="337.5" fill="#999"/><rect width="65" height="4" x="21.5" y="361.5" fill="#999"/><rect width="66" height="4" x="21.5" y="353.5" fill="#999"/><rect width="69" height="4" x="21.5" y="321.5" fill="#999"/><rect width="59" height="4" x="21.5" y="329.5" fill="#999"/></g><g id="titel_2_"><rect width="97" height="6" x="10.5" y="308.5" fill="#35495E"/></g></g><g id="blok_2_4_"><g id="onderwerpen_1_"><rect width="54" height="4" x="21.5" y="288.5" fill="#999"/><rect width="50" height="4" x="21.5" y="240.5" fill="#999"/><rect width="56" height="4" x="21.5" y="256.5" fill="#999"/><rect width="64" height="4" x="21.5" y="248.5" fill="#999"/><rect width="65" height="4" x="21.5" y="232.5" fill="#999"/><rect width="66" height="4" x="21.5" y="264.5" fill="#999"/><rect width="69" height="4" x="21.5" y="280.5" fill="#999"/><rect width="59" height="4" x="21.5" y="272.5" fill="#999"/></g><g id="titel_1_"><rect width="57" height="6" x="10.5" y="219.5" fill="#35495E"/></g></g><g id="blok_1_4_"><g id="onderwerpen"><rect width="54" height="4" x="21.5" y="104.5" fill="#999"/><rect width="50" height="4" x="21.5" y="112.5" fill="#999"/><rect width="56" height="4" x="21.5" y="128.5" fill="#999"/><rect width="64" height="4" x="21.5" y="120.5" fill="#999"/><rect width="54" height="3" x="34.5" y="169.5" fill="#4D4D4D"/><rect width="50" height="3" x="34.5" y="153.5" fill="#41B883"/><rect width="56" height="3" x="34.5" y="177.5" fill="#4D4D4D"/><rect width="56" height="3" x="34.5" y="185.5" fill="#4D4D4D"/><rect width="64" height="3" x="34.5" y="161.5" fill="#4D4D4D"/><rect width="65" height="4" x="21.5" y="200.5" fill="#999"/><rect width="66" height="4" x="21.5" y="136.5" fill="#999"/><rect width="69" height="4" x="21.5" y="192.5" fill="#999"/><rect width="59" height="4" x="21.5" y="144.5" fill="#41B883"/></g><g id="titel"><rect width="83" height="6" x="10.5" y="91.5" fill="#35495E"/></g></g></g><g id="scrollbar"><rect width="4" height="389" x="120.5" y="79.5" fill="#CCC"/><rect width="4" height="132" x="120.5" y="84.5" fill="gray"/></g></g><g id="header_10_" display="inline"><rect width="800" height="1" x="1" y="78" stroke="#CCC" stroke-miterlimit="10"/><g id="logo"><g><polygon fill="#41B883" points="21.148 51.5 26.234 51.5 33.5 64.169 40.902 51.5 45.852 51.5 33.5 72.66"/><polygon fill="#35495E" points="30.73 51.5 33.511 56.336 36.315 51.5 40.947 51.5 33.5 64.169 26.234 51.5"/></g><rect width="28" height="11" x="49.5" y="56.5" fill="#35495E"/></g><g id="navigation"><rect width="28" height="6" x="758.5" y="58.5" fill="#35495E"/><rect width="38" height="6" x="708.5" y="58.5" fill="#35495E"/><rect width="33" height="6" x="627.5" y="58.5" fill="#35495E"/><rect width="22" height="6" x="673.5" y="58.5" fill="#35495E"/><rect width="26" height="6" x="589.5" y="58.5" fill="#35495E"/></g></g></g><g id="_x30_2_Egghead" display="none"><path id="bg_2_" fill="#171E27" d="M801.5,45.5v417c0,3.314-2.686,6-6,6H6.5c-3.314,0-6-2.686-6-6v-417" display="inline"/><g id="description" display="inline"><path fill="#FFF" d="M137.5,468.5v-110c0-1.105,0.867-2,2.249-2h394.247c1.382,0,2.503,0.895,2.503,2v110H137.5z"/><rect width="251" height="11" x="186.5" y="370.5" fill="#273040"/><rect width="274" height="4" x="186.5" y="412.5" fill="#273040"/><rect width="262" height="4" x="186.5" y="420.5" fill="#273040"/><rect width="266" height="4" x="186.5" y="428.5" fill="#273040"/><rect width="274" height="4" x="186.5" y="444.5" fill="#273040"/><rect width="262" height="4" x="186.5" y="436.5" fill="#273040"/><rect width="266" height="4" x="186.5" y="452.5" fill="#273040"/></g><g id="playlist" display="inline"><path fill="#FFF" d="M676.5,372.5c0,1.105-0.895,2-2,2h-111c-1.105,0-2-0.895-2-2v-240c0-1.105,0.895-2,2-2h111 c1.105,0,2,0.895,2,2V372.5z"/><g id="queue"><rect width="67" height="4" x="595.5" y="203.5" fill="#273040"/><rect width="9" height="9" x="570.5" y="201.5" fill="#273040"/><rect width="9" height="9" x="570.5" y="226.5" fill="#273040"/><rect width="9" height="9" x="570.5" y="249.5" fill="#273040"/><rect width="9" height="9" x="570.5" y="274.5" fill="#273040"/><rect width="67" height="4" x="595.5" y="228.5" fill="#273040"/><rect width="67" height="4" x="595.5" y="252.5" fill="#273040"/><rect width="67" height="4" x="595.5" y="277.5" fill="#273040"/><rect width="9" height="9" x="570.5" y="300.5" fill="#273040"/><rect width="9" height="9" x="570.5" y="325.5" fill="#273040"/><rect width="67" height="4" x="595.5" y="303.5" fill="#273040"/><rect width="67" height="4" x="595.5" y="328.5" fill="#273040"/></g><g id="wordt_nu_afgespeeld"><rect width="115" height="33" x="561.5" y="151.5" fill="#273040"/><polygon fill="#59CD90" points="570.5 163.141 579.732 168.471 570.5 173.801"/><rect width="67" height="4" x="595.5" y="166.5" fill="#FFF"/></g><g id="autoplay"><path fill="#CBCBCB" d="M668.5,141.5c0,1.657-1.343,3-3,3h-10c-1.657,0-3-1.343-3-3l0,0c0-1.657,1.343-3,3-3h10 C667.157,138.5,668.5,139.843,668.5,141.5L668.5,141.5z"/><circle cx="665.167" cy="141.5" r="4" fill="#59CD90"/></g></g><g id="header_5_" display="inline"><g id="Logo"><g><path fill="#FFF" d="M153.049,105.026c-6.628,0.008-12.096-5.188-12.425-11.808v-0.024c-1.21-0.152-2.204-1.031-2.503-2.214 c-0.347-1.359-0.816-3.392-0.874-5.344c-0.036-1.13,0.615-2.169,1.648-2.628c1.014-0.455,2.46-0.827,4.283-1.109 c1.021-2.357,2.224-4.406,3.497-5.95c1.983-2.401,4.127-3.618,6.374-3.618c2.247,0,4.389,1.217,6.368,3.618 c1.268,1.544,2.476,3.591,3.494,5.942c1.811,0.274,3.255,0.648,4.297,1.112c1.032,0.458,1.683,1.495,1.648,2.623 c-0.056,1.964-0.525,3.996-0.872,5.354c-0.299,1.184-1.294,2.064-2.507,2.215v0.023c-0.069,1.341-0.354,2.662-0.844,3.913 c-1.872,4.765-6.47,7.897-11.589,7.894L153.049,105.026z"/><path fill="#FFF" d="M153.041,74.398c5.756,0,10.423,12.373,10.423,18.13c0,5.757-4.667,10.424-10.424,10.424 c-5.757,0-10.424-4.667-10.424-10.424C142.618,86.771,147.285,74.398,153.041,74.398z"/><path fill="#FFF" d="M166.259,84.384l-4.252,1.5c0,0,0.658,2.001,0.664,2.016c0.006,0.015,4.236-0.545,4.236-0.545 L166.259,84.384z"/><path fill="#FFF" d="M139.825,84.384l4.252,1.5c0,0-0.658,2.001-0.664,2.016c-0.006,0.015-4.236-0.545-4.236-0.545 L139.825,84.384z"/><path fill="#FFF" d="M148.666,84.029c0.663-0.015,1.235,0.461,1.34,1.116c0.135,0.724,0.224,1.457,0.266,2.192 c0.004,0.206-0.015,0.412-0.056,0.614c-0.053-0.53-0.127-1.035-0.209-1.473c-0.105-0.655-0.677-1.131-1.34-1.116 c-1.598,0.016-3.194,0.137-4.776,0.363c0.15-0.465,0.311-0.932,0.483-1.395C145.798,84.144,147.231,84.043,148.666,84.029z"/><path fill="#FFF" d="M163.445,92.066c-3.754-0.194-6.961-1.395-7.684-1.824c-0.564-0.27-1.284-0.842-1.491-2.272 c-0.138,1.576,0.158,3.011,1.638,3.72c0.109,0.066,2.941,1.467,7.512,1.708c0.024-0.287,0.037-0.576,0.037-0.868 C163.455,92.379,163.452,92.224,163.445,92.066z"/><path fill="#FFF" d="M142.649,92.066c3.754-0.194,6.961-1.395,7.684-1.824c0.564-0.27,1.284-0.842,1.491-2.272 c0.138,1.576-0.158,3.011-1.638,3.72c-0.109,0.066-2.941,1.467-7.512,1.708c-0.024-0.287-0.037-0.576-0.037-0.868 C142.639,92.379,142.642,92.224,142.649,92.066z"/><path fill="#FFF" d="M157.407,84.029c-0.663-0.015-1.235,0.461-1.34,1.116c-0.135,0.724-0.224,1.457-0.266,2.192 c-0.004,0.206,0.015,0.412,0.056,0.614c0.053-0.53,0.127-1.035,0.209-1.473c0.105-0.655,0.677-1.131,1.34-1.116 c1.598,0.016,3.194,0.137,4.776,0.363c-0.15-0.465-0.311-0.932-0.483-1.395C160.275,84.144,158.842,84.043,157.407,84.029z"/><path d="M143.924,82.902c1.023-2.482,2.252-4.63,3.55-6.212c1.769-2.145,3.641-3.233,5.565-3.233 c1.923,0,3.796,1.088,5.565,3.232c1.303,1.58,2.536,3.727,3.55,6.212l0.049,0.127l-0.127-0.018 c-0.361-0.048-0.655-0.082-1.014-0.127h-0.044L161,82.842c-1.151-2.688-3.116-6.199-5.656-7.665 c-0.695-0.423-1.491-0.654-2.305-0.669c-0.814,0.015-1.609,0.246-2.305,0.669c-2.533,1.464-4.493,4.959-5.653,7.662 l-0.018,0.041h-0.044c-0.361,0.038-0.655,0.074-1.014,0.127l-0.127,0.018L143.924,82.902z"/><path fill="#FFF" d="M163.564,90.767c-0.283-0.008-0.568-0.019-0.848-0.035h-0.087l-0.011-0.087 c-0.254-1.977-0.822-4.29-1.61-6.514l-0.051-0.166l0.171,0.023c0.322,0.043,0.634,0.091,0.938,0.142l0.062,0.01l0.02,0.06 c0.761,2.22,1.3,4.511,1.53,6.451l0.014,0.127L163.564,90.767z"/><path fill="#FFF" d="M162.635,85.761c-0.152-0.521-0.317-1.042-0.493-1.561l-0.02-0.06l-0.062-0.01 c-0.299-0.051-0.615-0.099-0.938-0.142l-0.165-0.024l0.057,0.162c0.175,0.493,0.339,0.99,0.491,1.488 C162.046,85.677,162.351,85.721,162.635,85.761z"/><path fill="#FFF" d="M142.481,90.605c0.231-1.94,0.775-4.231,1.53-6.451l0.02-0.06l0.062-0.011 c0.299-0.051,0.615-0.099,0.938-0.142l0.171-0.023l-0.057,0.162c-0.787,2.224-1.359,4.536-1.61,6.514l-0.011,0.087h-0.087 c-0.281,0.016-0.567,0.028-0.848,0.035h-0.127L142.481,90.605z"/><path fill="#FFF" d="M144.094,84.083l-0.062,0.01l-0.02,0.06c-0.176,0.519-0.341,1.042-0.493,1.563 c0.529-0.067,0.682-0.06,1.125-0.106c0.156-0.507,0.323-1.023,0.507-1.529l0.057-0.162l-0.171,0.023 C144.709,83.986,144.393,84.034,144.094,84.083z"/><path d="M153.041,103.888c-4.669,0-8.863-2.855-10.575-7.199c-0.575-1.472-0.841-3.047-0.781-4.626v-0.071h0.071 c0.37-0.009,0.624-0.019,0.887-0.033h0.082v0.082c-0.068,1.443,0.166,2.884,0.688,4.231c2.066,5.312,8.047,7.944,13.359,5.879 c1.4-0.544,2.665-1.388,3.705-2.472c0.944-0.979,1.683-2.137,2.174-3.405c0.522-1.347,0.757-2.788,0.688-4.231V91.96h0.082 c0.369,0.019,0.623,0.027,0.887,0.033h0.071v0.071c0.065,1.577-0.195,3.15-0.763,4.623c-1.708,4.347-5.904,7.205-10.575,7.203 L153.041,103.888z"/><path d="M142.762,93.398c-0.037-0.453-0.046-0.908-0.028-1.362v-0.082h-0.082c-0.266,0.014-0.52,0.024-0.887,0.033h-0.071v0.071 c-0.016,0.455-0.005,0.911,0.03,1.365h0.034c0.342,0,0.677-0.015,0.995-0.03L142.762,93.398z"/><path d="M164.391,91.992h-0.071c-0.269,0-0.522-0.014-0.887-0.033h-0.082v0.082c0.018,0.45,0.009,0.9-0.027,1.349l1.04,0.044 c0.036-0.454,0.046-0.91,0.03-1.365L164.391,91.992z"/><path d="M164.977,92.224c-2.173,0.008-4.338-0.27-6.438-0.827c-0.904-0.238-1.784-0.558-2.631-0.955l-0.02-0.015 c-1.775-0.848-1.84-2.55-1.675-4.1c0.042-0.392-0.101-0.91-0.515-1.185c-0.394-0.263-0.907-0.263-1.301,0 c-0.413,0.274-0.557,0.791-0.515,1.182c0.165,1.552,0.095,3.253-1.675,4.102l-0.02,0.01c-0.846,0.4-1.727,0.723-2.631,0.965 c-2.1,0.557-4.265,0.835-6.438,0.827h-0.01c-0.902-0.011-1.683-0.628-1.902-1.502c-0.337-1.302-0.786-3.252-0.838-5.082 c-0.024-0.732,0.398-1.406,1.068-1.705c2.444-1.084,7.392-1.492,9.501-1.464c0.736-0.005,1.443,0.287,1.96,0.81 c0.675-0.316,1.41-0.486,2.155-0.497c0.745,0.011,1.48,0.18,2.155,0.496c0.513-0.52,1.214-0.812,1.945-0.809 c1.268-0.019,6.72,0.217,9.509,1.458c0.668,0.296,1.09,0.967,1.068,1.698c-0.052,1.833-0.507,3.793-0.833,5.093 c-0.219,0.875-1,1.491-1.902,1.502H164.977z M157.419,84.11c-0.626-0.014-1.167,0.435-1.268,1.054 c-0.134,0.721-0.223,1.45-0.266,2.182c-0.01,0.837,0.29,1.41,0.887,1.703c2.235,0.997,4.833,1.49,7.942,1.505 c0.238-0.001,0.446-0.162,0.507-0.393c0.295-1.155,0.694-2.872,0.739-4.45c0.005-0.151-0.082-0.29-0.221-0.351 c-2.121-0.953-6.665-1.279-8.321-1.254V84.11z M140.342,85.356c-0.138,0.061-0.226,0.2-0.221,0.351 c0.046,1.575,0.444,3.296,0.739,4.45c0.06,0.231,0.268,0.393,0.507,0.393c3.111-0.015,5.705-0.507,7.948-1.506 c0.598-0.292,0.898-0.866,0.887-1.705c-0.043-0.731-0.133-1.459-0.268-2.179c-0.1-0.618-0.642-1.068-1.268-1.054 C147.704,84.091,142.744,84.286,140.342,85.356z"/><path fill="#FFF" d="M183.074,91.081c-0.125,0.441-0.322,0.858-0.582,1.235c-0.265,0.389-0.593,0.732-0.97,1.014 c-0.406,0.299-0.858,0.53-1.338,0.685c-0.544,0.175-1.113,0.26-1.685,0.254c-0.676,0.003-1.348-0.118-1.98-0.358 c-0.616-0.233-1.177-0.591-1.648-1.051c-0.489-0.482-0.875-1.059-1.133-1.695c-0.289-0.72-0.431-1.491-0.418-2.267 c-0.01-0.748,0.128-1.491,0.408-2.185c0.251-0.621,0.623-1.187,1.093-1.665c0.453-0.454,0.99-0.815,1.582-1.062 c0.588-0.25,1.22-0.38,1.859-0.38c1.565,0,2.784,0.465,3.655,1.395c0.871,0.93,1.305,2.201,1.3,3.812 c0,0.191-0.007,0.371-0.02,0.541c-0.014,0.17-0.02,0.268-0.02,0.295h-7.187c0.011,0.317,0.091,0.627,0.235,0.909 c0.138,0.273,0.325,0.519,0.552,0.725c0.23,0.208,0.496,0.371,0.786,0.481c0.306,0.117,0.632,0.176,0.96,0.174 c0.64,0,1.14-0.143,1.501-0.429c0.361-0.286,0.633-0.669,0.786-1.103L183.074,91.081z M180.539,87.793 c-0.014-0.248-0.066-0.493-0.153-0.725c-0.088-0.238-0.228-0.455-0.408-0.634c-0.2-0.194-0.436-0.347-0.695-0.449 c-0.315-0.122-0.652-0.181-0.99-0.174c-0.323-0.006-0.643,0.056-0.939,0.184c-0.258,0.113-0.494,0.273-0.695,0.47 c-0.184,0.182-0.333,0.397-0.439,0.634c-0.1,0.22-0.159,0.457-0.175,0.699L180.539,87.793z"/><path fill="#FFF" d="M186.713,93.858c0.082,0.532,0.352,1.018,0.761,1.368c0.408,0.353,0.939,0.53,1.592,0.531 c0.857,0,1.517-0.221,1.98-0.663c0.463-0.442,0.695-1.153,0.695-2.134v-0.735c-0.256,0.373-0.599,0.678-1,0.887 c-0.463,0.265-1.062,0.398-1.797,0.398c-0.638,0.006-1.271-0.119-1.859-0.368c-0.558-0.235-1.062-0.583-1.481-1.021 c-0.422-0.447-0.755-0.97-0.98-1.542c-0.473-1.235-0.476-2.601-0.01-3.839c0.221-0.575,0.546-1.105,0.96-1.562 c0.411-0.45,0.91-0.81,1.466-1.059c0.599-0.265,1.247-0.397,1.902-0.388c0.803,0,1.437,0.143,1.902,0.429 c0.465,0.286,0.785,0.599,0.96,0.939v-1.188h2.613v8.964c0.003,0.675-0.097,1.346-0.297,1.991 c-0.382,1.285-1.323,2.328-2.562,2.839c-0.667,0.292-1.47,0.439-2.409,0.439c-0.642,0.008-1.281-0.091-1.889-0.295 c-0.536-0.181-1.039-0.45-1.486-0.796c-0.41-0.32-0.757-0.715-1.021-1.164c-0.251-0.421-0.417-0.887-0.489-1.372L186.713,93.858 z M189.408,91.183c0.641,0.022,1.262-0.231,1.705-0.695c0.442-0.462,0.663-1.082,0.663-1.859s-0.231-1.392-0.694-1.846 c-0.441-0.447-1.046-0.695-1.675-0.685c-0.325-0.003-0.647,0.056-0.95,0.174c-0.287,0.113-0.546,0.286-0.761,0.507 c-0.221,0.232-0.394,0.506-0.507,0.806c-0.126,0.332-0.188,0.685-0.184,1.041c0,0.789,0.224,1.412,0.673,1.869 C188.136,90.955,188.762,91.204,189.408,91.183z"/><path fill="#FFF" d="M198.133,93.858c0.082,0.532,0.352,1.018,0.761,1.368c0.408,0.353,0.939,0.53,1.592,0.531 c0.857,0,1.517-0.221,1.98-0.663c0.463-0.442,0.695-1.153,0.695-2.134v-0.735c-0.256,0.373-0.599,0.678-1,0.887 c-0.463,0.265-1.062,0.398-1.797,0.398c-0.638,0.006-1.271-0.119-1.859-0.368c-0.558-0.235-1.062-0.583-1.481-1.021 c-0.422-0.447-0.755-0.97-0.98-1.542c-0.473-1.235-0.476-2.601-0.01-3.839c0.221-0.575,0.546-1.105,0.96-1.562 c0.41-0.45,0.909-0.81,1.464-1.059c0.599-0.265,1.247-0.397,1.902-0.388c0.803,0,1.437,0.143,1.902,0.429 c0.465,0.286,0.785,0.599,0.96,0.939v-1.188h2.613v8.964c0.003,0.675-0.097,1.346-0.297,1.991 c-0.382,1.285-1.323,2.328-2.562,2.839c-0.667,0.292-1.47,0.439-2.409,0.439c-0.642,0.008-1.281-0.091-1.889-0.295 c-0.536-0.181-1.038-0.45-1.485-0.796c-0.41-0.32-0.757-0.715-1.021-1.164c-0.251-0.421-0.418-0.887-0.491-1.372L198.133,93.858 z M200.828,91.183c0.641,0.022,1.262-0.231,1.705-0.695c0.442-0.462,0.663-1.082,0.663-1.859s-0.232-1.392-0.695-1.846 c-0.441-0.447-1.046-0.695-1.675-0.685c-0.324-0.001-0.645,0.059-0.947,0.177c-0.287,0.113-0.546,0.286-0.761,0.507 c-0.221,0.232-0.394,0.506-0.507,0.806c-0.126,0.332-0.188,0.685-0.184,1.041c0,0.789,0.224,1.412,0.673,1.869 c0.456,0.457,1.081,0.704,1.726,0.683H200.828z"/><path fill="#FFF" d="M209.879,93.96h-2.433V79.177h2.433v5.579c0.327-0.394,0.758-0.688,1.245-0.847 c0.473-0.164,0.97-0.25,1.471-0.254c0.571-0.013,1.138,0.095,1.663,0.317c0.445,0.193,0.843,0.483,1.164,0.847 c0.315,0.37,0.548,0.802,0.685,1.268c0.152,0.503,0.227,1.026,0.224,1.552v6.322h-2.716V88.1 c0.018-0.512-0.136-1.015-0.439-1.429c-0.292-0.381-0.765-0.572-1.419-0.572c-0.572,0-1.021,0.187-1.348,0.562 c-0.333,0.39-0.52,0.882-0.531,1.395V93.96z"/><path fill="#FFF" d="M227.211,91.081c-0.125,0.441-0.322,0.858-0.582,1.235c-0.265,0.389-0.593,0.732-0.97,1.014 c-0.406,0.299-0.858,0.53-1.338,0.685c-0.544,0.175-1.113,0.26-1.685,0.254c-0.676,0.003-1.348-0.118-1.98-0.358 c-0.616-0.233-1.177-0.591-1.648-1.051c-0.489-0.482-0.875-1.059-1.133-1.695c-0.289-0.72-0.431-1.491-0.418-2.267 c-0.01-0.748,0.128-1.491,0.408-2.185c0.251-0.621,0.623-1.187,1.093-1.665c0.453-0.454,0.99-0.815,1.582-1.062 c0.588-0.25,1.22-0.38,1.859-0.38c1.565,0,2.784,0.465,3.655,1.395c0.871,0.93,1.305,2.201,1.301,3.812 c0,0.191-0.007,0.371-0.02,0.541c-0.014,0.17-0.02,0.268-0.02,0.295h-7.189c0.011,0.317,0.091,0.627,0.235,0.909 c0.138,0.273,0.325,0.519,0.552,0.725c0.23,0.208,0.496,0.371,0.786,0.481c0.306,0.117,0.632,0.176,0.96,0.174 c0.64,0,1.14-0.143,1.501-0.429c0.361-0.286,0.633-0.669,0.786-1.103L227.211,91.081z M224.679,87.798 c-0.014-0.248-0.066-0.493-0.153-0.725c-0.088-0.238-0.228-0.455-0.408-0.634c-0.2-0.194-0.436-0.347-0.695-0.449 c-0.315-0.122-0.652-0.181-0.99-0.174c-0.323-0.006-0.643,0.056-0.939,0.184c-0.258,0.112-0.493,0.27-0.694,0.467 c-0.184,0.182-0.333,0.397-0.439,0.634c-0.099,0.219-0.158,0.454-0.174,0.694L224.679,87.798z"/><path fill="#FFF" d="M228.255,91.221c-0.021-0.794,0.298-1.56,0.877-2.103c0.276-0.261,0.598-0.469,0.95-0.612 c0.377-0.154,0.771-0.264,1.174-0.327l2.471-0.368c0.286-0.041,0.483-0.125,0.592-0.254c0.109-0.128,0.167-0.292,0.164-0.46 c0.001-0.353-0.152-0.688-0.418-0.919c-0.279-0.259-0.705-0.388-1.277-0.388c-0.599,0-1.059,0.163-1.378,0.489 c-0.309,0.305-0.501,0.709-0.541,1.141l-2.409-0.507c0.047-0.414,0.172-0.816,0.368-1.184c0.21-0.403,0.494-0.763,0.837-1.062 c0.386-0.33,0.829-0.588,1.307-0.761c0.576-0.207,1.185-0.308,1.797-0.297c0.687-0.016,1.372,0.091,2.021,0.317 c0.507,0.177,0.97,0.459,1.359,0.829c0.345,0.34,0.605,0.756,0.761,1.215c0.157,0.467,0.236,0.957,0.235,1.449v4.945 c0,0.272,0.014,0.561,0.041,0.867c0.027,0.306,0.055,0.548,0.082,0.725h-2.496c-0.034-0.186-0.057-0.373-0.071-0.562 c-0.02-0.238-0.03-0.453-0.03-0.643c-0.29,0.424-0.67,0.78-1.113,1.041c-0.483,0.299-1.099,0.449-1.847,0.449 c-0.492,0.008-0.981-0.078-1.44-0.254c-0.403-0.154-0.774-0.382-1.093-0.673c-0.292-0.269-0.525-0.596-0.683-0.96 C228.335,91.997,228.255,91.611,228.255,91.221z M232.278,92.222c0.279,0.001,0.558-0.036,0.827-0.112 c0.262-0.073,0.503-0.206,0.705-0.388c0.214-0.199,0.382-0.443,0.489-0.715c0.134-0.355,0.196-0.734,0.184-1.113v-0.448 l-2.267,0.347c-0.325,0.043-0.632,0.175-0.887,0.38c-0.238,0.197-0.358,0.493-0.358,0.887c0.001,0.301,0.118,0.59,0.327,0.806 c0.217,0.238,0.544,0.356,0.98,0.356V92.222z"/><path fill="#FFF" d="M248.565,92.143c0,0.338,0.007,0.676,0.02,1.014c0.014,0.338,0.034,0.607,0.061,0.806h-2.588 c-0.035-0.161-0.059-0.325-0.071-0.489c-0.02-0.218-0.03-0.443-0.03-0.674c-0.262,0.423-0.632,0.769-1.073,1 c-0.537,0.285-1.138,0.426-1.746,0.408c-0.681,0.008-1.356-0.128-1.98-0.398c-0.585-0.256-1.111-0.632-1.542-1.103 c-0.442-0.489-0.786-1.057-1.014-1.675c-0.486-1.349-0.49-2.824-0.01-4.175c0.222-0.613,0.558-1.178,0.99-1.665 c1.178-1.25,2.931-1.781,4.605-1.395c0.287,0.067,0.565,0.168,0.828,0.3c0.207,0.106,0.396,0.242,0.563,0.403 c0.127,0.122,0.234,0.263,0.317,0.418v-5.743h2.67V92.143z M240.97,88.916c0,0.898,0.235,1.6,0.705,2.103 c0.939,0.978,2.492,1.01,3.471,0.072c0.024-0.023,0.048-0.047,0.072-0.072c0.477-0.507,0.715-1.215,0.715-2.124 c0-0.898-0.238-1.589-0.715-2.073c-0.975-0.97-2.552-0.966-3.521,0.01l-0.001,0.001c-0.481,0.491-0.721,1.185-0.721,2.083 H240.97z"/><path fill="#FFF" d="M249.96,92.905c-0.005-0.276,0.103-0.542,0.298-0.737c0.19-0.2,0.455-0.311,0.73-0.306 c0.576,0,1.042,0.467,1.042,1.042c0.005,0.276-0.106,0.541-0.306,0.73c-0.195,0.195-0.461,0.303-0.737,0.298 c-0.56,0.007-1.02-0.441-1.027-1.001c0-0.009,0-0.017,0-0.026L249.96,92.905z"/><path fill="#FFF" d="M253.375,81.955c0-0.819,0.664-1.482,1.482-1.482s1.482,0.664,1.482,1.482 c0,0.819-0.664,1.482-1.482,1.482S253.375,82.773,253.375,81.955z M253.611,93.948v-9.482h2.493v9.481L253.611,93.948z"/><path fill="#FFF" d="M257.403,89.193c0-2.689,1.884-4.966,5.005-4.966c3.14,0,5.024,2.282,5.024,4.966 c0,2.684-1.884,4.986-5.025,4.986C259.287,94.183,257.403,91.887,257.403,89.193z M264.843,89.193 c0-1.472-0.863-2.749-2.434-2.749c-1.551,0-2.409,1.275-2.409,2.749c0,1.492,0.863,2.768,2.409,2.768 C263.979,91.966,264.843,90.689,264.843,89.193z"/></g></g></g></g><g id="_x30_1_Medium"><g id="background_2_"><path fill="#FFF" d="M801.5,45.5v417c0,3.314-2.686,6-6,6H6.5c-3.314,0-6-2.686-6-6v-417"/></g><g id="Laag_36"><g id="alinea_2"><rect width="311" height="6" x="241.5" y="357.5" fill="#666"/><rect width="319" height="6" x="241.5" y="389.5" fill="#666"/><rect width="177" height="6" x="241.5" y="397.5" fill="#666"/><rect width="303" height="6" x="241.5" y="365.5" fill="#666"/><rect width="313" height="6" x="241.5" y="373.5" fill="#666"/><rect width="311" height="6" x="241.5" y="381.5" fill="#666"/><circle cx="205" cy="154.903" r="7.333" fill="#018F69"/><circle cx="205" cy="177.903" r="7.167" fill="#666"/><circle cx="205" cy="196.903" r="7.167" fill="#666"/><circle cx="205" cy="216.903" r="7.167" fill="#666"/><circle cx="205" cy="154.903" r="11" fill="none" stroke="#018F69" stroke-miterlimit="10"/></g><g id="alinea_1"><rect width="241" height="11" x="241.5" y="117.5" fill="#1A1A1A"/><rect width="319" height="6" x="241.5" y="135.5" fill="#666"/><rect width="303" height="6" x="241.5" y="143.5" fill="#666"/><rect width="190" height="6" x="241.5" y="151.5" fill="#666"/></g></g><g id="header_4_"><g id="Page-1"><g id="Wordmark_Black"><path id="Shape" fill="#1C1B1A" d="M399.868,75.085c0,0.321,0,0.394,0.217,0.591l1.212,1.197v0.051h-5.376v-2.299 c-0.541,1.515-1.972,2.517-3.565,2.496c-2.764,0-4.77-2.189-4.77-6.217c0-3.773,2.165-6.29,5.203-6.29 c1.347-0.086,2.6,0.699,3.125,1.956v-5.071c0.04-0.235-0.055-0.472-0.245-0.613l-1.155-1.124V59.71l5.355-0.635V75.085z M395.92,74.356v-7.567c-0.39-0.489-0.981-0.769-1.602-0.759c-1.306,0-2.569,1.197-2.569,4.75c0,3.327,1.09,4.502,2.446,4.502 C394.883,75.268,395.524,74.924,395.92,74.356z M403.433,76.924V66.708c0.034-0.228-0.047-0.458-0.216-0.613l-1.191-1.241 v-0.051h5.376v10.362c0,0.321,0,0.394,0.216,0.591l1.184,1.124v0.051L403.433,76.924z M403.238,61.068 c0-1.209,0.969-2.189,2.165-2.189c1.196,0,2.165,0.98,2.165,2.189s-0.969,2.189-2.165,2.189 C404.207,63.257,403.238,62.277,403.238,61.068L403.238,61.068z M421.908,75.063c0,0.321,0,0.416,0.216,0.613l1.212,1.197v0.051 h-5.405v-2.62c-0.492,1.656-1.992,2.797-3.702,2.817c-2.396,0-3.681-1.766-3.681-5.108c0-1.613,0-3.379,0.051-5.363 c0.04-0.222-0.043-0.449-0.216-0.591l-1.191-1.204v-0.051h5.333c0,0.073,0,6.341,0,6.662c0,2.189,0.318,3.649,1.674,3.649 c0.729-0.046,1.385-0.46,1.746-1.102v-7.297c0.034-0.228-0.047-0.458-0.217-0.613l-1.198-1.248v-0.051h5.376V75.063z M440.209,76.924c0-0.394,0.072-5.414,0.072-6.567c0-2.189-0.339-3.7-1.862-3.7c-0.766,0.024-1.476,0.414-1.912,1.051 c0.153,0.682,0.225,1.38,0.216,2.08c0,1.518-0.051,3.452-0.072,5.385c-0.04,0.222,0.043,0.449,0.217,0.591l1.212,1.124v0.051 h-5.427c0-0.365,0.072-5.414,0.072-6.567c0-2.226-0.339-3.7-1.84-3.7c-0.74,0.027-1.415,0.434-1.79,1.08v7.443 c0,0.321,0,0.394,0.216,0.591l1.184,1.124v0.051h-5.369V66.745c0.034-0.228-0.047-0.458-0.216-0.613l-1.191-1.277v-0.051h5.376 v2.598c0.498-1.715,2.087-2.867,3.854-2.795c1.79,0,3.002,1.007,3.515,2.919c0.569-1.763,2.207-2.946,4.041-2.919 c2.396,0,3.753,1.788,3.753,5.166c0,1.613-0.051,3.452-0.072,5.385c-0.042,0.229,0.054,0.461,0.245,0.591l1.184,1.124v0.051 H440.209z M372.668,75.333l1.595,1.54v0.051h-8.09v-0.051l1.624-1.54c0.173-0.143,0.256-0.369,0.216-0.591v-9.844 c0-0.416,0-0.978,0.072-1.459l-5.456,13.682h-0.065l-5.651-12.587c-0.123-0.314-0.159-0.336-0.238-0.547v8.253 c-0.068,0.552,0.025,1.113,0.267,1.613l2.273,3.021v0.051h-6.033v-0.051l2.273-3.028c0.24-0.498,0.333-1.055,0.267-1.605v-9.121 c0.037-0.449-0.097-0.896-0.375-1.248l-1.609-2.109V59.71h5.773l4.835,10.661l4.258-10.661h5.651v0.051l-1.588,1.788 c-0.19,0.141-0.285,0.378-0.245,0.613v12.58C372.381,74.971,372.477,75.203,372.668,75.333z M378.997,70.401v0.051 c0,3.123,1.595,4.378,3.464,4.378c1.561,0.054,3.005-0.831,3.681-2.255h0.051c-0.65,3.087-2.54,4.546-5.369,4.546 c-3.053,0-5.932-1.861-5.932-6.173c0-4.531,2.887-6.341,6.076-6.341c2.569,0,5.304,1.226,5.304,5.166c0,0.073,0,0.336,0,0.628 H378.997z M378.997,69.773h3.558c0-0.321,0-0.54,0-0.635c0-3.211-0.657-4.064-1.645-4.064c-1.198,0-1.927,1.277-1.927,4.699 H378.997z"/></g></g><rect width="801" height="1" x=".5" y="90.5" fill="#666"/><path fill="#018F69" d="M782.5,73.5c0,1.105-0.895,2-2,2h-52c-1.105,0-2-0.895-2-2v-12c0-1.105,0.895-2,2-2h52 c1.105,0,2,0.895,2,2V73.5z"/></g></g><g id="_x30_4_x5F_03_codesandbox_documentation" display="none"><g id="_x30_1_editor_3_" display="inline"><g id="background_4_"><path fill="#1C2022" d="M400.5,341.5H243.711c-1.321,0-2.211-1.248-2.211-2.569V193.5h159V341.5z"/><rect width="2.791" height="88.11" x="398.003" y="209.357" fill="#2E3233"/></g><g id="code_3_"><g id="blok_4_3_"><rect width="10.034" height="1.595" x="252.083" y="251.618" fill="#EDBE5F"/><rect width="59.753" height="1.595" x="275.606" y="251.618" fill="#EDBE5F"/><rect width="10.931" height="1.595" x="263.33" y="251.618" fill="#EC5F67"/></g><g id="blok_3_3_"><rect width="8.705" height="1.595" x="252.083" y="229.291" fill="#6099C1"/><rect width="6.844" height="1.595" x="255.804" y="232.481" fill="#EC5F67"/><rect width="25.333" height="1.595" x="263.778" y="232.481" fill="#AA759F"/><rect width="7.542" height="1.595" x="270.954" y="235.67" fill="#AA759F"/><rect width="23.058" height="1.595" x="279.726" y="235.67" fill="#99C794"/><rect width="9.502" height="1.595" x="260.19" y="235.67" fill="#EC5F67"/><rect width="4.419" height="1.595" x="260.19" y="238.86" fill="#EC5F67"/><rect width="68.242" height="1.595" x="265.772" y="238.86" fill="#CBCBCC"/><rect width="4.419" height="1.595" x="349.097" y="238.86" fill="#EC5F67"/><rect width="12.858" height="1.595" x="335.077" y="238.86" fill="#99C794"/><rect width="6.844" height="1.595" x="255.804" y="242.049" fill="#EC5F67"/><rect width="9.701" height="1.595" x="262.117" y="229.291" fill="#EDBE5F"/><rect width="11.695" height="1.595" x="272.882" y="229.291" fill="#CBCBCC"/><rect width="2.675" height="1.595" x="252.15" y="245.239" fill="#CBCBCC"/></g><g id="blok_2_3_"><rect width="8.705" height="1.595" x="252.083" y="213.344" fill="#6099C1"/><rect width="10.349" height="1.595" x="261.718" y="213.344" fill="#EDBE5F"/><rect width="2.675" height="1.595" x="252.15" y="222.912" fill="#CBCBCC"/><rect width="5.465" height="1.595" x="272.882" y="213.344" fill="#CBCBCC"/><rect width="40.268" height="1.595" x="255.671" y="216.533" fill="#99C794"/><rect width="32.045" height="1.595" x="255.671" y="219.723" fill="#99C794"/></g><g id="blok_1_3_"><rect width="10.765" height="1.595" x="252.083" y="200.586" fill="#6099C1"/><rect width="10.765" height="1.595" x="252.083" y="203.775" fill="#6099C1"/><rect width="10.765" height="1.595" x="252.083" y="206.965" fill="#6099C1"/><rect width="9.701" height="1.595" x="263.712" y="200.586" fill="#EDBE5F"/><rect width="17.509" height="1.595" x="263.712" y="203.775" fill="#EDBE5F"/><rect width="9.701" height="1.595" x="263.712" y="206.965" fill="#EDBE5F"/></g><g id="regelnummers_3_"><rect width=".797" height=".797" x="248.694" y="223.311" fill="#5A5A5A"/><rect width=".797" height=".797" x="248.694" y="229.69" fill="#5A5A5A"/><rect width=".797" height=".797" x="248.694" y="220.121" fill="#5A5A5A"/><rect width=".797" height=".797" x="248.694" y="216.932" fill="#5A5A5A"/><rect width=".797" height=".797" x="248.694" y="213.742" fill="#5A5A5A"/><rect width=".797" height=".797" x="248.694" y="210.553" fill="#5A5A5A"/><rect width=".797" height=".797" x="248.694" y="207.363" fill="#5A5A5A"/><rect width=".797" height=".797" x="248.694" y="204.174" fill="#5A5A5A"/><rect width=".797" height=".797" x="248.694" y="200.984" fill="#5A5A5A"/><rect width=".797" height=".797" x="248.694" y="248.827" fill="#5A5A5A"/><rect width=".797" height=".797" x="248.694" y="245.637" fill="#5A5A5A"/><rect width=".797" height=".797" x="248.694" y="252.016" fill="#5A5A5A"/><rect width=".797" height=".797" x="248.694" y="242.448" fill="#5A5A5A"/><rect width=".797" height=".797" x="248.694" y="239.258" fill="#5A5A5A"/><rect width=".797" height=".797" x="248.694" y="236.069" fill="#5A5A5A"/><rect width=".797" height=".797" x="248.694" y="232.879" fill="#5A5A5A"/><rect width=".797" height=".797" x="248.694" y="226.5" fill="#5A5A5A"/></g></g><g id="header_9_"><rect width="159.476" height="10.765" x="241.319" y="183.442" fill="#24282A"/><g id="knoppen_3_"><path fill="#58A1D7" d="M370.892,191.814c0,0.44-0.357,0.797-0.797,0.797h-19.934c-0.44,0-0.797-0.357-0.797-0.797v-5.582 c0-0.44,0.357-0.797,0.797-0.797h19.934c0.44,0,0.797,0.357,0.797,0.797V191.814z"/><path fill="#191D1F" d="M396.01,191.814c0,0.44-0.357,0.797-0.797,0.797h-19.934c-0.44,0-0.797-0.357-0.797-0.797v-5.582 c0-0.44,0.357-0.797,0.797-0.797h19.934c0.44,0,0.797,0.357,0.797,0.797V191.814z"/></g></g></g><g id="_x30_2_preview_3_" display="inline"><g id="console_3_"><rect width="23.124" height="6.778" x="400.794" y="334.545" fill="#24282A"/><circle cx="418.548" cy="338.071" r="1.807" fill="#2ECC71" opacity=".71"/><path fill="#1C2022" d="M560.668,338.931c0,1.321-1.071,2.392-2.392,2.392H423.918v-6.778h136.75V338.931z"/></g><g id="preview_3_"><rect width="159.874" height="140.737" x="400.794" y="194.206" fill="#FFF"/><rect width="69.771" height="4.784" x="445.447" y="208.161"/><rect width="97.413" height="4.784" x="426.044" y="220.52"/><rect width="6.512" height="6.307" x="528.242" y="219.759" fill="#56A1D7"/></g><g id="header_8_"><rect width="159.874" height="10.765" x="400.794" y="183.442" fill="#F1F1F1"/><path fill="#CBCBCB" d="M535.95,191.017c0,0.44-0.357,0.797-0.797,0.797H423.519c-0.44,0-0.797-0.357-0.797-0.797v-4.386 c0-0.44,0.357-0.797,0.797-0.797h111.633c0.44,0,0.797,0.357,0.797,0.797V191.017z"/><path fill="#F6CB93" d="M557.5,191.703c0,0.44-0.357,0.797-0.797,0.797h-11.405c-0.44,0-0.797-0.357-0.797-0.797v-4.405 c0-0.44,0.357-0.797,0.797-0.797h11.405c0.44,0,0.797,0.357,0.797,0.797V191.703z"/><path fill="#FEFEFE" d="M556.5,190.953c0,0.532-0.357,0.547-0.797,0.547h-2.405c-0.44,0-0.797-0.015-0.797-0.547v-2.906 c0-0.532,0.357-0.547,0.797-0.547h2.405c0.44,0,0.797,0.015,0.797,0.547V190.953z"/></g></g><g id="_x30_3_header_3_" display="inline"><path fill="#1C2022" d="M241.319,183.442v-8.372c0-1.321,1.071-2.392,2.392-2.392h314.565c1.321,0,2.392,1.071,2.392,2.392v8.372 H241.319z"/><path fill="#41B883" d="M391.5,180.703c0,0.44-0.357,0.797-0.797,0.797h-9.405c-0.44,0-0.797-0.357-0.797-0.797v-4.405 c0-0.44,0.357-0.797,0.797-0.797h9.405c0.44,0,0.797,0.357,0.797,0.797V180.703z"/><path fill="#41B883" d="M400.5,181.5h-4.49c-0.44,0-0.51-0.807-0.51-1.248v-4.386c0-0.44,0.07-0.367,0.51-0.367h4.49V181.5z"/><path fill="#FFD399" d="M400.794,181.05h4.784c0.44,0,0.797-0.357,0.797-0.797v-4.386c0-0.44-0.357-0.797-0.797-0.797h-4.784 V181.05z"/><path fill="#FFD399" d="M421.526,180.252c0,0.44-0.357,0.797-0.797,0.797h-9.569c-0.44,0-0.797-0.357-0.797-0.797v-4.386 c0-0.44,0.357-0.797,0.797-0.797h9.569c0.44,0,0.797,0.357,0.797,0.797V180.252z"/></g></g><g id="_x30_4_x5F_02_codesandbox_egghead" display="none"><g id="_x30_1_editor_1_" display="inline"><g id="background_3_"><path fill="#1C2022" d="M336.5,341.5H140.227c-1.652,0-2.727-1.561-2.727-3.214V156.5h199V341.5z"/><rect width="3.491" height="110.206" x="333.212" y="176.219" fill="#2E3233"/></g><g id="code_2_"><g id="blok_4_2_"><rect width="12.55" height="1.995" x="150.699" y="229.078" fill="#EDBE5F"/><rect width="74.738" height="1.995" x="180.12" y="229.078" fill="#EDBE5F"/><rect width="13.672" height="1.995" x="164.766" y="229.078" fill="#EC5F67"/></g><g id="blok_3_2_"><rect width="10.888" height="1.995" x="150.699" y="201.152" fill="#6099C1"/><rect width="8.56" height="1.995" x="155.353" y="205.142" fill="#EC5F67"/><rect width="31.686" height="1.995" x="165.327" y="205.142" fill="#AA759F"/><rect width="9.433" height="1.995" x="174.303" y="209.131" fill="#AA759F"/><rect width="28.84" height="1.995" x="185.273" y="209.131" fill="#99C794"/><rect width="11.885" height="1.995" x="160.839" y="209.131" fill="#EC5F67"/><rect width="5.527" height="1.995" x="160.839" y="213.12" fill="#EC5F67"/><rect width="85.355" height="1.995" x="167.82" y="213.12" fill="#CBCBCC"/><rect width="5.527" height="1.995" x="272.042" y="213.12" fill="#EC5F67"/><rect width="16.082" height="1.995" x="254.505" y="213.12" fill="#99C794"/><rect width="8.56" height="1.995" x="155.353" y="217.11" fill="#EC5F67"/><rect width="12.134" height="1.995" x="163.249" y="201.152" fill="#EDBE5F"/><rect width="14.628" height="1.995" x="176.713" y="201.152" fill="#CBCBCC"/><rect width="3.345" height="1.995" x="150.782" y="221.099" fill="#CBCBCC"/></g><g id="blok_2_2_"><rect width="10.888" height="1.995" x="150.699" y="181.206" fill="#6099C1"/><rect width="12.945" height="1.995" x="162.75" y="181.206" fill="#EDBE5F"/><rect width="3.345" height="1.995" x="150.782" y="193.174" fill="#CBCBCC"/><rect width="6.836" height="1.995" x="176.713" y="181.206" fill="#CBCBCC"/><rect width="50.366" height="1.995" x="155.187" y="185.195" fill="#99C794"/><rect width="40.08" height="1.995" x="155.187" y="189.184" fill="#99C794"/></g><g id="blok_1_2_"><rect width="13.464" height="1.995" x="150.699" y="165.248" fill="#6099C1"/><rect width="13.464" height="1.995" x="150.699" y="169.238" fill="#6099C1"/><rect width="13.464" height="1.995" x="150.699" y="173.227" fill="#6099C1"/><rect width="12.134" height="1.995" x="165.243" y="165.248" fill="#EDBE5F"/><rect width="21.9" height="1.995" x="165.243" y="169.238" fill="#EDBE5F"/><rect width="12.134" height="1.995" x="165.243" y="173.227" fill="#EDBE5F"/></g><g id="regelnummers_2_"><rect width=".997" height=".997" x="146.46" y="193.672" fill="#5A5A5A"/><rect width=".997" height=".997" x="146.46" y="201.651" fill="#5A5A5A"/><rect width=".997" height=".997" x="146.46" y="189.683" fill="#5A5A5A"/><rect width=".997" height=".997" x="146.46" y="185.694" fill="#5A5A5A"/><rect width=".997" height=".997" x="146.46" y="181.704" fill="#5A5A5A"/><rect width=".997" height=".997" x="146.46" y="177.715" fill="#5A5A5A"/><rect width=".997" height=".997" x="146.46" y="173.726" fill="#5A5A5A"/><rect width=".997" height=".997" x="146.46" y="169.736" fill="#5A5A5A"/><rect width=".997" height=".997" x="146.46" y="165.747" fill="#5A5A5A"/><rect width=".997" height=".997" x="146.46" y="225.587" fill="#5A5A5A"/><rect width=".997" height=".997" x="146.46" y="221.598" fill="#5A5A5A"/><rect width=".997" height=".997" x="146.46" y="229.576" fill="#5A5A5A"/><rect width=".997" height=".997" x="146.46" y="217.608" fill="#5A5A5A"/><rect width=".997" height=".997" x="146.46" y="213.619" fill="#5A5A5A"/><rect width=".997" height=".997" x="146.46" y="209.63" fill="#5A5A5A"/><rect width=".997" height=".997" x="146.46" y="205.64" fill="#5A5A5A"/><rect width=".997" height=".997" x="146.46" y="197.662" fill="#5A5A5A"/></g></g><g id="header_7_"><path fill="#191D1F" d="M330.718,154.278c0,0.551-0.447,0.997-0.997,0.997h-24.933c-0.551,0-0.997-0.447-0.997-0.997v-6.981 c0-0.551,0.447-0.997,0.997-0.997h24.933c0.551,0,0.997,0.447,0.997,0.997V154.278z"/><g id="knoppen_2_"><rect width="199.467" height="13.464" x="137.235" y="143.806" fill="#24282A"/><path fill="#58A1D7" d="M299.302,154.278c0,0.551-0.447,0.997-0.997,0.997h-24.933c-0.551,0-0.997-0.447-0.997-0.997v-6.981 c0-0.551,0.447-0.997,0.997-0.997h24.933c0.551,0,0.997,0.447,0.997,0.997V154.278z"/></g></g></g><g id="_x30_2_preview_2_" display="inline"><g id="console_2_"><rect width="28.923" height="8.477" x="336.702" y="332.801" fill="#24282A"/><circle cx="358.909" cy="337.211" r="2.26" fill="#2ECC71" opacity=".71"/><path fill="#1C2022" d="M536.668,338.286c0,1.652-1.34,2.992-2.992,2.992H365.625v-8.477h171.043V338.286z"/></g><g id="preview_2_"><rect width="199.966" height="176.03" x="336.702" y="157.27" fill="#FFF"/><rect width="87.267" height="5.984" x="392.553" y="174.723"/><rect width="121.841" height="5.984" x="368.285" y="190.182"/><rect width="8.145" height="7.888" x="496.11" y="189.23" fill="#56A1D7"/></g><g id="header_6_"><rect width="199.966" height="13.464" x="336.702" y="143.806" fill="#F1F1F1"/><path fill="#CBCBCB" d="M505.751,153.28c0,0.551-0.447,0.997-0.997,0.997H365.126c-0.551,0-0.997-0.447-0.997-0.997v-5.485 c0-0.551,0.447-0.997,0.997-0.997h139.627c0.551,0,0.997,0.447,0.997,0.997V153.28z"/><path fill="#F6CB93" d="M532.5,154.503c0,0.551-0.447,0.997-0.997,0.997h-14.005c-0.551,0-0.997-0.447-0.997-0.997v-6.005 c0-0.551,0.447-0.997,0.997-0.997h14.005c0.551,0,0.997,0.447,0.997,0.997V154.503z"/><path fill="#FEFEFE" d="M531.5,153.2c0,0.666-0.492,0.3-1.043,0.3h-3.008c-0.551,0-0.949,0.366-0.949-0.3v-3.635 c0-0.666,0.398-1.065,0.949-1.065h3.008c0.551,0,1.043,0.4,1.043,1.065V153.2z"/></g></g><g id="_x30_3_header_2_" display="inline"><path fill="#1C2022" d="M137.235,143.806v-10.472c0-1.652,1.34-2.992,2.992-2.992h393.449c1.652,0,2.992,1.34,2.992,2.992v10.472 H137.235z"/><path fill="#58A1D7" d="M324.734,139.816c0,0.551-0.447,0.997-0.997,0.997h-11.968c-0.551,0-0.997-0.447-0.997-0.997v-5.485 c0-0.551,0.447-0.997,0.997-0.997h11.968c0.551,0,0.997,0.447,0.997,0.997V139.816z"/><path fill="#58A1D7" d="M336.702,140.814h-5.984c-0.551,0-0.997-0.447-0.997-0.997v-5.485c0-0.551,0.447-0.997,0.997-0.997h5.984 V140.814z"/><path fill="#FFD399" d="M336.702,140.814h5.984c0.551,0,0.997-0.447,0.997-0.997v-5.485c0-0.551-0.447-0.997-0.997-0.997h-5.984 V140.814z"/><path fill="#FFD399" d="M362.633,139.816c0,0.551-0.447,0.997-0.997,0.997h-11.968c-0.551,0-0.997-0.447-0.997-0.997v-5.485 c0-0.551,0.447-0.997,0.997-0.997h11.968c0.551,0,0.997,0.447,0.997,0.997V139.816z"/></g></g><g id="_x30_4_x5F_01_codesandbox_medium" display="none"><g id="_x30_1_editor_2_" display="inline"><g id="background_1_"><path fill="#1C2022" d="M400.5,341.5H243.711c-1.321,0-2.211-1.248-2.211-2.569V193.5h159V341.5z"/><rect width="2.791" height="88.11" x="398.003" y="209.357" fill="#2E3233"/></g><g id="code_1_"><g id="blok_4_1_"><rect width="10.034" height="1.595" x="252.083" y="251.618" fill="#EDBE5F"/><rect width="59.753" height="1.595" x="275.606" y="251.618" fill="#EDBE5F"/><rect width="10.931" height="1.595" x="263.33" y="251.618" fill="#EC5F67"/></g><g id="blok_3_1_"><rect width="8.705" height="1.595" x="252.083" y="229.291" fill="#6099C1"/><rect width="6.844" height="1.595" x="255.804" y="232.481" fill="#EC5F67"/><rect width="25.333" height="1.595" x="263.778" y="232.481" fill="#AA759F"/><rect width="7.542" height="1.595" x="270.954" y="235.67" fill="#AA759F"/><rect width="23.058" height="1.595" x="279.726" y="235.67" fill="#99C794"/><rect width="9.502" height="1.595" x="260.19" y="235.67" fill="#EC5F67"/><rect width="4.419" height="1.595" x="260.19" y="238.86" fill="#EC5F67"/><rect width="68.242" height="1.595" x="265.772" y="238.86" fill="#CBCBCC"/><rect width="4.419" height="1.595" x="349.097" y="238.86" fill="#EC5F67"/><rect width="12.858" height="1.595" x="335.077" y="238.86" fill="#99C794"/><rect width="6.844" height="1.595" x="255.804" y="242.049" fill="#EC5F67"/><rect width="9.701" height="1.595" x="262.117" y="229.291" fill="#EDBE5F"/><rect width="11.695" height="1.595" x="272.882" y="229.291" fill="#CBCBCC"/><rect width="2.675" height="1.595" x="252.15" y="245.239" fill="#CBCBCC"/></g><g id="blok_2_1_"><rect width="8.705" height="1.595" x="252.083" y="213.344" fill="#6099C1"/><rect width="10.349" height="1.595" x="261.718" y="213.344" fill="#EDBE5F"/><rect width="2.675" height="1.595" x="252.15" y="222.912" fill="#CBCBCC"/><rect width="5.465" height="1.595" x="272.882" y="213.344" fill="#CBCBCC"/><rect width="40.268" height="1.595" x="255.671" y="216.533" fill="#99C794"/><rect width="32.045" height="1.595" x="255.671" y="219.723" fill="#99C794"/></g><g id="blok_1_1_"><rect width="10.765" height="1.595" x="252.083" y="200.586" fill="#6099C1"/><rect width="10.765" height="1.595" x="252.083" y="203.775" fill="#6099C1"/><rect width="10.765" height="1.595" x="252.083" y="206.965" fill="#6099C1"/><rect width="9.701" height="1.595" x="263.712" y="200.586" fill="#EDBE5F"/><rect width="17.509" height="1.595" x="263.712" y="203.775" fill="#EDBE5F"/><rect width="9.701" height="1.595" x="263.712" y="206.965" fill="#EDBE5F"/></g><g id="regelnummers_1_"><rect width=".797" height=".797" x="248.694" y="223.311" fill="#5A5A5A"/><rect width=".797" height=".797" x="248.694" y="229.69" fill="#5A5A5A"/><rect width=".797" height=".797" x="248.694" y="220.121" fill="#5A5A5A"/><rect width=".797" height=".797" x="248.694" y="216.932" fill="#5A5A5A"/><rect width=".797" height=".797" x="248.694" y="213.742" fill="#5A5A5A"/><rect width=".797" height=".797" x="248.694" y="210.553" fill="#5A5A5A"/><rect width=".797" height=".797" x="248.694" y="207.363" fill="#5A5A5A"/><rect width=".797" height=".797" x="248.694" y="204.174" fill="#5A5A5A"/><rect width=".797" height=".797" x="248.694" y="200.984" fill="#5A5A5A"/><rect width=".797" height=".797" x="248.694" y="248.827" fill="#5A5A5A"/><rect width=".797" height=".797" x="248.694" y="245.637" fill="#5A5A5A"/><rect width=".797" height=".797" x="248.694" y="252.016" fill="#5A5A5A"/><rect width=".797" height=".797" x="248.694" y="242.448" fill="#5A5A5A"/><rect width=".797" height=".797" x="248.694" y="239.258" fill="#5A5A5A"/><rect width=".797" height=".797" x="248.694" y="236.069" fill="#5A5A5A"/><rect width=".797" height=".797" x="248.694" y="232.879" fill="#5A5A5A"/><rect width=".797" height=".797" x="248.694" y="226.5" fill="#5A5A5A"/></g></g><g id="header_2_"><rect width="159.476" height="10.765" x="241.319" y="183.442" fill="#24282A"/><g id="knoppen_1_"><path fill="#58A1D7" d="M370.892,191.814c0,0.44-0.357,0.797-0.797,0.797h-19.934c-0.44,0-0.797-0.357-0.797-0.797v-5.582 c0-0.44,0.357-0.797,0.797-0.797h19.934c0.44,0,0.797,0.357,0.797,0.797V191.814z"/><path fill="#191D1F" d="M396.01,191.814c0,0.44-0.357,0.797-0.797,0.797h-19.934c-0.44,0-0.797-0.357-0.797-0.797v-5.582 c0-0.44,0.357-0.797,0.797-0.797h19.934c0.44,0,0.797,0.357,0.797,0.797V191.814z"/></g></g></g><g id="_x30_2_preview_1_" display="inline"><g id="console_1_"><rect width="23.124" height="6.778" x="400.794" y="334.545" fill="#24282A"/><circle cx="418.548" cy="338.071" r="1.807" fill="#2ECC71" opacity=".71"/><path fill="#1C2022" d="M560.668,338.931c0,1.321-1.071,2.392-2.392,2.392H423.918v-6.778h136.75V338.931z"/></g><g id="preview_1_"><rect width="159.874" height="140.737" x="400.794" y="194.206" fill="#FFF"/><rect width="69.771" height="4.784" x="445.447" y="208.161"/><rect width="97.413" height="4.784" x="426.044" y="220.52"/><rect width="6.512" height="6.307" x="528.242" y="219.759" fill="#56A1D7"/></g><g id="header_3_"><rect width="159.874" height="10.765" x="400.794" y="183.442" fill="#F1F1F1"/><path fill="#CBCBCB" d="M535.95,191.017c0,0.44-0.357,0.797-0.797,0.797H423.519c-0.44,0-0.797-0.357-0.797-0.797v-4.386 c0-0.44,0.357-0.797,0.797-0.797h111.633c0.44,0,0.797,0.357,0.797,0.797V191.017z"/><path fill="#F6CB93" d="M557.5,191.703c0,0.44-0.357,0.797-0.797,0.797h-11.405c-0.44,0-0.797-0.357-0.797-0.797v-4.405 c0-0.44,0.357-0.797,0.797-0.797h11.405c0.44,0,0.797,0.357,0.797,0.797V191.703z"/><path fill="#FEFEFE" d="M556.5,190.953c0,0.532-0.357,0.547-0.797,0.547h-2.405c-0.44,0-0.797-0.015-0.797-0.547v-2.906 c0-0.532,0.357-0.547,0.797-0.547h2.405c0.44,0,0.797,0.015,0.797,0.547V190.953z"/></g></g><g id="_x30_3_header_1_" display="inline"><path fill="#1C2022" d="M241.319,183.442v-8.372c0-1.321,1.071-2.392,2.392-2.392h314.565c1.321,0,2.392,1.071,2.392,2.392v8.372 H241.319z"/><path fill="#58A1D7" d="M391.226,180.252c0,0.44-0.357,0.797-0.797,0.797h-9.569c-0.44,0-0.797-0.357-0.797-0.797v-4.386 c0-0.44,0.357-0.797,0.797-0.797h9.569c0.44,0,0.797,0.357,0.797,0.797V180.252z"/><path fill="#58A1D7" d="M400.794,181.05h-4.784c-0.44,0-0.797-0.357-0.797-0.797v-4.386c0-0.44,0.357-0.797,0.797-0.797h4.784 V181.05z"/><path fill="#FFD399" d="M400.794,181.05h4.784c0.44,0,0.797-0.357,0.797-0.797v-4.386c0-0.44-0.357-0.797-0.797-0.797h-4.784 V181.05z"/><path fill="#FFD399" d="M421.526,180.252c0,0.44-0.357,0.797-0.797,0.797h-9.569c-0.44,0-0.797-0.357-0.797-0.797v-4.386 c0-0.44,0.357-0.797,0.797-0.797h9.569c0.44,0,0.797,0.357,0.797,0.797V180.252z"/></g></g><g id="_x30_4_x5F_00_codesandbox" display="none"><g id="_x30_1_editor" display="inline"><g id="background"><path fill="#1C2022" d="M400.5,468.5H6.5c-3.314,0-6-2.686-6-6v-363h400V468.5z"/><rect width="7" height="221" x="393.5" y="137.5" fill="#2E3233"/></g><g id="code"><g id="blok_4"><rect width="25.167" height="4" x="27.5" y="243.5" fill="#EDBE5F"/><rect width="149.875" height="4" x="86.5" y="243.5" fill="#EDBE5F"/><rect width="27.417" height="4" x="55.708" y="243.5" fill="#EC5F67"/></g><g id="blok_3"><rect width="21.833" height="4" x="27.5" y="187.5" fill="#6099C1"/><rect width="17.167" height="4" x="36.833" y="195.5" fill="#EC5F67"/><rect width="63.542" height="4" x="56.833" y="195.5" fill="#AA759F"/><rect width="18.917" height="4" x="74.833" y="203.5" fill="#AA759F"/><rect width="57.833" height="4" x="96.833" y="203.5" fill="#99C794"/><rect width="23.833" height="4" x="47.833" y="203.5" fill="#EC5F67"/><rect width="11.083" height="4" x="47.833" y="211.5" fill="#EC5F67"/><rect width="171.167" height="4" x="61.833" y="211.5" fill="#CBCBCC"/><rect width="11.083" height="4" x="270.833" y="211.5" fill="#EC5F67"/><rect width="32.25" height="4" x="235.667" y="211.5" fill="#99C794"/><rect width="17.167" height="4" x="36.833" y="219.5" fill="#EC5F67"/><rect width="24.333" height="4" x="52.667" y="187.5" fill="#EDBE5F"/><rect width="29.333" height="4" x="79.667" y="187.5" fill="#CBCBCC"/><rect width="6.708" height="4" x="27.667" y="227.5" fill="#CBCBCC"/></g><g id="blok_2"><rect width="21.833" height="4" x="27.5" y="147.5" fill="#6099C1"/><rect width="25.958" height="4" x="51.667" y="147.5" fill="#EDBE5F"/><rect width="6.708" height="4" x="27.667" y="171.5" fill="#CBCBCC"/><rect width="13.708" height="4" x="79.667" y="147.5" fill="#CBCBCC"/><rect width="101" height="4" x="36.5" y="155.5" fill="#99C794"/><rect width="80.375" height="4" x="36.5" y="163.5" fill="#99C794"/></g><g id="blok_1"><rect width="27" height="4" x="27.5" y="115.5" fill="#6099C1"/><rect width="27" height="4" x="27.5" y="123.5" fill="#6099C1"/><rect width="27" height="4" x="27.5" y="131.5" fill="#6099C1"/><rect width="24.333" height="4" x="56.667" y="115.5" fill="#EDBE5F"/><rect width="43.917" height="4" x="56.667" y="123.5" fill="#EDBE5F"/><rect width="24.333" height="4" x="56.667" y="131.5" fill="#EDBE5F"/></g><g id="regelnummers"><rect width="2" height="2" x="19" y="172.5" fill="#5A5A5A"/><rect width="2" height="2" x="19" y="188.5" fill="#5A5A5A"/><rect width="2" height="2" x="19" y="164.5" fill="#5A5A5A"/><rect width="2" height="2" x="19" y="156.5" fill="#5A5A5A"/><rect width="2" height="2" x="19" y="148.5" fill="#5A5A5A"/><rect width="2" height="2" x="19" y="140.5" fill="#5A5A5A"/><rect width="2" height="2" x="19" y="132.5" fill="#5A5A5A"/><rect width="2" height="2" x="19" y="124.5" fill="#5A5A5A"/><rect width="2" height="2" x="19" y="116.5" fill="#5A5A5A"/><rect width="2" height="2" x="19" y="236.5" fill="#5A5A5A"/><rect width="2" height="2" x="19" y="228.5" fill="#5A5A5A"/><rect width="2" height="2" x="19" y="244.5" fill="#5A5A5A"/><rect width="2" height="2" x="19" y="220.5" fill="#5A5A5A"/><rect width="2" height="2" x="19" y="212.5" fill="#5A5A5A"/><rect width="2" height="2" x="19" y="204.5" fill="#5A5A5A"/><rect width="2" height="2" x="19" y="196.5" fill="#5A5A5A"/><rect width="2" height="2" x="19" y="180.5" fill="#5A5A5A"/></g></g><g id="header"><rect width="400" height="27" x=".5" y="72.5" fill="#24282A"/><g id="knoppen"><path fill="#58A1D7" d="M325.5,93.5c0,1.105-0.895,2-2,2h-50c-1.105,0-2-0.895-2-2v-14c0-1.105,0.895-2,2-2h50 c1.105,0,2,0.895,2,2V93.5z"/><path fill="#191D1F" d="M388.5,93.5c0,1.105-0.895,2-2,2h-50c-1.105,0-2-0.895-2-2v-14c0-1.105,0.895-2,2-2h50 c1.105,0,2,0.895,2,2V93.5z"/></g></g></g><g id="_x30_2_preview" display="inline"><g id="console"><rect width="58" height="17" x="400.5" y="451.5" fill="#24282A"/><circle cx="445.031" cy="459.344" r="4.531" fill="#2ECC71" opacity=".71"/><path fill="#1C2022" d="M801.5,462.5c0,3.314-2.686,6-6,6h-337v-17h343V462.5z"/></g><g id="preview"><rect width="401" height="353" x="400.5" y="98.5" fill="#FEFEFE"/><rect width="175" height="12" x="512.5" y="133.5"/><rect width="244.333" height="12" x="463.833" y="164.5"/><rect width="16.333" height="15.818" x="720.167" y="162.591" fill="#56A1D7"/></g><g id="header_1_"><rect width="401" height="27" x="400.5" y="71.5" fill="#F1F1F1"/><path fill="#CBCBCB" d="M739.5,90.5c0,1.105-0.895,2-2,2h-280c-1.105,0-2-0.895-2-2v-11c0-1.105,0.895-2,2-2h280 c1.105,0,2,0.895,2,2V90.5z"/><path fill="#F6CB93" d="M793.5,90.5c0,1.105-0.895,2-2,2h-28c-1.105,0-2-0.895-2-2v-11c0-1.105,0.895-2,2-2h28 c1.105,0,2,0.895,2,2V90.5z"/><path fill="#FEFEFE" d="M791.5,88.5c0,1.105-0.895,2-2,2h-6c-1.105,0-2-0.895-2-2v-7c0-1.105,0.895-2,2-2h6c1.105,0,2,0.895,2,2 V88.5z"/></g></g><g id="_x30_3_header" display="inline"><rect width="801" height="27" x=".5" y="45.5" fill="#1C2022"/><path fill="#58A1D7" d="M376.5,64.5c0,1.105-0.895,2-2,2h-24c-1.105,0-2-0.895-2-2v-11c0-1.105,0.895-2,2-2h24 c1.105,0,2,0.895,2,2V64.5z"/><path fill="#58A1D7" d="M400.5,66.5h-12c-1.105,0-2-0.895-2-2v-11c0-1.105,0.895-2,2-2h12V66.5z"/><path fill="#FFD399" d="M400.5,66.5h12c1.105,0,2-0.895,2-2v-11c0-1.105-0.895-2-2-2h-12V66.5z"/><path fill="#FFD399" d="M452.5,64.5c0,1.105-0.895,2-2,2h-24c-1.105,0-2-0.895-2-2v-11c0-1.105,0.895-2,2-2h24 c1.105,0,2,0.895,2,2V64.5z"/><g display="none"><polyline fill="#FFF" points="23.5 64.922 23.5 61.461 26.5 59.723 26.5 63.189 23.5 64.922" display="inline"/><polyline fill="#FFF" points="16.766 61.463 13.816 59.753 13.816 63.173 16.766 64.891 16.766 61.463" display="inline"/><polyline fill="#FFF" points="20.206 55.437 23.205 53.697 20.207 51.949 17.198 53.702 20.206 55.437" display="inline"/><g display="inline"><polygon fill="#FFF" points="20.5 66.5 19.5 66.5 19.5 59.017 26.16 55.173 26.5 56.095 20.5 59.632"/><rect width="7.363" height="1.065" x="13.326" y="56.956" fill="#FFF" transform="matrix(0.8668 0.4987 -0.4987 0.8668 30.9352 -0.8227)"/><path fill="#FFF" d="M19.999,67.316L13.5,63.339v-7.992l6.499-4.031L26.5,55.33v7.997L19.999,67.316z M14.5,62.722 l5.498,3.365l5.502-3.377v-6.767l-5.499-3.395L14.5,55.96V62.722z"/></g></g><polygon fill="#FFF" points="13.5 63.5 13.5 55.5 19.999 51.316 26.5 55.33 26.5 63.5 19.999 67.316" display="none"/></g></g></svg>