<svg xmlns="http://www.w3.org/2000/svg" width="801" height="467"><path fill="#FFF" d="M801.5 45.5v417a6 6 0 01-6 6H6.5a6 6 0 01-6-6v-417"/><g fill="#999"><path d="M247.5 419.5h303v4h-303zM247.5 427.5h300v4h-300zM247.5 435.5h233v4h-233zM247.5 451.5h303v4h-303zM247.5 443.5h293v4h-293z"/></g><g fill="#999"><path d="M247.5 360.5h307v4h-307zM247.5 392.5h303v4h-303zM247.5 400.5h187v4h-187zM247.5 368.5h303v4h-303zM247.5 376.5h305v4h-305zM247.5 384.5h293v4h-293z"/></g><g fill="#999"><path d="M247.5 138.5h303v4h-303zM247.5 146.5h300v4h-300zM247.5 154.5h233v4h-233z"/></g><path fill="#35495E" d="M247.5 91.5h241v14h-241z"/><path fill="#4D4D4D" d="M247.5 113.5h104v8h-104zM247.5 130.5h307v2h-307z"/><g><g fill="#999"><path d="M21.5 345.5h56v4h-56zM21.5 337.5h64v4h-64zM21.5 361.5h65v4h-65zM21.5 353.5h66v4h-66zM21.5 321.5h69v4h-69zM21.5 329.5h59v4h-59z"/></g><path fill="#35495E" d="M10.5 308.5h97v6h-97z"/><g fill="#999"><path d="M21.5 288.5h54v4h-54zM21.5 240.5h50v4h-50zM21.5 256.5h56v4h-56zM21.5 248.5h64v4h-64zM21.5 232.5h65v4h-65zM21.5 264.5h66v4h-66zM21.5 280.5h69v4h-69zM21.5 272.5h59v4h-59z"/></g><path fill="#35495E" d="M10.5 219.5h57v6h-57z"/><g><path fill="#999" d="M21.5 104.5h54v4h-54zM21.5 112.5h50v4h-50zM21.5 128.5h56v4h-56zM21.5 120.5h64v4h-64z"/><path fill="#4D4D4D" d="M34.5 169.5h54v3h-54z"/><path fill="#41B883" d="M34.5 153.5h50v3h-50z"/><path fill="#4D4D4D" d="M34.5 177.5h56v3h-56zM34.5 185.5h56v3h-56zM34.5 161.5h64v3h-64z"/><path fill="#999" d="M21.5 200.5h65v4h-65zM21.5 136.5h66v4h-66zM21.5 192.5h69v4h-69z"/><path fill="#41B883" d="M21.5 144.5h59v4h-59z"/><g><path fill="#35495E" d="M10.5 91.5h83v6h-83z"/></g></g><g><path fill="#CCC" d="M120.5 79.5h4v389h-4z"/><path fill="gray" d="M120.5 84.5h4v132h-4z"/></g></g><g><path stroke="#CCC" stroke-miterlimit="10" d="M1 78h800v1H1z"/><path fill="#41B883" d="M21.148 51.5h5.086L33.5 64.169 40.902 51.5h4.95L33.5 72.66z"/><path fill="#35495E" d="M30.73 51.5l2.781 4.836 2.804-4.836h4.632L33.5 64.169 26.234 51.5zM49.5 56.5h28v11h-28z"/><g fill="#35495E"><path d="M758.5 58.5h28v6h-28zM708.5 58.5h38v6h-38zM627.5 58.5h33v6h-33zM673.5 58.5h22v6h-22zM589.5 58.5h26v6h-26z"/></g></g></svg>