<svg width="193" height="40" viewBox="0 0 193 40" fill="none" xmlns="http://www.w3.org/2000/svg">
<rect width="193" height="40" rx="4" fill="#0971F1"/>
<path d="M42.1449 26H47.9247V24.9844H43.2898V21.7713H47.5554V20.7557H43.2898V17.5611H47.8509V16.5455H42.1449V26ZM52.4442 26.1477C53.8107 26.1477 54.2724 25.2983 54.5124 24.9105H54.6417V26H55.6942V16.5455H54.6048V20.0355H54.5124C54.2724 19.6662 53.8477 18.8168 52.4627 18.8168C50.6715 18.8168 49.4343 20.2386 49.4343 22.473C49.4343 24.7259 50.6715 26.1477 52.4442 26.1477ZM52.592 25.169C51.2255 25.169 50.5238 23.9688 50.5238 22.4545C50.5238 20.9588 51.207 19.7955 52.592 19.7955C53.9215 19.7955 54.6232 20.8665 54.6232 22.4545C54.6232 24.0611 53.9031 25.169 52.592 25.169ZM57.8409 26H58.9304V18.9091H57.8409V26ZM58.3949 17.7273C58.8196 17.7273 59.1705 17.3949 59.1705 16.9886C59.1705 16.5824 58.8196 16.25 58.3949 16.25C57.9702 16.25 57.6193 16.5824 57.6193 16.9886C57.6193 17.3949 57.9702 17.7273 58.3949 17.7273ZM64.0097 18.9091H62.4955V17.2102H61.406V18.9091H60.335V19.8324H61.406V24.2642C61.406 25.5014 62.4031 26.0923 63.3264 26.0923C63.7327 26.0923 63.9912 26.0185 64.1389 25.9631L63.9173 24.9844C63.825 25.0028 63.6773 25.0398 63.4372 25.0398C62.9571 25.0398 62.4955 24.892 62.4955 23.9688V19.8324H64.0097V18.9091ZM72.1855 26.1477C74.1059 26.1477 75.3985 24.6889 75.3985 22.4915C75.3985 20.2756 74.1059 18.8168 72.1855 18.8168C70.265 18.8168 68.9724 20.2756 68.9724 22.4915C68.9724 24.6889 70.265 26.1477 72.1855 26.1477ZM72.1855 25.169C70.7267 25.169 70.0619 23.9134 70.0619 22.4915C70.0619 21.0696 70.7267 19.7955 72.1855 19.7955C73.6443 19.7955 74.309 21.0696 74.309 22.4915C74.309 23.9134 73.6443 25.169 72.1855 25.169ZM78.1511 21.7344C78.1511 20.4972 78.9174 19.7955 79.9608 19.7955C80.9718 19.7955 81.5858 20.4556 81.5858 21.5682V26H82.6752V21.4943C82.6752 19.6847 81.7104 18.8168 80.2747 18.8168C79.2037 18.8168 78.5389 19.2969 78.2065 20.017H78.1142V18.9091H77.0616V26H78.1511V21.7344ZM97.1942 19.7354C96.9033 17.6349 95.2876 16.4162 93.1917 16.4162C90.7219 16.4162 88.8614 18.2166 88.8614 21.2727C88.8614 24.3242 90.6988 26.1293 93.1917 26.1293C95.4399 26.1293 96.931 24.6751 97.1942 22.87L95.4676 22.8608C95.2506 23.9688 94.3458 24.592 93.2148 24.592C91.6821 24.592 90.5834 23.4425 90.5834 21.2727C90.5834 19.1399 91.6729 17.9535 93.2194 17.9535C94.3689 17.9535 95.2691 18.6044 95.4676 19.7354H97.1942ZM101.782 26.1385C103.859 26.1385 105.18 24.6751 105.18 22.4822C105.18 20.2848 103.859 18.8168 101.782 18.8168C99.7044 18.8168 98.3841 20.2848 98.3841 22.4822C98.3841 24.6751 99.7044 26.1385 101.782 26.1385ZM101.791 24.7997C100.642 24.7997 100.078 23.7749 100.078 22.4776C100.078 21.1804 100.642 20.1417 101.791 20.1417C102.922 20.1417 103.485 21.1804 103.485 22.4776C103.485 23.7749 102.922 24.7997 101.791 24.7997ZM109.229 26.1246C110.448 26.1246 110.997 25.3999 111.261 24.8828H111.362V26H113.006V16.5455H111.33V20.0817H111.261C111.007 19.5692 110.485 18.8168 109.234 18.8168C107.595 18.8168 106.307 20.1001 106.307 22.4638C106.307 24.7997 107.558 26.1246 109.229 26.1246ZM109.696 24.7536C108.592 24.7536 108.011 23.7841 108.011 22.4545C108.011 21.1342 108.583 20.1879 109.696 20.1879C110.771 20.1879 111.362 21.0788 111.362 22.4545C111.362 23.8303 110.762 24.7536 109.696 24.7536ZM117.926 26.1385C119.578 26.1385 120.714 25.3306 121.009 24.098L119.449 23.9226C119.223 24.5227 118.669 24.8366 117.949 24.8366C116.868 24.8366 116.153 24.1257 116.139 22.9116H121.079V22.3991C121.079 19.9109 119.583 18.8168 117.838 18.8168C115.807 18.8168 114.482 20.3079 114.482 22.4961C114.482 24.7212 115.788 26.1385 117.926 26.1385ZM116.144 21.7852C116.194 20.8803 116.864 20.1186 117.861 20.1186C118.821 20.1186 119.468 20.8203 119.477 21.7852H116.144ZM127.704 19.1445H129.353C129.32 17.5472 127.958 16.4162 125.946 16.4162C123.96 16.4162 122.469 17.5334 122.474 19.2045C122.474 20.5618 123.439 21.342 124.995 21.7436L126.07 22.0206C127.09 22.2791 127.764 22.5977 127.769 23.3317C127.764 24.1396 126.998 24.6797 125.881 24.6797C124.81 24.6797 123.979 24.1996 123.91 23.207H122.225C122.294 25.0859 123.693 26.1431 125.895 26.1431C128.161 26.1431 129.477 25.0121 129.482 23.3455C129.477 21.7067 128.125 20.9588 126.703 20.6218L125.816 20.4002C125.041 20.2156 124.201 19.8878 124.21 19.0984C124.214 18.3874 124.851 17.8658 125.922 17.8658C126.943 17.8658 127.617 18.3413 127.704 19.1445ZM132.975 26.1431C134.088 26.1431 134.753 25.6214 135.057 25.0259H135.113V26H136.719V21.2543C136.719 19.38 135.191 18.8168 133.839 18.8168C132.347 18.8168 131.203 19.4815 130.833 20.7741L132.394 20.9957C132.56 20.511 133.031 20.0955 133.848 20.0955C134.623 20.0955 135.048 20.4925 135.048 21.1896V21.2173C135.048 21.6974 134.545 21.7205 133.294 21.8544C131.918 22.0021 130.602 22.413 130.602 24.0103C130.602 25.4045 131.623 26.1431 132.975 26.1431ZM133.409 24.9151C132.712 24.9151 132.214 24.5966 132.214 23.9826C132.214 23.3409 132.772 23.0732 133.52 22.967C133.959 22.907 134.836 22.7962 135.053 22.6207V23.4563C135.053 24.2457 134.416 24.9151 133.409 24.9151ZM140.071 21.8452C140.071 20.8203 140.689 20.2294 141.571 20.2294C142.434 20.2294 142.952 20.7972 142.952 21.7436V26H144.623V21.4851C144.627 19.7862 143.658 18.8168 142.194 18.8168C141.133 18.8168 140.403 19.3246 140.08 20.114H139.997V18.9091H138.4V26H140.071V21.8452ZM148.953 26.1246C150.172 26.1246 150.721 25.3999 150.984 24.8828H151.086V26H152.729V16.5455H151.053V20.0817H150.984C150.73 19.5692 150.209 18.8168 148.958 18.8168C147.319 18.8168 146.031 20.1001 146.031 22.4638C146.031 24.7997 147.282 26.1246 148.953 26.1246ZM149.419 24.7536C148.316 24.7536 147.734 23.7841 147.734 22.4545C147.734 21.1342 148.307 20.1879 149.419 20.1879C150.495 20.1879 151.086 21.0788 151.086 22.4545C151.086 23.8303 150.486 24.7536 149.419 24.7536ZM154.584 26H156.227V24.8828H156.324C156.587 25.3999 157.137 26.1246 158.356 26.1246C160.027 26.1246 161.278 24.7997 161.278 22.4638C161.278 20.1001 159.99 18.8168 158.351 18.8168C157.1 18.8168 156.578 19.5692 156.324 20.0817H156.255V16.5455H154.584V26ZM156.223 22.4545C156.223 21.0788 156.814 20.1879 157.889 20.1879C159.002 20.1879 159.574 21.1342 159.574 22.4545C159.574 23.7841 158.993 24.7536 157.889 24.7536C156.823 24.7536 156.223 23.8303 156.223 22.4545ZM165.792 26.1385C167.869 26.1385 169.189 24.6751 169.189 22.4822C169.189 20.2848 167.869 18.8168 165.792 18.8168C163.714 18.8168 162.394 20.2848 162.394 22.4822C162.394 24.6751 163.714 26.1385 165.792 26.1385ZM165.801 24.7997C164.651 24.7997 164.088 23.7749 164.088 22.4776C164.088 21.1804 164.651 20.1417 165.801 20.1417C166.932 20.1417 167.495 21.1804 167.495 22.4776C167.495 23.7749 166.932 24.7997 165.801 24.7997ZM171.708 18.9091H169.935L172.04 22.4545L169.879 26H171.652L173.139 23.4471L174.639 26H176.398L174.224 22.4545L176.361 18.9091H174.593L173.139 21.5266L171.708 18.9091Z" fill="white"/>
<path opacity="0.6" fill-rule="evenodd" clip-rule="evenodd" d="M22 20.0425V30.2499C22.1713 30.2499 22.2838 30.2113 22.4375 30.1202L30.3129 25.4497C30.6238 25.2648 30.7506 24.9784 30.7506 24.6064V15.1357C30.7506 14.9491 30.7127 14.8375 30.6254 14.6816L22.2519 19.5919C22.0961 19.6843 22 19.8563 22 20.0425ZM26.3752 25.9038C26.3752 26.1632 26.2815 26.293 26.0627 26.4228L23.4376 27.9796C23.2501 28.1092 23 28.0445 23 27.7849V20.8441C23 20.6584 23.1575 20.4178 23.3125 20.3251L29.3129 16.7574C29.4795 16.6579 29.6254 16.8173 29.6254 17.0169V20.7144C29.6254 20.906 29.5383 21.0783 29.3753 21.1685L26.6877 22.6604C26.5248 22.7506 26.3752 22.9228 26.3752 23.1145V25.9038Z" fill="white"/>
<path fill-rule="evenodd" clip-rule="evenodd" d="M13.249 24.606V15.1353C13.249 14.7629 13.4375 14.412 13.749 14.2272L21.3744 9.75132C21.5387 9.66096 21.8119 9.62158 21.9994 9.62158C22.187 9.62158 22.4762 9.66978 22.6245 9.75132L30.1873 14.2272C30.3369 14.319 30.5402 14.5303 30.6248 14.6813L22.2494 19.6112C22.0936 19.7036 21.9994 19.8791 21.9994 20.0653V30.2496C21.8282 30.2496 21.6531 30.2109 21.4994 30.1198L13.8116 25.5142C13.5 25.3294 13.249 24.9785 13.249 24.606ZM14.3741 17.0165V20.714C14.3741 20.9734 14.4366 21.1032 14.6866 21.2329L17.3117 22.7898C17.5617 22.9195 17.6242 23.1141 17.6242 23.3087V25.9034C17.6242 26.1628 17.6867 26.2926 17.9367 26.4224L20.5619 27.9792C20.8118 28.1089 20.9994 28.0441 20.9994 27.7845V20.8438C20.9994 20.6491 20.9369 20.4545 20.6869 20.3248L14.8116 16.8219C14.6241 16.6922 14.3741 16.757 14.3741 17.0165ZM24.6246 12.6055L22.3119 13.9677C22.1245 14.0975 21.8744 14.0975 21.687 13.9677L19.3743 12.6055C19.2221 12.5162 19.0268 12.5167 18.8743 12.6055L15.9992 14.2921C15.7491 14.4218 15.7491 14.6813 15.9992 14.811L21.7494 18.249C21.9033 18.3404 22.0956 18.3404 22.2494 18.249L27.9997 14.811C28.1872 14.6813 28.2497 14.4218 27.9997 14.2921L25.1246 12.6055C24.9721 12.5167 24.7768 12.5162 24.6246 12.6055Z" fill="#F2F2F2"/>
</svg>
