<?xml version="1.0" encoding="UTF-8"?>
<svg width="201px" height="42px" viewBox="0 0 201 42" version="1.1" xmlns="http://www.w3.org/2000/svg" xmlns:xlink="http://www.w3.org/1999/xlink">
    <!-- Generator: Sketch 43.1 (39012) - http://www.bohemiancoding.com/sketch -->
    <title>Rectangle</title>
    <desc>Created with Sketch.</desc>
    <defs>
        <linearGradient x1="100%" y1="0%" x2="0%" y2="100%" id="linearGradient-1">
            <stop stop-color="#7ABAE8" offset="0%"></stop>
            <stop stop-color="#56A0D6" offset="100%"></stop>
        </linearGradient>
        <rect id="path-2" x="0" y="0" width="201" height="42" rx="4"></rect>
        <polygon id="path-3" points="0 21.0228944 12.4555325 27.9766451 24.9163677 20.9996075 24.9163677 7.01712217 12.4581839 0 0 7.04817138"></polygon>
        <filter x="-14.0%" y="-13.3%" width="128.1%" height="126.6%" filterUnits="objectBoundingBox" id="filter-4">
            <feGaussianBlur stdDeviation="1.5" in="SourceAlpha" result="shadowBlurInner1"></feGaussianBlur>
            <feOffset dx="0" dy="1" in="shadowBlurInner1" result="shadowOffsetInner1"></feOffset>
            <feComposite in="shadowOffsetInner1" in2="SourceAlpha" operator="arithmetic" k2="-1" k3="1" result="shadowInnerInner1"></feComposite>
            <feColorMatrix values="0 0 0 0 0   0 0 0 0 0   0 0 0 0 0  0 0 0 0.5 0" type="matrix" in="shadowInnerInner1"></feColorMatrix>
        </filter>
        <path d="M9.17647059,10.5086837 C9.17647059,9.40231159 9.95693847,8.95078053 10.9089803,9.49404703 L17.3902406,13.1924682 C18.3470793,13.738472 18.3422824,14.6264562 17.3902406,15.1697227 L10.9089803,18.8681439 C9.9521416,19.4141476 9.17647059,18.9660496 9.17647059,17.8535072 L9.17647059,10.5086837 Z" id="path-5"></path>
        <filter x="-39.2%" y="-25.4%" width="178.4%" height="171.2%" filterUnits="objectBoundingBox" id="filter-6">
            <feOffset dx="0" dy="1" in="SourceAlpha" result="shadowOffsetOuter1"></feOffset>
            <feGaussianBlur stdDeviation="1" in="shadowOffsetOuter1" result="shadowBlurOuter1"></feGaussianBlur>
            <feColorMatrix values="0 0 0 0 0   0 0 0 0 0   0 0 0 0 0  0 0 0 0.232365263 0" type="matrix" in="shadowBlurOuter1"></feColorMatrix>
        </filter>
    </defs>
    <g id="Page-1" stroke="none" stroke-width="1" fill="none" fill-rule="evenodd">
        <g id="Rectangle">
            <use fill="#6CAEDD" xlink:href="#path-2"></use>
            <use fill="url(#linearGradient-1)" xlink:href="#path-2"></use>
        </g>
        <g id="Logo-v2-(1)" transform="translate(12.000000, 7.000000)">
            <g id="Logo">
                <g id="Layer_1" transform="translate(0.224316, 0.037787)" fill-rule="nonzero" fill="#FFD399">
                    <polyline id="Shape" points="19.0386605 24.4729277 19.0386605 17.9168242 24.8843917 14.6241794 24.8843917 21.1900012 19.0386605 24.4729277"></polyline>
                    <polyline id="Shape" points="5.74721577 18.0179515 0 14.7794255 0 21.2564776 5.74721577 24.5114287 5.74721577 18.0179515"></polyline>
                    <polyline id="Shape" points="12.4436813 6.60711731 18.2880709 3.31087074 12.4461729 0 6.5804766 3.32186217 12.4436813 6.60711731"></polyline>
                </g>
                <g id="Layer_2">
                    <g id="Shape">
                        <use fill="#FFD399" fill-rule="evenodd" xlink:href="#path-3"></use>
                        <use fill="black" fill-opacity="1" filter="url(#filter-4)" xlink:href="#path-3"></use>
                        <use stroke="#FFFFFF" stroke-width="3" xlink:href="#path-3"></use>
                    </g>
                    <g id="Rectangle-2">
                        <use fill="black" fill-opacity="1" filter="url(#filter-6)" xlink:href="#path-5"></use>
                        <use fill="#FFFFFF" fill-rule="evenodd" xlink:href="#path-5"></use>
                    </g>
                </g>
            </g>
        </g>
        <path d="M55.2363281,20.8876953 L50.2485352,20.8876953 L50.2485352,25.2382812 L55.9833984,25.2382812 L55.9833984,26 L49.3476562,26 L49.3476562,15.3359375 L55.9467773,15.3359375 L55.9467773,16.1049805 L50.2485352,16.1049805 L50.2485352,20.1259766 L55.2363281,20.1259766 L55.2363281,20.8876953 Z M57.1845703,21.9643555 C57.1845703,20.7338806 57.4592258,19.7536658 58.0085449,19.0236816 C58.5578641,18.2936975 59.3037062,17.9287109 60.2460938,17.9287109 C61.315435,17.9287109 62.1308566,18.35107 62.6923828,19.1958008 L62.6923828,14.75 L63.5639648,14.75 L63.5639648,26 L62.7436523,26 L62.7070312,24.9453125 C62.145505,25.7460978 61.3203179,26.1464844 60.2314453,26.1464844 C59.3183548,26.1464844 58.5822782,25.7790564 58.0231934,25.0441895 C57.4641085,24.3093225 57.1845703,23.3169008 57.1845703,22.0668945 L57.1845703,21.9643555 Z M58.0708008,22.1181641 C58.0708008,23.1289113 58.2734355,23.9260225 58.6787109,24.5095215 C59.0839864,25.0930205 59.6552698,25.3847656 60.3925781,25.3847656 C61.4716851,25.3847656 62.238279,24.9086962 62.6923828,23.956543 L62.6923828,20.2358398 C62.238279,19.2055613 61.4765678,18.6904297 60.4072266,18.6904297 C59.6699182,18.6904297 59.0961935,18.9797334 58.6860352,19.5583496 C58.2758769,20.1369658 58.0708008,20.9902287 58.0708008,22.1181641 Z M66.8525391,26 L65.9736328,26 L65.9736328,18.0751953 L66.8525391,18.0751953 L66.8525391,26 Z M65.8198242,15.7827148 C65.8198242,15.6166984 65.8735346,15.4763189 65.980957,15.3615723 C66.0883794,15.2468256 66.2348624,15.1894531 66.4204102,15.1894531 C66.605958,15.1894531 66.7536616,15.2468256 66.8635254,15.3615723 C66.9733892,15.4763189 67.0283203,15.6166984 67.0283203,15.7827148 C67.0283203,15.9487313 66.9733892,16.0878901 66.8635254,16.2001953 C66.7536616,16.3125006 66.605958,16.3686523 66.4204102,16.3686523 C66.2348624,16.3686523 66.0883794,16.3125006 65.980957,16.2001953 C65.8735346,16.0878901 65.8198242,15.9487313 65.8198242,15.7827148 Z M70.5952148,16.0463867 L70.5952148,18.0751953 L72.2358398,18.0751953 L72.2358398,18.7929688 L70.5952148,18.7929688 L70.5952148,24.0737305 C70.5952148,24.5131858 70.6745598,24.840331 70.833252,25.0551758 C70.9919442,25.2700206 71.2568341,25.3774414 71.6279297,25.3774414 C71.7744148,25.3774414 72.0112288,25.3530276 72.3383789,25.3041992 L72.375,26.0219727 C72.1455067,26.1049809 71.8330098,26.1464844 71.4375,26.1464844 C70.8369111,26.1464844 70.3999037,25.9719256 70.1264648,25.6228027 C69.853026,25.2736799 69.7163086,24.759769 69.7163086,24.0810547 L69.7163086,18.7929688 L68.2587891,18.7929688 L68.2587891,18.0751953 L69.7163086,18.0751953 L69.7163086,16.0463867 L70.5952148,16.0463867 Z M77.2163086,21.9204102 C77.2163086,21.1586876 77.3640122,20.4726593 77.6594238,19.8623047 C77.9548355,19.2519501 78.3723118,18.7771013 78.9118652,18.4377441 C79.4514187,18.098387 80.0629849,17.9287109 80.746582,17.9287109 C81.8012748,17.9287109 82.6557584,18.2985803 83.3100586,19.0383301 C83.9643587,19.7780799 84.2915039,20.7582947 84.2915039,21.9790039 L84.2915039,22.1621094 C84.2915039,22.9287148 84.1438003,23.6184051 83.8483887,24.2312012 C83.552977,24.8439972 83.1367214,25.3164046 82.5996094,25.6484375 C82.0624973,25.9804704 81.4497105,26.1464844 80.7612305,26.1464844 C79.7114205,26.1464844 78.8581576,25.776615 78.201416,25.0368652 C77.5446745,24.2971154 77.2163086,23.3169006 77.2163086,22.0961914 L77.2163086,21.9204102 Z M78.0952148,22.1621094 C78.0952148,23.1093797 78.3405737,23.8869599 78.8312988,24.494873 C79.3220239,25.1027862 79.9653281,25.4067383 80.7612305,25.4067383 C81.55225,25.4067383 82.1931128,25.1027862 82.6838379,24.494873 C83.174563,23.8869599 83.4199219,23.0849659 83.4199219,22.0888672 L83.4199219,21.9204102 C83.4199219,21.3149384 83.3076183,20.7607447 83.0830078,20.2578125 C82.8583973,19.7548803 82.5434591,19.3654799 82.1381836,19.0895996 C81.7329081,18.8137193 81.2690456,18.6757812 80.746582,18.6757812 C79.9653281,18.6757812 79.3281275,18.9821747 78.8349609,19.5949707 C78.3417944,20.2077667 78.0952148,21.0097607 78.0952148,22.0009766 L78.0952148,22.1621094 Z M86.9355469,18.0751953 L86.9648438,19.4301758 C87.2626968,18.9418921 87.6337868,18.5695814 88.078125,18.3132324 C88.5224632,18.0568835 89.0131809,17.9287109 89.550293,17.9287109 C90.3999066,17.9287109 91.0322245,18.1679664 91.4472656,18.6464844 C91.8623068,19.1250024 92.0722656,19.8427687 92.0771484,20.7998047 L92.0771484,26 L91.2055664,26 L91.2055664,20.7924805 C91.2006836,20.0844691 91.0505386,19.5571306 90.755127,19.2104492 C90.4597153,18.8637678 89.9873079,18.6904297 89.3378906,18.6904297 C88.7958957,18.6904297 88.3161642,18.8601057 87.8986816,19.1994629 C87.4811991,19.5388201 87.1723643,19.9965792 86.972168,20.5727539 L86.972168,26 L86.1005859,26 L86.1005859,18.0751953 L86.9355469,18.0751953 Z M105.927246,22.6162109 C105.795409,23.7441463 105.379154,24.6144989 104.678467,25.2272949 C103.97778,25.840091 103.046393,26.1464844 101.884277,26.1464844 C100.624505,26.1464844 99.614994,25.6948287 98.8557129,24.7915039 C98.0964318,23.8881791 97.7167969,22.6796951 97.7167969,21.1660156 L97.7167969,20.140625 C97.7167969,19.1494091 97.8937971,18.2778358 98.2478027,17.5258789 C98.6018084,16.773922 99.1035124,16.1965352 99.7529297,15.7937012 C100.402347,15.3908671 101.154293,15.1894531 102.008789,15.1894531 C103.141607,15.1894531 104.049801,15.5056121 104.733398,16.1379395 C105.416996,16.7702668 105.814941,17.6455022 105.927246,18.7636719 L104.513672,18.7636719 C104.391601,17.9140583 104.126711,17.29883 103.718994,16.9179688 C103.311277,16.5371075 102.741215,16.3466797 102.008789,16.3466797 C101.110347,16.3466797 100.406008,16.6787076 99.895752,17.3427734 C99.3854955,18.0068393 99.1303711,18.951654 99.1303711,20.1772461 L99.1303711,21.2099609 C99.1303711,22.3671933 99.3720679,23.2875942 99.8554688,23.9711914 C100.33887,24.6547886 101.015132,24.996582 101.884277,24.996582 C102.665531,24.996582 103.26489,24.8195818 103.682373,24.4655762 C104.099856,24.1115705 104.376952,23.4951216 104.513672,22.6162109 L105.927246,22.6162109 Z M107.274902,21.9643555 C107.274902,21.1879844 107.427489,20.4897492 107.732666,19.8696289 C108.037843,19.2495086 108.462644,18.7709978 109.00708,18.434082 C109.551516,18.0971663 110.172848,17.9287109 110.871094,17.9287109 C111.950201,17.9287109 112.822995,18.3022424 113.489502,19.0493164 C114.156009,19.7963905 114.489258,20.7900329 114.489258,22.0302734 L114.489258,22.1254883 C114.489258,22.8969765 114.341554,23.5891083 114.046143,24.2019043 C113.750731,24.8147003 113.328372,25.2919905 112.779053,25.6337891 C112.229734,25.9755876 111.598636,26.1464844 110.885742,26.1464844 C109.811518,26.1464844 108.941165,25.772953 108.274658,25.0258789 C107.608151,24.2788049 107.274902,23.2900452 107.274902,22.0595703 L107.274902,21.9643555 Z M108.637207,22.1254883 C108.637207,23.0043989 108.841062,23.7099583 109.248779,24.2421875 C109.656496,24.7744167 110.202145,25.0405273 110.885742,25.0405273 C111.574222,25.0405273 112.121092,24.7707547 112.526367,24.2312012 C112.931643,23.6916477 113.134277,22.93604 113.134277,21.9643555 C113.134277,21.0952105 112.927981,20.3908718 112.515381,19.8513184 C112.102781,19.3117649 111.554691,19.0419922 110.871094,19.0419922 C110.202145,19.0419922 109.6626,19.3081028 109.252441,19.840332 C108.842283,20.3725613 108.637207,21.1342724 108.637207,22.1254883 Z M115.858887,21.9716797 C115.858887,20.7558533 116.14697,19.7780799 116.723145,19.0383301 C117.299319,18.2985803 118.053706,17.9287109 118.986328,17.9287109 C119.914067,17.9287109 120.648923,18.2460906 121.190918,18.8808594 L121.190918,14.75 L122.545898,14.75 L122.545898,26 L121.300781,26 L121.234863,25.1503906 C120.692868,25.8144564 119.938481,26.1464844 118.97168,26.1464844 C118.053706,26.1464844 117.305423,25.7705116 116.726807,25.0185547 C116.14819,24.2665978 115.858887,23.2851623 115.858887,22.0742188 L115.858887,21.9716797 Z M117.213867,22.1254883 C117.213867,23.0239303 117.399412,23.7270482 117.770508,24.2348633 C118.141603,24.7426783 118.654294,24.996582 119.308594,24.996582 C120.167973,24.996582 120.795408,24.6108437 121.190918,23.8393555 L121.190918,20.1992188 C120.785643,19.4521447 120.16309,19.0786133 119.323242,19.0786133 C118.659176,19.0786133 118.141603,19.3349584 117.770508,19.8476562 C117.399412,20.3603541 117.213867,21.1196239 117.213867,22.1254883 Z M127.936523,26.1464844 C126.862299,26.1464844 125.988285,25.7937047 125.314453,25.0881348 C124.640622,24.3825648 124.303711,23.4389708 124.303711,22.2573242 L124.303711,22.0083008 C124.303711,21.222164 124.453856,20.5202668 124.75415,19.9025879 C125.054445,19.284909 125.474363,18.8015154 126.013916,18.4523926 C126.553469,18.1032697 127.13818,17.9287109 127.768066,17.9287109 C128.798345,17.9287109 129.599118,18.268063 130.17041,18.9467773 C130.741702,19.6254917 131.027344,20.5971616 131.027344,21.8618164 L131.027344,22.4257812 L125.658691,22.4257812 C125.678223,23.2070352 125.906492,23.8381324 126.343506,24.3190918 C126.78052,24.8000512 127.335934,25.0405273 128.009766,25.0405273 C128.488284,25.0405273 128.893553,24.9428721 129.225586,24.7475586 C129.557619,24.5522451 129.848143,24.2934586 130.097168,23.9711914 L130.924805,24.6157227 C130.260739,25.6362356 129.264655,26.1464844 127.936523,26.1464844 Z M127.768066,19.0419922 C127.221189,19.0419922 126.762209,19.2409648 126.391113,19.638916 C126.020018,20.0368672 125.790528,20.594723 125.702637,21.3125 L129.672363,21.3125 L129.672363,21.2099609 C129.633301,20.5214809 129.447756,19.988039 129.115723,19.6096191 C128.78369,19.2311993 128.334475,19.0419922 127.768066,19.0419922 Z M135.949219,21.246582 C134.743158,20.8999006 133.865481,20.4738795 133.316162,19.9685059 C132.766843,19.4631322 132.492188,18.8393592 132.492188,18.097168 C132.492188,17.25732 132.827878,16.5627469 133.499268,16.0134277 C134.170658,15.4641086 135.043452,15.1894531 136.117676,15.1894531 C136.850101,15.1894531 137.503171,15.3310533 138.076904,15.6142578 C138.650638,15.8974624 139.094969,16.2880834 139.409912,16.7861328 C139.724855,17.2841822 139.882324,17.8286103 139.882324,18.4194336 L138.46875,18.4194336 C138.46875,17.7748991 138.263674,17.2683124 137.853516,16.8996582 C137.443357,16.531004 136.86475,16.3466797 136.117676,16.3466797 C135.424313,16.3466797 134.883547,16.4992661 134.495361,16.8044434 C134.107176,17.1096207 133.913086,17.5332004 133.913086,18.0751953 C133.913086,18.5097678 134.09741,18.8771958 134.466064,19.1774902 C134.834719,19.4777847 135.462154,19.7524402 136.348389,20.0014648 C137.234624,20.2504895 137.927976,20.525145 138.428467,20.8254395 C138.928958,21.1257339 139.300048,21.4760722 139.541748,21.8764648 C139.783448,22.2768575 139.904297,22.7480442 139.904297,23.2900391 C139.904297,24.1543012 139.567386,24.8464329 138.893555,25.3664551 C138.219723,25.8864772 137.318853,26.1464844 136.190918,26.1464844 C135.458492,26.1464844 134.774906,26.0061049 134.140137,25.7253418 C133.505368,25.4445787 133.015871,25.060061 132.671631,24.5717773 C132.327391,24.0834937 132.155273,23.5293 132.155273,22.9091797 L133.568848,22.9091797 C133.568848,23.5537142 133.806882,24.0627423 134.282959,24.4362793 C134.759036,24.8098163 135.395016,24.996582 136.190918,24.996582 C136.933109,24.996582 137.501951,24.8452164 137.897461,24.5424805 C138.292971,24.2397446 138.490723,23.827151 138.490723,23.3046875 C138.490723,22.782224 138.307619,22.3781753 137.941406,22.0925293 C137.575193,21.8068833 136.911138,21.5249037 135.949219,21.246582 Z M146.38623,26 C146.308105,25.8437492 146.244629,25.5654317 146.195801,25.1650391 C145.565915,25.8193392 144.813969,26.1464844 143.939941,26.1464844 C143.158688,26.1464844 142.517825,25.9255393 142.017334,25.4836426 C141.516843,25.0417458 141.266602,24.4814487 141.266602,23.8027344 C141.266602,22.9775349 141.580319,22.3366722 142.207764,21.880127 C142.835208,21.4235817 143.717768,21.1953125 144.855469,21.1953125 L146.173828,21.1953125 L146.173828,20.5727539 C146.173828,20.0991187 146.032228,19.7219252 145.749023,19.4411621 C145.465819,19.160399 145.048343,19.0200195 144.496582,19.0200195 C144.013181,19.0200195 143.607912,19.1420886 143.280762,19.3862305 C142.953612,19.6303723 142.790039,19.9257795 142.790039,20.2724609 L141.427734,20.2724609 C141.427734,19.8769511 141.568114,19.4948749 141.848877,19.1262207 C142.12964,18.7575665 142.510496,18.4658214 142.991455,18.2509766 C143.472415,18.0361317 144.000974,17.9287109 144.577148,17.9287109 C145.490239,17.9287109 146.205564,18.1569801 146.723145,18.6135254 C147.240725,19.0700706 147.509277,19.6987265 147.528809,20.4995117 L147.528809,24.1469727 C147.528809,24.8745154 147.621581,25.4531229 147.807129,25.8828125 L147.807129,26 L146.38623,26 Z M144.137695,24.9672852 C144.562502,24.9672852 144.96533,24.857423 145.346191,24.6376953 C145.727053,24.4179677 146.002929,24.132326 146.173828,23.7807617 L146.173828,22.1547852 L145.111816,22.1547852 C143.451652,22.1547852 142.621582,22.6406201 142.621582,23.6123047 C142.621582,24.0371115 142.763182,24.3691394 143.046387,24.6083984 C143.329591,24.8476574 143.693357,24.9672852 144.137695,24.9672852 Z M150.93457,18.0751953 L150.978516,19.0712891 C151.583987,18.3095665 152.374995,17.9287109 153.351562,17.9287109 C155.026376,17.9287109 155.871094,18.8735257 155.885742,20.7631836 L155.885742,26 L154.530762,26 L154.530762,20.7558594 C154.525879,20.1845675 154.395265,19.7622084 154.138916,19.4887695 C153.882567,19.2153307 153.483401,19.0786133 152.941406,19.0786133 C152.501951,19.0786133 152.116213,19.1957996 151.78418,19.4301758 C151.452147,19.664552 151.19336,19.9721661 151.007812,20.3530273 L151.007812,26 L149.652832,26 L149.652832,18.0751953 L150.93457,18.0751953 Z M157.599609,21.9716797 C157.599609,20.7558533 157.887692,19.7780799 158.463867,19.0383301 C159.040042,18.2985803 159.794429,17.9287109 160.727051,17.9287109 C161.65479,17.9287109 162.389646,18.2460906 162.931641,18.8808594 L162.931641,14.75 L164.286621,14.75 L164.286621,26 L163.041504,26 L162.975586,25.1503906 C162.433591,25.8144564 161.679204,26.1464844 160.712402,26.1464844 C159.794429,26.1464844 159.046145,25.7705116 158.467529,25.0185547 C157.888913,24.2665978 157.599609,23.2851623 157.599609,22.0742188 L157.599609,21.9716797 Z M158.95459,22.1254883 C158.95459,23.0239303 159.140135,23.7270482 159.51123,24.2348633 C159.882326,24.7426783 160.395016,24.996582 161.049316,24.996582 C161.908696,24.996582 162.536131,24.6108437 162.931641,23.8393555 L162.931641,20.1992188 C162.526365,19.4521447 161.903813,19.0786133 161.063965,19.0786133 C160.399899,19.0786133 159.882326,19.3349584 159.51123,19.8476562 C159.140135,20.3603541 158.95459,21.1196239 158.95459,22.1254883 Z M173.097656,22.1254883 C173.097656,23.3364318 172.819339,24.3093225 172.262695,25.0441895 C171.706052,25.7790564 170.958989,26.1464844 170.021484,26.1464844 C169.020503,26.1464844 168.246585,25.792484 167.699707,25.0844727 L167.633789,26 L166.388672,26 L166.388672,14.75 L167.743652,14.75 L167.743652,18.9467773 C168.29053,18.268063 169.044917,17.9287109 170.006836,17.9287109 C170.968755,17.9287109 171.724362,18.2924768 172.273682,19.0200195 C172.823001,19.7475622 173.097656,20.743646 173.097656,22.0083008 L173.097656,22.1254883 Z M171.742676,21.9716797 C171.742676,21.0488235 171.564455,20.33594 171.208008,19.8330078 C170.851561,19.3300756 170.338871,19.0786133 169.669922,19.0786133 C168.776363,19.0786133 168.134279,19.4936482 167.743652,20.3237305 L167.743652,23.7514648 C168.158693,24.5815471 168.80566,24.996582 169.68457,24.996582 C170.333988,24.996582 170.839354,24.7451197 171.200684,24.2421875 C171.562014,23.7392553 171.742676,22.9824269 171.742676,21.9716797 Z M174.445312,21.9643555 C174.445312,21.1879844 174.597899,20.4897492 174.903076,19.8696289 C175.208253,19.2495086 175.633054,18.7709978 176.17749,18.434082 C176.721927,18.0971663 177.343258,17.9287109 178.041504,17.9287109 C179.120611,17.9287109 179.993405,18.3022424 180.659912,19.0493164 C181.326419,19.7963905 181.659668,20.7900329 181.659668,22.0302734 L181.659668,22.1254883 C181.659668,22.8969765 181.511964,23.5891083 181.216553,24.2019043 C180.921141,24.8147003 180.498782,25.2919905 179.949463,25.6337891 C179.400144,25.9755876 178.769047,26.1464844 178.056152,26.1464844 C176.981928,26.1464844 176.111576,25.772953 175.445068,25.0258789 C174.778561,24.2788049 174.445312,23.2900452 174.445312,22.0595703 L174.445312,21.9643555 Z M175.807617,22.1254883 C175.807617,23.0043989 176.011473,23.7099583 176.419189,24.2421875 C176.826906,24.7744167 177.372555,25.0405273 178.056152,25.0405273 C178.744632,25.0405273 179.291502,24.7707547 179.696777,24.2312012 C180.102053,23.6916477 180.304688,22.93604 180.304688,21.9643555 C180.304688,21.0952105 180.098391,20.3908718 179.685791,19.8513184 C179.273191,19.3117649 178.725101,19.0419922 178.041504,19.0419922 C177.372555,19.0419922 176.83301,19.3081028 176.422852,19.840332 C176.012693,20.3725613 175.807617,21.1342724 175.807617,22.1254883 Z M185.86377,20.9682617 L187.621582,18.0751953 L189.203613,18.0751953 L186.61084,21.9936523 L189.28418,26 L187.716797,26 L185.885742,23.0336914 L184.054688,26 L182.47998,26 L185.15332,21.9936523 L182.560547,18.0751953 L184.12793,18.0751953 L185.86377,20.9682617 Z" id="Edit-on-CodeSandbox" fill="#FFFFFF"></path>
    </g>
</svg>