<svg width="193" height="40" viewBox="0 0 193 40" fill="none" xmlns="http://www.w3.org/2000/svg">
<rect width="193" height="40" rx="4" fill="#0971F1"/>
<path d="M42.1449 26H47.9247V24.9844H43.2898V21.7713H47.5554V20.7557H43.2898V17.5611H47.8509V16.5455H42.1449V26ZM52.4442 26.1477C53.8107 26.1477 54.2724 25.2983 54.5124 24.9105H54.6417V26H55.6942V16.5455H54.6048V20.0355H54.5124C54.2724 19.6662 53.8477 18.8168 52.4627 18.8168C50.6715 18.8168 49.4343 20.2386 49.4343 22.473C49.4343 24.7259 50.6715 26.1477 52.4442 26.1477ZM52.592 25.169C51.2255 25.169 50.5238 23.9688 50.5238 22.4545C50.5238 20.9588 51.207 19.7955 52.592 19.7955C53.9215 19.7955 54.6232 20.8665 54.6232 22.4545C54.6232 24.0611 53.9031 25.169 52.592 25.169ZM57.8409 26H58.9304V18.9091H57.8409V26ZM58.3949 17.7273C58.8196 17.7273 59.1705 17.3949 59.1705 16.9886C59.1705 16.5824 58.8196 16.25 58.3949 16.25C57.9702 16.25 57.6193 16.5824 57.6193 16.9886C57.6193 17.3949 57.9702 17.7273 58.3949 17.7273ZM64.0097 18.9091H62.4955V17.2102H61.406V18.9091H60.335V19.8324H61.406V24.2642C61.406 25.5014 62.4031 26.0923 63.3264 26.0923C63.7327 26.0923 63.9912 26.0185 64.1389 25.9631L63.9173 24.9844C63.825 25.0028 63.6773 25.0398 63.4372 25.0398C62.9571 25.0398 62.4955 24.892 62.4955 23.9688V19.8324H64.0097V18.9091ZM72.1855 26.1477C74.1059 26.1477 75.3985 24.6889 75.3985 22.4915C75.3985 20.2756 74.1059 18.8168 72.1855 18.8168C70.265 18.8168 68.9724 20.2756 68.9724 22.4915C68.9724 24.6889 70.265 26.1477 72.1855 26.1477ZM72.1855 25.169C70.7267 25.169 70.0619 23.9134 70.0619 22.4915C70.0619 21.0696 70.7267 19.7955 72.1855 19.7955C73.6443 19.7955 74.309 21.0696 74.309 22.4915C74.309 23.9134 73.6443 25.169 72.1855 25.169ZM77.0616 26H78.1511V21.5682C78.1511 20.5295 78.9082 19.7955 79.7576 19.7955C80.584 19.7955 81.161 20.3356 81.161 21.1435V26H82.269V21.3835C82.269 20.4695 82.8414 19.7955 83.8386 19.7955C84.6142 19.7955 85.2789 20.2063 85.2789 21.2543V26H86.3684V21.2543C86.3684 19.5877 85.4728 18.8168 84.2079 18.8168C83.1923 18.8168 82.449 19.283 82.0843 20.017H82.0105C81.6596 19.2599 81.041 18.8168 80.1085 18.8168C79.1852 18.8168 78.502 19.2599 78.2065 20.017H78.1142V18.9091H77.0616V26ZM100.888 19.7354C100.598 17.6349 98.9819 16.4162 96.886 16.4162C94.4162 16.4162 92.5558 18.2166 92.5558 21.2727C92.5558 24.3242 94.3931 26.1293 96.886 26.1293C99.1342 26.1293 100.625 24.6751 100.888 22.87L99.1619 22.8608C98.945 23.9688 98.0401 24.592 96.9091 24.592C95.3764 24.592 94.2777 23.4425 94.2777 21.2727C94.2777 19.1399 95.3672 17.9535 96.9137 17.9535C98.0632 17.9535 98.9634 18.6044 99.1619 19.7354H100.888ZM105.476 26.1385C107.554 26.1385 108.874 24.6751 108.874 22.4822C108.874 20.2848 107.554 18.8168 105.476 18.8168C103.399 18.8168 102.078 20.2848 102.078 22.4822C102.078 24.6751 103.399 26.1385 105.476 26.1385ZM105.485 24.7997C104.336 24.7997 103.773 23.7749 103.773 22.4776C103.773 21.1804 104.336 20.1417 105.485 20.1417C106.616 20.1417 107.18 21.1804 107.18 22.4776C107.18 23.7749 106.616 24.7997 105.485 24.7997ZM112.924 26.1246C114.142 26.1246 114.692 25.3999 114.955 24.8828H115.056V26H116.7V16.5455H115.024V20.0817H114.955C114.701 19.5692 114.179 18.8168 112.928 18.8168C111.289 18.8168 110.001 20.1001 110.001 22.4638C110.001 24.7997 111.252 26.1246 112.924 26.1246ZM113.39 24.7536C112.287 24.7536 111.705 23.7841 111.705 22.4545C111.705 21.1342 112.277 20.1879 113.39 20.1879C114.466 20.1879 115.056 21.0788 115.056 22.4545C115.056 23.8303 114.456 24.7536 113.39 24.7536ZM121.62 26.1385C123.273 26.1385 124.408 25.3306 124.704 24.098L123.143 23.9226C122.917 24.5227 122.363 24.8366 121.643 24.8366C120.563 24.8366 119.847 24.1257 119.833 22.9116H124.773V22.3991C124.773 19.9109 123.277 18.8168 121.532 18.8168C119.501 18.8168 118.176 20.3079 118.176 22.4961C118.176 24.7212 119.483 26.1385 121.62 26.1385ZM119.838 21.7852C119.889 20.8803 120.558 20.1186 121.555 20.1186C122.516 20.1186 123.162 20.8203 123.171 21.7852H119.838ZM131.399 19.1445H133.047C133.015 17.5472 131.653 16.4162 129.64 16.4162C127.655 16.4162 126.164 17.5334 126.168 19.2045C126.168 20.5618 127.133 21.342 128.689 21.7436L129.765 22.0206C130.785 22.2791 131.459 22.5977 131.463 23.3317C131.459 24.1396 130.692 24.6797 129.575 24.6797C128.504 24.6797 127.673 24.1996 127.604 23.207H125.919C125.988 25.0859 127.387 26.1431 129.589 26.1431C131.856 26.1431 133.172 25.0121 133.176 23.3455C133.172 21.7067 131.819 20.9588 130.397 20.6218L129.511 20.4002C128.735 20.2156 127.895 19.8878 127.904 19.0984C127.909 18.3874 128.546 17.8658 129.617 17.8658C130.637 17.8658 131.311 18.3413 131.399 19.1445ZM136.67 26.1431C137.782 26.1431 138.447 25.6214 138.752 25.0259H138.807V26H140.414V21.2543C140.414 19.38 138.886 18.8168 137.533 18.8168C136.042 18.8168 134.897 19.4815 134.528 20.7741L136.088 20.9957C136.254 20.511 136.725 20.0955 137.542 20.0955C138.318 20.0955 138.742 20.4925 138.742 21.1896V21.2173C138.742 21.6974 138.239 21.7205 136.988 21.8544C135.612 22.0021 134.297 22.413 134.297 24.0103C134.297 25.4045 135.317 26.1431 136.67 26.1431ZM137.104 24.9151C136.407 24.9151 135.908 24.5966 135.908 23.9826C135.908 23.3409 136.467 23.0732 137.214 22.967C137.653 22.907 138.53 22.7962 138.747 22.6207V23.4563C138.747 24.2457 138.11 24.9151 137.104 24.9151ZM143.765 21.8452C143.765 20.8203 144.384 20.2294 145.266 20.2294C146.129 20.2294 146.646 20.7972 146.646 21.7436V26H148.317V21.4851C148.322 19.7862 147.352 18.8168 145.889 18.8168C144.827 18.8168 144.098 19.3246 143.774 20.114H143.691V18.9091H142.094V26H143.765V21.8452ZM152.647 26.1246C153.866 26.1246 154.415 25.3999 154.679 24.8828H154.78V26H156.424V16.5455H154.748V20.0817H154.679C154.425 19.5692 153.903 18.8168 152.652 18.8168C151.013 18.8168 149.725 20.1001 149.725 22.4638C149.725 24.7997 150.976 26.1246 152.647 26.1246ZM153.114 24.7536C152.01 24.7536 151.429 23.7841 151.429 22.4545C151.429 21.1342 152.001 20.1879 153.114 20.1879C154.189 20.1879 154.78 21.0788 154.78 22.4545C154.78 23.8303 154.18 24.7536 153.114 24.7536ZM158.278 26H159.922V24.8828H160.019C160.282 25.3999 160.831 26.1246 162.05 26.1246C163.721 26.1246 164.972 24.7997 164.972 22.4638C164.972 20.1001 163.684 18.8168 162.045 18.8168C160.794 18.8168 160.273 19.5692 160.019 20.0817H159.949V16.5455H158.278V26ZM159.917 22.4545C159.917 21.0788 160.508 20.1879 161.584 20.1879C162.696 20.1879 163.269 21.1342 163.269 22.4545C163.269 23.7841 162.687 24.7536 161.584 24.7536C160.517 24.7536 159.917 23.8303 159.917 22.4545ZM169.486 26.1385C171.563 26.1385 172.884 24.6751 172.884 22.4822C172.884 20.2848 171.563 18.8168 169.486 18.8168C167.408 18.8168 166.088 20.2848 166.088 22.4822C166.088 24.6751 167.408 26.1385 169.486 26.1385ZM169.495 24.7997C168.346 24.7997 167.782 23.7749 167.782 22.4776C167.782 21.1804 168.346 20.1417 169.495 20.1417C170.626 20.1417 171.189 21.1804 171.189 22.4776C171.189 23.7749 170.626 24.7997 169.495 24.7997ZM175.402 18.9091H173.629L175.734 22.4545L173.574 26H175.347L176.833 23.4471L178.333 26H180.092L177.918 22.4545L180.055 18.9091H178.287L176.833 21.5266L175.402 18.9091Z" fill="white"/>
<path opacity="0.6" fill-rule="evenodd" clip-rule="evenodd" d="M22 20.0425V30.2499C22.1713 30.2499 22.2838 30.2113 22.4375 30.1202L30.3129 25.4497C30.6238 25.2648 30.7506 24.9784 30.7506 24.6064V15.1357C30.7506 14.9491 30.7127 14.8375 30.6254 14.6816L22.2519 19.5919C22.0961 19.6843 22 19.8563 22 20.0425ZM26.3752 25.9038C26.3752 26.1632 26.2815 26.293 26.0627 26.4228L23.4376 27.9796C23.2501 28.1092 23 28.0445 23 27.7849V20.8441C23 20.6584 23.1575 20.4178 23.3125 20.3251L29.3129 16.7574C29.4795 16.6579 29.6254 16.8173 29.6254 17.0169V20.7144C29.6254 20.906 29.5383 21.0783 29.3753 21.1685L26.6877 22.6604C26.5248 22.7506 26.3752 22.9228 26.3752 23.1145V25.9038Z" fill="white"/>
<path fill-rule="evenodd" clip-rule="evenodd" d="M13.249 24.606V15.1353C13.249 14.7629 13.4375 14.412 13.749 14.2272L21.3744 9.75132C21.5387 9.66096 21.8119 9.62158 21.9994 9.62158C22.187 9.62158 22.4762 9.66978 22.6245 9.75132L30.1873 14.2272C30.3369 14.319 30.5402 14.5303 30.6248 14.6813L22.2494 19.6112C22.0936 19.7036 21.9994 19.8791 21.9994 20.0653V30.2496C21.8282 30.2496 21.6531 30.2109 21.4994 30.1198L13.8116 25.5142C13.5 25.3294 13.249 24.9785 13.249 24.606ZM14.3741 17.0165V20.714C14.3741 20.9734 14.4366 21.1032 14.6866 21.2329L17.3117 22.7898C17.5617 22.9195 17.6242 23.1141 17.6242 23.3087V25.9034C17.6242 26.1628 17.6867 26.2926 17.9367 26.4224L20.5619 27.9792C20.8118 28.1089 20.9994 28.0441 20.9994 27.7845V20.8438C20.9994 20.6491 20.9369 20.4545 20.6869 20.3248L14.8116 16.8219C14.6241 16.6922 14.3741 16.757 14.3741 17.0165ZM24.6246 12.6055L22.3119 13.9677C22.1245 14.0975 21.8744 14.0975 21.687 13.9677L19.3743 12.6055C19.2221 12.5162 19.0268 12.5167 18.8743 12.6055L15.9992 14.2921C15.7491 14.4218 15.7491 14.6813 15.9992 14.811L21.7494 18.249C21.9033 18.3404 22.0956 18.3404 22.2494 18.249L27.9997 14.811C28.1872 14.6813 28.2497 14.4218 27.9997 14.2921L25.1246 12.6055C24.9721 12.5167 24.7768 12.5162 24.6246 12.6055Z" fill="#F2F2F2"/>
</svg>
