<svg width="184" height="40" viewBox="0 0 184 40" fill="none" xmlns="http://www.w3.org/2000/svg">
<path d="M0 4C0 1.79086 1.79086 0 4 0H179.501C181.71 0 183.501 1.79086 183.501 4V36C183.501 38.2091 181.71 40 179.501 40H4C1.79087 40 0 38.2091 0 36V4Z" fill="#2286F7"/>
<path fill-rule="evenodd" clip-rule="evenodd" d="M16 24.3055V15.5748C16 15.2314 16.1884 14.9079 16.5 14.7376L24.1254 10.6114C24.2897 10.5281 24.5629 10.4918 24.7504 10.4918C24.938 10.4918 25.2272 10.5362 25.3755 10.6114L32.9383 14.7376C33.0879 14.8222 33.2912 15.017 33.3758 15.1562L25.0004 19.701C24.8446 19.7861 24.7504 19.9479 24.7504 20.1196V29.5082C24.5792 29.5082 24.4041 29.4726 24.2504 29.3886L16.5625 25.1428C16.2509 24.9724 16 24.6489 16 24.3055ZM17.1251 17.309V20.7176C17.1251 20.9567 17.1876 21.0764 17.4376 21.196L20.0627 22.6312C20.3127 22.7508 20.3752 22.9302 20.3752 23.1096V25.5016C20.3752 25.7407 20.4377 25.8604 20.6877 25.98L23.3128 27.4152C23.5628 27.5348 23.7504 27.475 23.7504 27.2357V20.8372C23.7504 20.6578 23.6879 20.4783 23.4379 20.3588L17.5626 17.1296C17.3751 17.01 17.1251 17.0698 17.1251 17.309ZM27.3755 13.2426L25.0629 14.4984C24.8754 14.618 24.6254 14.618 24.4379 14.4984L22.1253 13.2426C21.9731 13.1602 21.7777 13.1607 21.6253 13.2426L18.7501 14.7974C18.5001 14.917 18.5001 15.1562 18.7501 15.2758L24.5004 18.4452C24.6543 18.5295 24.8466 18.5295 25.0004 18.4452L30.7507 15.2758C30.9382 15.1562 31.0007 14.917 30.7507 14.7974L27.8756 13.2426C27.7231 13.1607 27.5278 13.1602 27.3755 13.2426Z" fill="white"/>
<path fill-rule="evenodd" clip-rule="evenodd" d="M24.7505 20.0983V29.5083C24.9218 29.5083 25.0343 29.4727 25.1881 29.3888L33.0635 25.0832C33.3744 24.9127 33.5012 24.6486 33.5012 24.3057V15.5749C33.5012 15.4029 33.4633 15.3 33.3759 15.1563L25.0025 19.683C24.8467 19.7681 24.7505 19.9267 24.7505 20.0983ZM29.1257 25.5017C29.1257 25.7409 29.032 25.8605 28.8132 25.9801L26.1881 27.4153C26.0006 27.5349 25.7506 27.4752 25.7506 27.2359V20.8373C25.7506 20.6661 25.908 20.4443 26.0631 20.3589L32.0634 17.0699C32.2301 16.9781 32.3759 17.1251 32.3759 17.3091V20.7178C32.3759 20.8944 32.2888 21.0532 32.1258 21.1363L29.4383 22.5117C29.2753 22.5949 29.1257 22.7536 29.1257 22.9303V25.5017Z" fill="white"/>
<path d="M42.84 25H48.6545V23.7749H44.2619V20.9312H48.4196V19.7378H44.2619V17.0654H48.6545V15.8403H42.84V25ZM52.444 25.1333C53.4025 25.1333 54.1389 24.6509 54.5388 23.8701H54.5641V25H55.9416V15.8403H54.5641V19.4585H54.5388C54.1389 18.6714 53.3771 18.1953 52.4313 18.1953C50.7556 18.1953 49.6511 19.5283 49.6511 21.6548V21.6611C49.6511 23.7876 50.7429 25.1333 52.444 25.1333ZM52.8058 23.9526C51.7204 23.9526 51.0539 23.083 51.0539 21.6611V21.6548C51.0539 20.2456 51.7267 19.3696 52.8058 19.3696C53.8342 19.3696 54.5705 20.271 54.5705 21.6548V21.6611C54.5705 23.0513 53.8405 23.9526 52.8058 23.9526ZM58.0934 17.2939C58.5441 17.2939 58.8932 16.9385 58.8932 16.5068C58.8932 16.0688 58.5441 15.7134 58.0934 15.7134C57.6491 15.7134 57.2936 16.0688 57.2936 16.5068C57.2936 16.9385 57.6491 17.2939 58.0934 17.2939ZM57.4079 25H58.779V18.3223H57.4079V25ZM62.5368 25.1333C62.8161 25.1333 63.0764 25.1016 63.235 25.0762V24.0161C63.1335 24.0288 63.0129 24.0415 62.8669 24.0415C62.2892 24.0415 61.9846 23.8384 61.9846 23.1592V19.4141H63.235V18.3223H61.9846V16.583H60.5817V18.3223H59.6232V19.4141H60.5817V23.2417C60.5817 24.5747 61.2165 25.1333 62.5368 25.1333ZM69.881 25.1333C71.7917 25.1333 73.0485 23.813 73.0485 21.6611V21.6484C73.0485 19.5093 71.779 18.1953 69.8747 18.1953C67.9767 18.1953 66.7136 19.5156 66.7136 21.6484V21.6611C66.7136 23.8066 67.9641 25.1333 69.881 25.1333ZM69.8874 23.9844C68.8146 23.9844 68.1164 23.1401 68.1164 21.6611V21.6484C68.1164 20.1885 68.821 19.3442 69.8747 19.3442C70.9474 19.3442 71.6457 20.1885 71.6457 21.6484V21.6611C71.6457 23.1338 70.9601 23.9844 69.8874 23.9844ZM74.1086 25H75.4797V21.1089C75.4797 20.0679 76.1017 19.3696 77.0666 19.3696C78.0187 19.3696 78.4885 19.9346 78.4885 20.9375V25H79.8659V20.6772C79.8659 19.1411 79.0217 18.1953 77.5554 18.1953C76.5461 18.1953 75.8605 18.6523 75.5114 19.3315H75.4797V18.3223H74.1086V25ZM87.9909 25.1587C90.2062 25.1587 91.8122 23.7686 91.9899 21.8198L91.9963 21.75H90.1301L90.1174 21.8135C89.8698 22.8989 89.0954 23.5337 87.9909 23.5337C86.5246 23.5337 85.5851 22.3403 85.5851 20.4106V20.4043C85.5851 18.4873 86.5246 17.3066 87.9909 17.3066C89.1335 17.3066 89.8825 17.9668 90.0983 18.9761L90.1237 19.084H91.9899L91.9836 19.0269C91.8058 17.0845 90.2126 15.6816 87.9909 15.6816C85.3185 15.6816 83.6301 17.459 83.6301 20.4106V20.417C83.6301 23.3687 85.3122 25.1587 87.9909 25.1587ZM96.1476 25.1396C98.2043 25.1396 99.5182 23.8193 99.5182 21.5977V21.585C99.5182 19.3823 98.1789 18.0557 96.1413 18.0557C94.11 18.0557 92.777 19.395 92.777 21.585V21.5977C92.777 23.813 94.0783 25.1396 96.1476 25.1396ZM96.154 23.686C95.2399 23.686 94.6623 22.9307 94.6623 21.5977V21.585C94.6623 20.271 95.2463 19.5093 96.1413 19.5093C97.0427 19.5093 97.633 20.271 97.633 21.585V21.5977C97.633 22.9243 97.0554 23.686 96.154 23.686ZM102.997 25.1396C103.981 25.1396 104.73 24.6445 105.091 23.8384H105.13V25H106.983V15.8403H105.13V19.376H105.091C104.723 18.5508 103.962 18.0557 102.997 18.0557C101.283 18.0557 100.229 19.376 100.229 21.5913V21.5977C100.229 23.8066 101.283 25.1396 102.997 25.1396ZM103.619 23.6035C102.692 23.6035 102.114 22.8354 102.114 21.5977V21.5913C102.114 20.3472 102.698 19.5918 103.619 19.5918C104.514 19.5918 105.136 20.3662 105.136 21.5913V21.5977C105.136 22.8291 104.52 23.6035 103.619 23.6035ZM111.319 25.1396C113.261 25.1396 114.2 23.9907 114.41 22.9878L114.429 22.918H112.728L112.715 22.9561C112.582 23.3369 112.118 23.7559 111.357 23.7559C110.411 23.7559 109.82 23.1211 109.801 22.0356H114.486V21.4644C114.486 19.4077 113.236 18.0557 111.242 18.0557C109.249 18.0557 107.973 19.4395 107.973 21.604V21.6104C107.973 23.7876 109.237 25.1396 111.319 25.1396ZM111.274 19.4395C112.042 19.4395 112.594 19.9282 112.709 20.8677H109.82C109.941 19.9473 110.512 19.4395 111.274 19.4395ZM118.948 25.1587C121.259 25.1587 122.643 24.0415 122.643 22.2832V22.2769C122.643 20.8359 121.779 20.0552 119.862 19.6743L118.891 19.4775C117.838 19.2681 117.368 18.9316 117.368 18.354V18.3477C117.368 17.6938 117.958 17.2432 118.942 17.2368C119.888 17.2368 120.548 17.6748 120.643 18.3921L120.65 18.4683H122.459L122.452 18.3477C122.363 16.7417 121.062 15.6816 118.942 15.6816C116.911 15.6816 115.451 16.7861 115.451 18.4619V18.4683C115.451 19.8457 116.365 20.709 118.174 21.0708L119.139 21.2612C120.275 21.4961 120.726 21.8071 120.726 22.4292V22.4355C120.726 23.1338 120.059 23.5972 118.999 23.5972C117.952 23.5972 117.196 23.1528 117.076 22.4419L117.063 22.3721H115.254L115.26 22.4736C115.368 24.1621 116.771 25.1587 118.948 25.1587ZM125.683 25.1079C126.578 25.1079 127.302 24.6826 127.689 23.9844H127.727V25H129.581V20.3345C129.581 18.9634 128.445 18.0557 126.686 18.0557C124.89 18.0557 123.811 18.957 123.709 20.2139L123.703 20.29H125.398L125.41 20.2329C125.499 19.7949 125.918 19.4712 126.61 19.4712C127.334 19.4712 127.727 19.8457 127.727 20.4487V20.8677L126.045 20.9692C124.357 21.0771 123.398 21.8008 123.398 23.0386V23.0513C123.398 24.251 124.319 25.1079 125.683 25.1079ZM125.233 22.9561V22.9434C125.233 22.4609 125.607 22.1562 126.324 22.1118L127.727 22.0229V22.5117C127.727 23.2227 127.118 23.7559 126.286 23.7559C125.645 23.7559 125.233 23.4575 125.233 22.9561ZM130.78 25H132.634V21.0898C132.634 20.2012 133.161 19.5918 133.992 19.5918C134.824 19.5918 135.243 20.0996 135.243 20.9883V25H137.096V20.6074C137.096 19.0142 136.246 18.0557 134.748 18.0557C133.719 18.0557 133.021 18.5317 132.672 19.3125H132.634V18.1953H130.78V25ZM140.791 25.1396C141.775 25.1396 142.524 24.6445 142.885 23.8384H142.924V25H144.777V15.8403H142.924V19.376H142.885C142.517 18.5508 141.756 18.0557 140.791 18.0557C139.077 18.0557 138.023 19.376 138.023 21.5913V21.5977C138.023 23.8066 139.077 25.1396 140.791 25.1396ZM141.413 23.6035C140.486 23.6035 139.908 22.8354 139.908 21.5977V21.5913C139.908 20.3472 140.492 19.5918 141.413 19.5918C142.308 19.5918 142.93 20.3662 142.93 21.5913V21.5977C142.93 22.8291 142.314 23.6035 141.413 23.6035ZM150.046 25.1396C151.759 25.1396 152.82 23.8066 152.82 21.5977V21.5913C152.82 19.376 151.759 18.0557 150.052 18.0557C149.081 18.0557 148.325 18.5508 147.951 19.376H147.913V15.8403H146.059V25H147.913V23.8384H147.951C148.319 24.6445 149.068 25.1396 150.046 25.1396ZM149.43 23.6035C148.529 23.6035 147.913 22.8291 147.913 21.5977V21.5913C147.913 20.3662 148.535 19.5918 149.43 19.5918C150.35 19.5918 150.934 20.3472 150.934 21.5913V21.5977C150.934 22.8354 150.35 23.6035 149.43 23.6035ZM156.895 25.1396C158.951 25.1396 160.265 23.8193 160.265 21.5977V21.585C160.265 19.3823 158.926 18.0557 156.888 18.0557C154.857 18.0557 153.524 19.395 153.524 21.585V21.5977C153.524 23.813 154.825 25.1396 156.895 25.1396ZM156.901 23.686C155.987 23.686 155.409 22.9307 155.409 21.5977V21.585C155.409 20.271 155.993 19.5093 156.888 19.5093C157.79 19.5093 158.38 20.271 158.38 21.585V21.5977C158.38 22.9243 157.802 23.686 156.901 23.686ZM160.278 25H162.227L163.503 22.6387H163.541L164.836 25H166.848L164.74 21.5596L166.867 18.1953H164.848L163.642 20.4932H163.604L162.379 18.1953H160.291L162.411 21.6104L160.278 25Z" fill="white"/>
<path d="M4 1H179.501V-1H4V1ZM182.501 4V36H184.501V4H182.501ZM179.501 39H4V41H179.501V39ZM1 36V4H-1V36H1ZM4 39C2.34315 39 1 37.6569 1 36H-1C-1 38.7614 1.23858 41 4 41V39ZM182.501 36C182.501 37.6569 181.158 39 179.501 39V41C182.263 41 184.501 38.7614 184.501 36H182.501ZM179.501 1C181.158 1 182.501 2.34315 182.501 4H184.501C184.501 1.23857 182.263 -1 179.501 -1V1ZM4 -1C1.23858 -1 -1 1.23858 -1 4H1C1 2.34315 2.34315 1 4 1V-1Z" fill="#2286F7"/>
</svg>
