<svg width="201" height="42" xmlns="http://www.w3.org/2000/svg" xmlns:xlink="http://www.w3.org/1999/xlink"><defs><filter x="-14%" y="-13.3%" width="128.1%" height="126.6%" filterUnits="objectBoundingBox" id="d"><feGaussianBlur stdDeviation="1.5" in="SourceAlpha" result="shadowBlurInner1"/><feOffset dy="1" in="shadowBlurInner1" result="shadowOffsetInner1"/><feComposite in="shadowOffsetInner1" in2="SourceAlpha" operator="arithmetic" k2="-1" k3="1" result="shadowInnerInner1"/><feColorMatrix values="0 0 0 0 0 0 0 0 0 0 0 0 0 0 0 0 0 0 0.5 0" in="shadowInnerInner1"/></filter><filter x="-39.2%" y="-25.4%" width="178.4%" height="171.2%" filterUnits="objectBoundingBox" id="e"><feOffset dy="1" in="SourceAlpha" result="shadowOffsetOuter1"/><feGaussianBlur stdDeviation="1" in="shadowOffsetOuter1" result="shadowBlurOuter1"/><feColorMatrix values="0 0 0 0 0 0 0 0 0 0 0 0 0 0 0 0 0 0 0.232365263 0" in="shadowBlurOuter1"/></filter><path id="c" d="M0 21.023l12.456 6.954L24.916 21V7.017L12.458 0 0 7.048z"/><path d="M9.176 10.509c0-1.107.78-1.558 1.733-1.015l6.481 3.698c.957.546.952 1.434 0 1.978l-6.481 3.698c-.957.546-1.733.098-1.733-1.014v-7.345z" id="f"/><linearGradient x1="100%" y1="0%" x2="0%" y2="100%" id="b"><stop stop-color="#7ABAE8" offset="0%"/><stop stop-color="#56A0D6" offset="100%"/></linearGradient><rect id="a" x="0" y="0" width="201" height="42" rx="4"/></defs><g fill="none" fill-rule="evenodd"><use fill="#6CAEDD" xlink:href="#a"/><use fill="url(#b)" xlink:href="#a"/><g fill-rule="nonzero" fill="#FFD399"><path d="M31.263 31.51v-6.555l5.846-3.293v6.566l-5.846 3.283M17.972 25.056l-5.748-3.239v6.477l5.748 3.255v-6.493M24.668 13.645l5.844-3.296-5.842-3.311-5.865 3.322 5.863 3.285"/></g><g transform="translate(12 7)"><use fill="#FFD399" xlink:href="#c"/><use fill="#000" filter="url(#d)" xlink:href="#c"/><use stroke="#FFF" stroke-width="3" xlink:href="#c"/></g><g transform="translate(12 7)"><use fill="#000" filter="url(#e)" xlink:href="#f"/><use fill="#FFF" xlink:href="#f"/></g><path d="M55.236 20.888H50.25v4.35h5.734V26h-6.635V15.336h6.599v.769h-5.698v4.021h4.987v.762zm1.949 1.076c0-1.23.274-2.21.824-2.94.549-.73 1.295-1.095 2.237-1.095 1.07 0 1.885.422 2.446 1.267V14.75h.872V26h-.82l-.037-1.055c-.561.801-1.387 1.201-2.476 1.201-.913 0-1.649-.367-2.208-1.102-.559-.735-.838-1.727-.838-2.977v-.103zm.886.154c0 1.01.202 1.808.608 2.392.405.583.976.875 1.714.875 1.079 0 1.845-.476 2.3-1.428v-3.721c-.455-1.03-1.216-1.546-2.286-1.546-.737 0-1.31.29-1.721.868-.41.579-.615 1.432-.615 2.56zM66.853 26h-.88v-7.925h.88V26zM65.82 15.783c0-.166.054-.307.161-.421a.573.573 0 01.44-.173c.185 0 .333.058.443.173.11.114.164.255.164.42a.574.574 0 01-.164.418.592.592 0 01-.444.169.58.58 0 01-.439-.169.58.58 0 01-.161-.417zm4.775.263v2.03h1.64v.717h-1.64v5.28c0 .44.08.767.238.982.159.215.424.322.795.322.146 0 .383-.024.71-.073l.037.718c-.23.083-.542.124-.938.124-.6 0-1.037-.174-1.31-.523-.274-.35-.41-.863-.41-1.542v-5.288h-1.458v-.718h1.457v-2.029h.88zm6.621 5.874c0-.761.148-1.447.443-2.058a3.377 3.377 0 011.253-1.424 3.374 3.374 0 011.835-.51c1.054 0 1.909.37 2.563 1.11.654.74.982 1.72.982 2.941v.183c0 .767-.148 1.456-.444 2.07-.295.612-.711 1.084-1.248 1.416-.538.332-1.15.498-1.839.498-1.05 0-1.903-.37-2.56-1.11-.656-.739-.985-1.72-.985-2.94v-.176zm.88.242c0 .947.245 1.725.735 2.333.491.608 1.134.912 1.93.912.791 0 1.432-.304 1.923-.912.49-.608.736-1.41.736-2.406v-.169c0-.605-.112-1.16-.337-1.662-.225-.503-.54-.893-.945-1.168a2.414 2.414 0 00-1.391-.414c-.782 0-1.419.306-1.912.919-.493.613-.74 1.415-.74 2.406v.161zm8.84-4.087l.029 1.355c.298-.488.669-.86 1.113-1.117a2.893 2.893 0 011.472-.384c.85 0 1.482.239 1.897.717.415.479.625 1.197.63 2.154V26h-.871v-5.208c-.005-.708-.155-1.235-.45-1.582-.296-.346-.769-.52-1.418-.52-.542 0-1.022.17-1.44.51-.417.339-.726.797-.926 1.373V26h-.871v-7.925h.835zm18.991 4.541c-.132 1.128-.548 1.998-1.249 2.611-.7.613-1.632.92-2.794.92-1.26 0-2.269-.452-3.028-1.355-.76-.904-1.14-2.112-1.14-3.626v-1.025c0-.992.178-1.863.532-2.615.354-.752.856-1.33 1.505-1.732.65-.403 1.401-.605 2.256-.605 1.133 0 2.04.317 2.724.949.684.632 1.082 1.508 1.194 2.626h-1.413c-.122-.85-.387-1.465-.795-1.846-.408-.38-.978-.571-1.71-.571-.899 0-1.603.332-2.113.996-.51.664-.766 1.609-.766 2.834v1.033c0 1.157.242 2.078.725 2.761.484.684 1.16 1.026 2.03 1.026.78 0 1.38-.177 1.797-.531.418-.354.695-.97.832-1.85h1.413zm1.348-.652c0-.776.152-1.474.458-2.094.305-.62.73-1.099 1.274-1.436.545-.337 1.166-.505 1.864-.505 1.08 0 1.952.373 2.619 1.12.666.747 1 1.741 1 2.981v.095c0 .772-.148 1.464-.444 2.077a3.365 3.365 0 01-1.267 1.432c-.55.342-1.18.512-1.893.512-1.074 0-1.945-.373-2.611-1.12-.667-.747-1-1.736-1-2.966v-.096zm1.362.161c0 .88.204 1.585.612 2.117.407.532.953.799 1.637.799.688 0 1.235-.27 1.64-.81.406-.54.608-1.295.608-2.267 0-.869-.206-1.573-.619-2.113-.412-.54-.96-.809-1.644-.809-.669 0-1.208.266-1.619.798-.41.533-.615 1.294-.615 2.285zm7.222-.153c0-1.216.288-2.194.864-2.934.576-.74 1.33-1.11 2.263-1.11.928 0 1.663.318 2.205.953V14.75h1.355V26H121.3l-.066-.85c-.542.664-1.297.996-2.263.996-.918 0-1.667-.375-2.245-1.127-.579-.752-.868-1.734-.868-2.945v-.102zm1.355.153c0 .899.185 1.602.557 2.11.37.508.883.762 1.538.762.859 0 1.486-.386 1.882-1.158V20.2c-.405-.747-1.028-1.12-1.868-1.12-.664 0-1.181.256-1.552.769-.372.512-.557 1.272-.557 2.277zm10.723 4.021c-1.075 0-1.949-.352-2.623-1.058-.673-.705-1.01-1.649-1.01-2.83v-.25c0-.786.15-1.488.45-2.105.3-.618.72-1.101 1.26-1.45a3.167 3.167 0 011.754-.524c1.03 0 1.831.34 2.402 1.018.572.678.857 1.65.857 2.915v.564h-5.368c.02.781.247 1.412.685 1.893.437.481.992.722 1.666.722.478 0 .884-.098 1.216-.293.332-.196.622-.455.871-.777l.828.645c-.664 1.02-1.66 1.53-2.988 1.53zm-.169-7.104c-.547 0-1.006.199-1.377.597-.371.398-.6.956-.688 1.674h3.97v-.103c-.04-.689-.225-1.222-.557-1.6-.332-.379-.782-.568-1.348-.568zm8.181 2.205c-1.206-.347-2.084-.773-2.633-1.278a2.442 2.442 0 01-.824-1.872c0-.84.336-1.534 1.007-2.084.672-.549 1.544-.824 2.619-.824.732 0 1.385.142 1.959.425a3.222 3.222 0 011.333 1.172c.315.498.472 1.043.472 1.633h-1.413c0-.644-.205-1.15-.615-1.52-.41-.368-.99-.552-1.736-.552-.694 0-1.234.152-1.623.457-.388.306-.582.73-.582 1.271 0 .435.184.802.553 1.102.369.3.996.575 1.882.824.887.25 1.58.524 2.08.824.501.3.872.651 1.114 1.051.241.4.362.872.362 1.414 0 .864-.337 1.556-1.01 2.076-.674.52-1.575.78-2.703.78-.733 0-1.416-.14-2.05-.42-.636-.281-1.125-.666-1.47-1.154a2.815 2.815 0 01-.516-1.663h1.414c0 .645.238 1.154.714 1.527.476.374 1.112.56 1.908.56.742 0 1.311-.15 1.706-.454.396-.302.594-.715.594-1.237 0-.523-.183-.927-.55-1.212-.366-.286-1.03-.568-1.992-.846zM146.386 26c-.078-.156-.141-.435-.19-.835-.63.654-1.382.981-2.256.981-.781 0-1.422-.22-1.923-.662-.5-.442-.75-1.003-.75-1.681 0-.825.313-1.466.94-1.923.628-.456 1.51-.685 2.648-.685h1.319v-.622c0-.474-.142-.851-.425-1.132-.283-.28-.7-.421-1.252-.421-.484 0-.89.122-1.216.366-.327.244-.491.54-.491.886h-1.362c0-.395.14-.777.42-1.146.282-.368.662-.66 1.143-.875a3.844 3.844 0 011.586-.322c.913 0 1.629.228 2.146.685.518.456.786 1.085.806 1.886v3.647c0 .728.093 1.306.278 1.736V26h-1.42zm-2.248-1.033c.425 0 .827-.11 1.208-.33.381-.219.657-.505.828-.856v-1.626h-1.062c-1.66 0-2.49.486-2.49 1.457 0 .425.141.757.424.996.284.24.647.36 1.092.36zm6.797-6.892l.044.996c.605-.761 1.396-1.142 2.373-1.142 1.674 0 2.52.945 2.534 2.834V26h-1.355v-5.244c-.005-.571-.136-.994-.392-1.267-.256-.274-.656-.41-1.198-.41-.439 0-.825.117-1.157.351-.332.235-.59.542-.776.923V26h-1.355v-7.925h1.282zm6.665 3.897c0-1.216.288-2.194.864-2.934.576-.74 1.33-1.11 2.263-1.11.928 0 1.663.318 2.205.953V14.75h1.355V26h-1.245l-.066-.85c-.542.664-1.297.996-2.264.996-.918 0-1.666-.375-2.244-1.127-.58-.752-.868-1.734-.868-2.945v-.102zm1.355.153c0 .899.185 1.602.556 2.11.371.508.884.762 1.538.762.86 0 1.487-.386 1.883-1.158V20.2c-.406-.747-1.028-1.12-1.868-1.12-.664 0-1.182.256-1.553.769-.37.512-.556 1.272-.556 2.277zm14.143 0c0 1.211-.279 2.184-.835 2.92-.557.734-1.304 1.101-2.242 1.101-1 0-1.774-.354-2.321-1.062l-.066.916h-1.245V14.75h1.355v4.197c.547-.679 1.3-1.018 2.263-1.018.962 0 1.717.363 2.267 1.091.549.728.824 1.724.824 2.988v.117zm-1.355-.153c0-.923-.179-1.636-.535-2.139-.356-.503-.87-.754-1.538-.754-.894 0-1.536.415-1.926 1.245v3.427c.415.83 1.062 1.246 1.94 1.246.65 0 1.155-.252 1.517-.755.361-.503.542-1.26.542-2.27zm2.702-.008c0-.776.153-1.474.458-2.094.305-.62.73-1.099 1.274-1.436.545-.337 1.166-.505 1.865-.505 1.079 0 1.951.373 2.618 1.12.666.747 1 1.741 1 2.981v.095c0 .772-.148 1.464-.443 2.077a3.365 3.365 0 01-1.268 1.432c-.549.342-1.18.512-1.893.512-1.074 0-1.944-.373-2.61-1.12-.667-.747-1-1.736-1-2.966v-.096zm1.363.161c0 .88.203 1.585.611 2.117s.954.799 1.637.799c.689 0 1.236-.27 1.64-.81.406-.54.609-1.295.609-2.267 0-.869-.207-1.573-.62-2.113-.412-.54-.96-.809-1.643-.809-.67 0-1.209.266-1.62.798-.41.533-.614 1.294-.614 2.285zm10.056-1.157l1.758-2.893h1.582l-2.593 3.919L189.284 26h-1.567l-1.831-2.966L184.055 26h-1.575l2.673-4.006-2.592-3.919h1.567l1.736 2.893z" fill="#FFF"/></g></svg>