<svg xmlns="http://www.w3.org/2000/svg" width="598" height="387" fill="none" viewBox="0 0 598 387"><mask id="mask0" width="868" height="453" x="-270" y="0" mask-type="alpha" maskUnits="userSpaceOnUse"><rect width="867.687" height="453" x="-270" fill="#151515" rx="5.792"/></mask><g mask="url(#mask0)"><g filter="url(#filter0_d)"><rect width="727" height="491" x="-124" fill="#151515" rx="4.134"/></g><g filter="url(#filter1_i)"><path fill="#202124" d="M-124.008 4.21604C-124.008 1.93289 -122.157 0.0820312 -119.874 0.0820312H599.358V46.7859H-124.008V4.21604Z"/></g><rect width="726.796" height="359.918" x="-87" y="90" fill="#151515"/><rect width="320.03" height="439.478" x="279" y="87" fill="#242424"/><g filter="url(#filter2_dd)"><rect width="57.664" height="413.118" x="218.338" y="117.758" fill="#151515"/></g><g filter="url(#filter3_d)"><rect width="400.784" height="27.154" x="-123.372" y="90.148" fill="#151515"/></g><rect width="62.828" height="6.886" x="-56.81" y="142.492" fill="#999" rx="3.443"/><rect width="41.312" height="6.886" x="14.624" y="142.492" fill="#BF5AF2" rx="3.443"/><rect width="62.828" height="6.886" x="64.544" y="142.492" fill="#757575" rx="3.443"/><rect width="28.402" height="6.885" x="-24.964" y="157.125" fill="#0971F1" rx="3.443"/><rect width="28.402" height="6.885" x="6.882" y="157.125" fill="#0971F1" rx="3.443"/><rect width="15.492" height="6.885" x="40.447" y="157.125" fill="#BF5AF2" rx="3.443"/><rect width="122.214" height="6.885" x="64.544" y="157.125" fill="#757575" rx="3.443"/><rect width="30.123" height="6.885" x="-24.964" y="170.895" fill="#0971F1" rx="3.443"/><rect width="9.467" height="6.885" x="6.882" y="170.895" fill="#0971F1" rx="3.443"/><rect width="9.467" height="6.885" x="18.93" y="170.895" fill="#0971F1" rx="3.443"/><rect width="18.074" height="6.885" x="31.837" y="170.895" fill="#BF5AF2" rx="3.443"/><rect width="25.82" height="6.886" x="52.495" y="171.754" fill="#999" rx="3.443"/><rect width="96.394" height="6.886" x="84.341" y="171.754" fill="#757575" rx="3.443"/><rect width="122.214" height="6.885" x="3.436" y="184.664" fill="#757575" rx="3.443"/><rect width="38.73" height="6.885" x="-26.687" y="198.438" fill="#BF5AF2" rx="3.443"/><rect width="49.919" height="6.885" x="14.624" y="198.438" fill="#757575" rx="3.443"/><rect width="49.919" height="6.885" x="67.128" y="198.438" fill="#BF5AF2" rx="3.443"/><rect width="49.919" height="6.885" x="119.625" y="198.438" fill="#757575" rx="3.443"/><rect width="24.099" height="6.886" x="-16.354" y="212.207" fill="#757575" rx="3.443"/><rect width="49.919" height="6.886" x="12.046" y="212.207" fill="#757575" rx="3.443"/><rect width="26.681" height="6.886" x="64.544" y="212.207" fill="#757575" rx="3.443"/><rect width="80.902" height="6.885" x="-56.809" y="225.977" fill="#0971F1" rx="3.443"/><rect width="24.099" height="6.885" x="31.837" y="225.977" fill="#BF5AF2" rx="3.443"/><rect width="52" height="7" x="64.999" y="226" fill="#999" rx="3.443"/><rect width="45.615" height="6.886" x="-37.954" y="239.746" fill="#757575" rx="3.443"/><rect width="32.845" height="6.885" x="-.012" y="272.453" fill="#BF5AF2" rx="3.443"/><rect width="49.952" height="6.885" x="39.679" y="272.453" fill="#757575" rx="3.443"/><rect width="22.581" height="6.886" x="-6.174" y="287.086" fill="#0971F1" rx="3.443"/><rect width="12.317" height="6.886" x="20.514" y="287.086" fill="#BF5AF2" rx="3.443"/><rect width="97.167" height="6.885" x="39.679" y="287.086" fill="#757575" rx="3.443"/><rect width="29.263" height="6.886" x="-.863" y="300.855" fill="#BF5AF2" rx="3.443"/><rect width="20.528" height="6.885" x="30.09" y="301.715" fill="#757575" rx="3.443"/><rect width="76.639" height="6.885" x="55.406" y="301.715" fill="#757575" rx="3.443"/><rect width="47.337" height="6.885" x="-30.99" y="314.625" fill="#0971F1" rx="3.443"/><rect width="61.968" height="6.885" x="26.676" y="314.625" fill="#757575" rx="3.443"/><rect width="39.688" height="6.885" x="-.012" y="328.395" fill="#757575" rx="3.443"/><rect width="39.688" height="6.885" x="41.728" y="328.395" fill="#757575" rx="3.443"/><rect width="39.688" height="6.885" x="83.466" y="328.395" fill="#757575" rx="3.443"/><rect width="39.688" height="6.885" x="-2.065" y="342.168" fill="#BF5AF2" rx="3.443"/><rect width="21.213" height="6.885" x="39.679" y="342.168" fill="#999" rx="3.443"/><rect width="64.322" height="6.885" x="-56.809" y="355.938" fill="#0971F1" rx="3.443"/><rect width="19.16" height="6.885" x="13.672" y="355.938" fill="#BF5AF2" rx="3.443"/><rect width="97.167" height="6.885" x="39.679" y="355.938" fill="#757575" rx="3.443"/><rect width="75.955" height="6.885" x="-43.118" y="369.707" fill="#999" rx="3.443"/><rect width="36.267" height="6.885" x="39.679" y="369.707" fill="#999" rx="3.443"/><rect width="36.267" height="6.885" x="81.413" y="369.707" fill="#0971F1" rx="3.443"/><rect width="8.139" height=".762" x="229.2" y="127.336" fill="#999" rx=".381"/><rect width="5.352" height=".762" x="238.453" y="127.336" fill="#BF5AF2" rx=".381"/><rect width="8.139" height=".762" x="244.92" y="127.336" fill="#757575" rx=".381"/><rect width="3.679" height=".762" x="229.2" y="128.957" fill="#0971F1" rx=".381"/><rect width="3.679" height=".762" x="233.33" y="128.957" fill="#0971F1" rx=".381"/><rect width="3.679" height=".762" x="237.453" y="128.957" fill="#0971F1" rx=".381"/><rect width="2.007" height=".762" x="241.798" y="128.957" fill="#BF5AF2" rx=".381"/><rect width="15.832" height=".762" x="244.92" y="128.957" fill="#757575" rx=".381"/><rect width="3.902" height=".762" x="229.2" y="130.48" fill="#999" rx=".381"/><rect width="3.902" height=".762" x="233.33" y="130.48" fill="#0971F1" rx=".381"/><rect width="1.226" height=".762" x="237.453" y="130.48" fill="#0971F1" rx=".381"/><rect width="1.226" height=".762" x="239.016" y="130.48" fill="#0971F1" rx=".381"/><rect width="2.341" height=".762" x="240.686" y="130.48" fill="#BF5AF2" rx=".381"/><rect width="3.345" height=".762" x="243.361" y="130.574" fill="#999" rx=".381"/><rect width="12.487" height=".762" x="247.487" y="130.574" fill="#757575" rx=".381"/><rect width="3.679" height=".762" x="229.2" y="132.004" fill="#999" rx=".381"/><rect width="3.122" height=".762" x="233.434" y="132.004" fill="#BF5AF2" rx=".381"/><rect width="15.832" height=".762" x="237.008" y="132.004" fill="#757575" rx=".381"/><rect width="3.679" height=".762" x="229.2" y="133.531" fill="#0971F1" rx=".381"/><rect width="5.017" height=".762" x="233.104" y="133.531" fill="#BF5AF2" rx=".381"/><rect width="6.466" height=".762" x="238.453" y="133.531" fill="#757575" rx=".381"/><rect width="6.466" height=".762" x="245.257" y="133.531" fill="#757575" rx=".381"/><rect width="6.466" height=".762" x="252.057" y="133.531" fill="#757575" rx=".381"/><rect width="4.906" height=".762" x="229.2" y="135.055" fill="#999" rx=".381"/><rect width="3.122" height=".762" x="234.441" y="135.055" fill="#BF5AF2" rx=".381"/><rect width="6.466" height=".762" x="238.123" y="135.055" fill="#BF5AF2" rx=".381"/><rect width="3.456" height=".762" x="244.92" y="135.055" fill="#757575" rx=".381"/><rect width="10.48" height=".762" x="229.2" y="136.578" fill="#0971F1" rx=".381"/><rect width="3.122" height=".762" x="240.686" y="136.578" fill="#BF5AF2" rx=".381"/><rect width="15.832" height=".762" x="244.92" y="136.578" fill="#999" rx=".381"/><rect width="1.672" height=".762" x="229.2" y="138.102" fill="#0971F1" rx=".381"/><rect width="12.376" height=".762" x="231.434" y="138.102" fill="#757575" rx=".381"/><rect width="5.909" height=".762" x="244.92" y="138.102" fill="#757575" rx=".381"/><rect width="5.909" height=".762" x="251.724" y="138.102" fill="#757575" rx=".381"/><rect width="6.471" height=".762" x="229.2" y="141.723" fill="#0971F1" rx=".381"/><rect width="4.255" height=".762" x="236.557" y="141.723" fill="#BF5AF2" rx=".381"/><rect width="6.471" height=".762" x="241.7" y="141.723" fill="#757575" rx=".381"/><rect width="2.925" height=".762" x="229.2" y="143.344" fill="#0971F1" rx=".381"/><rect width="2.925" height=".762" x="232.486" y="143.344" fill="#0971F1" rx=".381"/><rect width="2.925" height=".762" x="235.761" y="143.344" fill="#0971F1" rx=".381"/><rect width="1.596" height=".762" x="239.221" y="143.344" fill="#BF5AF2" rx=".381"/><rect width="12.587" height=".762" x="241.7" y="143.344" fill="#757575" rx=".381"/><rect width="3.102" height=".762" x="229.2" y="144.867" fill="#999" rx=".381"/><rect width="3.102" height=".762" x="232.486" y="144.867" fill="#0971F1" rx=".381"/><rect width="3.791" height=".762" x="236.449" y="144.867" fill="#BF5AF2" rx=".381"/><rect width="2.659" height=".762" x="240.457" y="144.961" fill="#757575" rx=".381"/><rect width="9.928" height=".762" x="243.736" y="144.961" fill="#757575" rx=".381"/><rect width="2.925" height=".762" x="229.2" y="146.391" fill="#999" rx=".381"/><rect width="6.132" height=".762" x="232.549" y="146.391" fill="#0971F1" rx=".381"/><rect width="8.027" height=".762" x="240.016" y="146.391" fill="#757575" rx=".381"/><rect width="2.925" height=".762" x="229.2" y="147.918" fill="#0971F1" rx=".381"/><rect width="3.989" height=".762" x="232.305" y="147.918" fill="#BF5AF2" rx=".381"/><rect width="5.141" height=".762" x="236.557" y="147.918" fill="#757575" rx=".381"/><rect width="5.141" height=".762" x="241.968" y="147.918" fill="#757575" rx=".381"/><rect width="5.141" height=".762" x="247.372" y="147.918" fill="#757575" rx=".381"/><rect width="3.9" height=".762" x="229.2" y="149.441" fill="#999" rx=".381"/><rect width="2.482" height=".762" x="233.368" y="149.441" fill="#BF5AF2" rx=".381"/><rect width="5.141" height=".762" x="236.289" y="149.441" fill="#BF5AF2" rx=".381"/><rect width="2.748" height=".762" x="241.7" y="149.441" fill="#999" rx=".381"/><rect width="8.332" height=".762" x="229.2" y="150.965" fill="#0971F1" rx=".381"/><rect width="2.482" height=".762" x="238.331" y="150.965" fill="#BF5AF2" rx=".381"/><rect width="12.587" height=".762" x="241.7" y="150.965" fill="#757575" rx=".381"/><rect width="1.33" height=".762" x="229.2" y="152.488" fill="#0971F1" rx=".381"/><rect width="9.839" height=".762" x="230.975" y="152.488" fill="#999" rx=".381"/><rect width="4.698" height=".762" x="241.7" y="152.488" fill="#999" rx=".381"/><rect width="4.698" height=".762" x="247.105" y="152.488" fill="#757575" rx=".381"/><rect width="8.139" height=".762" x="229.2" y="162.27" fill="#999" rx=".381"/><rect width="5.352" height=".762" x="238.453" y="162.27" fill="#BF5AF2" rx=".381"/><rect width="8.139" height=".762" x="244.92" y="162.27" fill="#757575" rx=".381"/><rect width="3.679" height=".762" x="229.2" y="163.891" fill="#0971F1" rx=".381"/><rect width="3.679" height=".762" x="233.33" y="163.891" fill="#0971F1" rx=".381"/><rect width="3.679" height=".762" x="237.453" y="163.891" fill="#0971F1" rx=".381"/><rect width="2.007" height=".762" x="241.798" y="163.891" fill="#BF5AF2" rx=".381"/><rect width="15.832" height=".762" x="244.92" y="163.891" fill="#757575" rx=".381"/><rect width="3.902" height=".762" x="229.2" y="165.414" fill="#999" rx=".381"/><rect width="3.902" height=".762" x="233.33" y="165.414" fill="#0971F1" rx=".381"/><rect width="1.226" height=".762" x="237.453" y="165.414" fill="#0971F1" rx=".381"/><rect width="1.226" height=".762" x="239.016" y="165.414" fill="#0971F1" rx=".381"/><rect width="2.341" height=".762" x="240.686" y="165.414" fill="#BF5AF2" rx=".381"/><rect width="3.345" height=".762" x="243.361" y="165.508" fill="#999" rx=".381"/><rect width="12.487" height=".762" x="247.487" y="165.508" fill="#757575" rx=".381"/><rect width="3.679" height=".762" x="229.2" y="166.938" fill="#999" rx=".381"/><rect width="3.122" height=".762" x="233.434" y="166.938" fill="#BF5AF2" rx=".381"/><rect width="15.832" height=".762" x="237.008" y="166.938" fill="#757575" rx=".381"/><rect width="3.679" height=".762" x="229.2" y="168.465" fill="#0971F1" rx=".381"/><rect width="5.017" height=".762" x="233.104" y="168.465" fill="#BF5AF2" rx=".381"/><rect width="6.466" height=".762" x="238.453" y="168.465" fill="#757575" rx=".381"/><rect width="6.466" height=".762" x="245.257" y="168.465" fill="#757575" rx=".381"/><rect width="6.466" height=".762" x="252.057" y="168.465" fill="#757575" rx=".381"/><rect width="4.906" height=".762" x="229.2" y="169.988" fill="#999" rx=".381"/><rect width="3.122" height=".762" x="234.441" y="169.988" fill="#BF5AF2" rx=".381"/><rect width="6.466" height=".762" x="238.123" y="169.988" fill="#BF5AF2" rx=".381"/><rect width="3.456" height=".762" x="244.92" y="169.988" fill="#757575" rx=".381"/><rect width="10.48" height=".762" x="229.2" y="171.512" fill="#0971F1" rx=".381"/><rect width="3.122" height=".762" x="240.686" y="171.512" fill="#BF5AF2" rx=".381"/><rect width="15.832" height=".762" x="244.92" y="171.512" fill="#999" rx=".381"/><rect width="1.672" height=".762" x="229.2" y="173.035" fill="#0971F1" rx=".381"/><rect width="12.376" height=".762" x="231.434" y="173.035" fill="#757575" rx=".381"/><rect width="5.909" height=".762" x="244.92" y="173.035" fill="#757575" rx=".381"/><rect width="5.909" height=".762" x="251.724" y="173.035" fill="#757575" rx=".381"/><rect width="6.471" height=".762" x="229.2" y="176.656" fill="#0971F1" rx=".381"/><rect width="4.255" height=".762" x="236.557" y="176.656" fill="#BF5AF2" rx=".381"/><rect width="6.471" height=".762" x="241.7" y="176.656" fill="#757575" rx=".381"/><rect width="2.925" height=".762" x="229.2" y="178.277" fill="#0971F1" rx=".381"/><rect width="2.925" height=".762" x="232.486" y="178.277" fill="#0971F1" rx=".381"/><rect width="2.925" height=".762" x="235.761" y="178.277" fill="#0971F1" rx=".381"/><rect width="1.596" height=".762" x="239.221" y="178.277" fill="#BF5AF2" rx=".381"/><rect width="12.587" height=".762" x="241.7" y="178.277" fill="#757575" rx=".381"/><rect width="3.102" height=".762" x="229.2" y="179.801" fill="#999" rx=".381"/><rect width="3.102" height=".762" x="232.486" y="179.801" fill="#0971F1" rx=".381"/><rect width="3.791" height=".762" x="236.449" y="179.801" fill="#BF5AF2" rx=".381"/><rect width="2.659" height=".762" x="240.457" y="179.895" fill="#757575" rx=".381"/><rect width="9.928" height=".762" x="243.736" y="179.895" fill="#757575" rx=".381"/><rect width="2.925" height=".762" x="229.2" y="181.324" fill="#999" rx=".381"/><rect width="6.132" height=".762" x="232.549" y="181.324" fill="#0971F1" rx=".381"/><rect width="8.027" height=".762" x="240.016" y="181.324" fill="#757575" rx=".381"/><rect width="2.925" height=".762" x="229.2" y="182.852" fill="#0971F1" rx=".381"/><rect width="3.989" height=".762" x="232.305" y="182.852" fill="#BF5AF2" rx=".381"/><rect width="5.141" height=".762" x="236.557" y="182.852" fill="#757575" rx=".381"/><rect width="5.141" height=".762" x="241.968" y="182.852" fill="#757575" rx=".381"/><rect width="5.141" height=".762" x="247.372" y="182.852" fill="#757575" rx=".381"/><rect width="3.9" height=".762" x="229.2" y="184.375" fill="#999" rx=".381"/><rect width="2.482" height=".762" x="233.368" y="184.375" fill="#BF5AF2" rx=".381"/><rect width="5.141" height=".762" x="236.289" y="184.375" fill="#BF5AF2" rx=".381"/><rect width="2.748" height=".762" x="241.7" y="184.375" fill="#999" rx=".381"/><rect width="8.332" height=".762" x="229.2" y="185.898" fill="#0971F1" rx=".381"/><rect width="2.482" height=".762" x="238.331" y="185.898" fill="#BF5AF2" rx=".381"/><rect width="12.587" height=".762" x="241.7" y="185.898" fill="#757575" rx=".381"/><rect width="1.33" height=".762" x="229.2" y="187.422" fill="#0971F1" rx=".381"/><rect width="9.839" height=".762" x="230.975" y="187.422" fill="#999" rx=".381"/><rect width="4.698" height=".762" x="241.7" y="187.422" fill="#999" rx=".381"/><rect width="4.698" height=".762" x="247.105" y="187.422" fill="#757575" rx=".381"/><rect width="726.572" height="42.156" x="-123.761" y="46.738" fill="#333639"/><circle cx="571.117" cy="66.334" r="10.861" fill="#757575"/><path fill="#333639" d="M-13.588 18.3352C-13.588 13.7689 -9.8863 10.0703 -5.32 10.0703L202.964 10.0703C207.531 10.0703 211.245 13.7689 211.276 18.335C211.319 24.9113 211.381 33.3087 211.381 37.6143C211.381 44.3143 217.932 47.292 217.932 47.292L-20.288 47.292C-20.288 47.292 -13.588 44.3145 -13.588 36.8701C-13.588 32.6301 -13.588 24.5261 -13.588 18.3352Z"/><path fill="#777" d="M194.856 25.7731L194.044 24.9609L190.389 28.6155L186.734 24.9609L185.922 25.7731L189.577 29.4276L185.922 33.0821L186.734 33.8942L190.389 30.2397L194.044 33.8942L194.856 33.0821L191.201 29.4276L194.856 25.7731Z"/><path fill="#fff" d="M21.5589 28.111C21.5589 25.9002 22.5064 24.6599 24.1934 24.6599C25.6108 24.6599 26.5583 25.5997 26.5891 26.9478H28.1375V26.8708C28.1375 24.7678 26.4736 23.2734 24.1857 23.2734C21.5204 23.2734 19.9644 25.0913 19.9644 28.111V29.4359C19.9644 32.4248 21.5204 34.2196 24.1857 34.2196C26.4659 34.2196 28.1375 32.7791 28.1375 30.784V30.6992H26.5891C26.5583 31.9626 25.6108 32.833 24.1934 32.833C22.5064 32.833 21.5589 31.6159 21.5589 29.4359V28.111ZM33.2293 25.7461C30.9106 25.7461 29.655 27.3946 29.655 29.59V30.2679C29.655 32.5249 30.9106 34.1426 33.2293 34.1426C35.5402 34.1426 36.7804 32.5249 36.7804 30.2679V29.5823C36.7804 27.3869 35.5325 25.7461 33.2293 25.7461ZM33.2216 27.0248C34.5388 27.0248 35.2167 28.0648 35.2167 29.6208V30.2448C35.2167 31.7854 34.5465 32.8484 33.2216 32.8484C31.9043 32.8484 31.2187 31.7777 31.2187 30.2448V29.6208C31.2187 28.0725 31.9043 27.0248 33.2216 27.0248ZM41.5795 25.7615C39.569 25.7615 38.3827 27.333 38.3827 29.5823V30.2987C38.3827 32.5942 39.5074 34.1195 41.5795 34.1195C42.6734 34.1195 43.5284 33.6033 43.9598 32.7714H44.006V34.0039H45.5158V22.9344H43.9598V27.0325H43.9059C43.513 26.293 42.6657 25.7615 41.5795 25.7615ZM41.9185 27.071C43.1895 27.071 43.9752 28.0725 43.9752 29.6362V30.2602C43.9752 31.9009 43.1972 32.8099 41.9339 32.8099C40.7861 32.8099 39.9618 31.9626 39.9618 30.2525V29.6362C39.9618 27.9184 40.7861 27.071 41.9185 27.071ZM50.962 34.1426C52.8878 34.1426 53.9508 33.041 54.2204 31.7161H52.7183C52.4872 32.4402 51.8864 32.8869 50.9928 32.8869C49.768 32.8869 49.0131 31.9163 49.0131 30.4758V30.3064H54.3206V29.5361C54.3206 27.2713 53.0496 25.7461 50.9004 25.7461C48.7589 25.7461 47.4647 27.2328 47.4647 29.459V30.3141C47.4647 32.679 48.8128 34.1426 50.962 34.1426ZM49.0131 29.1663V29.1432C49.0131 27.9415 49.7526 26.9863 50.9081 26.9863C52.0404 26.9863 52.7876 27.9338 52.7876 29.1432V29.1663H49.0131ZM55.5608 31.1152C55.5993 32.5172 56.5776 34.2196 59.4432 34.2196C61.7464 34.2196 63.4488 33.0872 63.4488 31.0228C63.4488 29.2742 62.278 28.5269 60.6834 28.1264L58.9271 27.6796C57.9334 27.4408 57.4558 26.9247 57.4558 26.216C57.4558 25.1761 58.3262 24.5829 59.5741 24.5829C60.9761 24.5829 61.7002 25.3455 61.785 26.2853H63.3179C63.2794 24.2902 61.5385 23.2503 59.5973 23.2503C57.6175 23.2503 55.8612 24.3364 55.8612 26.3315C55.8612 28.0108 57.0783 28.812 58.3879 29.1355L60.1596 29.5823C61.3074 29.8673 61.8466 30.3218 61.8466 31.1537C61.8466 32.2091 60.9838 32.8792 59.5819 32.8792C58.0412 32.8792 57.217 32.0704 57.1245 31.1152H55.5608ZM69.7578 33.0025H69.8117V34.0039H71.2984V28.4422C71.2984 26.6705 69.9811 25.7538 68.2094 25.7538C66.1219 25.7538 65.1821 26.8631 65.105 28.2573H66.5686C66.638 27.5024 67.1926 27.0017 68.1632 27.0017C69.18 27.0017 69.7501 27.5409 69.7501 28.5269V29.3204H67.6625C65.7983 29.3281 64.8046 30.2371 64.8046 31.6698C64.8046 33.172 65.8831 34.1349 67.4545 34.1349C68.6562 34.1349 69.3803 33.6342 69.7578 33.0025ZM67.909 32.9101C67.1156 32.9101 66.3761 32.4864 66.3761 31.5928C66.3761 30.8918 66.8382 30.3988 67.8782 30.3988H69.7501V31.3155C69.7501 32.2553 68.9566 32.9101 67.909 32.9101ZM73.4784 34.0039H75.0267V29.1201C75.0267 28.0339 75.6199 27.125 76.8986 27.125C77.977 27.125 78.7551 27.7566 78.7551 29.0816V34.0039H80.3034V28.7889C80.3034 26.8091 79.094 25.7538 77.4301 25.7538C76.0975 25.7538 75.3503 26.4625 75.0652 26.994H75.0113V25.8848H73.4784V34.0039ZM85.3182 25.7615C83.3076 25.7615 82.1214 27.333 82.1214 29.5823V30.2987C82.1214 32.5942 83.246 34.1195 85.3182 34.1195C86.412 34.1195 87.2671 33.6033 87.6985 32.7714H87.7447V34.0039H89.2545V22.9344H87.6985V27.0325H87.6445C87.2517 26.293 86.4043 25.7615 85.3182 25.7615ZM85.6571 27.071C86.9281 27.071 87.7139 28.0725 87.7139 29.6362V30.2602C87.7139 31.9009 86.9358 32.8099 85.6725 32.8099C84.5248 32.8099 83.7005 31.9626 83.7005 30.2525V29.6362C83.7005 27.9184 84.5248 27.071 85.6571 27.071ZM95.5249 34.1272C97.4507 34.1272 98.714 32.6944 98.714 30.3218V29.5515C98.714 27.1019 97.4122 25.7615 95.5326 25.7615C94.4927 25.7615 93.5683 26.293 93.1677 27.0171H93.1138V22.9344H91.5578V34.0039H93.0676V32.7714H93.1215C93.576 33.6033 94.3694 34.1272 95.5249 34.1272ZM95.2091 32.8176C93.8918 32.8176 93.0984 31.9163 93.0984 30.2371V29.6362C93.0984 27.9646 93.8995 27.071 95.2091 27.071C96.3414 27.071 97.1349 27.9723 97.1349 29.6362V30.2525C97.1349 31.9086 96.3491 32.8176 95.2091 32.8176ZM103.883 25.7461C101.564 25.7461 100.309 27.3946 100.309 29.59V30.2679C100.309 32.5249 101.564 34.1426 103.883 34.1426C106.194 34.1426 107.434 32.5249 107.434 30.2679V29.5823C107.434 27.3869 106.186 25.7461 103.883 25.7461ZM103.875 27.0248C105.192 27.0248 105.87 28.0648 105.87 29.6208V30.2448C105.87 31.7854 105.2 32.8484 103.875 32.8484C102.558 32.8484 101.872 31.7777 101.872 30.2448V29.6208C101.872 28.0725 102.558 27.0248 103.875 27.0248ZM113.966 34.0039H115.769L113.027 29.9366L115.738 25.8848H113.982L112.118 28.8582H112.102L110.238 25.8848H108.397L111.078 29.9366L108.358 34.0039H110.084L112.002 31.0382H112.025L113.966 34.0039Z"/><rect width="548.498" height="22.809" x="3.069" y="55.473" fill="#292C2F" rx="11.404"/></g><defs><filter id="filter0_d" width="760.072" height="524.072" x="-136.402" y="-8.268" color-interpolation-filters="sRGB" filterUnits="userSpaceOnUse"><feFlood flood-opacity="0" result="BackgroundImageFix"/><feColorMatrix in="SourceAlpha" type="matrix" values="0 0 0 0 0 0 0 0 0 0 0 0 0 0 0 0 0 0 127 0"/><feOffset dx="4.134" dy="8.268"/><feGaussianBlur stdDeviation="8.268"/><feColorMatrix type="matrix" values="0 0 0 0 0 0 0 0 0 0 0 0 0 0 0 0 0 0 0.8 0"/><feBlend in2="BackgroundImageFix" mode="normal" result="effect1_dropShadow"/><feBlend in="SourceGraphic" in2="effect1_dropShadow" mode="normal" result="shape"/></filter><filter id="filter1_i" width="723.366" height="46.704" x="-124.008" y=".082" color-interpolation-filters="sRGB" filterUnits="userSpaceOnUse"><feFlood flood-opacity="0" result="BackgroundImageFix"/><feBlend in="SourceGraphic" in2="BackgroundImageFix" mode="normal" result="shape"/><feColorMatrix in="SourceAlpha" result="hardAlpha" type="matrix" values="0 0 0 0 0 0 0 0 0 0 0 0 0 0 0 0 0 0 127 0"/><feOffset dy=".517"/><feComposite in2="hardAlpha" k2="-1" k3="1" operator="arithmetic"/><feColorMatrix type="matrix" values="0 0 0 0 1 0 0 0 0 1 0 0 0 0 1 0 0 0 0.1 0"/><feBlend in2="shape" mode="normal" result="effect1_innerShadow"/></filter><filter id="filter2_dd" width="59.386" height="413.118" x="217.477" y="117.758" color-interpolation-filters="sRGB" filterUnits="userSpaceOnUse"><feFlood flood-opacity="0" result="BackgroundImageFix"/><feColorMatrix in="SourceAlpha" type="matrix" values="0 0 0 0 0 0 0 0 0 0 0 0 0 0 0 0 0 0 127 0"/><feOffset dx=".861"/><feColorMatrix type="matrix" values="0 0 0 0 0.141176 0 0 0 0 0.141176 0 0 0 0 0.141176 0 0 0 1 0"/><feBlend in2="BackgroundImageFix" mode="normal" result="effect1_dropShadow"/><feColorMatrix in="SourceAlpha" type="matrix" values="0 0 0 0 0 0 0 0 0 0 0 0 0 0 0 0 0 0 127 0"/><feOffset dx="-.861"/><feColorMatrix type="matrix" values="0 0 0 0 0.0156863 0 0 0 0 0.0156863 0 0 0 0 0.0156863 0 0 0 1 0"/><feBlend in2="effect1_dropShadow" mode="normal" result="effect2_dropShadow"/><feBlend in="SourceGraphic" in2="effect2_dropShadow" mode="normal" result="shape"/></filter><filter id="filter3_d" width="400.784" height="28.014" x="-123.372" y="90.148" color-interpolation-filters="sRGB" filterUnits="userSpaceOnUse"><feFlood flood-opacity="0" result="BackgroundImageFix"/><feColorMatrix in="SourceAlpha" type="matrix" values="0 0 0 0 0 0 0 0 0 0 0 0 0 0 0 0 0 0 127 0"/><feOffset dy=".861"/><feColorMatrix type="matrix" values="0 0 0 0 0.141176 0 0 0 0 0.141176 0 0 0 0 0.141176 0 0 0 1 0"/><feBlend in2="BackgroundImageFix" mode="normal" result="effect1_dropShadow"/><feBlend in="SourceGraphic" in2="effect1_dropShadow" mode="normal" result="shape"/></filter></defs></svg>