<svg width="833" height="833" xmlns="http://www.w3.org/2000/svg"><g fill="#FFF" fill-rule="nonzero"><path d="M455 787.753h-80V394.447L728.815 198l38.834 69.942L455 441.532z"/><path d="M66 269l38.73-70 332.662 184.06-38.73 70z"/><path d="M43 626.774V209.89L416.189 1l373.274 208.018v417.106L416.19 832.91 43 626.774zm80-47.204l293.133 161.916 293.33-162.5V256.02L416.275 92.632 123 256.79V579.57z"/><path d="M599 695.64V522.137L755.362 435v173.76L599 695.64M242.727 524.705L89 439v171.41l153.727 86.14V524.706M421.83 222.853l156.325-87.233L421.895 48 265 135.91l156.83 86.943"/></g></svg>