<?xml version="1.0" encoding="UTF-8"?>
<svg width="833px" height="833px" viewBox="0 0 833 833" version="1.1" xmlns="http://www.w3.org/2000/svg" xmlns:xlink="http://www.w3.org/1999/xlink">
    <!-- Generator: Sketch 48.2 (47327) - http://www.bohemiancoding.com/sketch -->
    <title>Artboard Copy</title>
    <desc>Created with Sketch.</desc>
    <defs></defs>
    <g id="Page-1" stroke="none" stroke-width="1" fill="none" fill-rule="evenodd">
        <g id="Artboard-Copy" fill="#FFFFFF" fill-rule="nonzero">
            <polygon id="Shape" points="455 787.75271 375 787.75271 375 394.446916 728.814859 198 767.648634 267.94239 455 441.532782"></polygon>
            <polygon id="Shape" points="66 268.999689 104.730395 199 437.39223 383.059735 398.661835 453.059425"></polygon>
            <path d="M43,626.773691 L43,209.890523 L416.18869,1 L789.463493,209.018289 L789.463493,626.124111 L416.189073,832.909898 L43,626.773691 Z M123,579.569823 L416.132583,741.485707 L709.463493,578.986859 L709.463493,256.01971 L416.274803,92.6317472 L123,256.790867 L123,579.569823 Z" id="Shape"></path>
            <polyline id="Shape" points="599 695.640089 599 522.137494 755.361734 435 755.361734 608.759786 599 695.640089"></polyline>
            <polyline id="Shape" points="242.72664 524.705279 89 439 89 610.410559 242.72664 696.550515 242.72664 524.705279"></polyline>
            <polyline id="Shape" points="421.829113 222.85264 578.154961 135.619829 421.89576 48 265 135.910709 421.829113 222.85264"></polyline>
        </g>
    </g>
</svg>