<svg xmlns="http://www.w3.org/2000/svg" width="32" height="32" viewBox="0 0 32 32"><path fill="#80CBC4" fill-rule="evenodd" d="M18.375 15.997c0 .663-.233 1.235-.7 1.717a2.27 2.27 0 0 1-1.693.723c-.641 0-1.195-.241-1.661-.723a2.385 2.385 0 0 1-.7-1.717c0-.685.233-1.268.7-1.75.466-.482 1.02-.723 1.661-.723a2.27 2.27 0 0 1 1.693.723c.467.482.7 1.065.7 1.75zm-2.39 9.019c.952.942 1.873 1.674 2.764 2.197.89.523 1.708.786 2.452.787.228 0 .456-.027.684-.08.228-.054.435-.145.622-.273.662-.385 1.113-1.059 1.351-2.021.239-.963.244-2.15.016-3.562a19.132 19.132 0 0 0-.31-1.54c.25-.087.493-.167.73-.24.237-.075.47-.155.7-.24 1.303-.514 2.297-1.113 2.98-1.798.684-.685 1.026-1.423 1.026-2.214 0-.792-.342-1.53-1.026-2.214-.683-.685-1.677-1.284-2.98-1.797a37.49 37.49 0 0 0-.7-.257 8.684 8.684 0 0 0-.73-.224c.063-.258.12-.514.171-.77.052-.256.098-.502.14-.738.206-1.455.195-2.67-.032-3.641-.228-.972-.674-1.652-1.336-2.038a2.159 2.159 0 0 0-.652-.273 2.988 2.988 0 0 0-.684-.08c-.724 0-1.537.262-2.438.787-.901.524-1.817 1.257-2.749 2.197-.931-.942-1.842-1.674-2.733-2.197C12.361 4.264 11.543 4 10.8 4c-.228 0-.456.027-.684.08a1.816 1.816 0 0 0-.622.273c-.662.385-1.113 1.059-1.351 2.021-.239.963-.244 2.15-.016 3.562a19.132 19.132 0 0 0 .31 1.54c-.25.087-.493.167-.73.24-.237.075-.47.155-.7.24-1.303.514-2.297 1.113-2.98 1.798C3.342 14.439 3 15.177 3 15.968c0 .792.342 1.53 1.026 2.214.683.685 1.677 1.284 2.98 1.797.229.087.462.172.7.257.239.085.482.16.73.224-.063.258-.12.514-.171.77a28.39 28.39 0 0 0-.14.738c-.206 1.411-.195 2.604.032 3.578.228.973.674 1.652 1.336 2.037a2.758 2.758 0 0 0 1.306.353c.746.022 1.563-.229 2.452-.753.89-.525 1.8-1.247 2.733-2.167zm-1.43-3.564c.25.022.492.033.73.033h1.428l.73-.033c-.25.32-.492.625-.73.914-.237.289-.48.572-.729.85l-.7-.85a36.762 36.762 0 0 1-.729-.914zm-3.166-2.727c.145.235.274.46.388.673a7.4 7.4 0 0 0 .387.643c-.393-.064-.776-.129-1.149-.193a17.025 17.025 0 0 1-1.087-.224c.104-.342.223-.7.358-1.074.135-.374.275-.743.42-1.107a19.602 19.602 0 0 0 .683 1.286v-.004zM9.93 12.37c.352-.087.714-.161 1.086-.224.373-.063.756-.128 1.15-.193l-.374.643-.404.673c-.124.214-.244.428-.358.643-.114.215-.222.44-.326.674-.165-.385-.31-.765-.435-1.14a43.105 43.105 0 0 1-.342-1.074l.002-.002zm1.396 3.627c.166-.364.337-.722.513-1.074.176-.352.368-.71.575-1.074l.622-1.027.652-1.027c.372-.043.75-.07 1.132-.08a40.732 40.732 0 0 1 2.362 0c.382.01.76.037 1.132.08.25.342.472.684.668 1.027.196.342.398.684.606 1.027.207.364.399.722.575 1.074.176.352.347.71.513 1.074l-.513 1.06-.575 1.06-.622 1.027-.652 1.026c-.372.043-.75.07-1.132.08a41.888 41.888 0 0 1-2.362 0c-.382-.01-.76-.037-1.132-.08-.25-.342-.472-.684-.668-1.026a46.162 46.162 0 0 0-.606-1.027c-.208-.343-.4-.696-.575-1.06l-.513-1.06zm10.001-1.444l-.713-1.317a29.13 29.13 0 0 0-.358-.657 9.305 9.305 0 0 0-.387-.626 18.212 18.212 0 0 1 2.236.384c-.104.364-.223.733-.358 1.107-.135.374-.275.743-.42 1.107v.002zm0 2.857c.145.364.285.733.42 1.107s.254.732.358 1.074c-.353.087-.715.161-1.088.224l-1.148.193.373-.643.374-.673c.124-.193.244-.397.358-.61l.357-.674-.004.002zm.59 9.177a.952.952 0 0 1-.341.13 2.331 2.331 0 0 1-.404.032c-.621 0-1.31-.24-2.065-.723-.755-.482-1.515-1.119-2.281-1.91.372-.407.74-.84 1.103-1.3.363-.46.72-.947 1.071-1.46.6-.065 1.185-.14 1.755-.224.57-.085 1.124-.203 1.662-.354.062.236.113.477.155.723.04.247.082.488.125.723.187 1.114.212 2.055.077 2.825s-.42 1.283-.854 1.54l-.002-.002zm1.304-13.928c1.45.429 2.578.942 3.385 1.54.807.6 1.21 1.198 1.21 1.798 0 .513-.284 1.016-.854 1.507-.57.492-1.372.941-2.407 1.348a10.09 10.09 0 0 1-1.336.45 30.928 30.928 0 0 0-.558-1.637 28.035 28.035 0 0 0-.684-1.67c.25-.578.483-1.145.7-1.7.217-.557.398-1.102.542-1.638l.002.002zm-2.019-7.445c.125 0 .25.01.374.033a.732.732 0 0 1 .342.16c.434.235.724.733.87 1.493.146.76.125 1.707-.061 2.84-.041.236-.088.472-.14.707-.051.236-.098.482-.139.738a19.467 19.467 0 0 0-1.661-.32c-.57-.086-1.155-.16-1.755-.225a21.884 21.884 0 0 0-2.174-2.793c.765-.77 1.521-1.402 2.267-1.894.746-.491 1.44-.737 2.081-.737l-.004-.002zm-3.756 5.295c-.25 0-.492-.006-.73-.017a15.814 15.814 0 0 0-1.428 0 15.9 15.9 0 0 1-.73.017c.25-.32.492-.625.73-.914.237-.29.47-.572.7-.85.248.278.491.566.728.866.238.3.48.6.73.9v-.002zm-7.362-5.102a.706.706 0 0 1 .342-.16c.125-.02.26-.032.404-.033.621 0 1.31.24 2.065.723.755.482 1.515 1.119 2.281 1.91-.372.407-.74.84-1.103 1.3-.363.46-.72.958-1.071 1.493-.6.043-1.185.113-1.755.21-.57.097-1.124.21-1.662.337a7.919 7.919 0 0 1-.155-.723 56.52 56.52 0 0 0-.125-.723c-.187-1.114-.212-2.05-.077-2.808.135-.759.42-1.267.854-1.524l.002-.002zM8.78 19.302c-1.45-.407-2.578-.915-3.385-1.524-.807-.61-1.21-1.203-1.21-1.781 0-.514.284-1.022.854-1.524.57-.503 1.372-.957 2.407-1.364a10.09 10.09 0 0 1 1.336-.45c.165.536.351 1.081.558 1.637.207.556.435 1.123.684 1.7-.25.557-.483 1.118-.7 1.685a18.658 18.658 0 0 0-.542 1.62H8.78zm.528 2.92l.125-.706.155-.738c.538.13 1.092.241 1.662.337a29.6 29.6 0 0 0 1.755.24c.352.514.71 1 1.071 1.46.362.461.73.894 1.103 1.301-.766.791-1.526 1.428-2.281 1.91-.756.482-1.444.723-2.065.723-.145 0-.274-.01-.388-.033a1.332 1.332 0 0 1-.358-.13c-.434-.257-.72-.77-.854-1.54-.135-.77-.11-1.71.077-2.824h-.002z"/></svg>
