<?xml version="1.0" encoding="UTF-8"?>
<svg width="218px" height="218px" viewBox="0 0 218 218" version="1.1" xmlns="http://www.w3.org/2000/svg" xmlns:xlink="http://www.w3.org/1999/xlink">
    <!-- Generator: Sketch 48.2 (47327) - http://www.bohemiancoding.com/sketch -->
    <title>Path</title>
    <desc>Created with Sketch.</desc>
    <defs>
        <rect id="path-1" x="0" y="0" width="216" height="216"></rect>
        <filter x="-0.5%" y="-0.5%" width="100.9%" height="101.9%" filterUnits="objectBoundingBox" id="filter-2">
            <feOffset dx="0" dy="2" in="SourceAlpha" result="shadowOffsetOuter1"></feOffset>
            <feComposite in="shadowOffsetOuter1" in2="SourceAlpha" operator="out" result="shadowOffsetOuter1"></feComposite>
            <feColorMatrix values="0 0 0 0 0   0 0 0 0 0   0 0 0 0 0  0 0 0 0.02 0" type="matrix" in="shadowOffsetOuter1"></feColorMatrix>
        </filter>
        <path d="M128.128,197 L103.702,197 L91.666,174.108 L75.618,174.108 L75.618,197 L54.024,197 L54.024,114.282 L91.194,114.282 C113.142,114.282 125.65,124.902 125.65,143.31 C125.65,155.818 120.458,165.022 110.9,169.978 L128.128,197 Z M75.618,131.51 L75.618,156.88 L91.312,156.88 C100.044,156.88 105.118,152.396 105.118,144.018 C105.118,135.876 100.044,131.51 91.312,131.51 L75.618,131.51 Z M139.456,114.282 L204.71,114.282 L204.71,131.51 L161.05,131.51 L161.05,146.968 L200.462,146.968 L200.462,164.078 L161.05,164.196 L161.05,179.772 L205.89,179.772 L205.89,197 L139.456,197 L139.456,114.282 Z" id="path-3"></path>
        <filter x="-0.7%" y="-1.2%" width="101.3%" height="102.4%" filterUnits="objectBoundingBox" id="filter-4">
            <feOffset dx="0" dy="2" in="SourceAlpha" result="shadowOffsetInner1"></feOffset>
            <feComposite in="shadowOffsetInner1" in2="SourceAlpha" operator="arithmetic" k2="-1" k3="1" result="shadowInnerInner1"></feComposite>
            <feColorMatrix values="0 0 0 0 0   0 0 0 0 0   0 0 0 0 0  0 0 0 0.02 0" type="matrix" in="shadowInnerInner1"></feColorMatrix>
        </filter>
    </defs>
    <g id="Page-1" stroke="none" stroke-width="1" fill="none" fill-rule="evenodd">
        <g id="Path">
            <g id="Rectangle-1">
                <use fill="black" fill-opacity="1" filter="url(#filter-2)" xlink:href="#path-1"></use>
                <use fill="#DD4B39" fill-rule="evenodd" xlink:href="#path-1"></use>
                <rect stroke="#D74837" stroke-width="1" x="0.5" y="0.5" width="215" height="215"></rect>
            </g>
            <g id="[RE]ASON">
                <use fill="#FFFFFF" fill-rule="evenodd" xlink:href="#path-3"></use>
                <use fill="black" fill-opacity="1" filter="url(#filter-4)" xlink:href="#path-3"></use>
            </g>
        </g>
    </g>
</svg>