<svg xmlns="http://www.w3.org/2000/svg" xmlns:svg="http://www.w3.org/2000/svg" id="svg4694" version="1.1" viewBox="0 0 16 16"><metadata id="metadata4705"/><style id="style4696"/><g id="g4724" transform="matrix(1.3333333,0,0,1.3333333,-245.99999,-31.999999)"><path id="path4528" fill="#2d2d30" d="m 185,24 11,0 0,12 -11,0 z"/><path id="path4530" fill="#c5c5c5" d="m 194,33 0,-7 -7,0 0,7 -1,0 0,-8 9,0 0,8 z m -8,1 1,0 0,1 -1,0 z m 2,0 1,0 0,1 -1,0 z m 2,0 1,0 0,1 -1,0 z m 2,0 1,0 0,1 -1,0 z m 2,0 1,0 0,1 -1,0 z"/><path id="path4532" fill="#2b282e" d="m 187,26 7,0 0,7 -7,0 z"/></g></svg>