<svg width="16" height="16" viewBox="0 0 16 16" fill="none" xmlns="http://www.w3.org/2000/svg">
<path fill-rule="evenodd" clip-rule="evenodd" d="M0.705882 2H5.91357C6.08159 2 6.2441 2.05993 6.37188 2.16902L8.10324 3.64706H14.0273C14.4171 3.64706 14.7332 3.96309 14.7332 4.35294V4.82353H2.05786C1.71875 4.82353 1.42756 5.06466 1.36435 5.39782L0 12.5882V2.70588C0 2.31603 0.316034 2 0.705882 2ZM2.75532 5.5293C2.4341 5.5293 2.15339 5.74617 2.0723 6.05698L0.230657 13.1158C0.113972 13.563 0.451465 13.9999 0.913676 13.9999H13.4512C13.7724 13.9999 14.0531 13.783 14.1342 13.4722L15.9758 6.41338C16.0925 5.96614 15.755 5.5293 15.2928 5.5293H2.75532Z" fill="#6CC7F6"/>
</svg>
