<svg xmlns="http://www.w3.org/2000/svg" xmlns:xlink="http://www.w3.org/1999/xlink" id="Layer_1" x="0" y="0" enable-background="new 0 0 16 16" version="1.1" viewBox="0 0 16 16" xml:space="preserve"><style type="text/css">.st0{fill:#f6f6f6;fill-opacity:0}.st1{fill:#cacacc}.st2{fill:#1ba1e2}.st3{fill:#fff}</style><path id="canvas" d="M16,16H0V0h16V16z" class="st0"/><path id="outline" d="M0,8c0-4.4,3.6-8,8-8s8,3.6,8,8s-3.6,8-8,8S0,12.4,0,8z" class="st1"/><path id="iconBg" d="M8,1C4.1,1,1,4.1,1,8s3.1,7,7,7s7-3.1,7-7S11.8,1,8,1z M9,13H7V6h2V13z M9,5H7V3h2V5z" class="st2"/><g id="iconFg"><path d="M7,6h2v7H7V6z M7,5h2V3H7V5z" class="st3"/></g></svg>