<svg xmlns="http://www.w3.org/2000/svg" xmlns:xlink="http://www.w3.org/1999/xlink" id="Layer_1" viewBox="0 0 90 90"><defs id="defs220"><linearGradient y2="40.68" x2="55.64" y1="40.68" x1="38.1" gradientUnits="userSpaceOnUse" id="XMLID_3_"><stop id="stop7" offset="0" stop-color="#8ab1d5"/><stop id="stop9" offset=".5" stop-color="#70a3cd"/><stop id="stop11" offset=".69" stop-color="#5798c6"/><stop id="stop13" offset=".87" stop-color="#3f90c1"/><stop id="stop15" offset="1" stop-color="#358dbf"/></linearGradient><linearGradient y2="40.68" x2="90.72" y1="40.68" x1="73.18" gradientUnits="userSpaceOnUse" id="XMLID_4_"><stop id="stop19" offset="0" stop-color="#d171ad"/><stop id="stop21" offset=".42" stop-color="#ce60a1"/><stop id="stop23" offset=".51" stop-color="#cd5b9f"/><stop id="stop25" offset="1" stop-color="#b83d8a"/></linearGradient><linearGradient y2="40.68" x2="46.87" y1="40.68" x1="29.33" gradientUnits="userSpaceOnUse" id="XMLID_5_"><stop id="stop29" offset="0" stop-color="#84a4c2"/><stop id="stop31" offset=".5" stop-color="#6892b6"/><stop id="stop33" offset="1" stop-color="#2f75a0"/></linearGradient><linearGradient y2="41.75" x2="79.57" y1="40.52" x1="97.46" gradientUnits="userSpaceOnUse" id="XMLID_6_"><stop id="stop37" offset="0" stop-color="#d171ad"/><stop id="stop39" offset=".42" stop-color="#ce60a1"/><stop id="stop41" offset=".51" stop-color="#cd5b9f"/><stop id="stop43" offset="1" stop-color="#b83d8a"/></linearGradient><linearGradient y2="25.49" x2="64.41" y1="25.49" x1="46.87" gradientUnits="userSpaceOnUse" id="XMLID_7_"><stop id="stop47" offset="0" stop-color="#8fccd5"/><stop id="stop49" offset=".5" stop-color="#5bbac7"/><stop id="stop51" offset="1" stop-color="#00aab9"/></linearGradient><linearGradient y2="25.49" x2="117.03" y1="25.49" x1="99.49" gradientUnits="userSpaceOnUse" id="XMLID_8_"><stop id="stop55" offset="0" stop-color="#832f75"/><stop id="stop57" offset=".99" stop-color="#bb87bc"/></linearGradient><linearGradient y2="25.49" x2="81.95" y1="25.49" x1="64.41" gradientUnits="userSpaceOnUse" id="XMLID_9_"><stop id="stop61" offset="0" stop-color="#27aae1"/><stop id="stop63" offset=".2" stop-color="#759dd2"/><stop id="stop65" offset=".45" stop-color="#a28cc2"/><stop id="stop67" offset=".68" stop-color="#bd7fb7"/><stop id="stop69" offset=".87" stop-color="#cc75b0"/><stop id="stop71" offset="1" stop-color="#d171ad"/></linearGradient><linearGradient y2="25.49" x2="55.64" y1="25.49" x1="38.1" gradientUnits="userSpaceOnUse" id="XMLID_10_"><stop id="stop75" offset="0" stop-color="#77b2c6"/><stop id="stop77" offset=".5" stop-color="#349ab4"/><stop id="stop79" offset="1" stop-color="#0089a6"/></linearGradient><linearGradient y2="25.49" x2="73.18" y1="25.49" x1="55.64" gradientUnits="userSpaceOnUse" id="XMLID_11_"><stop id="stop83" offset="0" stop-color="#b1dae0"/><stop id="stop85" offset=".5" stop-color="#82c7d1"/><stop id="stop87" offset=".58" stop-color="#7ac4cf"/><stop id="stop89" offset=".83" stop-color="#64bcc9"/><stop id="stop91" offset="1" stop-color="#5bbac7"/></linearGradient><linearGradient y2="25.49" x2="90.72" y1="25.49" x1="73.18" gradientUnits="userSpaceOnUse" id="XMLID_12_"><stop id="stop95" offset="0" stop-color="#ac2f92"/><stop id="stop97" offset=".99" stop-color="#d970ac"/></linearGradient><linearGradient y2="33.79" x2="99.49" y1="45.81" x1="99.49" gradientUnits="userSpaceOnUse" id="XMLID_15_"><stop id="stop101" offset=".01" stop-color="#bb6cac"/><stop id="stop103" offset="1" stop-color="#973a87"/></linearGradient><linearGradient y2="25.49" x2="108.26" y1="25.49" x1="90.72" gradientUnits="userSpaceOnUse" id="XMLID_19_"><stop id="stop107" offset="0" stop-color="#973a87"/><stop id="stop109" offset=".99" stop-color="#bb6cac"/></linearGradient><linearGradient y2="55.87" x2="90.72" y1="55.87" x1="73.18" gradientUnits="userSpaceOnUse" id="XMLID_20_"><stop id="stop113" offset="0" stop-color="#d171ad"/><stop id="stop115" offset=".42" stop-color="#ce60a1"/><stop id="stop117" offset=".51" stop-color="#cd5b9f"/><stop id="stop119" offset="1" stop-color="#b83d8a"/></linearGradient><linearGradient y2="55.87" x2="94.29" y1="55.87" x1="83.15" gradientUnits="userSpaceOnUse" id="XMLID_21_"><stop id="stop123" offset="0" stop-color="#d171ad"/><stop id="stop125" offset=".42" stop-color="#ce60a1"/><stop id="stop127" offset=".51" stop-color="#cd5b9f"/><stop id="stop129" offset="1" stop-color="#b83d8a"/></linearGradient><linearGradient y2="71.06" x2="90.72" y1="71.06" x1="73.18" gradientUnits="userSpaceOnUse" id="XMLID_23_"><stop id="stop133" offset="0" stop-color="#ac2f92"/><stop id="stop135" offset=".99" stop-color="#d970ac"/></linearGradient><linearGradient y2="55.87" x2="108.26" y1="55.87" x1="90.72" gradientUnits="userSpaceOnUse" id="XMLID_24_"><stop id="stop139" offset="0" stop-color="#973a87"/><stop id="stop141" offset=".99" stop-color="#bb6cac"/></linearGradient><linearGradient y2="71.06" x2="108.26" y1="71.06" x1="90.72" gradientUnits="userSpaceOnUse" id="XMLID_25_"><stop id="stop145" offset="0" stop-color="#973a87"/><stop id="stop147" offset=".99" stop-color="#bb6cac"/></linearGradient><linearGradient y2="55.87" x2="46.87" y1="55.87" x1="29.33" gradientUnits="userSpaceOnUse" id="XMLID_26_"><stop id="stop151" offset="0" stop-color="#5080b1"/><stop id="stop153" offset=".14" stop-color="#477bae"/><stop id="stop155" offset=".38" stop-color="#2a6fa5"/><stop id="stop157" offset=".58" stop-color="#00639b"/><stop id="stop159" offset="1" stop-color="#004e8c"/></linearGradient><linearGradient y2="55.87" x2="55.64" y1="55.87" x1="38.1" gradientUnits="userSpaceOnUse" id="XMLID_27_"><stop id="stop163" offset="0" stop-color="#84a4c2"/><stop id="stop165" offset=".5" stop-color="#6892b6"/><stop id="stop167" offset="1" stop-color="#2f75a0"/></linearGradient><linearGradient y2="71.06" x2="55.64" y1="71.06" x1="38.1" gradientUnits="userSpaceOnUse" id="XMLID_28_"><stop id="stop171" offset="0" stop-color="#77b2c6"/><stop id="stop173" offset=".5" stop-color="#349ab4"/><stop id="stop175" offset="1" stop-color="#0089a6"/></linearGradient><linearGradient y2="71.06" x2="73.18" y1="71.06" x1="55.64" gradientUnits="userSpaceOnUse" id="XMLID_29_"><stop id="stop179" offset="0" stop-color="#b1dae0"/><stop id="stop181" offset=".5" stop-color="#82c7d1"/><stop id="stop183" offset=".58" stop-color="#7ac4cf"/><stop id="stop185" offset=".83" stop-color="#64bcc9"/><stop id="stop187" offset="1" stop-color="#5bbac7"/></linearGradient><linearGradient y2="71.06" x2="64.41" y1="71.06" x1="46.87" gradientUnits="userSpaceOnUse" id="XMLID_30_"><stop id="stop191" offset="0" stop-color="#8fccd5"/><stop id="stop193" offset=".5" stop-color="#5bbac7"/><stop id="stop195" offset="1" stop-color="#00aab9"/></linearGradient><linearGradient y2="71.06" x2="81.95" y1="71.06" x1="64.41" gradientUnits="userSpaceOnUse" id="XMLID_31_"><stop id="stop199" offset="0" stop-color="#27aae1"/><stop id="stop201" offset=".14" stop-color="#64a2d7"/><stop id="stop203" offset=".42" stop-color="#9b8fc5"/><stop id="stop205" offset=".67" stop-color="#ba81b8"/><stop id="stop207" offset=".87" stop-color="#cb76b0"/><stop id="stop209" offset="1" stop-color="#d171ad"/></linearGradient><linearGradient y2="71.06" x2="117.03" y1="71.06" x1="99.49" gradientUnits="userSpaceOnUse" id="XMLID_32_"><stop id="stop213" offset="0" stop-color="#832f75"/><stop id="stop215" offset=".99" stop-color="#bb87bc"/></linearGradient><linearGradient xlink:href="#XMLID_12_" id="linearGradient3245" gradientUnits="userSpaceOnUse" x1="73.18" y1="25.49" x2="90.72" y2="25.49"/><linearGradient xlink:href="#XMLID_23_" id="linearGradient3249" gradientUnits="userSpaceOnUse" x1="73.18" y1="71.06" x2="90.72" y2="71.06"/><linearGradient xlink:href="#XMLID_9_" id="linearGradient3251" gradientUnits="userSpaceOnUse" x1="64.41" y1="25.49" x2="81.95" y2="25.49"/></defs><style id="style3">.st9{fill:url(#XMLID_12_)}.st14{fill:url(#XMLID_23_)}</style><path id="XMLID_325_" transform="translate(-28 -2.6)" fill="url(#XMLID_3_)" d="M55.6 33.1H38.1l8.8 15.2z"/><path id="XMLID_314_" transform="translate(-28 -2.6)" fill="url(#XMLID_4_)" d="M90.7 33.1H73.2l8.7 15.2z"/><path id="XMLID_309_" transform="translate(-28 -2.6)" fill="url(#XMLID_5_)" d="M38.1 33.1l-8.8 15.2h17.6z"/><path id="XMLID_307_" transform="translate(-28 -2.6)" fill="url(#XMLID_6_)" d="M90.7 33.1l-8.8 15.2h17.6z"/><path id="XMLID_304_" transform="translate(-28 -2.6)" fill="url(#XMLID_7_)" d="M64.4 17.9H46.9l8.7 15.2z"/><path id="XMLID_257_" transform="translate(-28 -2.6)" fill="url(#XMLID_8_)" d="M117 17.9H99.5l8.8 15.2z"/><path id="XMLID_249_" transform="translate(-28 -2.6)" fill="url(#XMLID_10_)" d="M46.9 17.9l-8.8 15.2h17.5z"/><path id="XMLID_248_" transform="translate(-28 -2.6)" fill="url(#XMLID_11_)" d="M64.4 17.9l-8.8 15.2h17.6z"/><path class="st9" id="XMLID_148_" transform="translate(-28 -2.6)" fill="url(#XMLID_12_)" d="M81.9 17.9l-8.7 15.2h17.5z"/><path id="XMLID_90_" transform="translate(-28 -2.6)" fill="url(#XMLID_15_)" d="M90.7 33.1h17.6l-8.8 15.2z"/><path id="XMLID_88_" transform="translate(-28 -2.6)" fill="url(#XMLID_19_)" d="M99.5 17.9l8.8 15.2H90.7z"/><path id="XMLID_87_" transform="translate(-28 -2.6)" fill="url(#XMLID_20_)" d="M90.7 63.5H73.2l8.7-15.2z"/><path id="XMLID_86_" transform="translate(-28 -2.6)" fill="url(#XMLID_21_)" d="M90.7 63.5l-8.8-15.2h17.6z"/><path class="st14" id="XMLID_85_" transform="translate(-28 -2.6)" fill="url(#XMLID_23_)" d="M81.9 78.7l-8.7-15.2h17.5z"/><path id="XMLID_82_" transform="translate(-28 -2.6)" fill="url(#XMLID_24_)" d="M90.7 63.5h17.6l-8.8-15.2z"/><path id="XMLID_80_" transform="translate(-28 -2.6)" fill="url(#XMLID_25_)" d="M99.5 78.7l8.8-15.2H90.7z"/><path id="XMLID_71_" transform="translate(-28 -2.6)" fill="url(#XMLID_26_)" d="M29.3 48.3l8.8 15.2 8.8-15.2z"/><path id="XMLID_70_" transform="translate(-28 -2.6)" fill="url(#XMLID_27_)" d="M38.1 63.5h17.5l-8.7-15.2z"/><path id="XMLID_69_" transform="translate(-28 -2.6)" fill="url(#XMLID_28_)" d="M38.1 63.5l8.8 15.2 8.7-15.2z"/><path id="XMLID_68_" transform="translate(-28 -2.6)" fill="url(#XMLID_29_)" d="M55.6 63.5l8.8 15.2 8.8-15.2z"/><path id="XMLID_67_" transform="translate(-28 -2.6)" fill="url(#XMLID_30_)" d="M46.9 78.7h17.5l-8.8-15.2z"/><path id="XMLID_65_" transform="translate(-28 -2.6)" fill="url(#XMLID_32_)" d="M99.5 78.7H117l-8.7-15.2z"/><path transform="rotate(180 63.54 24.2)" id="polygon3243" class="st9" fill="url(#linearGradient3245)" d="M90.7 33.1l-8.8-15.2-8.7 15.2z"/><path transform="rotate(180 63.54 69.79)" id="polygon3247" class="st14" fill="url(#linearGradient3249)" d="M90.7 63.5l-8.8 15.2-8.7-15.2z"/></svg>