<svg fill="none" height="22" viewBox="0 0 22 22" width="22" xmlns="http://www.w3.org/2000/svg"><g fill="#999"><path d="m10.6666.5c.2142 0 .4197.085096.5712.236568l5.3846 5.384612c.3154.31543.3154.82683 0 1.14225-.3154.31543-.8268.31543-1.1423 0l-4.0059-4.00593v7.7425c0 .4461-.3616.8077-.8077.8077s-.80767-.3616-.80767-.8077l-.00002-7.74224-4.00566 4.00567c-.31543.31543-.82683.31543-1.14225 0-.31543-.31542-.31543-.82682 0-1.14225l5.3846-5.384612c.1515-.151472.3569-.236568.5711-.236568z"/><path d="m.974196 14.5c.446074 0 .807694.3617.807694.8077v2.1539c0 1.3382 1.08485 2.423 2.42308 2.423h12.92303c1.3383 0 2.4231-1.0848 2.4231-2.423v-2.1539c0-.446.3616-.8077.8077-.8077s.8077.3617.8077.8077v2.1539c0 2.2304-1.8081 4.0384-4.0385 4.0384h-12.92303c-2.23038 0-4.038466-1.808-4.038466-4.0384v-2.1539c0-.446.361616-.8077.807692-.8077z"/></g></svg>