<svg width="14" height="24" viewBox="0 0 14 24" fill="none" xmlns="http://www.w3.org/2000/svg">
<path d="M7.00003 0.299805C7.41424 0.299805 7.75003 0.635591 7.75003 1.0498V3.30237C10.1703 3.59254 12.233 5.06685 13.0608 7.13898C13.2144 7.52364 13.0272 7.96003 12.6425 8.1137C12.2579 8.26736 11.8215 8.08011 11.6678 7.69545C10.9624 5.92963 8.92673 4.61928 6.52271 4.76033L5.45154 4.82318C3.89868 4.91428 2.70861 5.89556 2.43514 7.0889C2.11707 8.4769 3.09578 9.97475 4.89915 10.348L9.39212 11.2781C11.6651 11.7485 13.4935 13.9049 13.2839 16.1112C13.0256 18.8299 10.4696 20.5074 7.75003 20.7257V23C7.75003 23.4142 7.41424 23.75 7.00003 23.75C6.58581 23.75 6.25003 23.4142 6.25003 23V20.7455C3.82727 20.6622 1.69925 19.4253 0.604819 17.5782C0.393669 17.2219 0.511381 16.7618 0.867735 16.5507C1.22409 16.3395 1.68414 16.4572 1.89529 16.8136C2.73606 18.2325 4.46466 19.25 6.5115 19.25H7.14441C9.65858 19.25 11.6156 17.812 11.7906 15.9694C11.916 14.6495 10.7414 13.0891 9.08807 12.7469L4.59511 11.8169C2.14328 11.3094 0.429543 9.12553 0.973042 6.75384C1.42067 4.80051 3.26548 3.44885 5.36368 3.32575L6.25003 3.27375V1.0498C6.25003 0.635591 6.58581 0.299805 7.00003 0.299805Z" fill="#999999"/>
</svg>
