<svg fill="none" height="25" viewBox="0 0 20 25" width="20" xmlns="http://www.w3.org/2000/svg"><path clip-rule="evenodd" d="m4.34625 7.89362v-1.89358c0-3.12254 2.53131-5.653849 5.65385-5.653849 3.1225 0 5.6538 2.531309 5.6538 5.653849v1.89357c2.105.13848 3.7694 1.88968 3.7694 4.02959v8.6154c0 2.2304-1.8081 4.0385-4.0385 4.0385h-10.76919c-2.23038 0-4.038462-1.8081-4.038462-4.0385v-8.6154c0-2.13982 1.664312-3.89097 3.769102-4.02958zm1.61538-1.89358c0-2.23038 1.80808-4.03846 4.03847-4.03846 2.2304 0 4.0385 1.80808 4.0385 4.03846v1.88474h-8.07697zm-3.7691 5.92316c0-1.3382 1.08485-2.42303 2.42308-2.42303h10.76919c1.3383 0 2.4231 1.08483 2.4231 2.42303v8.6154c0 1.3383-1.0848 2.4231-2.4231 2.4231h-10.76919c-1.33823 0-2.42308-1.0848-2.42308-2.4231z" fill="#999" fill-rule="evenodd"/></svg>