<svg fill="none" height="23" viewBox="0 0 22 23" width="22" xmlns="http://www.w3.org/2000/svg"><path clip-rule="evenodd" d="m13.7707 11.5541c2.0556-.9292 3.4859-2.99761 3.4859-5.40007 0-3.27122-2.6519-5.923073-5.9231-5.923073-3.27121 0-5.92306 2.651853-5.92306 5.923073 0 2.40239 1.43025 4.47067 3.48571 5.39997-4.62376 1.0989-8.062898 5.2557-8.062898 10.2157 0 .4461.361618.8077.807688.8077.44608 0 .8077-.3616.8077-.8077 0-4.9069 3.97777-8.8846 8.88466-8.8846 4.9068 0 8.8846 3.9777 8.8846 8.8846 0 .4461.3616.8077.8077.8077.446 0 .8077-.3616.8077-.8077 0-4.9599-3.439-9.1166-8.0626-10.2156zm1.8705-5.40007c0 2.37908-1.9286 4.30767-4.3077 4.30767-2.37906 0-4.30768-1.92859-4.30768-4.30767 0-2.37907 1.92862-4.30769 4.30768-4.30769 2.3791 0 4.3077 1.92862 4.3077 4.30769z" fill="#999" fill-rule="evenodd"/></svg>