<svg width="116" height="116" viewBox="0 0 116 116" fill="none" xmlns="http://www.w3.org/2000/svg">
<path fill-rule="evenodd" clip-rule="evenodd" d="M14.5022 52.2434C14.5007 52.1309 14.5 52.0183 14.5 51.9054C14.5 38.1111 25.6825 26.9286 39.4768 26.9286C53.2712 26.9286 64.4537 38.1111 64.4537 51.9054C64.4537 65.6998 53.2712 76.8823 39.4768 76.8823C39.431 76.8823 39.3852 76.8822 39.3394 76.8819H14.5022V52.2434Z" fill="white"/>
<path fill-rule="evenodd" clip-rule="evenodd" d="M58.3926 74.5789C64.8804 69.1643 69.0085 61.0171 69.0085 51.9059C69.0085 48.8305 68.5382 45.865 67.6656 43.0773C70.7851 41.4643 74.3264 40.5532 78.0805 40.5532C90.6208 40.5532 100.787 50.7191 100.787 63.2594C100.787 63.4895 100.783 63.7188 100.777 63.9472V85.9662H78.0703V85.9657C69.6562 85.962 62.3122 81.3816 58.3926 74.5789Z" fill="white"/>
</svg>
