<svg width="116" height="93" viewBox="0 0 116 93" fill="none" xmlns="http://www.w3.org/2000/svg">
<path fill-rule="evenodd" clip-rule="evenodd" d="M33.2656 0.393311C29.8559 0.393311 27.0918 3.1574 27.0918 6.56708V23.545H41.9716C45.3813 23.545 48.1454 26.3091 48.1454 29.7188V82.1959C48.1454 82.3692 48.1383 82.5407 48.1243 82.7104H82.6558C86.0655 82.7104 88.8296 79.9463 88.8296 76.5366V59.4943C75.7039 57.9952 65.5083 46.8495 65.5083 33.3225C65.5083 19.7954 75.7039 8.64969 88.8296 7.15061V6.56709C88.8296 3.15741 86.0655 0.393311 82.6558 0.393311H33.2656ZM0.748047 31.2621C0.748047 29.5573 2.13009 28.1752 3.83494 28.1752H39.3342C41.039 28.1752 42.4211 29.5573 42.4211 31.2621V89.913C42.4211 91.6179 41.039 92.9999 39.3342 92.9999H3.83494C2.1301 92.9999 0.748047 91.6179 0.748047 89.913V31.2621Z" fill="#343434"/>
<path fill-rule="evenodd" clip-rule="evenodd" d="M92.9492 56.3729C92.9491 56.3729 92.949 56.3729 92.9488 56.3729C80.2184 56.3729 69.8984 46.0529 69.8984 33.3225C69.8984 20.5921 80.2184 10.2721 92.9488 10.2721C105.311 10.2721 115.401 20.0042 115.974 32.2249H116V56.3729H92.9492V56.3729Z" fill="white"/>
</svg>
