<svg width="131" height="70" viewBox="0 0 131 70" fill="none" xmlns="http://www.w3.org/2000/svg">
<path fill-rule="evenodd" clip-rule="evenodd" d="M0 1.83334C0 0.820814 0.820811 0 1.83333 0H82.1667C83.1792 0 84 0.820811 84 1.83333V12.2608C77.2986 17.5727 73 25.7842 73 34.9997C73 44.2153 77.2986 52.4268 84 57.7387V68.1667C84 69.1792 83.1792 70 82.1667 70H1.83334C0.820814 70 0 69.1792 0 68.1667V1.83334ZM32.296 16.4426L13.9994 35.5335L32.2959 54.6244L36.8701 49.8517L23.1476 35.5336L36.8702 21.2153L32.296 16.4426ZM51.7027 54.6244L69.9994 35.5336L51.7027 16.4427L47.1285 21.2154L60.8511 35.5336L47.1286 49.8517L51.7027 54.6244Z" fill="#343434"/>
<path fill-rule="evenodd" clip-rule="evenodd" d="M104.038 61.9995C104.025 61.9995 104.013 61.9995 104 61.9995C89.0882 61.9995 77 49.9113 77 34.9997C77 20.0882 89.0882 8 104 8C118.48 8 130.298 19.3995 130.969 33.714H131V61.9995H104.038Z" fill="white"/>
</svg>
