<?xml version="1.0" encoding="UTF-8"?>
<svg width="196px" height="196px" viewBox="0 0 196 196" version="1.1" xmlns="http://www.w3.org/2000/svg" xmlns:xlink="http://www.w3.org/1999/xlink">
    <!-- Generator: Sketch 48.2 (47327) - http://www.bohemiancoding.com/sketch -->
    <title>Artboard</title>
    <desc>Created with Sketch.</desc>
    <defs></defs>
    <g id="Page-1" stroke="none" stroke-width="1" fill="none" fill-rule="evenodd">
        <g id="Artboard" fill="#000000" fill-rule="nonzero">
            <path d="M181.075284,146.8 C181.294284,145.046 181.459284,143.291 181.459284,141.427 C181.459284,139.563 181.295284,137.809 181.075284,136.054 L192.643284,127.008 C193.685284,126.186 193.959284,124.706 193.301284,123.499 L182.336284,104.529 C181.678284,103.323 180.198284,102.884 178.992284,103.323 L165.340284,108.805 C162.489284,106.612 159.419284,104.803 156.074284,103.432 L153.991284,88.103 C153.827284,86.787 152.675284,85 151.305284,85 L129.375284,85 C128.004284,85 126.853284,86.787 126.689284,88.103 L124.606284,103.032 C121.262284,104.403 118.191284,106.467 115.340284,108.605 L101.689284,103.223 C100.428284,102.73 99.0032839,103.273 98.3452839,104.479 L87.3802839,123.474 C86.6672839,124.68 86.9962839,126.173 88.0382839,126.995 L99.6062839,136.048 C99.3872839,137.802 99.2222839,139.615 99.2222839,141.424 C99.2222839,143.233 99.3862839,145.044 99.6062839,146.798 L88.0382839,155.845 C86.9962839,156.667 86.7222839,158.148 87.3802839,159.354 L98.3452839,178.324 C99.0032839,179.53 100.483284,179.969 101.689284,179.53 L115.340284,174.048 C118.191284,176.241 121.261284,178.05 124.606284,179.421 L126.689284,193.824 C126.853284,195.14 128.005284,196 129.375284,196 L151.305284,196 C152.675284,196 153.827284,195.14 153.991284,193.824 L156.074284,179.358 C159.418284,177.987 162.489284,176.155 165.340284,174.017 L178.992284,179.515 C180.253284,180.008 181.678284,179.523 182.336284,178.317 L193.301284,159.351 C193.959284,158.145 193.685284,156.666 192.643284,155.844 L181.075284,146.8 Z M140.340284,160.616 C129.759284,160.616 121.151284,152.008 121.151284,141.427 C121.151284,130.846 129.759284,122.238 140.340284,122.238 C150.921284,122.238 159.529284,130.846 159.529284,141.427 C159.529284,152.008 150.921284,160.616 140.340284,160.616 Z" id="Shape"></path>
            <path d="M78.857,158.115 L89.376,148.219 C89.107,146.068 88.905,143.747 88.905,141.529 C88.905,139.311 89.107,137.041 89.376,134.89 L79.724,125.703 C78.447,124.695 78.043,122.866 78.917,121.388 L92.362,98.122 C93.169,96.643 94.917,96.035 96.463,96.64 L110.02,101.404 C113.516,98.782 117.28,96.496 121.381,94.815 L122.585,82.349 C122.787,80.735 124.199,80 125.879,80 L144.943,80 L144.943,52.039 L91.649,0 L20.73,0 C10.979,0 3.089,7.403 3.089,17.154 L3,159.631 C3,169.382 10.89,177.999 20.641,177.999 L86.245,177.999 L78.882,164.335 C78.075,162.857 77.58,159.123 78.857,158.115 Z M82.943,12.147 L131.541,63 L82.943,63 L82.943,12.147 Z" id="Shape"></path>
        </g>
    </g>
</svg>