<?xml version="1.0" encoding="UTF-8"?>
<svg width="255px" height="255px" viewBox="0 0 255 255" version="1.1" xmlns="http://www.w3.org/2000/svg" xmlns:xlink="http://www.w3.org/1999/xlink">
    <!-- Generator: Sketch 48.2 (47327) - http://www.bohemiancoding.com/sketch -->
    <title>Artboard Copy 2</title>
    <desc>Created with Sketch.</desc>
    <defs></defs>
    <g id="Page-1" stroke="none" stroke-width="1" fill="none" fill-rule="evenodd">
        <g id="Artboard-Copy-2" fill="#000000" fill-rule="nonzero">
            <g id="Deploy" transform="translate(31.000000, 0.000000)">
                <path d="M182.381,1.852 C166.135,-7.389 110.913,26.68 80.923,78.595 C77.885,83.854 74.001,88.575 72.001,94.083 L72.001,94.081 C65.001,105.509 46.861,126.96 33.579,132.306 C18.464,137.48 5.439,161.083 1.591,169.991 C0.047,173.564 -2.553,178.307 8.519,182.496 C15.428,185.11 19.293,186.768 21.54,182.235 C34.779,160.027 53.112,161.339 53.112,161.339 L48.897,173.544 C48.015,175.07 48.865,177.134 50.611,178.143 L94.283,203.372 C96.03,204.381 98.24,204.086 99.122,202.559 L108.122,193.376 C108.122,193.376 118.142,208.79 105.228,231.189 C102.37,235.363 105.616,237.921 111.271,242.673 C120.334,250.289 123.06,245.633 125.424,242.541 C131.318,234.832 145.286,211.768 142.419,196.052 C140.598,181.85 148.922,154.415 156.073,143.258 L156.028,143.306 C159.44,138.328 162.749,133.105 165.906,127.639 C195.897,75.724 198.608,11.083 182.381,1.852 Z M148.046,95.841 C143.111,104.258 132.287,107.081 123.87,102.146 C115.453,97.211 112.63,86.387 117.565,77.97 C122.5,69.553 133.324,66.73 141.741,71.665 C150.158,76.6 152.98,87.424 148.046,95.841 Z" id="Shape"></path>
                <path d="M45.577,189.551 C38.051,204.078 26.122,248.759 35.397,254.197 C44.672,259.635 76.542,227.026 85.758,214.026 C86.542,212.92 88.852,210.479 83.892,207.571 C76.991,203.525 66.939,216.468 59.271,211.973 C51.95,207.681 56.934,191.766 50.679,188.099 C47.875,186.455 46.187,188.374 45.577,189.551 Z" id="Shape"></path>
            </g>
        </g>
    </g>
</svg>