<svg width="92" height="83" viewBox="0 0 92 83" fill="none" xmlns="http://www.w3.org/2000/svg">
<path d="M27 4.83789C27 2.166 29.166 0 31.8379 0H63.1621C65.834 0 68 2.166 68 4.83789V15H62V6.88935C62 5.84589 61.1541 5 60.1106 5H34.8894C33.8459 5 33 5.84589 33 6.88935V15H27V4.83789Z" fill="white"/>
<path d="M84.9044 18C88.8232 18 92 21.1768 92 25.0956V37.2244C91.6538 37.3585 91.1346 37.5467 90.4226 37.7722C88.8659 38.2654 86.3886 38.9368 82.7838 39.6128C75.5729 40.9651 63.8612 42.3338 46 42.3338C28.1388 42.3338 16.4271 40.9651 9.21617 39.6128C5.61143 38.9368 3.13413 38.2654 1.57744 37.7722C0.8654 37.5467 0.346201 37.3585 0 37.2244V25.0956C0 21.1768 3.17679 18 7.09557 18H84.9044Z" fill="white"/>
<path d="M0 41.0981V75.9044C0 79.8232 3.17679 83 7.09557 83H84.9044C88.8232 83 92 79.8232 92 75.9044V41.0981C91.8246 41.1567 91.6369 41.2179 91.4364 41.2814C89.7379 41.8194 87.1273 42.5228 83.4011 43.2216C76.9522 44.431 67.1536 45.6282 52.9461 45.9284C52.9815 46.1295 53 46.3365 53 46.5478V47.4522C53 49.4116 51.4116 51 49.4522 51H42.5478C40.5884 51 39 49.4116 39 47.4522V46.5478C39 46.3365 39.0185 46.1295 39.0539 45.9284C24.8464 45.6282 15.0478 44.431 8.59889 43.2216C4.87267 42.5228 2.26207 41.8194 0.563586 41.2814C0.363148 41.2179 0.175397 41.1567 0 41.0981Z" fill="white"/>
</svg>
