<svg width="104" height="65" viewBox="0 0 104 65" fill="none" xmlns="http://www.w3.org/2000/svg">
<path fill-rule="evenodd" clip-rule="evenodd" d="M80.402 18.518C87.62 19.2294 93.3402 25.0398 93.9117 32.2979C99.549 35.1218 103.419 40.9523 103.419 47.6866C103.419 57.1864 95.7178 64.8876 86.218 64.8876H13.1137V64.7352C5.81979 63.6919 0.212891 57.4191 0.212891 49.8367C0.212891 43.4338 4.21107 37.9648 9.84701 35.79C9.73259 35.0419 9.67324 34.2757 9.67324 33.4957C9.67324 25.1833 16.4118 18.4448 24.7241 18.4448C26.2318 18.4448 27.6876 18.6664 29.0609 19.079C32.5951 8.22675 42.7947 0.383789 54.8262 0.383789C66.6494 0.383789 76.7037 7.95751 80.402 18.518ZM53.576 16.6668C48.8328 16.6668 44.9878 20.5119 44.9878 25.255V31.9347H44.6696C43.2643 31.9347 42.125 33.074 42.125 34.4793V49.7472C42.125 51.1526 43.2643 52.2918 44.6696 52.2918H62.4822C63.8875 52.2918 65.0268 51.1526 65.0268 49.7472V34.4793C65.0268 33.074 63.8875 31.9347 62.4822 31.9347H62.1641V25.255C62.1641 20.5119 58.3191 16.6668 53.576 16.6668ZM47.2143 31.9347H59.9376V25.5731C59.9376 22.0596 57.0894 19.2115 53.576 19.2115C50.0625 19.2115 47.2143 22.0596 47.2143 25.5731V31.9347Z" fill="white"/>
</svg>
