<svg width="99" height="97" viewBox="0 0 99 97" fill="none" xmlns="http://www.w3.org/2000/svg">
<path fill-rule="evenodd" clip-rule="evenodd" d="M51.1357 1.13378C49.624 -0.377927 47.1731 -0.377928 45.6614 1.13378L27.1357 19.6594C25.624 21.1711 25.624 23.6221 27.1357 25.1338L45.6614 43.6594C47.1731 45.1711 49.624 45.1711 51.1357 43.6594L69.6614 25.1338C71.1731 23.6221 71.1731 21.1711 69.6614 19.6594L51.1357 1.13378ZM19.6594 27.1333C21.1711 25.6216 23.6221 25.6216 25.1338 27.1333L43.6594 45.6589C45.1711 47.1706 45.1711 49.6216 43.6594 51.1333L25.1338 69.6589C23.6221 71.1706 21.1711 71.1706 19.6594 69.6589L1.13378 51.1333C-0.377928 49.6216 -0.377927 47.1706 1.13378 45.6589L19.6594 27.1333ZM45.6614 53.1344C47.1731 51.6227 49.624 51.6227 51.1357 53.1344L69.6614 71.66C71.1731 73.1717 71.1731 75.6227 69.6614 77.1344L51.1357 95.66C49.624 97.1717 47.1731 97.1717 45.6614 95.66L27.1357 77.1344C25.624 75.6227 25.624 73.1717 27.1357 71.66L45.6614 53.1344Z" fill="white" fill-opacity="0.2"/>
<rect x="74.4004" y="24.3961" width="33.9411" height="33.9411" rx="3.87098" transform="rotate(45 74.4004 24.3961)" fill="white"/>
</svg>
