<svg width="89" height="89" viewBox="0 0 89 89" fill="none" xmlns="http://www.w3.org/2000/svg">
<path fill-rule="evenodd" clip-rule="evenodd" d="M4.19578 5.7169C1.99202 5.87101 0.330445 7.78243 0.484547 9.98619L5.71628 84.8035C5.87038 87.0072 7.78181 88.6688 9.98557 88.5147L84.8029 83.283C87.0066 83.1289 88.6682 81.2175 88.5141 79.0137L83.2824 4.1964C83.1283 1.99264 81.2168 0.331067 79.0131 0.485169L4.19578 5.7169ZM73.7531 39.9482L61.4417 40.8091C60.4575 38.5419 58.124 37.0313 55.5179 37.2136C52.9118 37.3958 50.8112 39.2164 50.1521 41.5986L15.8944 43.9941C14.7925 44.0711 13.9617 45.0269 14.0387 46.1287C14.1158 47.2306 15.0715 48.0614 16.1734 47.9844L50.4311 45.5888C51.4154 47.8561 53.7489 49.3666 56.355 49.1843C58.961 49.0021 61.0616 47.1815 61.7208 44.7994L74.0321 43.9385C75.134 43.8614 75.9648 42.9057 75.8877 41.8038C75.8107 40.702 74.8549 39.8712 73.7531 39.9482ZM43.0251 64.1506L75.2877 61.8946C76.3896 61.8176 77.3453 62.6484 77.4224 63.7502C77.4994 64.8521 76.6686 65.8078 75.5667 65.8849L43.3041 68.1409C42.645 70.5231 40.5444 72.3437 37.9383 72.5259C35.3323 72.7081 32.9987 71.1976 32.0145 68.9304L17.708 69.9308C16.6061 70.0078 15.6504 69.177 15.5734 68.0751C15.4963 66.9733 16.3271 66.0176 17.429 65.9405L31.7355 64.9401C32.3946 62.5579 34.4952 60.7374 37.1013 60.5551C39.7073 60.3729 42.0409 61.8834 43.0251 64.1506ZM72.2184 18.0018L44.9436 19.909C43.9594 17.6418 41.6259 16.1313 39.0198 16.3135C36.4137 16.4958 34.3131 18.3163 33.654 20.6985L14.3597 22.0477C13.2578 22.1247 12.427 23.0804 12.5041 24.1823C12.5811 25.2842 13.5369 26.115 14.6387 26.0379L33.933 24.6888C34.9173 26.956 37.2508 28.4665 39.8569 28.2843C42.4629 28.1021 44.5635 26.2815 45.2226 23.8993L72.4975 21.9921C73.5993 21.915 74.4301 20.9593 74.3531 19.8574C74.276 18.7555 73.3203 17.9248 72.2184 18.0018Z" fill="white"/>
</svg>
