<svg width="32" height="32" fill="none" xmlns="http://www.w3.org/2000/svg"><path fill-rule="evenodd" clip-rule="evenodd" d="M16 4C4 4 4 4 4 16.305c0 11.672 0 11.672 8.207 11.674.6.113.819-.267.819-.593 0-.292-.01-1.066-.016-2.093-3.338.744-4.043-1.649-4.043-1.649-.545-1.421-1.332-1.8-1.332-1.8-1.09-.764.082-.748.082-.748 1.204.087 1.838 1.268 1.838 1.268 1.07 1.88 2.808 1.337 3.492 1.022.11-.795.42-1.337.762-1.645-2.664-.31-5.466-1.366-5.466-6.081 0-1.343.468-2.442 1.236-3.302-.124-.311-.535-1.562.117-3.256 0 0 1.008-.331 3.3 1.261.957-.273 1.984-.41 3.005-.414 1.018.005 2.045.142 3.004.414 2.29-1.592 3.296-1.261 3.296-1.261.655 1.694.243 2.945.12 3.256.769.86 1.233 1.958 1.233 3.302 0 4.727-2.805 5.767-5.479 6.071.43.38.815 1.131.815 2.279 0 1.645-.015 2.972-.015 3.376 0 .329.216.711.825.591 8.2 0 8.2.002 8.2-11.672C28 4 28 4 16 4z" fill="rgba(238,238,255,0.7)"/></svg>