<svg width="36" height="36" fill="none" xmlns="http://www.w3.org/2000/svg"><path d="M13.826 27.143c8.49 0 13.134-7.034 13.134-13.135 0-.2 0-.398-.013-.596a9.394 9.394 0 002.303-2.39 9.217 9.217 0 01-2.651.727 4.632 4.632 0 002.03-2.554 9.25 9.25 0 01-2.932 1.12 4.62 4.62 0 00-7.867 4.211 13.106 13.106 0 01-9.514-4.823 4.62 4.62 0 001.43 6.162 4.583 4.583 0 01-2.096-.578v.059a4.618 4.618 0 003.704 4.525 4.61 4.61 0 01-2.085.08 4.622 4.622 0 004.313 3.205A9.263 9.263 0 016.75 25.07a13.07 13.07 0 007.076 2.07" fill="#B8B9BA"/></svg>