<svg width="119" height="79" viewBox="0 0 119 79" fill="none" xmlns="http://www.w3.org/2000/svg">
<path fill-rule="evenodd" clip-rule="evenodd" d="M86 0C84.8954 0 84 0.89543 84 2V76.75C84 77.8546 84.8954 78.75 86 78.75H117C118.105 78.75 119 77.8546 119 76.75V2C119 0.895431 118.105 0 117 0H86ZM44 19.25C42.8954 19.25 42 20.1454 42 21.25V76.75C42 77.8546 42.8954 78.75 44 78.75H75C76.1046 78.75 77 77.8546 77 76.75V21.25C77 20.1454 76.1046 19.25 75 19.25H44Z" fill="white"/>
<rect opacity="0.4" y="36.75" width="35" height="42" rx="2" fill="#C4C4C4"/>
</svg>
