<svg width="80" height="80" viewBox="0 0 80 80" fill="none" xmlns="http://www.w3.org/2000/svg">
<path fill-rule="evenodd" clip-rule="evenodd" d="M40 80C62.0914 80 80 62.0914 80 40C80 17.9086 62.0914 0 40 0C17.9086 0 0 17.9086 0 40C0 62.0914 17.9086 80 40 80ZM42.9146 35.6926C49.3441 38.194 52.0838 41.5266 52.0838 46.8457C52.0753 52.125 48.5205 56.2253 42.9706 57.4043V62.6208C42.9747 62.8043 42.9063 62.9821 42.7802 63.1154C42.6541 63.2488 42.4806 63.3271 42.2971 63.3333H37.7846C37.4029 63.3206 37.1026 63.0025 37.1111 62.6208V57.8242C33.9201 57.6265 30.6588 56.6604 28.6476 55.3304C28.522 55.2461 28.4266 55.1239 28.3753 54.9815C28.3241 54.8391 28.3196 54.6841 28.3626 54.5391L29.819 49.1809C29.847 49.0777 29.8977 48.9821 29.9676 48.9012C30.0375 48.8203 30.1247 48.7561 30.2228 48.7135C30.3205 48.6752 30.4259 48.6602 30.5304 48.6698C30.635 48.6794 30.7359 48.7132 30.825 48.7686C32.25 49.655 35.195 51.1513 38.9322 51.1513C42.0443 51.1513 44.0546 49.6949 44.0546 47.4548C44.0546 45.3257 42.5109 43.9092 38.5446 42.4291C33.6911 40.5766 28.7189 37.8538 28.7189 31.6559C28.7189 26.5191 32.0439 22.6403 37.4436 21.429V16.5458C37.4434 16.3622 37.5142 16.1856 37.6411 16.0528C37.768 15.92 37.9413 15.8414 38.1247 15.8333H42.5668C42.7488 15.8435 42.92 15.9231 43.0451 16.0556C43.1702 16.1881 43.2398 16.3636 43.2395 16.5458V21.0651C45.7236 21.1907 48.1502 21.858 50.3492 23.0203C50.4945 23.0989 50.6079 23.2255 50.6701 23.3786C50.7323 23.5316 50.7394 23.7015 50.6902 23.8591L49.233 29.0358C49.204 29.1351 49.1545 29.2273 49.0878 29.3063C49.021 29.3853 48.9384 29.4495 48.8453 29.4947C48.6621 29.5736 48.4534 29.5676 48.2753 29.4794C46.8503 28.727 44.6407 27.5718 41.2122 27.5718C38.4097 27.5718 36.7396 28.7907 36.7396 30.817C36.7396 32.6136 38.2986 33.8409 42.9146 35.6926Z" fill="white"/>
</svg>
