<svg width="203" height="74" viewBox="0 0 203 74" fill="none" xmlns="http://www.w3.org/2000/svg">
<g opacity="0.4" clip-path="url(#clip0)">
<path fill-rule="evenodd" clip-rule="evenodd" d="M160.936 31.2808C160.936 27.037 164.377 23.5967 168.621 23.5967C172.864 23.5967 176.305 27.037 176.305 31.2808V37.2574H176.589C177.847 37.2574 178.866 38.2768 178.866 39.5342V53.1949C178.866 54.4524 177.847 55.4717 176.589 55.4717H160.652C159.394 55.4717 158.375 54.4524 158.375 53.1949V39.5342C158.375 38.2768 159.394 37.2574 160.652 37.2574H160.936V31.2808ZM174.313 37.2574H162.929V31.5654C162.929 28.4218 165.477 25.8735 168.621 25.8735C171.764 25.8735 174.313 28.4218 174.313 31.5654V37.2574Z" fill="white"/>
</g>
<path d="M8.36523 41.8254H25.0954V16.7301H33.4605V41.8254H41.8255V8.36499H8.36523V41.8254Z" fill="white"/>
<path d="M50.1895 8.36499V50.1905H66.9196V41.8254H83.6497V8.36499H50.1895ZM75.2847 33.4603H66.9196V16.7301H75.2847V33.4603Z" fill="white"/>
<path d="M92.0156 8.36499V41.8254H108.746V16.7301H117.111V41.8254H125.476V16.7301H133.841V41.8254H142.206V8.36499H92.0156Z" fill="white"/>
<defs>
<clipPath id="clip0">
<rect width="68" height="68" fill="white" transform="translate(135 6)"/>
</clipPath>
</defs>
</svg>
