<svg width="144" height="72" viewBox="0 0 144 72" fill="none" xmlns="http://www.w3.org/2000/svg">
<ellipse cx="71.9988" cy="29.4813" rx="19.2" ry="20.631" fill="white"/>
<ellipse cx="71.9988" cy="29.4813" rx="19.2" ry="20.631" fill="url(#paint0_linear)"/>
<path d="M117.006 35.4217C117.006 41.8682 112.013 47.8481 103.617 52.2516C95.2486 56.6404 83.6472 59.3728 70.8 59.3728C57.9528 59.3728 46.3514 56.6404 37.9834 52.2516C29.5874 47.8481 24.5942 41.8682 24.5942 35.4217C24.5942 28.9751 29.5874 22.9952 37.9834 18.5917C46.3514 14.2029 57.9528 11.4705 70.8 11.4705C83.6472 11.4705 95.2486 14.2029 103.617 18.5917C112.013 22.9952 117.006 28.9751 117.006 35.4217Z" stroke="white" stroke-width="1.18839"/>
<path d="M143.683 35.8058C143.683 45.5074 135.767 54.3771 122.77 60.8402C109.794 67.2936 91.8439 71.2943 72 71.2943C52.1561 71.2943 34.2065 67.2936 21.2296 60.8402C8.23325 54.3771 0.317308 45.5074 0.317308 35.8058C0.317308 26.1041 8.23325 17.2345 21.2296 10.7714C34.2065 4.31795 52.1561 0.317308 72 0.317308C91.8439 0.317308 109.794 4.31795 122.77 10.7714C135.767 17.2345 143.683 26.1041 143.683 35.8058Z" stroke="white" stroke-width="0.634615"/>
<ellipse cx="102.255" cy="51.6778" rx="6.25715" ry="6.72349" fill="white"/>
<ellipse cx="134.402" cy="19.1657" rx="4.8" ry="5.15774" fill="white"/>
<defs>
<linearGradient id="paint0_linear" x1="71.9988" y1="8.85034" x2="71.9988" y2="50.1122" gradientUnits="userSpaceOnUse">
<stop stop-color="white" stop-opacity="0"/>
<stop offset="1" stop-opacity="0.1"/>
</linearGradient>
</defs>
</svg>
