<svg width="89" height="89" viewBox="0 0 89 89" fill="none" xmlns="http://www.w3.org/2000/svg">
<path fill-rule="evenodd" clip-rule="evenodd" d="M4.19578 5.71715C1.99202 5.87125 0.330445 7.78267 0.484547 9.98643L5.71628 84.8037C5.87038 87.0075 7.78181 88.6691 9.98557 88.515L84.8029 83.2832C87.0066 83.1291 88.6682 81.2177 88.5141 79.0139L83.2824 4.19664C83.1283 1.99289 81.2168 0.331312 79.0131 0.485413L4.19578 5.71715ZM73.7531 39.9485L61.4417 40.8094C60.4575 38.5421 58.124 37.0316 55.5179 37.2138C52.9118 37.3961 50.8112 39.2166 50.1521 41.5988L15.8944 43.9943C14.7925 44.0714 13.9617 45.0271 14.0387 46.129C14.1158 47.2309 15.0715 48.0616 16.1734 47.9846L50.4311 45.5891C51.4154 47.8563 53.7489 49.3668 56.355 49.1846C58.961 49.0024 61.0616 47.1818 61.7208 44.7996L74.0321 43.9387C75.134 43.8617 75.9648 42.906 75.8877 41.8041C75.8107 40.7022 74.8549 39.8714 73.7531 39.9485ZM43.0251 64.1509L75.2877 61.8949C76.3896 61.8178 77.3453 62.6486 77.4224 63.7505C77.4994 64.8524 76.6686 65.8081 75.5667 65.8851L43.3041 68.1411C42.645 70.5233 40.5444 72.3439 37.9383 72.5261C35.3323 72.7084 32.9987 71.1978 32.0145 68.9306L17.708 69.931C16.6061 70.0081 15.6504 69.1773 15.5734 68.0754C15.4963 66.9735 16.3271 66.0178 17.429 65.9407L31.7355 64.9403C32.3946 62.5582 34.4952 60.7376 37.1013 60.5554C39.7073 60.3731 42.0409 61.8836 43.0251 64.1509ZM72.2184 18.0021L44.9436 19.9093C43.9594 17.642 41.6259 16.1315 39.0198 16.3138C36.4137 16.496 34.3131 18.3166 33.654 20.6987L14.3597 22.0479C13.2578 22.125 12.427 23.0807 12.5041 24.1826C12.5811 25.2844 13.5369 26.1152 14.6387 26.0382L33.933 24.689C34.9173 26.9562 37.2508 28.4668 39.8569 28.2845C42.4629 28.1023 44.5635 26.2817 45.2226 23.8995L72.4975 21.9923C73.5993 21.9153 74.4301 20.9595 74.3531 19.8577C74.276 18.7558 73.3203 17.925 72.2184 18.0021Z" fill="white"/>
</svg>
