<svg width="187" height="54" viewBox="0 0 187 54" fill="none" xmlns="http://www.w3.org/2000/svg">
<path d="M88.4093 40.4449C94.8877 40.4449 98.7676 37.3125 98.7676 32.3825V32.3647C98.7676 28.3246 96.3471 26.1355 90.9722 25.0676L88.2491 24.5159C85.2947 23.9285 83.9776 22.9853 83.9776 21.3656V21.3479C83.9776 19.5147 85.6328 18.251 88.3915 18.2332C91.0434 18.2332 92.8943 19.4613 93.1613 21.4724L93.1791 21.686H98.2515L98.2337 21.3479C97.9845 16.845 94.336 13.8728 88.3915 13.8728C82.6962 13.8728 78.6027 16.9696 78.6027 21.6682V21.686C78.6027 25.5481 81.1656 27.9687 86.2379 28.9831L88.9432 29.5171C92.129 30.1756 93.3927 31.0477 93.3927 32.7919V32.8097C93.3927 34.7674 91.5239 36.0667 88.5517 36.0667C85.615 36.0667 83.4971 34.8208 83.1589 32.8275L83.1233 32.6317H78.0509L78.0687 32.9165C78.3713 37.6507 82.3046 40.4449 88.4093 40.4449ZM101.74 40H106.937V29.0721C106.937 26.5804 108.414 24.8362 110.71 24.8362C113.077 24.8362 114.394 26.4202 114.394 29.0899V40H119.591V28.022C119.591 23.4124 117.028 20.5291 112.899 20.5291C110.034 20.5291 108.023 21.8462 107.044 24.2133H106.937V14.3177H101.74V40ZM128.615 40.3026C131.124 40.3026 133.153 39.1101 134.239 37.1523H134.346V40H139.543V26.9186C139.543 23.0742 136.357 20.5291 131.427 20.5291C126.39 20.5291 123.364 23.0564 123.079 26.5804L123.062 26.794H127.814L127.849 26.6338C128.098 25.4058 129.273 24.4981 131.213 24.4981C133.242 24.4981 134.346 25.5481 134.346 27.2389V28.4136L129.629 28.6984C124.895 29.0009 122.207 31.0299 122.207 34.5005V34.5361C122.207 37.8999 124.788 40.3026 128.615 40.3026ZM127.351 34.2691V34.2335C127.351 32.8809 128.401 32.0266 130.412 31.902L134.346 31.6528V33.0232C134.346 35.0166 132.637 36.5116 130.305 36.5116C128.508 36.5116 127.351 35.6751 127.351 34.2691ZM142.906 40H148.103V29.2501C148.103 26.5626 149.598 25.0142 152.161 25.0142C152.909 25.0142 153.621 25.121 154.048 25.299V20.7249C153.656 20.6181 153.122 20.5291 152.553 20.5291C150.292 20.5291 148.673 21.864 148.121 24.1777H148.014V20.9207H142.906V40ZM164.228 40.3916C169.674 40.3916 172.308 37.1701 172.896 34.3581L172.949 34.1623H168.179L168.144 34.2691C167.77 35.337 166.471 36.5116 164.335 36.5116C161.683 36.5116 160.028 34.7318 159.974 31.6884H173.109V30.0866C173.109 24.3201 169.603 20.5291 164.015 20.5291C158.426 20.5291 154.849 24.4091 154.849 30.4781V30.4959C154.849 36.6006 158.39 40.3916 164.228 40.3916ZM164.104 24.4091C166.257 24.4091 167.805 25.7795 168.126 28.4136H160.028C160.366 25.8329 161.968 24.4091 164.104 24.4091Z" fill="white"/>
<path fill-rule="evenodd" clip-rule="evenodd" d="M34.2 33.6937V45.1781L57 25.5562L34.2 6V17.1562C12.0413 19.9781 3.20625 33.9562 0 48C7.90875 38.1562 18.3825 33.6937 34.2 33.6937Z" fill="white"/>
</svg>
