<svg width="65" height="65" viewBox="0 0 65 65" fill="none" xmlns="http://www.w3.org/2000/svg">
<path fill-rule="evenodd" clip-rule="evenodd" d="M1.00736 4.61128C0 6.51386 0 9.02257 0 14.04V50.96C0 55.9774 0 58.4861 1.00736 60.3887C1.8203 61.9241 3.07591 63.1797 4.61128 63.9926C6.51386 65 9.02257 65 14.04 65H50.96C55.9774 65 58.4861 65 60.3887 63.9926C61.9241 63.1797 63.1797 61.9241 63.9926 60.3887C65 58.4861 65 55.9774 65 50.96V14.04C65 9.02257 65 6.51386 63.9926 4.61128C63.1797 3.07591 61.9241 1.8203 60.3887 1.00736C58.4861 0 55.9774 0 50.96 0H14.04C9.02257 0 6.51386 0 4.61128 1.00736C3.07591 1.8203 1.8203 3.07591 1.00736 4.61128ZM44.8161 23.5807C44.8161 27.4272 42.9542 30.8388 40.0825 32.9634L45.1272 50.2507C45.2305 50.6046 45.0024 50.9677 44.6376 51.0216C42.7964 51.2934 37.556 52.0002 32.8454 52.0002C28.1844 52.0002 23.0274 51.6542 21.1444 51.5152C20.7592 51.4868 20.5023 51.1129 20.607 50.7411L25.6597 32.8032C25.6806 32.7291 25.7145 32.6614 25.7586 32.6024C23.1515 30.4632 21.4883 27.2162 21.4883 23.5807C21.4883 17.1389 26.7104 11.9168 33.1522 11.9168C39.594 11.9168 44.8161 17.1389 44.8161 23.5807Z" fill="white"/>
</svg>
