<svg xmlns="http://www.w3.org/2000/svg" xmlns:xlink="http://www.w3.org/1999/xlink" x="0" y="0" enable-background="new 0 0 512 512" version="1.1" viewBox="0 0 512 512" xml:space="preserve"><g id="Background"><circle cx="256" cy="256" r="247" fill="#282C34"/></g><g id="Colors_1_"><g><path fill="#DE6A73" d="M257.9,152.3c10.3,0,20.6,1.5,30.9,4.3c7.5,2.1,13.9-0.2,17.8-7c7.4-13,6.7-11.9,21.9-39.1 c0.7-1.2,0.8-3.4,0.8-4.8c0-1.6-0.2-2.7-0.8-4.2c-2.8-6.5-8.8-9.3-14.7-11.8c-13.7-5.6-28.2-7.6-42.8-8.7 c-4.4-0.3-8.8-0.5-13.1-0.6h0c-4.4,0-8.7,0.2-13.1,0.6c-14.6,1.1-29.1,3.1-42.8,8.7c-5.9,2.4-11.9,5.3-14.7,11.8 c-0.6,1.5-0.8,2.6-0.8,4.2c0,1.4,0.2,3.6,0.8,4.8c15.2,27.2,14.5,26.1,21.9,39.1c3.9,6.8,10.3,9.1,17.8,7 C237.3,153.8,247.6,152.4,257.9,152.3"/><path fill="#C678DD" d="M346.1,204.8c5.2,8.9,9.2,18.5,11.9,28.9c2,7.5,7.2,11.9,15.1,11.8c14.9-0.2,13.7-0.2,44.8-0.9 c1.4,0,3.4-1,4.6-1.7c1.4-0.8,2.2-1.5,3.2-2.8c4.2-5.7,3.6-12.3,2.7-18.7c-2.1-14.6-7.7-28.2-14.1-41.3c-1.9-4-4-7.8-6.1-11.6l0,0 c-2.2-3.7-4.6-7.4-7.1-11c-8.4-12-17.4-23.6-29.2-32.5c-5.1-3.9-10.6-7.6-17.6-6.7c-1.6,0.2-2.6,0.6-4,1.4c-1.2,0.7-3,2-3.7,3.2 c-15.8,26.8-15.2,25.7-22.6,38.7c-3.9,6.8-2.6,13.5,3,18.9C334.4,187.7,340.9,195.9,346.1,204.8"/><path fill="#61AFEF" d="M344.2,309.6c-5.3,8.9-11.8,17-19.5,24.4c-5.6,5.4-6.9,12.1-3.1,18.9c7.4,13,6.8,11.9,22.5,38.8 c0.7,1.2,2.5,2.5,3.7,3.2c1.4,0.8,2.4,1.2,4,1.4c7,0.9,12.5-2.8,17.6-6.7c11.8-8.9,20.9-20.4,29.3-32.4c2.5-3.6,4.9-7.3,7.2-11 l0,0c2.2-3.8,4.2-7.6,6.2-11.6c6.5-13.1,12.2-26.7,14.3-41.3c0.9-6.3,1.5-12.9-2.6-18.7c-0.9-1.3-1.8-2-3.2-2.8 c-1.2-0.7-3.2-1.7-4.6-1.7c-31.1-0.8-29.9-0.8-44.8-1.1c-7.8-0.1-13.1,4.2-15.1,11.8C353.4,291.1,349.4,300.7,344.2,309.6"/><path fill="#98C379" d="M257.9,359.7c10.3,0,20.6-1.5,30.9-4.3c7.5-2.1,13.9,0.2,17.8,7c7.4,13,6.7,11.9,21.9,39.1 c0.7,1.2,0.8,3.4,0.8,4.8c0,1.6-0.2,2.7-0.8,4.2c-2.8,6.5-8.8,9.3-14.7,11.8c-13.7,5.6-28.2,7.6-42.8,8.7 c-4.4,0.3-8.8,0.5-13.1,0.6h0c-4.4,0-8.7-0.2-13.1-0.6c-14.6-1.1-29.1-3.1-42.8-8.7c-5.9-2.4-11.9-5.3-14.7-11.8 c-0.6-1.5-0.8-2.6-0.8-4.2c0-1.4,0.2-3.6,0.8-4.8c15.2-27.2,14.5-26.1,21.9-39.1c3.9-6.8,10.3-9.1,17.8-7 C237.3,358.2,247.6,359.6,257.9,359.7"/><path fill="#D19A66" d="M167.8,309.6c5.3,8.9,11.8,17,19.5,24.4c5.6,5.4,6.9,12.1,3.1,18.9c-7.4,13-6.8,11.9-22.5,38.8 c-0.7,1.2-2.5,2.5-3.7,3.2c-1.4,0.8-2.4,1.2-4,1.4c-7,0.9-12.5-2.8-17.6-6.7c-11.8-8.9-20.9-20.4-29.3-32.4 c-2.5-3.6-4.9-7.3-7.2-11l0,0c-2.2-3.8-4.2-7.6-6.2-11.6c-6.5-13.1-12.2-26.7-14.3-41.3c-0.9-6.3-1.5-12.9,2.6-18.7 c0.9-1.3,1.8-2,3.2-2.8c1.2-0.7,3.2-1.7,4.6-1.7c31.1-0.8,29.9-0.8,44.8-1.1c7.8-0.1,13.1,4.2,15.1,11.8 C158.6,291.1,162.6,300.7,167.8,309.6"/><path fill="#ABB2BF" d="M165.9,204.8c-5.2,8.9-9.2,18.5-11.9,28.9c-2,7.5-7.2,11.9-15.1,11.8c-14.9-0.2-13.7-0.2-44.8-0.9 c-1.4,0-3.4-1-4.6-1.7c-1.4-0.8-2.2-1.5-3.2-2.8c-4.2-5.7-3.6-12.3-2.7-18.7c2.1-14.6,7.7-28.2,14.1-41.3c1.9-4,4-7.8,6.1-11.6 l0,0c2.2-3.7,4.6-7.4,7.1-11c8.4-12,17.4-23.6,29.2-32.5c5.1-3.9,10.6-7.6,17.6-6.7c1.6,0.2,2.6,0.6,4,1.4c1.2,0.7,3,2,3.7,3.2 c15.8,26.8,15.2,25.7,22.6,38.7c3.9,6.8,2.6,13.5-3,18.9C177.6,187.7,171.1,195.9,165.9,204.8"/></g></g></svg>