<svg width="68" height="57" viewBox="0 0 68 57" fill="none" xmlns="http://www.w3.org/2000/svg">
<path fill-rule="evenodd" clip-rule="evenodd" d="M4.12472 0.5C2.06352 0.5 0.392578 2.17094 0.392578 4.23214V52.75C0.392578 54.8112 2.06352 56.4821 4.12472 56.4821H63.839C65.9002 56.4821 67.5712 54.8112 67.5712 52.75V4.23214C67.5712 2.17094 65.9002 0.5 63.839 0.5H4.12472ZM11.59 28.9178L26.2226 13.65L29.8808 17.467L18.9062 28.9179L29.8807 40.3688L26.2226 44.1857L11.59 28.9178ZM56.3757 28.9179L41.7431 44.1857L38.0849 40.3687L49.0594 28.9179L38.0849 17.467L41.743 13.6501L56.3757 28.9179Z" fill="white"/>
</svg>
