<svg width="70" height="70" viewBox="0 0 70 70" fill="none" xmlns="http://www.w3.org/2000/svg">
<path fill-rule="evenodd" clip-rule="evenodd" d="M7 0C3.13401 0 0 3.13401 0 7V63C0 66.866 3.13401 70 7 70H63C66.866 70 70 66.866 70 63V7C70 3.13401 66.866 0 63 0H7ZM32.5809 39.7349H19.2046C18.2102 39.7349 17.5 39.0483 17.5 38.125C17.5 37.6041 17.713 37.1307 18.1155 36.6098L39.636 9.73878C41.2222 7.72641 43.7555 9.02856 42.8321 11.4671L35.777 30.6437H49.1533C50.1477 30.6437 50.8579 31.354 50.8579 32.2536C50.8579 32.7981 50.6448 33.2716 50.2424 33.7688L28.7219 60.6635C27.1357 62.6522 24.6024 61.35 25.5258 58.9115L32.5809 39.7349Z" fill="white"/>
</svg>
