<svg width="52" height="80" viewBox="0 0 52 80" fill="none" xmlns="http://www.w3.org/2000/svg">
<path fill-rule="evenodd" clip-rule="evenodd" d="M7.07824 19.4583C7.07824 8.97346 15.5778 0.473877 26.0626 0.473877C36.5474 0.473877 45.047 8.97348 45.047 19.4583V34.2239H45.75C48.8567 34.2239 51.3751 36.7423 51.3751 39.8489V73.5989C51.3751 76.7055 48.8567 79.2239 45.75 79.2239H6.37501C3.2684 79.2239 0.75 76.7055 0.75 73.5989V39.8489C0.75 36.7423 3.2684 34.2239 6.37501 34.2239H7.07824V19.4583ZM40.1251 34.2239H12.0001V20.1614C12.0001 12.3949 18.2961 6.09888 26.0626 6.09888C33.8291 6.09888 40.1251 12.3949 40.1251 20.1614V34.2239Z" fill="white"/>
</svg>
