<svg width="170" height="67" viewBox="0 0 170 67" fill="none" xmlns="http://www.w3.org/2000/svg">
<path fill-rule="evenodd" clip-rule="evenodd" d="M170 0H0V56.6669H47.2222V66.1113H85V56.6669H170V0ZM28.3333 18.889V47.2224H9.44444L9.44434 47.2224V9.44446H47.2221L47.2222 9.44448V47.2224H37.7778L37.7777 47.2224V18.8889L28.3333 18.889ZM56.6667 56.6669V9.44448L56.667 9.44446H94.4448V47.2224L94.4444 47.2224L75.5559 47.2224V56.6668L75.5556 56.6669H56.6667ZM75.5559 37.7779V18.8889L85 18.889V37.7779L75.5559 37.7779ZM160.555 9.44446H103.889V47.2224L103.889 47.2224H122.778V18.889L132.222 18.8889V47.2224L132.222 47.2224H141.667V18.889L151.111 18.8889V47.2224L151.111 47.2224H160.556V9.44448L160.555 9.44446Z" fill="white"/>
</svg>
