<svg width="129" height="73" viewBox="0 0 129 73" fill="none" xmlns="http://www.w3.org/2000/svg">
<path fill-rule="evenodd" clip-rule="evenodd" d="M36.1315 40.7952C43.7117 40.7952 49.876 33.4704 50.0407 25.0404C50.3661 24.592 50.5898 24.0155 50.6539 23.3718C50.7494 22.4114 50.4674 21.5225 49.9567 20.9441C49.5619 13.2097 47.5922 4.98079 39.4705 3.99349L39.3773 3.98215C37.0223 3.69523 31.6647 3.04251 30.5665 6.2936C23.1543 5.39256 22.2326 13.2905 22.181 19.8147C21.3243 20.3493 20.8782 21.5981 21.1581 22.8955C21.3249 23.6685 21.718 24.3128 22.2189 24.7301C22.2362 33.2899 28.4585 40.7952 36.1315 40.7952ZM40.2669 68.5988C40.2596 61.5895 40.2514 53.6143 47.3095 49.1563C42.8575 41.681 4.21442 44.5405 14.2315 69.2666H40.2674C40.2674 69.0451 40.2671 68.8224 40.2669 68.5988Z" fill="#343434"/>
<path fill-rule="evenodd" clip-rule="evenodd" d="M103.188 40.8748C95.4985 40.9182 89.2228 33.4273 89.1749 24.8529C89.1725 24.4238 89.1729 23.9887 89.1769 23.5491C88.773 23.1008 88.4805 22.4803 88.3824 21.7681C88.2189 20.5809 88.6425 19.4783 89.3847 18.9312C90.0064 11.8917 92.2761 5.02937 99.6413 4.09258L99.7345 4.0807C102.09 3.78049 107.448 3.09754 108.565 6.34239C116.742 5.30231 117.075 15.0136 117.038 21.7791C117.65 22.3813 117.958 23.4129 117.766 24.5001C117.647 25.1727 117.356 25.757 116.967 26.1867C116.341 34.1279 110.429 40.834 103.188 40.8748ZM95.2178 69.266C98.1107 57.6321 89.432 48.9067 86.5391 48.9067C90.621 42.0528 127.545 46.5953 118.361 69.266H95.2178Z" fill="#343434"/>
<path fill-rule="evenodd" clip-rule="evenodd" d="M86.4575 21.9743C86.4575 25.6258 85.1648 29.2312 83.6369 31.9778C83.2901 32.6013 83.9149 33.655 84.5409 34.7106C85.228 35.8694 85.9166 37.0305 85.3227 37.6276C83.6975 39.2616 79.8568 39.0672 76.7459 38.8342C74.7033 40.6317 72.2411 41.6812 69.5907 41.6812C66.6078 41.6812 63.8633 40.3519 61.6871 38.1232C61.0873 38.4027 60.4893 38.6817 59.8985 38.9659C55.2767 38.3495 52.423 30.7006 53.5246 21.8816C54.6262 13.0625 59.266 6.41297 63.8878 7.02936C64.9495 7.25902 65.9108 7.55556 66.7809 7.90749C68.7672 6.25578 71.1268 5.29858 73.6579 5.29858C80.727 5.29858 86.4575 12.7646 86.4575 21.9743ZM45.8451 69.2723L92.035 69.2723C92.035 69.2723 95.3741 46.8585 68.6618 46.2713C41.9496 45.684 45.8451 69.2723 45.8451 69.2723Z" fill="white"/>
</svg>
