<svg width="1063" height="1063" fill="none" xmlns="http://www.w3.org/2000/svg"><path d="M0 153.6C0 99.835 0 72.952 10.463 52.417a96 96 0 0141.954-41.954C72.952 0 99.835 0 153.6 0h755.8c53.765 0 80.648 0 101.18 10.463a96.013 96.013 0 0141.96 41.954C1063 72.952 1063 99.835 1063 153.6v755.8c0 53.765 0 80.648-10.46 101.18a96.026 96.026 0 01-41.96 41.96C990.048 1063 963.165 1063 909.4 1063H153.6c-53.765 0-80.648 0-101.183-10.46a96.013 96.013 0 01-41.954-41.96C0 990.048 0 963.165 0 909.4V153.6z" fill="#111518"/><path d="M531.469 117L173 322.559v407.603L531.449 933 890 729.512V321.689L531.469 117zM715 631.478v134.526l-157 89.089V541.124l277-157.342v179.392l-120 68.304zm-487-73.126V380.509l275 155.833V854.28l-142-80.147V634.479l-133-76.127zm311.544-231.209l124.899-71.412 142.311 81.26-271.891 154.68-275.106-155.964 146.722-84.149 133.065 75.585z" fill="#fff"/></svg>