<svg version="1" xmlns="http://www.w3.org/2000/svg" width="682.667" height="682.667" viewBox="0 0 512.000000 512.000000"><path d="M250.5 63.3c-2.7 1-18 9.1-27.8 14.6-3.1 1.7-12.6 6.9-24.7 13.4-3 1.6-6.8 3.7-8.5 4.7-1.6.9-6.4 3.5-10.5 5.7s-9.1 4.9-11 6c-1.9 1.1-7.1 3.9-11.5 6.3-4.4 2.3-12.9 7-19 10.3-11.8 6.5-21.1 11.6-34.5 18.7-10 5.4-15.1 10.1-16.8 15.6-.9 3.1-1.2 26.3-1.2 96 0 88.6.1 92 2 95.9 1 2.2 2.5 4.7 3.2 5.7 1.6 1.9 19.2 12.8 20.8 12.8.5 0 1 .4 1 1 0 .5.5 1 1 1 .6 0 4 1.8 7.6 4 3.6 2.2 6.7 4 6.9 4 .2 0 3.3 1.9 7.1 4.1 3.7 2.3 8.8 5.3 11.3 6.7 2.5 1.4 5.8 3.2 7.3 4.1 14.1 8.2 49.9 29.1 53.2 30.9 2.2 1.3 6.2 3.7 8.9 5.3 2.6 1.6 5.2 2.9 5.7 2.9.6 0 1 .4 1 .8 0 .5 1.2 1.4 2.8 2.1 1.5.7 7.3 4 12.9 7.3 16 9.4 20.7 9.6 34.7 1.6 3.9-2.2 9.6-5.4 12.6-7.1 3-1.7 6.6-3.8 7.9-4.9 1.3-1 2.7-1.8 3.1-1.8.4 0 9.4-5 20.1-11.1 10.7-6.2 21-12.1 22.9-13.2 51-28.9 81-46.5 82.8-48.4 6-6.5 5.7.2 5.7-102.8-.1-93.8-.1-94-2.2-98-3.3-6.3-1.4-5-45.8-30.4-12.6-7.2-23.7-13.6-24.5-14.1-2.2-1.3-12.7-7.3-18.5-10.6-2.7-1.5-6.7-3.8-8.7-5.1-2.1-1.2-4.2-2.3-4.8-2.3-.5 0-1-.5-1-1 0-.6-.4-1-.9-1s-11.7-6.2-24.9-13.8c-13.2-7.7-25.8-14.6-28.1-15.5-4.7-1.9-13.2-2.1-17.6-.4zm66.5 52.2c28.9 16.4 58.5 33.3 65.8 37.4 7.2 4.2 14.7 8.8 16.6 10.3 7 5.6 6.6.6 6.6 91.3 0 73.5-.1 82-1.6 85.1-1.9 3.9-3.5 5.2-15.4 11.9-4.7 2.6-10.3 5.8-12.5 7-2.2 1.3-14.8 8.4-28 15.9S323.8 388.5 323 389c-.8.5-6.4 3.7-12.5 7.2-6 3.5-11.9 6.8-13 7.5-1.1.7-2.7 1.6-3.5 2-.8.4-8.5 4.7-17 9.7-20.8 12-21.4 12.1-36.9 3.2-6.3-3.6-11.7-6.6-11.9-6.6-.2 0-1.6-.8-3-1.9-1.5-1-4.7-2.9-7.2-4.3-5.7-3.2-22-12.6-32.8-18.9-4.5-2.7-8.5-4.9-8.7-4.9-.3 0-2.8-1.5-5.7-3.3-2.9-1.9-7.8-4.7-10.8-6.4-3-1.7-8-4.5-11-6.3-5.5-3.3-8.7-5.1-15.8-9.1-20.9-11.9-21.9-12.6-24.9-18.1-1.6-3.1-1.7-8.8-1.8-84.3-.1-48.1.3-82.3.8-84.2.6-1.7 1.9-4.2 3.1-5.6 1.7-2 17-11.2 41.9-25 5-2.8 17.7-10 24.2-13.7 2.2-1.3 6.9-4 10.5-6 3.6-2 8.1-4.6 10-5.7 4.4-2.5 11.6-6.5 17.8-9.9 2.6-1.5 7.2-4.1 10.2-5.9 21.7-12.7 23.8-13.5 32.5-13.2l7 .3 52.5 29.9z"/><path d="M199 136.1c-3 1.7-13.1 7.4-22.5 12.7-9.3 5.3-18.7 10.6-20.9 11.8-4.6 2.5-6.1 4.7-4.7 7.1.8 1.5 18.8 12.5 32.1 19.7 3.2 1.7 13.2 7.6 25.3 14.8 2.6 1.5 4.9 2.8 5.2 2.8.4 0 11.9 6.7 15.5 9 .8.6 2.2 1.3 3 1.7.8.4 6 3.3 11.5 6.5 9.6 5.6 14.7 7.1 17.1 4.9.5-.4 3.4-2.2 6.4-3.8 3-1.7 8.2-4.6 11.5-6.5 3.3-1.9 15-8.7 26-15 59.7-34.3 58.6-33.6 57.2-37.2-.3-.8-3.6-3.2-7.4-5.4-32.7-18.8-46.5-26.2-48.8-26.2-1.7 0-11.2 4.8-23.9 12.1-11.6 6.6-22.5 12.3-24.3 12.6-2.6.4-5-.5-13-5-5.4-3-15.4-8.7-22.3-12.6-6.9-3.9-13.6-7.1-15-7.1-1.4 0-5 1.4-8 3.1zM127.4 203.5c-1.8 1.2-1.9 3.4-1.8 34.8 0 26 .3 33.9 1.3 35.1.7.9 3.6 2.8 6.5 4.4 8.4 4.7 14.8 8.3 21.1 12 3.3 1.9 8.5 4.8 11.5 6.5 8.2 4.5 12.4 7.2 13.8 9 1 1.2 1.4 7.3 1.4 25.8 0 13.4.4 25.2.8 26.5.6 1.5 8.8 6.7 25.4 16.2 13.5 7.7 25.5 14.4 26.6 14.7 5.1 1.6 5 2.7 5-61.4 0-45.4-.3-60.1-1.3-61.9-.7-1.2-9.4-7-20.1-13.2-10.4-6.1-19.1-11-19.2-11-.1 0-4.8-2.7-10.4-6-5.6-3.3-10.3-6-10.5-6-.1 0-5.4-3-11.6-6.6-6.3-3.7-13-7.6-14.9-8.6-1.9-1.1-6.5-3.8-10.2-5.9-9.2-5.4-11.2-6.1-13.4-4.4zM368 210c-11.4 6.6-22 12.8-30.1 17.5-1 .5-3 1.7-4.6 2.6-4.3 2.3-37.7 21.5-48.1 27.6-5.7 3.4-9.7 6.4-10.6 8.1-1 2.2-1.3 14.2-1.2 62 .1 63.8 0 62.1 5.1 60.6 3.9-1.2 48-26.7 50.3-29.1 2.2-2.4 2.2-2.9 2.2-28.1 0-22.8.2-26 1.8-27.9.9-1.2 13-8.3 26.7-15.6 17.1-9.2 25.4-14.2 26.2-15.8 1.5-3 1.7-65.3.2-68.1-.5-1-1.7-1.8-2.7-1.7-.9.1-7.8 3.6-15.2 7.9z"/></svg>