<svg xmlns="http://www.w3.org/2000/svg" width="1063" height="1063" fill="none" viewBox="0 0 1063 1063"><path fill="#111518" d="M0 153.6C0 99.8349 0 72.9524 10.4634 52.4169C19.6672 34.3534 34.3534 19.6672 52.4169 10.4634C72.9524 0 99.835 0 153.6 0H909.4C963.165 0 990.048 0 1010.58 10.4634C1028.65 19.6672 1043.33 34.3534 1052.54 52.4169C1063 72.9524 1063 99.835 1063 153.6V909.4C1063 963.165 1063 990.048 1052.54 1010.58C1043.33 1028.65 1028.65 1043.33 1010.58 1052.54C990.048 1063 963.165 1063 909.4 1063H153.6C99.8349 1063 72.9524 1063 52.4169 1052.54C34.3534 1043.33 19.6672 1028.65 10.4634 1010.58C0 990.048 0 963.165 0 909.4V153.6Z"/><path fill="#fff" d="M531.469 117L173 322.559V730.162L531.449 933L890 729.512V321.689L531.469 117ZM715 631.478V766.004L558 855.093V541.124L835 383.782V563.174L715 631.478ZM228 558.352V380.509L503 536.342V854.28L361 774.133V634.479L228 558.352ZM539.544 327.143L664.443 255.731L806.754 336.991L534.863 491.671L259.757 335.707L406.479 251.558L539.544 327.143Z"/></svg>