<svg width="12" height="12" viewBox="0 0 12 12" fill="none" xmlns="http://www.w3.org/2000/svg">
<path fill-rule="evenodd" clip-rule="evenodd" d="M1.5 3.59639V8.28916C1.5 8.47372 1.62904 8.64759 1.78928 8.73919L5.7428 11.0213C5.82186 11.0664 5.91187 11.0856 5.99994 11.0856C6.08801 11.0856 6.1459 11.0665 6.22495 11.0214L10.2749 8.70711C10.4348 8.61547 10.5 8.47356 10.5 8.28923V3.59645C10.5 3.50399 10.4805 3.44868 10.4356 3.37145C10.3921 3.29665 10.2875 3.19186 10.2106 3.1464L6.32137 0.928573C6.24512 0.888169 6.09638 0.864288 5.99994 0.864288C5.90349 0.864288 5.76299 0.883799 5.6785 0.928572L1.75714 3.1464C1.59691 3.23796 1.5 3.41184 1.5 3.59639ZM2.07856 6.36065V4.52852C2.07856 4.39995 2.20713 4.36781 2.30356 4.43209L5.32497 6.1678C5.45351 6.23205 5.48566 6.3285 5.48566 6.42494V9.86414C5.48566 9.99273 5.38922 10.0249 5.26066 9.96059L3.91068 9.18917C3.78211 9.12487 3.74997 9.06058 3.74997 8.93203V7.64634C3.74997 7.54989 3.71783 7.4535 3.58926 7.3892L2.23928 6.61778C2.11071 6.55349 2.07856 6.48919 2.07856 6.36065ZM6.16063 3.01783L7.34993 2.34284C7.42821 2.29859 7.52864 2.29882 7.60707 2.34284L9.0856 3.17854C9.21419 3.24283 9.18204 3.3714 9.0856 3.43568L6.12848 5.13923C6.04938 5.18453 5.95049 5.18453 5.87135 5.13923L2.91427 3.43568C2.7857 3.3714 2.7857 3.24283 2.91427 3.17854L4.39281 2.34284C4.47123 2.29882 4.57167 2.29859 4.64995 2.34284L5.83924 3.01783C5.93564 3.08211 6.06423 3.08211 6.16063 3.01783ZM8.08922 9.18924C8.20174 9.12494 8.24991 9.06065 8.24991 8.9321V7.54996C8.24991 7.45497 8.32684 7.36966 8.41065 7.32497L9.79274 6.58571C9.87656 6.54102 9.92134 6.45567 9.92134 6.36072V4.52858C9.92134 4.42969 9.84635 4.35068 9.76064 4.40001L6.67493 6.16783C6.5952 6.21374 6.51424 6.33296 6.51424 6.42497V9.86421C6.51424 9.9928 6.64283 10.0249 6.73923 9.96066L8.08922 9.18924Z" fill="black"/>
</svg>
