<svg width="128" height="128" viewBox="0 0 128 128" fill="none" xmlns="http://www.w3.org/2000/svg">
<path d="M21.1399 48.0883V67.8082C21.1399 69.1918 21.4859 69.8839 22.8697 70.5759L37.4001 78.879C38.784 79.571 39.1299 80.6086 39.1299 81.6467V95.4851C39.1299 96.8687 39.4759 97.5607 40.8598 98.2528L55.3902 106.556C56.7738 107.248 57.8119 106.902 57.8119 105.518V68.5003C57.8119 67.4622 57.4659 66.4241 56.0823 65.7326L23.5616 47.0504C22.5238 46.3585 21.1399 46.7044 21.1399 48.0883Z" fill="#151515"/>
<path d="M77.8778 24.5629L65.0769 31.8281C64.0393 32.52 62.6553 32.52 61.6177 31.8281L48.8169 24.5629C47.9743 24.0866 46.8932 24.0891 46.0492 24.5629L30.1349 33.5579C28.7511 34.2498 28.7511 35.6337 30.1349 36.3256L61.9632 54.6616C62.8151 55.1492 63.8795 55.1492 64.7309 54.6616L96.5596 36.3256C97.5976 35.6337 97.9436 34.2498 96.5596 33.5579L80.6455 24.5629C79.8014 24.0891 78.7204 24.0866 77.8778 24.5629Z" fill="#151515"/>
<path d="M87.5648 95.4859C87.5648 96.8695 87.0463 97.5615 85.8352 98.2536L71.3047 106.557C70.2671 107.248 68.883 106.903 68.883 105.519V68.5006C68.883 67.5103 69.7544 66.2271 70.6127 65.7329L103.825 46.7051C104.748 46.1742 105.555 47.0245 105.555 48.089V67.809C105.555 68.831 105.073 69.7497 104.171 70.2307L89.2949 78.1877C88.3928 78.6687 87.5648 79.5869 87.5648 80.6094V95.4859Z" fill="#151515"/>
<path fill-rule="evenodd" clip-rule="evenodd" d="M60.0713 2.31538L11.6095 28.7102C9.38466 29.922 8 32.2529 8 34.7864V91.779C8 94.2413 9.30861 96.518 11.4362 97.7574L59.9002 125.99C62.0358 127.234 64.6729 127.244 66.8183 126.017L115.219 98.3316C117.373 97.0993 118.703 94.8076 118.703 92.3258V35.27C118.703 32.7937 117.379 30.5062 115.233 29.2719L68.519 2.41289C65.9116 0.91372 62.7126 0.876796 60.0713 2.31538ZM14.9126 88.5656V38.0554C14.9126 36.069 15.9556 34.1975 17.6803 33.2119L59.8876 9.34056C60.797 8.85865 62.3092 8.64864 63.3473 8.64864C64.3854 8.64864 65.9863 8.90568 66.807 9.34057L108.668 33.2119C109.496 33.7013 110.622 34.8292 111.09 35.6343C111.574 36.4655 111.783 37.0609 111.783 38.056V88.5664C111.783 90.5504 111.082 92.0778 109.361 93.0642L65.7693 117.973C64.9184 118.459 64.2952 118.665 63.3473 118.665C63.3473 118.665 63.3478 118.609 63.3477 118.619C63.3475 118.63 63.3474 118.64 63.3473 118.651C63.3473 118.655 63.3473 118.66 63.3473 118.665C62.3994 118.665 61.4305 118.459 60.5796 117.973L18.0263 93.4095C16.3016 92.4235 14.9126 90.5521 14.9126 88.5656Z" fill="#151515"/>
</svg>
 