<?xml version="1.0" standalone="no"?>
<!DOCTYPE svg PUBLIC "-//W3C//DTD SVG 20010904//EN"
 "http://www.w3.org/TR/2001/REC-SVG-20010904/DTD/svg10.dtd">
<svg version="1.0" xmlns="http://www.w3.org/2000/svg"
 width="512.000000pt" height="512.000000pt" viewBox="0 0 512.000000 512.000000"
 preserveAspectRatio="xMidYMid meet">
<metadata>
CodeSandbox Design
</metadata>
<g transform="translate(0.000000,512.000000) scale(0.100000,-0.100000)"
fill="#000000" stroke="none">
<path d="M2505 4487 c-27 -10 -180 -91 -278 -146 -31 -17 -126 -69 -247 -134
-30 -16 -68 -37 -85 -47 -16 -9 -64 -35 -105 -57 -41 -22 -91 -49 -110 -60
-19 -11 -71 -39 -115 -63 -44 -23 -129 -70 -190 -103 -118 -65 -211 -116 -345
-187 -100 -54 -151 -101 -168 -156 -9 -31 -12 -263 -12 -960 0 -886 1 -920 20
-959 10 -22 25 -47 32 -57 16 -19 192 -128 208 -128 5 0 10 -4 10 -10 0 -5 5
-10 10 -10 6 0 40 -18 76 -40 36 -22 67 -40 69 -40 2 0 33 -19 71 -41 37 -23
88 -53 113 -67 25 -14 58 -32 73 -41 141 -82 499 -291 532 -309 22 -13 62 -37
89 -53 26 -16 52 -29 57 -29 6 0 10 -4 10 -8 0 -5 12 -14 28 -21 15 -7 73 -40
129 -73 160 -94 207 -96 347 -16 39 22 96 54 126 71 30 17 66 38 79 49 13 10
27 18 31 18 4 0 94 50 201 111 107 62 210 121 229 132 510 289 810 465 828
484 60 65 57 -2 57 1028 -1 938 -1 940 -22 980 -33 63 -14 50 -458 304 -126
72 -237 136 -245 141 -22 13 -127 73 -185 106 -27 15 -67 38 -87 51 -21 12
-42 23 -48 23 -5 0 -10 5 -10 10 0 6 -4 10 -9 10 -5 0 -117 62 -249 138 -132
77 -258 146 -281 155 -47 19 -132 21 -176 4z m665 -522 c289 -164 585 -333
658 -374 72 -42 147 -88 166 -103 70 -56 66 -6 66 -913 0 -735 -1 -820 -16
-851 -19 -39 -35 -52 -154 -119 -47 -26 -103 -58 -125 -70 -22 -13 -148 -84
-280 -159 -132 -75 -247 -141 -255 -146 -8 -5 -64 -37 -125 -72 -60 -35 -119
-68 -130 -75 -11 -7 -27 -16 -35 -20 -8 -4 -85 -47 -170 -97 -208 -120 -214
-121 -369 -32 -63 36 -117 66 -119 66 -2 0 -16 8 -30 19 -15 10 -47 29 -72 43
-57 32 -220 126 -328 189 -45 27 -85 49 -87 49 -3 0 -28 15 -57 33 -29 19 -78
47 -108 64 -30 17 -80 45 -110 63 -55 33 -87 51 -158 91 -209 119 -219 126
-249 181 -16 31 -17 88 -18 843 -1 481 3 823 8 842 6 17 19 42 31 56 17 20
170 112 419 250 50 28 177 100 242 137 22 13 69 40 105 60 36 20 81 46 100 57
44 25 116 65 178 99 26 15 72 41 102 59 217 127 238 135 325 132 l70 -3 525
-299z"/>
<path d="M1990 3759 c-30 -17 -131 -74 -225 -127 -93 -53 -187 -106 -209 -118
-46 -25 -61 -47 -47 -71 8 -15 188 -125 321 -197 32 -17 132 -76 253 -148 26
-15 49 -28 52 -28 4 0 119 -67 155 -90 8 -6 22 -13 30 -17 8 -4 60 -33 115
-65 96 -56 147 -71 171 -49 5 4 34 22 64 38 30 17 82 46 115 65 33 19 150 87
260 150 597 343 586 336 572 372 -3 8 -36 32 -74 54 -327 188 -465 262 -488
262 -17 0 -112 -48 -239 -121 -116 -66 -225 -123 -243 -126 -26 -4 -50 5 -130
50 -54 30 -154 87 -223 126 -69 39 -136 71 -150 71 -14 0 -50 -14 -80 -31z"/>
<path d="M1274 3085 c-18 -12 -19 -34 -18 -348 0 -260 3 -339 13 -351 7 -9 36
-28 65 -44 84 -47 148 -83 211 -120 33 -19 85 -48 115 -65 82 -45 124 -72 138
-90 10 -12 14 -73 14 -258 0 -134 4 -252 8 -265 6 -15 88 -67 254 -162 135
-77 255 -144 266 -147 51 -16 50 -27 50 614 0 454 -3 601 -13 619 -7 12 -94
70 -201 132 -104 61 -191 110 -192 110 -1 0 -48 27 -104 60 -56 33 -103 60
-105 60 -1 0 -54 30 -116 66 -63 37 -130 76 -149 86 -19 11 -65 38 -102 59
-92 54 -112 61 -134 44z"/>
<path d="M3680 3020 c-114 -66 -220 -128 -301 -175 -10 -5 -30 -17 -46 -26
-43 -23 -377 -215 -481 -276 -57 -34 -97 -64 -106 -81 -10 -22 -13 -142 -12
-620 1 -638 0 -621 51 -606 39 12 480 267 503 291 22 24 22 29 22 281 0 228 2
260 18 279 9 12 130 83 267 156 171 92 254 142 262 158 15 30 17 653 2 681 -5
10 -17 18 -27 17 -9 -1 -78 -36 -152 -79z"/>
</g>
</svg>
