<svg xmlns="http://www.w3.org/2000/svg" width="16" height="16"><style type="text/css">.icon-canvas-transparent,.icon-vs-out{opacity:0;fill:#f6f6f6}.icon-vs-bg{fill:#656565}.icon-vs-fg{fill:#f0eff1}</style><path id="canvas" d="M16 16h-16v-16h16v16z" class="icon-canvas-transparent"/><path id="outline" d="M4 15c-.97 0-2-.701-2-2v-10c0-1.299 1.03-2 2-2h6.061l3.939 3.556v8.444c0 .97-.701 2-2 2h-8z" class="icon-vs-out"/><path id="iconBg" d="M9.641,2H3.964C3.964,2,3,2,3,3c0,0.805,0,7.442,0,10c0,1,0.965,1,0.965,1s7,0,8,0S13,13,13,13V5L9.641,2zM12,13H4V3h5v3h3V13z" class="icon-vs-bg"/><path id="iconFg" d="M4 3h5v3h3v7h-8v-10z" class="icon-vs-fg"/></svg>