<svg xmlns="http://www.w3.org/2000/svg" xmlns:xlink="http://www.w3.org/1999/xlink" width="530" height="394" version="1.1" viewBox="0 0 530 394"><defs><rect id="path-1" width="530" height="394" x="0" y="0" rx="3.492"/><rect id="path-3" width="798" height="416" x="0" y="0" rx="5.332"/><linearGradient id="linearGradient-5" x1="45.116%" x2="49.975%" y1="59.58%" y2="-16.046%"><stop offset="0%" stop-color="#9734F2"/><stop offset="52.083%" stop-color="#BE36E8"/></linearGradient></defs><g id="Page-1" fill="none" fill-rule="evenodd" stroke="none" stroke-width="1"><g id="browser"><mask id="mask-2" fill="#fff"><use xlink:href="#path-1"/></mask><g id="Group" mask="url(#mask-2)"><g transform="translate(-268.000000, 0.000000)"><rect id="Rectangle" width="549" height="410" x="249" y="0" fill="#151515" fill-rule="nonzero"/><g id="Clipped" fill="none" fill-rule="evenodd" stroke-width="1"><mask id="mask-4" fill="#fff"><use xlink:href="#path-3"/></mask><g id="Group" fill-rule="nonzero" mask="url(#mask-4)"><g transform="translate(134.000000, -1.000000)"><rect id="Rectangle" width="668.951" height="297.946" x=".228" y=".578" fill="#151515" rx="3.806"/><path id="Path" fill="#202124" d="M0,4.8062 C0,2.7041 1.704,1 3.806,1 L666,1 L666,44 L0,44 L0,4.8062 Z"/><rect id="Rectangle" width="669.157" height="331.375" x=".228" y="86.625" fill="#151515"/><rect id="Rectangle" width="294.65" height="404.625" x="369.812" y="83.926" fill="#BF5AF2"/><rect id="Rectangle" width="294.65" height="404.625" x="369.812" y="83.926" fill="url(#linearGradient-5)"/><rect id="Rectangle" width="53.091" height="380.356" x="317.195" y="108.348" fill="#151515"/><rect id="Rectangle" width="665.037" height="24.9" x=".463" y="83.926" fill="#151515"/><rect id="Rectangle" width="38.036" height="6.339" x="105.543" y="132.117" fill="#BF5AF2" rx="3.17"/><rect id="Rectangle" width="57.846" height="6.339" x="151.503" y="132.117" fill="#757575" rx="3.17"/><rect id="Rectangle" width="14.263" height="6.339" x="129.315" y="145.59" fill="#BF5AF2" rx="3.17"/><rect id="Rectangle" width="112.522" height="6.339" x="151.503" y="145.59" fill="#757575" rx="3.17"/><rect id="Rectangle" width="16.641" height="6.339" x="121.391" y="158.266" fill="#BF5AF2" rx="3.17"/><rect id="Rectangle" width="23.772" height="6.339" x="140.41" y="159.059" fill="#999" rx="3.17"/><rect id="Rectangle" width="88.75" height="6.339" x="169.729" y="159.059" fill="#757575" rx="3.17"/><rect id="Rectangle" width="112.522" height="6.339" x="95.242" y="170.945" fill="#757575" rx="3.17"/><rect id="Rectangle" width="45.96" height="6.339" x="105.543" y="183.625" fill="#757575" rx="3.17"/><rect id="Rectangle" width="45.96" height="6.339" x="153.881" y="183.625" fill="#757575" rx="3.17"/><rect id="Rectangle" width="45.96" height="6.339" x="202.216" y="183.625" fill="#757575" rx="3.17"/><rect id="Rectangle" width="45.96" height="6.339" x="103.168" y="196.301" fill="#BF5AF2" rx="3.17"/><rect id="Rectangle" width="24.565" height="6.339" x="151.503" y="196.301" fill="#757575" rx="3.17"/><rect id="Rectangle" width="22.188" height="6.339" x="121.391" y="208.98" fill="#BF5AF2" rx="3.17"/><rect id="Rectangle" width="112.522" height="6.339" x="151.503" y="208.98" fill="#999" rx="3.17"/><rect id="Rectangle" width="87.957" height="6.339" x="55.621" y="221.66" fill="#757575" rx="3.17"/><rect id="Rectangle" width="41.998" height="6.339" x="151.503" y="221.66" fill="#757575" rx="3.17"/><rect id="Rectangle" width="41.998" height="6.339" x="199.839" y="221.66" fill="#757575" rx="3.17"/><rect id="Rectangle" width="45.991" height="6.339" x="128.607" y="251.773" fill="#757575" rx="3.17"/><rect id="Rectangle" width="89.462" height="6.339" x="128.607" y="265.246" fill="#757575" rx="3.17"/><rect id="Rectangle" width="18.9" height="6.339" x="119.782" y="278.715" fill="#757575" rx="3.17"/><rect id="Rectangle" width="70.561" height="6.339" x="143.091" y="278.715" fill="#757575" rx="3.17"/><rect id="Rectangle" width="57.053" height="6.339" x="116.638" y="290.602" fill="#757575" rx="3.17"/><rect id="Rectangle" width="36.541" height="6.339" x="130.497" y="303.281" fill="#757575" rx="3.17"/><rect id="Rectangle" width="36.541" height="6.339" x="168.926" y="303.281" fill="#757575" rx="3.17"/><rect id="Rectangle" width="19.53" height="6.339" x="128.607" y="315.957" fill="#999" rx="3.17"/><rect id="Rectangle" width="89.462" height="6.339" x="128.607" y="328.637" fill="#757575" rx="3.17"/><rect id="Rectangle" width="33.391" height="6.339" x="128.607" y="341.316" fill="#999" rx="3.17"/><rect id="Rectangle" width="33.391" height="6.339" x="167.035" y="341.316" fill="#757575" rx="3.17"/><rect id="Rectangle" width="7.493" height="1" x="325.198" y="118.164" fill="#999" rx=".351"/><rect id="Rectangle" width="4.927" height="1" x="333.717" y="118.164" fill="#BF5AF2" rx=".351"/><rect id="Rectangle" width="7.493" height="1" x="339.671" y="118.164" fill="#757575" rx=".351"/><rect id="Rectangle" width="3.387" height="1" x="325.198" y="119.656" fill="#0971F1" rx=".351"/><rect id="Rectangle" width="3.387" height="1" x="328.998" y="119.656" fill="#0971F1" rx=".351"/><rect id="Rectangle" width="3.387" height="1" x="332.794" y="119.656" fill="#0971F1" rx=".351"/><rect id="Rectangle" width="1.848" height="1" x="336.797" y="119.656" fill="#BF5AF2" rx=".351"/><rect id="Rectangle" width="14.576" height="1" x="339.671" y="119.656" fill="#757575" rx=".351"/><rect id="Rectangle" width="3.593" height="1" x="325.198" y="121.059" fill="#999" rx=".351"/><rect id="Rectangle" width="3.593" height="1" x="328.998" y="121.059" fill="#0971F1" rx=".351"/><rect id="Rectangle" width="1.129" height="1" x="332.794" y="121.059" fill="#0971F1" rx=".351"/><rect id="Rectangle" width="1.129" height="1" x="334.232" y="121.059" fill="#0971F1" rx=".351"/><rect id="Rectangle" width="2.156" height="1" x="335.772" y="121.059" fill="#BF5AF2" rx=".351"/><rect id="Rectangle" width="3.079" height="1" x="338.235" y="121.148" fill="#999" rx=".351"/><rect id="Rectangle" width="11.497" height="1" x="342.033" y="121.148" fill="#757575" rx=".351"/><rect id="Rectangle" width="3.387" height="1" x="325.198" y="122.461" fill="#999" rx=".351"/><rect id="Rectangle" width="2.874" height="1" x="329.099" y="122.461" fill="#BF5AF2" rx=".351"/><rect id="Rectangle" width="14.576" height="1" x="332.385" y="122.461" fill="#757575" rx=".351"/><rect id="Rectangle" width="3.387" height="1" x="325.198" y="123.867" fill="#0971F1" rx=".351"/><rect id="Rectangle" width="4.619" height="1" x="328.792" y="123.867" fill="#BF5AF2" rx=".351"/><rect id="Rectangle" width="5.954" height="1" x="333.717" y="123.867" fill="#757575" rx=".351"/><rect id="Rectangle" width="5.954" height="1" x="339.981" y="123.867" fill="#757575" rx=".351"/><rect id="Rectangle" width="5.954" height="1" x="346.242" y="123.867" fill="#757575" rx=".351"/><rect id="Rectangle" width="4.517" height="1" x="325.198" y="125.27" fill="#999" rx=".351"/><rect id="Rectangle" width="2.874" height="1" x="330.023" y="125.27" fill="#BF5AF2" rx=".351"/><rect id="Rectangle" width="5.954" height="1" x="333.412" y="125.27" fill="#BF5AF2" rx=".351"/><rect id="Rectangle" width="3.182" height="1" x="339.671" y="125.27" fill="#757575" rx=".351"/><rect id="Rectangle" width="9.649" height="1" x="325.198" y="126.676" fill="#0971F1" rx=".351"/><rect id="Rectangle" width="2.874" height="1" x="335.772" y="126.676" fill="#BF5AF2" rx=".351"/><rect id="Rectangle" width="14.576" height="1" x="339.671" y="126.676" fill="#999" rx=".351"/><rect id="Rectangle" width="1.54" height="1" x="325.198" y="128.078" fill="#0971F1" rx=".351"/><rect id="Rectangle" width="11.394" height="1" x="327.254" y="128.078" fill="#757575" rx=".351"/><rect id="Rectangle" width="5.44" height="1" x="339.671" y="128.078" fill="#757575" rx=".351"/><rect id="Rectangle" width="5.44" height="1" x="345.935" y="128.078" fill="#757575" rx=".351"/><rect id="Rectangle" width="5.958" height="1" x="325.198" y="131.41" fill="#0971F1" rx=".351"/><rect id="Rectangle" width="3.917" height="1" x="331.972" y="131.41" fill="#BF5AF2" rx=".351"/><rect id="Rectangle" width="5.958" height="1" x="336.706" y="131.41" fill="#757575" rx=".351"/><rect id="Rectangle" width="2.693" height="1" x="325.198" y="132.902" fill="#0971F1" rx=".351"/><rect id="Rectangle" width="2.693" height="1" x="328.221" y="132.902" fill="#0971F1" rx=".351"/><rect id="Rectangle" width="2.693" height="1" x="331.237" y="132.902" fill="#0971F1" rx=".351"/><rect id="Rectangle" width="1.469" height="1" x="334.423" y="132.902" fill="#BF5AF2" rx=".351"/><rect id="Rectangle" width="11.589" height="1" x="336.706" y="132.902" fill="#757575" rx=".351"/><rect id="Rectangle" width="2.856" height="1" x="325.198" y="134.305" fill="#999" rx=".351"/><rect id="Rectangle" width="2.856" height="1" x="328.221" y="134.305" fill="#0971F1" rx=".351"/><rect id="Rectangle" width="3.49" height="1" x="331.872" y="134.305" fill="#BF5AF2" rx=".351"/><rect id="Rectangle" width="2.448" height="1" x="335.562" y="134.395" fill="#757575" rx=".351"/><rect id="Rectangle" width="9.141" height="1" x="338.582" y="134.395" fill="#757575" rx=".351"/><rect id="Rectangle" width="2.693" height="1" x="325.198" y="135.707" fill="#999" rx=".351"/><rect id="Rectangle" width="5.646" height="1" x="328.279" y="135.707" fill="#0971F1" rx=".351"/><rect id="Rectangle" width="7.391" height="1" x="335.157" y="135.707" fill="#757575" rx=".351"/><rect id="Rectangle" width="2.693" height="1" x="325.198" y="137.113" fill="#0971F1" rx=".351"/><rect id="Rectangle" width="3.673" height="1" x="328.057" y="137.113" fill="#BF5AF2" rx=".351"/><rect id="Rectangle" width="4.733" height="1" x="331.972" y="137.113" fill="#757575" rx=".351"/><rect id="Rectangle" width="4.733" height="1" x="336.951" y="137.113" fill="#757575" rx=".351"/><rect id="Rectangle" width="4.733" height="1" x="341.929" y="137.113" fill="#757575" rx=".351"/><rect id="Rectangle" width="3.591" height="1" x="325.198" y="138.516" fill="#999" rx=".351"/><rect id="Rectangle" width="2.285" height="1" x="329.035" y="138.516" fill="#BF5AF2" rx=".351"/><rect id="Rectangle" width="4.733" height="1" x="331.727" y="138.516" fill="#BF5AF2" rx=".351"/><rect id="Rectangle" width="2.53" height="1" x="336.706" y="138.516" fill="#999" rx=".351"/><rect id="Rectangle" width="7.672" height="1" x="325.198" y="139.922" fill="#0971F1" rx=".351"/><rect id="Rectangle" width="2.285" height="1" x="333.603" y="139.922" fill="#BF5AF2" rx=".351"/><rect id="Rectangle" width="11.589" height="1" x="336.706" y="139.922" fill="#757575" rx=".351"/><rect id="Rectangle" width="1.224" height="1" x="325.198" y="141.324" fill="#0971F1" rx=".351"/><rect id="Rectangle" width="9.059" height="1" x="326.831" y="141.324" fill="#999" rx=".351"/><rect id="Rectangle" width="4.325" height="1" x="336.706" y="141.324" fill="#999" rx=".351"/><rect id="Rectangle" width="4.325" height="1" x="341.683" y="141.324" fill="#757575" rx=".351"/><rect id="Rectangle" width="7.493" height="1" x="325.198" y="150.324" fill="#999" rx=".351"/><rect id="Rectangle" width="4.927" height="1" x="333.717" y="150.324" fill="#BF5AF2" rx=".351"/><rect id="Rectangle" width="7.493" height="1" x="339.671" y="150.324" fill="#757575" rx=".351"/><rect id="Rectangle" width="3.387" height="1" x="325.198" y="151.816" fill="#0971F1" rx=".351"/><rect id="Rectangle" width="3.387" height="1" x="328.998" y="151.816" fill="#0971F1" rx=".351"/><rect id="Rectangle" width="3.387" height="1" x="332.794" y="151.816" fill="#0971F1" rx=".351"/><rect id="Rectangle" width="1.848" height="1" x="336.797" y="151.816" fill="#BF5AF2" rx=".351"/><rect id="Rectangle" width="14.576" height="1" x="339.671" y="151.816" fill="#757575" rx=".351"/><rect id="Rectangle" width="3.593" height="1" x="325.198" y="153.219" fill="#999" rx=".351"/><rect id="Rectangle" width="3.593" height="1" x="328.998" y="153.219" fill="#0971F1" rx=".351"/><rect id="Rectangle" width="1.129" height="1" x="332.794" y="153.219" fill="#0971F1" rx=".351"/><rect id="Rectangle" width="1.129" height="1" x="334.232" y="153.219" fill="#0971F1" rx=".351"/><rect id="Rectangle" width="2.156" height="1" x="335.772" y="153.219" fill="#BF5AF2" rx=".351"/><rect id="Rectangle" width="3.079" height="1" x="338.235" y="153.309" fill="#999" rx=".351"/><rect id="Rectangle" width="11.497" height="1" x="342.033" y="153.309" fill="#757575" rx=".351"/><rect id="Rectangle" width="3.387" height="1" x="325.198" y="154.621" fill="#999" rx=".351"/><rect id="Rectangle" width="2.874" height="1" x="329.099" y="154.621" fill="#BF5AF2" rx=".351"/><rect id="Rectangle" width="14.576" height="1" x="332.385" y="154.621" fill="#757575" rx=".351"/><rect id="Rectangle" width="3.387" height="1" x="325.198" y="156.027" fill="#0971F1" rx=".351"/><rect id="Rectangle" width="4.619" height="1" x="328.792" y="156.027" fill="#BF5AF2" rx=".351"/><rect id="Rectangle" width="5.954" height="1" x="333.717" y="156.027" fill="#757575" rx=".351"/><rect id="Rectangle" width="5.954" height="1" x="339.981" y="156.027" fill="#757575" rx=".351"/><rect id="Rectangle" width="5.954" height="1" x="346.242" y="156.027" fill="#757575" rx=".351"/><rect id="Rectangle" width="4.517" height="1" x="325.198" y="157.43" fill="#999" rx=".351"/><rect id="Rectangle" width="2.874" height="1" x="330.023" y="157.43" fill="#BF5AF2" rx=".351"/><rect id="Rectangle" width="5.954" height="1" x="333.412" y="157.43" fill="#BF5AF2" rx=".351"/><rect id="Rectangle" width="3.182" height="1" x="339.671" y="157.43" fill="#757575" rx=".351"/><rect id="Rectangle" width="9.649" height="1" x="325.198" y="158.836" fill="#0971F1" rx=".351"/><rect id="Rectangle" width="2.874" height="1" x="335.772" y="158.836" fill="#BF5AF2" rx=".351"/><rect id="Rectangle" width="14.576" height="1" x="339.671" y="158.836" fill="#999" rx=".351"/><rect id="Rectangle" width="1.54" height="1" x="325.198" y="160.238" fill="#0971F1" rx=".351"/><rect id="Rectangle" width="11.394" height="1" x="327.254" y="160.238" fill="#757575" rx=".351"/><rect id="Rectangle" width="5.44" height="1" x="339.671" y="160.238" fill="#757575" rx=".351"/><rect id="Rectangle" width="5.44" height="1" x="345.935" y="160.238" fill="#757575" rx=".351"/><rect id="Rectangle" width="5.958" height="1" x="325.198" y="163.574" fill="#0971F1" rx=".351"/><rect id="Rectangle" width="3.917" height="1" x="331.972" y="163.574" fill="#BF5AF2" rx=".351"/><rect id="Rectangle" width="5.958" height="1" x="336.706" y="163.574" fill="#757575" rx=".351"/><rect id="Rectangle" width="2.693" height="1" x="325.198" y="165.066" fill="#0971F1" rx=".351"/><rect id="Rectangle" width="2.693" height="1" x="328.221" y="165.066" fill="#0971F1" rx=".351"/><rect id="Rectangle" width="2.693" height="1" x="331.237" y="165.066" fill="#0971F1" rx=".351"/><rect id="Rectangle" width="1.469" height="1" x="334.423" y="165.066" fill="#BF5AF2" rx=".351"/><rect id="Rectangle" width="11.589" height="1" x="336.706" y="165.066" fill="#757575" rx=".351"/><rect id="Rectangle" width="2.856" height="1" x="325.198" y="166.469" fill="#999" rx=".351"/><rect id="Rectangle" width="2.856" height="1" x="328.221" y="166.469" fill="#0971F1" rx=".351"/><rect id="Rectangle" width="3.49" height="1" x="331.872" y="166.469" fill="#BF5AF2" rx=".351"/><rect id="Rectangle" width="2.448" height="1" x="335.562" y="166.559" fill="#757575" rx=".351"/><rect id="Rectangle" width="9.141" height="1" x="338.582" y="166.559" fill="#757575" rx=".351"/><rect id="Rectangle" width="2.693" height="1" x="325.198" y="167.871" fill="#999" rx=".351"/><rect id="Rectangle" width="5.646" height="1" x="328.279" y="167.871" fill="#0971F1" rx=".351"/><rect id="Rectangle" width="7.391" height="1" x="335.157" y="167.871" fill="#757575" rx=".351"/><rect id="Rectangle" width="2.693" height="1" x="325.198" y="169.277" fill="#0971F1" rx=".351"/><rect id="Rectangle" width="3.673" height="1" x="328.057" y="169.277" fill="#BF5AF2" rx=".351"/><rect id="Rectangle" width="4.733" height="1" x="331.972" y="169.277" fill="#757575" rx=".351"/><rect id="Rectangle" width="4.733" height="1" x="336.951" y="169.277" fill="#757575" rx=".351"/><rect id="Rectangle" width="4.733" height="1" x="341.929" y="169.277" fill="#757575" rx=".351"/><rect id="Rectangle" width="3.591" height="1" x="325.198" y="170.68" fill="#999" rx=".351"/><rect id="Rectangle" width="2.285" height="1" x="329.035" y="170.68" fill="#BF5AF2" rx=".351"/><rect id="Rectangle" width="4.733" height="1" x="331.727" y="170.68" fill="#BF5AF2" rx=".351"/><rect id="Rectangle" width="2.53" height="1" x="336.706" y="170.68" fill="#999" rx=".351"/><rect id="Rectangle" width="7.672" height="1" x="325.198" y="172.086" fill="#0971F1" rx=".351"/><rect id="Rectangle" width="2.285" height="1" x="333.603" y="172.086" fill="#BF5AF2" rx=".351"/><rect id="Rectangle" width="11.589" height="1" x="336.706" y="172.086" fill="#757575" rx=".351"/><rect id="Rectangle" width="1.224" height="1" x="325.198" y="173.488" fill="#0971F1" rx=".351"/><rect id="Rectangle" width="9.059" height="1" x="326.831" y="173.488" fill="#999" rx=".351"/><rect id="Rectangle" width="4.325" height="1" x="336.706" y="173.488" fill="#999" rx=".351"/><rect id="Rectangle" width="4.325" height="1" x="341.683" y="173.488" fill="#757575" rx=".351"/><rect id="Rectangle" width="664" height="39" x="0" y="44" fill="#333639"/><circle id="Oval" cx="646" cy="62" r="10" fill="#292C2F"/><path id="Path" fill="#333639" d="M69.6667,17.8048 C69.6667,13.6006 73.0748,10.1953 77.279,10.1953 L269.045,10.1953 C273.25,10.1953 276.67,13.6005 276.698,17.8046 C276.738,23.8594 276.794,31.591 276.794,35.555 C276.794,41.724 282.826,44.465 282.826,44.465 L63.498,44.465 C63.498,44.465 69.6667,41.724 69.6667,34.87 C69.6667,30.966 69.6667,23.5047 69.6667,17.8048 Z"/><polygon id="Path" fill="#777" points="261.578 24.654 260.831 23.906 257.466 27.271 254.101 23.906 253.354 24.654 256.718 28.019 253.354 31.383 254.101 32.131 257.466 28.766 260.831 32.131 261.578 31.383 258.214 28.019"/><path id="Shape" fill="#FFF" d="M139.19861,27.574 C139.19861,25.5389 140.07096,24.3971 141.62417,24.3971 C142.92915,24.3971 143.8015,25.2623 143.82987,26.5035 L145.2554,26.5035 L145.2554,26.4325 C145.2554,24.4964 143.72349,23.1204 141.61708,23.1204 C139.16315,23.1204 137.73051,24.7942 137.73051,27.574 L137.73051,28.794 C137.73051,31.546 139.16315,33.199 141.61708,33.199 C143.71639,33.199 145.2554,31.872 145.2554,30.035 L145.2554,29.957 L143.82987,29.957 C143.8015,31.121 142.92915,31.922 141.62417,31.922 C140.07096,31.922 139.19861,30.801 139.19861,28.794 L139.19861,27.574 Z M149.9434,25.3971 C147.8086,25.3971 146.6526,26.9148 146.6526,28.936 L146.6526,29.56 C146.6526,31.638 147.8086,33.128 149.9434,33.128 C152.0711,33.128 153.213,31.638 153.213,29.56 L153.213,28.929 C153.213,26.9077 152.064,25.3971 149.9434,25.3971 Z M149.9363,26.5744 C151.1491,26.5744 151.7732,27.532 151.7732,28.964 L151.7732,29.539 C151.7732,30.957 151.1562,31.936 149.9363,31.936 C148.7235,31.936 148.0923,30.95 148.0923,29.539 L148.0923,28.964 C148.0923,27.539 148.7235,26.5744 149.9363,26.5744 Z M157.6315,25.4113 C155.7804,25.4113 154.6882,26.8581 154.6882,28.929 L154.6882,29.589 C154.6882,31.702 155.7236,33.106 157.6315,33.106 C158.6386,33.106 159.4258,32.631 159.823,31.865 L159.8655,31.865 L159.8655,33 L161.2556,33 L161.2556,22.8084 L159.823,22.8084 L159.823,26.5815 L159.7733,26.5815 C159.4116,25.9006 158.6315,25.4113 157.6315,25.4113 Z M157.9435,26.6169 C159.1137,26.6169 159.8372,27.539 159.8372,28.979 L159.8372,29.553 C159.8372,31.064 159.1208,31.901 157.9577,31.901 C156.901,31.901 156.1421,31.121 156.1421,29.546 L156.1421,28.979 C156.1421,27.397 156.901,26.6169 157.9435,26.6169 Z M166.2699,33.128 C168.0429,33.128 169.0217,32.113 169.2699,30.894 L167.8869,30.894 C167.6741,31.56 167.1209,31.972 166.2982,31.972 C165.1706,31.972 164.4755,31.078 164.4755,29.752 L164.4755,29.596 L169.3621,29.596 L169.3621,28.886 C169.3621,26.8013 168.1919,25.3971 166.2131,25.3971 C164.2415,25.3971 163.05,26.7659 163.05,28.816 L163.05,29.603 C163.05,31.78 164.2911,33.128 166.2699,33.128 Z M164.4755,28.546 L164.4755,28.525 C164.4755,27.418 165.1564,26.5389 166.2202,26.5389 C167.2628,26.5389 167.9507,27.411 167.9507,28.525 L167.9507,28.546 L164.4755,28.546 Z M170.504,30.34 C170.5394,31.631 171.4401,33.199 174.0785,33.199 C176.1991,33.199 177.7665,32.156 177.7665,30.255 C177.7665,28.645 176.6884,27.957 175.2203,27.589 L173.6033,27.177 C172.6884,26.9574 172.2487,26.4822 172.2487,25.8297 C172.2487,24.8722 173.0501,24.3261 174.199,24.3261 C175.4898,24.3261 176.1565,25.0283 176.2345,25.8935 L177.6459,25.8935 C177.6104,24.0566 176.0076,23.0992 174.2203,23.0992 C172.3976,23.0992 170.7806,24.0992 170.7806,25.9361 C170.7806,27.482 171.9011,28.22 173.1068,28.518 L174.738,28.929 C175.7948,29.191 176.2913,29.61 176.2913,30.376 C176.2913,31.347 175.4969,31.965 174.2061,31.965 C172.7877,31.965 172.0288,31.22 171.9437,30.34 L170.504,30.34 Z M183.575,32.078 L183.6247,32.078 L183.6247,33 L184.9935,33 L184.9935,27.879 C184.9935,26.2481 183.7807,25.4042 182.1495,25.4042 C180.2275,25.4042 179.3622,26.4255 179.2913,27.709 L180.6388,27.709 C180.7027,27.014 181.2133,26.5531 182.1069,26.5531 C183.0431,26.5531 183.5679,27.05 183.5679,27.957 L183.5679,28.688 L181.6459,28.688 C179.9296,28.695 179.0147,29.532 179.0147,30.851 C179.0147,32.234 180.0076,33.121 181.4544,33.121 C182.5608,33.121 183.2275,32.66 183.575,32.078 Z M181.8729,31.993 C181.1424,31.993 180.4615,31.603 180.4615,30.78 C180.4615,30.135 180.8871,29.681 181.8445,29.681 L183.5679,29.681 L183.5679,30.525 C183.5679,31.39 182.8374,31.993 181.8729,31.993 Z M187.0006,33 L188.4262,33 L188.4262,28.503 C188.4262,27.503 188.9723,26.6666 190.1496,26.6666 C191.1425,26.6666 191.8588,27.248 191.8588,28.468 L191.8588,33 L193.2844,33 L193.2844,28.199 C193.2844,26.3758 192.1709,25.4042 190.6389,25.4042 C189.412,25.4042 188.724,26.0567 188.4616,26.546 L188.412,26.546 L188.412,25.5247 L187.0006,25.5247 L187.0006,33 Z M197.9014,25.4113 C196.0504,25.4113 194.9581,26.8581 194.9581,28.929 L194.9581,29.589 C194.9581,31.702 195.9936,33.106 197.9014,33.106 C198.9086,33.106 199.6958,32.631 200.093,31.865 L200.1355,31.865 L200.1355,33 L201.5256,33 L201.5256,22.8084 L200.093,22.8084 L200.093,26.5815 L200.0433,26.5815 C199.6816,25.9006 198.9015,25.4113 197.9014,25.4113 Z M198.2135,26.6169 C199.3837,26.6169 200.1071,27.539 200.1071,28.979 L200.1071,29.553 C200.1071,31.064 199.3908,31.901 198.2277,31.901 C197.1709,31.901 196.4121,31.121 196.4121,29.546 L196.4121,28.979 C196.4121,27.397 197.1709,26.6169 198.2135,26.6169 Z M207.2987,33.113 C209.0718,33.113 210.2349,31.794 210.2349,29.61 L210.2349,28.901 C210.2349,26.6453 209.0363,25.4113 207.3058,25.4113 C206.3484,25.4113 205.4973,25.9006 205.1285,26.5673 L205.0788,26.5673 L205.0788,22.8084 L203.6462,22.8084 L203.6462,33 L205.0363,33 L205.0363,31.865 L205.0859,31.865 C205.5044,32.631 206.2349,33.113 207.2987,33.113 Z M207.0079,31.908 C205.7952,31.908 205.0647,31.078 205.0647,29.532 L205.0647,28.979 C205.0647,27.44 205.8023,26.6169 207.0079,26.6169 C208.0505,26.6169 208.781,27.447 208.781,28.979 L208.781,29.546 C208.781,31.071 208.0576,31.908 207.0079,31.908 Z M214.9939,25.3971 C212.8591,25.3971 211.703,26.9148 211.703,28.936 L211.703,29.56 C211.703,31.638 212.8591,33.128 214.9939,33.128 C217.1215,33.128 218.2634,31.638 218.2634,29.56 L218.2634,28.929 C218.2634,26.9077 217.1144,25.3971 214.9939,25.3971 Z M214.9868,26.5744 C216.1995,26.5744 216.8237,27.532 216.8237,28.964 L216.8237,29.539 C216.8237,30.957 216.2066,31.936 214.9868,31.936 C213.774,31.936 213.1428,30.95 213.1428,29.539 L213.1428,28.964 C213.1428,27.539 213.774,26.5744 214.9868,26.5744 Z M224.2777,33 L225.9372,33 L223.4124,29.255 L225.9089,25.5247 L224.2918,25.5247 L222.5755,28.262 L222.5613,28.262 L220.845,25.5247 L219.1499,25.5247 L221.618,29.255 L219.1145,33 L220.7031,33 L222.4691,30.269 L222.4904,30.269 L224.2777,33 Z"/><rect id="Rectangle" width="511" height="21" x="117" y="52" fill="#292C2F" rx="10.5"/></g></g></g></g></g></g></g></svg>