<svg fill="none" height="113" width="243" xmlns="http://www.w3.org/2000/svg"><g fill="#fff"><circle cx="126.179" cy="48.056" r="28.033"/><g clip-rule="evenodd" fill-rule="evenodd"><path d="M180.531 21.737c.045-.388.069-.782.069-1.182 0-5.53-4.483-10.012-10.012-10.012a10.01 10.01 0 0 0-8.842 5.312c-10.802-2.464-22.854-3.84-35.565-3.84-46.447 0-84.1 18.377-84.1 41.048s37.653 41.048 84.1 41.048c46.447 0 84.099-18.378 84.099-41.048 0-12.557-11.551-23.797-29.749-31.326zm-19.423-4.41a9.993 9.993 0 0 0-.532 3.228c0 5.53 4.483 10.012 10.012 10.012 4.573 0 8.429-3.066 9.627-7.254a88.744 88.744 0 0 1 4.741 2.141c15.066 7.354 23.747 17.212 23.747 27.609s-8.681 20.255-23.747 27.609c-14.96 7.302-35.738 11.863-58.775 11.863s-43.815-4.561-58.776-11.863c-15.065-7.354-23.747-17.213-23.747-27.61s8.682-20.254 23.747-27.608c14.96-7.302 35.739-11.863 58.776-11.863 12.496 0 24.328 1.342 34.927 3.736z" fill-opacity=".6"/><path d="M241.497 56.066c0 14.99-13.161 28.81-35.024 38.93-21.798 10.087-51.965 16.348-85.33 16.348-33.365 0-63.533-6.261-85.33-16.349C13.95 84.877.788 71.057.788 56.066c0-14.99 13.162-28.81 35.025-38.93C57.61 7.05 87.778.789 121.143.789c25.512 0 49.155 3.66 68.616 9.894a6.007 6.007 0 0 0 10.983 3.97c1.968.8 3.88 1.628 5.731 2.485 21.863 10.118 35.024 23.938 35.024 38.93zm-40.361-42.105c25.23 10.274 41.15 25.33 41.15 42.105 0 30.964-54.238 56.066-121.143 56.066S0 87.03 0 56.066C0 25.102 54.238 0 121.143 0c25.533 0 49.221 3.656 68.754 9.898a6.007 6.007 0 1 1 11.239 4.062z" fill-opacity=".2"/></g></g></svg>