<svg xmlns="http://www.w3.org/2000/svg" width="138" height="138" viewBox="0 0 138 138">
  <g fill="none">
    <path fill="#FF3E00" d="M110.23,28.39 C99.83,13.51 79.29,9.1 64.44,18.56 L38.36,35.18 C31.2427063,39.6501827 26.3354438,46.9094468 24.84,55.18 C23.5928635,62.0836655 24.6837475,69.2060828 27.94,75.42 C25.7082951,78.8055204 24.1875486,82.6090879 23.47,86.6 C21.9652122,95.0458501 23.9300607,103.741657 28.92,110.72 C39.32,125.6 59.86,130.01 74.71,120.55 L100.79,104 C107.898513,99.5207433 112.802864,92.2657875 114.31,84 C115.55256,77.0984596 114.458168,69.979634 111.2,63.77 C113.430556,60.3828297 114.954329,56.5802011 115.68,52.59 C117.180169,44.1442566 115.215723,35.450233 110.23,28.47"/>
    <path fill="#FFF" d="M61.89,112.16 C53.4803097,114.342258 44.6020057,111.048822 39.65,103.91 C36.6510846,99.7145708 35.4720627,94.4864918 36.38,89.41 C36.5275139,88.5925991 36.7347356,87.7871083 37,87 L37.49,85.5 L38.83,86.5 C41.9100748,88.748641 45.3486813,90.4594915 49,91.56 L50,91.85 L49.91,92.85 C49.8137839,94.2211211 50.1993012,95.5828106 51,96.7 C52.4941898,98.8474345 55.1677342,99.837045 57.7,99.18 C58.2653542,99.0280386 58.8046962,98.7920765 59.3,98.48 L85.34,81.86 C86.6332361,81.0462482 87.5229193,79.7244333 87.79,78.22 C88.0592944,76.6880909 87.6987112,75.1123426 86.79,73.85 C85.2958102,71.7025655 82.6222658,70.712955 80.09,71.37 C79.5239802,71.5200594 78.9843587,71.7561438 78.49,72.07 L68.49,78.42 C66.8544786,79.4570439 65.0707515,80.2393212 63.2,80.74 C54.8048243,82.9089923 45.9469258,79.6211957 41,72.5 C38.0101878,68.3006676 36.8386338,63.0737345 37.75,58 C38.642913,53.0153564 41.5942156,48.6374094 45.88,45.94 L72,29.32 C73.625878,28.2850354 75.3994016,27.5027968 77.26,27 C85.6668699,24.8162213 94.5432186,28.1104128 99.49,35.25 C102.492412,39.4439474 103.675069,44.6721534 102.77,49.75 C102.613989,50.5720875 102.406921,51.3836589 102.15,52.18 L101.65,53.68 L100.32,52.68 C97.2335991,50.4142268 93.7844592,48.6896568 90.12,47.58 L89.12,47.29 L89.21,46.29 C89.3254924,44.9121132 88.9500277,43.5377705 88.15,42.41 C86.6469526,40.300154 83.9951444,39.3405657 81.49,40 C80.9239802,40.1500594 80.3843587,40.3861438 79.89,40.7 L53.8,57.29 C52.5117142,58.1042223 51.6232043,59.4206676 51.35,60.92 C51.0859415,62.4549349 51.4459466,64.0317573 52.35,65.3 C53.8367772,67.4271629 56.4834272,68.4141843 59,67.78 C59.564619,67.6259498 60.1036611,67.3901188 60.6,67.08 L70.6,60.74 C72.2342992,59.6916023 74.0226012,58.9054242 75.9,58.41 C84.3048801,56.2210821 93.1824323,59.5117268 98.13,66.65 C101.130301,70.844895 102.312755,76.072207 101.41,81.15 C100.517087,86.1346436 97.5657844,90.5125906 93.28,93.21 L67.19,109.83 C65.5514053,110.870366 63.7643848,111.655981 61.89,112.16"/>
  </g>
</svg>
