<svg xmlns="http://www.w3.org/2000/svg" width="33" height="32" xmlns:xlink="http://www.w3.org/1999/xlink"><defs><rect id="a" width="3.45" height="3.474" x="1.15" y="18.526" rx="1.725"/><mask id="c" width="8.05" height="8.074" x="-2.3" y="-2.3"><path fill="#fff" d="M-1.15 16.226H6.9V24.3h-8.05z"/><use xlink:href="#a"/></mask><rect id="b" width="3.45" height="3.474" x="19.55" y="1.158" rx="1.725"/><mask id="d" width="8.05" height="8.074" x="-2.3" y="-2.3"><path fill="#fff" d="M17.25-1.142h8.05v8.074h-8.05z"/><use xlink:href="#b"/></mask></defs><g fill="none" fill-rule="evenodd" transform="translate(5 5)"><use fill="#D8D8D8" fill-opacity="0" xlink:href="#a"/><use stroke="#F4BF75" stroke-width="4.6" mask="url(#c)" xlink:href="#a"/><use fill="#D8D8D8" fill-opacity="0" xlink:href="#b"/><use stroke="#F4BF75" stroke-width="4.6" mask="url(#d)" xlink:href="#b"/><path fill="#F4BF75" fill-rule="nonzero" d="M4.955 1.764H19.55V3.53h-2.801c-5.29.678-8.901 3.334-11.175 7.392-.934 1.667-1.572 3.459-1.965 5.252a18.637 18.637 0 0 0-.298 1.728c-.037.306-.055.52-.06.625l-1.55-.08c.007-.143.028-.396.07-.743.07-.569.175-1.2.324-1.88.425-1.94 1.115-3.88 2.134-5.696 1.626-2.902 3.889-5.163 6.853-6.598H4.955C4.605 4.557 3.66 5.293 2.55 5.293 1.142 5.293 0 4.108 0 2.647 0 1.185 1.142 0 2.55 0c1.11 0 2.055.736 2.405 1.764z"/></g></svg>