<svg xmlns="http://www.w3.org/2000/svg" width="32" height="32"><g fill="none"><path fill="#6A9FB5" d="M30.134 24.172c-1.49.354-2.244.68-4.087 1.884-2.886 1.865-6.033 2.732-6.033 2.732s-.26.391-1.015.569c-1.303.317-6.21.587-6.657.596-1.201.01-1.936-.307-2.141-.802-.624-1.492.893-2.144.893-2.144s-.335-.205-.53-.392c-.177-.177-.363-.531-.42-.4-.232.568-.353 1.957-.977 2.582-.856.867-2.476.578-3.435.075-1.052-.56.074-1.875.074-1.875s-.568.336-1.024-.354c-.41-.634-.791-1.716-.689-3.05.13-1.538 1.825-3.011 1.825-3.011s-.298-2.247.68-4.55c.884-2.099 3.268-3.786 3.268-3.786s-2.002-2.21-1.257-4.215c.484-1.306.68-1.296.838-1.352.558-.215 1.098-.448 1.499-.886 2.001-2.163 4.552-1.753 4.552-1.753s1.192-3.665 2.31-2.947c.344.224 1.582 2.984 1.582 2.984s1.322-.774 1.471-.485c.8 1.558.894 4.532.54 6.341-.596 2.984-2.085 4.588-2.681 5.595-.14.233 1.601.97 2.7 4.019 1.014 2.788.111 5.129.27 5.39.028.046.037.065.037.065s1.164.093 3.5-1.352c1.248-.774 2.729-1.641 4.414-1.66 1.629-.028 1.713 1.893.493 2.182z"/><path fill="#F4BF75" d="M30.5 21.333h-.75V19.81c0-2.103-1.68-3.81-3.75-3.81-2.07 0-3.75 1.707-3.75 3.81v1.523h-.75c-.825 0-1.5.686-1.5 1.524v7.62c0 .837.675 1.523 1.5 1.523h9c.825 0 1.5-.686 1.5-1.524v-7.619c0-.838-.675-1.524-1.5-1.524zM26 28.19c-.825 0-1.5-.685-1.5-1.523 0-.838.675-1.524 1.5-1.524s1.5.686 1.5 1.524-.675 1.523-1.5 1.523zm2.325-6.857h-4.65V19.81c0-1.303 1.043-2.362 2.325-2.362 1.282 0 2.325 1.059 2.325 2.362v1.523z"/></g></svg>