<svg xmlns="http://www.w3.org/2000/svg" xmlns:xlink="http://www.w3.org/1999/xlink" width="116" height="124" version="1.1" viewBox="0 0 116 124"><desc>Created with Sketch.</desc><defs><filter id="filter-1" width="155.8%" height="149%" x="-28.5%" y="-23.4%" filterUnits="objectBoundingBox"><feOffset dx="0" dy="0" in="SourceAlpha" result="shadowOffsetOuter1"/><feGaussianBlur in="shadowOffsetOuter1" result="shadowBlurOuter1" stdDeviation="7.5"/><feColorMatrix in="shadowBlurOuter1" result="shadowMatrixOuter1" type="matrix" values="0 0 0 0 0 0 0 0 0 0 0 0 0 0 0 0 0 0 0.3 0"/><feMerge><feMergeNode in="shadowMatrixOuter1"/><feMergeNode in="SourceGraphic"/></feMerge></filter><linearGradient id="linearGradient-2" x1="78.409%" x2="20.367%" y1="12.253%" y2="84.619%"><stop offset="0%" stop-color="#23A0EE"/><stop offset="100%" stop-color="#62ABD9"/></linearGradient><path id="path-3" d="M30,34.2421445 C30,32.0328684 31.5590649,31.1285945 33.469028,32.2148616 L60.7461742,47.7283903 C62.6620655,48.818029 62.6561373,50.588054 60.7461742,51.6743211 L33.469028,67.1878498 C31.5531367,68.2774885 30,67.3617295 30,65.160567 L30,34.2421445 Z"/><filter id="filter-4" width="121.1%" height="118.7%" x="-10.5%" y="-6.7%" filterUnits="objectBoundingBox"><feOffset dx="0" dy="1" in="SourceAlpha" result="shadowOffsetOuter1"/><feGaussianBlur in="shadowOffsetOuter1" result="shadowBlurOuter1" stdDeviation="1"/><feColorMatrix in="shadowBlurOuter1" type="matrix" values="0 0 0 0 0 0 0 0 0 0 0 0 0 0 0 0 0 0 0.232365263 0"/></filter></defs><g id="Welcome" fill="none" fill-rule="evenodd" stroke="none" stroke-width="1"><g id="Desktop-HD-Copy-2" transform="translate(-973.000000, -705.000000)"><g id="Main" transform="translate(0.000000, 252.000000)"><g id="Details" transform="translate(196.000000, 467.000000)"><g id="Layer_2" filter="url(#filter-1)" transform="translate(792.000000, 0.000000)"><polygon id="Shape" fill="url(#linearGradient-2)" points="0 72.078 42.847 95.92 85.712 71.999 85.712 24.059 42.856 0 0 24.165"/><g id="Rectangle-2"><use fill="#000" fill-opacity="1" filter="url(#filter-4)" xlink:href="#path-3"/><use fill="#FFF" fill-rule="evenodd" xlink:href="#path-3"/></g></g></g></g></g></g></svg>