<svg width="1em" height="1em" viewBox="0 0 40 40" xmlns="http://www.w3.org/2000/svg"><path fill-rule="evenodd" clip-rule="evenodd" d="M33.125 33.125C35 31.25 35 27.5 35 20s0-11.25-1.875-13.125S27.5 5 20 5 8.75 5 6.875 6.875 5 12.5 5 20s0 11.25 1.875 13.125S12.5 35 20 35s11.25 0 13.125-1.875zm-4.179-12.211a.51.51 0 00.188.453l2.31 1.833a.62.62 0 01.145.779l-2.399 4.21a.581.581 0 01-.732.267l-2.722-1.11a.513.513 0 00-.493.063 9.179 9.179 0 01-1.537.908.52.52 0 00-.301.397l-.416 2.942a.587.587 0 01-.588.51h-4.797a.587.587 0 01-.588-.51l-.416-2.942a.518.518 0 00-.3-.396 8.714 8.714 0 01-1.536-.904.516.516 0 00-.499-.066l-2.718 1.108a.599.599 0 01-.732-.268l-2.399-4.21a.62.62 0 01.144-.778l2.311-1.833a.51.51 0 00.188-.453 8.853 8.853 0 01-.052-.914c0-.306.021-.613.052-.913a.51.51 0 00-.188-.454L8.561 16.8a.606.606 0 01-.145-.779l2.4-4.21a.581.581 0 01.73-.267l2.723 1.11c.164.066.35.04.494-.063a9.172 9.172 0 011.536-.908.52.52 0 00.301-.397l.416-2.942a.587.587 0 01.588-.51H22.4c.3 0 .552.218.588.51l.416 2.942c.025.175.14.323.301.396a8.709 8.709 0 011.535.904.516.516 0 00.499.066l2.718-1.108a.599.599 0 01.732.268l2.399 4.21a.62.62 0 01-.144.778l-2.311 1.833a.51.51 0 00-.188.453c.031.298.052.599.052.914 0 .315-.02.616-.052.914zM15.805 20c0 2.348 1.883 4.258 4.198 4.258 2.314 0 4.198-1.91 4.198-4.258s-1.884-4.258-4.198-4.258c-2.315 0-4.198 1.91-4.198 4.258z" fill="currentColor"/></svg>