<svg width="24" height="24" viewBox="0 0 24 24" fill="none" xmlns="http://www.w3.org/2000/svg">
<path d="M12 11.01C11.451 11.01 11.01 11.451 11.01 12C11.01 12.549 11.451 12.99 12 12.99C12.549 12.99 12.99 12.549 12.99 12C12.99 11.451 12.549 11.01 12 11.01ZM12 3C7.032 3 3 7.032 3 12C3 16.968 7.032 21 12 21C16.968 21 21 16.968 21 12C21 7.032 16.968 3 12 3ZM14.0865 13.7228C14.0119 13.8831 13.8831 14.0119 13.7228 14.0865L8.46306 16.5333C7.82881 16.8284 7.17164 16.1712 7.4667 15.5369L9.91353 10.2772C9.98811 10.1169 10.1169 9.98811 10.2772 9.91353L15.5369 7.4667C16.1712 7.17164 16.8284 7.82881 16.5333 8.46307L14.0865 13.7228Z" fill="#F2F2F2"/>
</svg>
