<svg width="1em" height="1em" viewBox="0 0 40 40" xmlns="http://www.w3.org/2000/svg"><path fill-rule="evenodd" clip-rule="evenodd" d="M20 5C5 5 5 5 5 20.38c0 14.592 0 14.592 10.258 14.594.75.14 1.024-.334 1.024-.741 0-.365-.012-1.333-.02-2.616-4.172.93-5.053-2.062-5.053-2.062-.681-1.776-1.665-2.25-1.665-2.25-1.363-.954.102-.935.102-.935 1.505.108 2.297 1.585 2.297 1.585 1.338 2.35 3.511 1.672 4.366 1.278.137-.994.524-1.672.953-2.056-3.331-.389-6.833-1.709-6.833-7.602 0-1.679.585-3.052 1.544-4.127-.154-.39-.668-1.953.147-4.07 0 0 1.26-.414 4.126 1.576A14.028 14.028 0 0120 12.436c1.273.006 2.556.177 3.755.518 2.863-1.99 4.12-1.577 4.12-1.577.819 2.118.304 3.681.15 4.07.961 1.076 1.542 2.448 1.542 4.128 0 5.908-3.507 7.209-6.85 7.59.54.474 1.02 1.413 1.02 2.848 0 2.056-.02 3.715-.02 4.22 0 .41.27.889 1.032.739C35 34.972 35 34.974 35 20.38 35 5 35 5 20 5z" fill="currentColor"/></svg>