<svg width="1em" height="1em" viewBox="0 0 24 24" fill="none" xmlns="http://www.w3.org/2000/svg"><path fill-rule="evenodd" clip-rule="evenodd" d="M4.002 8.938C4.002 6.758 5.75 4 8.888 4c1.615 0 2.824.871 3.555 1.594.02.018.038.037.057.056l.057-.056C13.288 4.87 14.497 4 16.112 4c1.556 0 2.796.718 3.622 1.672.806.932 1.264 2.138 1.264 3.266l.001.158v.01c.003.355.006.846-.091 1.41-.117.68-.37 1.43-.874 2.297-.984 1.697-2.935 3.86-6.732 6.905a1.284 1.284 0 01-1.604 0c-3.795-3.043-5.746-5.194-6.731-6.885-.504-.865-.758-1.614-.875-2.297-.097-.565-.094-1.06-.091-1.424v-.01-.164zm4.886-3.675c-2.26 0-3.611 2.005-3.611 3.675l-.001.17v.002c-.003.365-.004.764.073 1.214.09.526.289 1.134.722 1.878.867 1.488 2.673 3.522 6.429 6.535 3.756-3.013 5.562-5.059 6.429-6.553.433-.747.632-1.357.722-1.88.077-.449.076-.843.073-1.2v-.166c0-.809-.338-1.727-.958-2.444-.62-.717-1.523-1.23-2.654-1.23-1.132 0-2.035.611-2.655 1.224-.176.174-.33.348-.46.509a.64.64 0 01-.995 0 6.145 6.145 0 00-.46-.509c-.62-.613-1.522-1.225-2.654-1.225z" fill="currentColor"/></svg>