<svg width="1em" height="1em" viewBox="0 0 40 40" xmlns="http://www.w3.org/2000/svg"><path fill-rule="evenodd" clip-rule="evenodd" d="M33.125 33.125C35 31.25 35 27.5 35 20s0-11.25-1.875-13.125S27.5 5 20 5 8.75 5 6.875 6.875 5 12.5 5 20s0 11.25 1.875 13.125S12.5 35 20 35s11.25 0 13.125-1.875zM17.933 16.021c2.947-5.1 8.372-8.447 9.968-7.54 1.594.908 1.328 7.258-1.618 12.359-.31.537-.636 1.05-.97 1.54l.004-.006c-.703 1.097-1.52 3.792-1.342 5.187.282 1.544-1.09 3.81-1.67 4.568l-.035.046c-.225.3-.509.678-1.355-.033l-.041-.035c-.53-.445-.827-.694-.553-1.094 1.269-2.2.284-3.715.284-3.715l-.884.903c-.086.15-.303.178-.475.08l-4.29-2.48c-.172-.098-.256-.301-.17-.451l.415-1.2s-1.801-.128-3.102 2.054c-.213.43-.574.293-1.21.052l-.07-.027c-1.045-.395-.85-.84-.698-1.187l.018-.041c.378-.875 1.658-3.194 3.143-3.703 1.305-.525 3.087-2.632 3.775-3.755.13-.36.344-.687.56-1.018.108-.165.217-.331.316-.503zm4.22 2.314a1.736 1.736 0 101.756-2.994 1.736 1.736 0 00-1.756 2.994zM13.46 33.274c-.912-.535.26-4.924 1-6.351.06-.116.226-.305.501-.143.295.173.336.624.378 1.092.045.507.092 1.034.466 1.253.387.227.835.003 1.271-.216.414-.207.818-.41 1.148-.216.455.267.287.494.2.611l-.007.01-.01.013c-.905 1.277-4.036 4.481-4.947 3.947z" fill="currentColor"/></svg>