<svg width="1em" height="1em" viewBox="0 0 40 40" xmlns="http://www.w3.org/2000/svg"><path d="M18.793 18.12a.75.75 0 00.746-.002L31.363 11.3a.75.75 0 00-.005-1.302L19.864 3.494a1.249 1.249 0 00-1.226 0L6.983 10.09a.75.75 0 00-.002 1.304l11.812 6.727zM17.5 21.171a.75.75 0 00-.367-.645l-11-6.521A.75.75 0 005 14.65v13.025c0 .432.005.912.388 1.128l10.986 6.376a.75.75 0 001.126-.648V21.17zM21.195 20.676a.75.75 0 00-.362.641v13.197a.75.75 0 001.134.644l10.908-6.492c.36-.213.458-.606.458-1.031V14.663a.75.75 0 00-1.138-.641l-11 6.654z" fill="currentColor"/></svg>