<svg width="1em" height="1em" viewBox="0 0 24 24" fill="none" xmlns="http://www.w3.org/2000/svg"><path fill-rule="evenodd" clip-rule="evenodd" d="M19.9 18.087a2.11 2.11 0 001.1-1.836V8.748c0-.764-.43-1.466-1.1-1.835C19 6.417 17.75 5.709 16.5 5c-1.366-.774-2.733-1.549-3.64-2.045a1.778 1.778 0 00-1.72 0C10.233 3.45 8.866 4.225 7.5 5c-1.25.709-2.501 1.417-3.4 1.913A2.11 2.11 0 003 8.749v7.502c0 .765.43 1.467 1.1 1.836C5 18.583 6.25 19.291 7.5 20c1.367.774 2.733 1.549 3.64 2.045.54.296 1.18.296 1.72 0 .907-.496 2.273-1.27 3.64-2.045 1.25-.709 2.5-1.417 3.4-1.913zm-7.54-6.786a.75.75 0 01-.721.002L6.712 8.617A.75.75 0 016.714 7.3l5.029-2.724c.185-.1.413-.1.597 0l4.954 2.684a.75.75 0 01.005 1.316L12.36 11.3zM11 13.22a.75.75 0 00-.372-.648l-5-2.914a.75.75 0 00-1.128.648v6.025c0 .221.003.467.202.577l5.176 2.953A.75.75 0 0011 19.209v-5.99zm2 .072c0-.264.14-.51.367-.644l5-2.973a.75.75 0 011.133.644v5.992c0 .217-.051.418-.238.526l-5.133 3.004A.75.75 0 0113 19.192v-5.9z" fill="currentColor"/></svg>