<svg fill="none" height="41" width="155" xmlns="http://www.w3.org/2000/svg"><g fill="#fff"><path clip-rule="evenodd" d="m34.499 1.746h-27.5a4.909 4.909 0 0 0 -4.915 4.904v27.522a4.918 4.918 0 0 0 4.915 4.916h27.5a4.918 4.918 0 0 0 4.915-4.916v-27.51a4.918 4.918 0 0 0 -4.914-4.916zm-23.864 19.992c0-5.833 4.723-10.556 10.545-10.556a10.533 10.533 0 0 1 10.544 10.544c0 5.833-4.723 10.556-10.544 10.556-5.822 0-10.545-4.712-10.545-10.544zm3.115 0c0 4.1 3.33 7.43 7.43 7.43 4.11 0 7.43-3.33 7.43-7.43s-3.33-7.43-7.43-7.43-7.43 3.33-7.43 7.43zm7.43-.374v-5.539c0-.124.113-.215.226-.215a6.117 6.117 0 0 1 5.097 3.092c.056.113.023.25-.09.306l-4.916 2.548c-.148.08-.317-.034-.317-.192zm-7.532-10.25.645.645c.091.102.08.26-.034.329a11.65 11.65 0 0 0 -1.46 1.246c-.454.453-.861.94-1.235 1.45-.09.101-.238.124-.34.022l-.634-.634a1.613 1.613 0 0 1 0-2.288l.77-.77a1.613 1.613 0 0 1 2.288 0zm10.986-2.31v1.279a.22.22 0 0 1 -.272.215 11.965 11.965 0 0 0 -3.171-.43c-1.121 0-2.231.158-3.285.464-.147.034-.283-.068-.283-.215v-1.314c0-.895.725-1.62 1.62-1.62h3.771c.895 0 1.62.725 1.62 1.62z" fill-rule="evenodd"/><path d="m95.421 30.312c0 3.024-.77 5.233-2.322 6.637-1.551 1.404-3.918 2.107-7.112 2.107-1.167 0-3.59-.227-5.527-.657l.713-3.511c1.62.34 3.76.43 4.882.43 1.778 0 3.046-.362 3.805-1.087s1.133-1.801 1.133-3.228v-.725c-.442.215-1.02.43-1.733.657-.714.215-1.54.328-2.47.328-1.222 0-2.332-.192-3.34-.577a6.984 6.984 0 0 1 -2.594-1.7c-.713-.747-1.28-1.687-1.676-2.808-.397-1.121-.6-3.126-.6-4.598 0-1.382.215-3.115.634-4.27.43-1.155 1.042-2.152 1.869-2.979.815-.827 1.812-1.461 2.978-1.925a10.911 10.911 0 0 1 4.021-.76c1.438 0 2.764.182 4.055.397 1.29.215 2.39.442 3.284.691zm-12.311-8.744c0 1.858.408 3.92 1.223 4.78.816.86 1.869 1.291 3.16 1.291.702 0 1.37-.102 1.993-.294.623-.193 1.122-.42 1.518-.691v-10.998c-.317-.068-1.642-.34-2.922-.374-1.608-.045-2.831.612-3.692 1.665-.85 1.054-1.28 2.9-1.28 4.621zm33.332 0c0 1.495-.215 2.628-.657 3.862-.441 1.235-1.064 2.288-1.868 3.16a8.234 8.234 0 0 1 -2.9 2.028c-1.132.476-2.877.747-3.749.747-.872-.011-2.605-.26-3.726-.747a8.438 8.438 0 0 1 -2.888-2.028c-.804-.872-1.427-1.925-1.88-3.16-.453-1.234-.68-2.367-.68-3.862s.204-2.933.657-4.156 1.087-2.265 1.903-3.138a8.508 8.508 0 0 1 2.899-2.016c1.122-.475 2.356-.702 3.693-.702 1.336 0 2.571.238 3.703.702 1.133.476 2.107 1.144 2.9 2.016.804.873 1.427 1.915 1.88 3.138.475 1.223.713 2.661.713 4.156zm-4.53.012c0-1.914-.419-3.511-1.235-4.621-.815-1.122-1.959-1.677-3.42-1.677s-2.605.555-3.421 1.677c-.815 1.12-1.211 2.707-1.211 4.62 0 1.937.407 3.24 1.223 4.361.815 1.133 1.959 1.688 3.42 1.688s2.605-.567 3.421-1.688c.815-1.133 1.223-2.424 1.223-4.36zm14.395 9.785c-7.26.034-7.26-5.867-7.26-6.807l-.011-20.93 4.428-.702v20.794c0 .533 0 3.908 2.843 3.919zm7.804 0h-4.451v-19.118l4.451-.702zm-2.231-21.915c1.483 0 2.695-1.201 2.695-2.685 0-1.483-1.2-2.684-2.695-2.684a2.686 2.686 0 0 0 -2.696 2.684 2.693 2.693 0 0 0 2.696 2.685zm13.296 2.106c1.461 0 2.696.181 3.692.544.997.362 1.801.872 2.39 1.518.589.645 1.008 1.528 1.257 2.457.261.929.386 1.948.386 3.07v11.393c-.68.148-1.711.318-3.092.521-1.382.204-2.934.306-4.655.306-1.144 0-2.198-.113-3.138-.328-.951-.215-1.755-.566-2.435-1.053a5.1 5.1 0 0 1 -1.574-1.88c-.374-.77-.566-1.858-.566-2.99 0-1.088.215-1.779.634-2.526a5.367 5.367 0 0 1 1.733-1.835c.736-.476 1.574-.816 2.537-1.02a14.52 14.52 0 0 1 3.012-.305c.487 0 .997.034 1.541.09.543.057 1.11.159 1.721.306v-.724c0-.51-.056-.996-.181-1.45a3.107 3.107 0 0 0 -.634-1.211 2.973 2.973 0 0 0 -1.201-.816 5.225 5.225 0 0 0 -1.891-.34c-1.019 0-1.948.125-2.798.272-.849.147-1.551.317-2.084.51l-.532-3.636c.555-.192 1.382-.385 2.446-.577a19.285 19.285 0 0 1 3.432-.295zm.374 16.072c1.359 0 2.367-.08 3.069-.215v-4.508a10.56 10.56 0 0 0 -2.605-.329 9.44 9.44 0 0 0 -1.483.114 4.451 4.451 0 0 0 -1.348.396 2.414 2.414 0 0 0 -.963.816c-.249.35-.362.554-.362 1.087 0 1.042.362 1.642 1.019 2.038.668.408 1.552.6 2.673.6zm-87.46-15.959c1.462 0 2.696.182 3.693.544.997.363 1.801.872 2.39 1.518.6.657 1.008 1.529 1.257 2.458.26.928.385 1.948.385 3.069v11.394c-.68.147-1.71.317-3.092.52-1.382.205-2.933.306-4.655.306-1.144 0-2.197-.113-3.137-.328-.951-.215-1.756-.566-2.435-1.053a5.1 5.1 0 0 1 -1.575-1.88c-.373-.77-.566-1.858-.566-2.99 0-1.088.215-1.779.635-2.526a5.373 5.373 0 0 1 1.732-1.835c.736-.476 1.575-.815 2.537-1.02.963-.203 1.971-.305 3.013-.305.487 0 .997.034 1.54.09.533.057 1.11.16 1.722.306v-.725c0-.51-.057-.996-.181-1.45a3.107 3.107 0 0 0 -.635-1.211 2.975 2.975 0 0 0 -1.2-.816 5.232 5.232 0 0 0 -1.892-.34c-1.019 0-1.948.125-2.797.273-.85.147-1.552.317-2.084.51l-.532-3.637c.555-.192 1.381-.385 2.446-.577 1.065-.204 2.209-.295 3.432-.295zm.386 16.083c1.36 0 2.367-.079 3.07-.215v-4.507a10.55 10.55 0 0 0 -2.605-.328c-.488 0-.986.034-1.484.113a4.457 4.457 0 0 0 -1.348.397 2.416 2.416 0 0 0 -.963.815c-.25.351-.362.555-.362 1.087 0 1.042.362 1.643 1.019 2.039s1.552.6 2.673.6zm17.952 3.613c-7.26.034-7.26-5.867-7.26-6.807l-.012-20.93 4.429-.702v20.794c0 .533 0 3.908 2.843 3.919z"/></g></svg>