<svg fill="none" height="29" width="204" xmlns="http://www.w3.org/2000/svg"><path d="m112.082 11.444c0 3.384 1.404 6.1 6.894 7.288 3.276.77 3.961 1.366 3.961 2.593s-.685 1.963-3.012 1.963c-2.789-.057-5.523-.888-7.956-2.42v5.541c1.653.91 3.837 1.929 7.907 1.929 5.742 0 8.02-2.872 8.02-7.149zm15.814 9.745c0-4.03-1.902-5.921-7.271-7.22-2.963-.736-3.682-1.472-3.682-2.538 0-1.332 1.061-1.89 3.012-1.89 2.372 0 4.71.807 6.928 1.928v-5.283a14.204 14.204 0 0 0 -6.778-1.577c-5.305 0-8.05 2.592-8.05 6.835m73.779-6.487v23.027h4.368v-17.558l1.841 4.661 6.179 12.897h5.489v-23.027h-4.367v14.863l-1.653-4.314-4.963-10.549zm-27.779 0h-4.774v23.027h4.774zm-10.283 16.233c0-4.032-1.901-5.922-7.271-7.22-2.963-.737-3.682-1.473-3.682-2.539 0-1.332 1.062-1.89 3.012-1.89 2.372 0 4.71.807 6.928 1.928v-5.283a14.203 14.203 0 0 0 -6.777-1.577c-5.305 0-8.05 2.592-8.05 6.835 0 3.384 1.404 6.1 6.894 7.288 3.276.77 3.961 1.366 3.961 2.593s-.685 1.963-3.012 1.963c-2.789-.057-5.522-.888-7.956-2.42v5.541c1.653.91 3.837 1.929 7.907 1.929 5.742 0 8.02-2.872 8.02-7.149m-72.743-16.232v23.027h9.812l1.543-4.974h-6.551v-18.053zm-19.387 0v4.978h5.305v18.049h4.804v-18.049h5.678v-4.978zm-6.966 0h-6.295l-7.155 23.027h5.478l1.002-3.879c2.5.827 5.158.827 7.658 0l1.013 3.879h5.46zm-3.148 14.999a8.375 8.375 0 0 1 -2.635-.423l2.635-10.054 2.636 10.054a8.374 8.374 0 0 1 -2.636.423zm56.226-14.999h-6.295l-7.154 23.027h5.46l1.02-3.879a12.13 12.13 0 0 0 7.643 0l1.013 3.879h5.459zm-3.148 14.999a8.375 8.375 0 0 1 -2.635-.423l2.635-10.054 2.636 10.054a8.376 8.376 0 0 1 -2.636.423zm76.674-14.999h-6.295l-7.154 23.027h5.459l1.021-3.879c2.495.824 5.148.824 7.643 0l1.013 3.879h5.459zm-3.148 14.999a8.371 8.371 0 0 1 -2.635-.423l2.635-10.054 2.636 10.054a8.377 8.377 0 0 1 -2.636.423zm-164.422-6.898a.623.623 0 0 0 -.237-.191.554.554 0 0 0 -.29-.047.484.484 0 0 0 -.226.116.569.569 0 0 0 -.15.223l-6.207 13.939a.675.675 0 0 0 .023.594.577.577 0 0 0 .198.213c.081.05.172.077.265.077h8.643a.48.48 0 0 0 .287-.088.571.571 0 0 0 .197-.25c1.816-4.21.692-10.751-2.503-14.586zm17.702 14.046c-.118-.261-11.631-26.141-11.913-26.784a.54.54 0 0 0 -.168-.223.456.456 0 0 0 -.247-.096h-.02a.55.55 0 0 0 -.284.1.642.642 0 0 0 -.205.244c-3.121 5.554-3.475 12.26-.946 17.939l4.167 9.36a.59.59 0 0 0 .2.252.499.499 0 0 0 .287.094h8.643a.497.497 0 0 0 .265-.077.577.577 0 0 0 .198-.213.666.666 0 0 0 .024-.595z" fill="#fff"/></svg>