<svg fill="none" height="51" width="147" xmlns="http://www.w3.org/2000/svg"><path clip-rule="evenodd" d="m46.712 19.47 2.548 8.794c.191.656.192 1.363.003 2.02-.19.657-.56 1.23-1.058 1.635l-22.412 18.288a1.067 1.067 0 0 1 -.676.254 1.064 1.064 0 0 1 -.68-.246l-22.407-18.295a3.27 3.27 0 0 1 -1.057-1.635 3.645 3.645 0 0 1 .003-2.02l2.593-8.952a.107.107 0 0 1 .007-.017c.005-.009.009-.018.009-.027l5.114-17.698c.134-.457.394-.855.741-1.137a1.89 1.89 0 0 1 1.193-.434h.012c.425-.001.84.15 1.184.433.343.282.597.68.724 1.137l4.88 16.844h15.376l4.871-16.844c.128-.458.383-.857.728-1.14a1.854 1.854 0 0 1 1.19-.43c.428-.002.846.147 1.194.426.349.28.61.675.747 1.13l5.11 17.675c.028.077.05.157.063.239zm-24.7 23.123-6.247-21.593h-8.747l14.994 21.594zm12.208-20.698-5.99 20.703 1.438-2.076 13.565-19.523h-8.753zm9.788-3.481-4.39-15.185-4.396 15.185zm-16.295 17.62 4.352-15.045h-13.885l6.938 24.003 2.596-8.958zm-12.69-17.62-4.4-15.185-4.381 15.185h8.78zm-11.87 11.075c.04.14.12.261.225.347l15.826 12.92-14.124-20.342-1.925 6.646c-.04.14-.04.29 0 .43zm27.877 13.259 15.828-12.912a.695.695 0 0 0 .224-.348c.04-.14.039-.29-.002-.43l-1.924-6.644-14.072 20.256-.055.078zm38.413-27.654c2.766 0 4.557 1.03 5.717 2.077l1.347-2.624c-1.82-1.803-4.284-2.769-6.92-2.769-6.65 0-11.306 4.556-11.306 13.747 0 9.626 5.03 13.377 10.775 13.377a16.57 16.57 0 0 0 6.935-1.513l-.071-10.286v-3.236h-8.531v3.236h5.444l.072 7.807c-.716.402-1.949.724-3.625.724-4.614 0-7.709-3.268-7.709-10.141-.014-7.002 3.181-10.399 7.866-10.399zm34.012-2.838h-3.124l.014 26.158h12.653v-3.234h-9.529l-.014-22.923zm21.583 21.57a5.363 5.363 0 0 1 -1.767 1.363 4.826 4.826 0 0 1 -2.102.471c-2.378 0-3.338-1.32-3.338-3.042 0-2.592 1.604-3.831 5.015-3.831.738.003 1.476.068 2.206.193v4.845h-.014zm-3.238-15.857c-2.429-.008-4.782.944-6.649 2.689l1.103 2.157c1.276-.837 2.837-1.675 5.087-1.675 2.565 0 3.697 1.482 3.697 3.96v1.272a12.721 12.721 0 0 0 -2.164-.193c-5.473 0-8.253 2.157-8.253 6.664 0 4.04 2.207 6.07 5.545 6.07 2.25 0 4.413-1.16 5.159-3.043l.573 2.56h2.206v-13.395c-.014-4.234-1.647-7.067-6.304-7.067zm13.403 17.247c.774.402 1.805.563 2.98.563 3.382 0 5.259-2.592 5.259-8.097 0-3.88-1.161-6.278-4.184-6.278-1.676 0-2.995.725-4.055 1.723zm1.944-16.689a5.195 5.195 0 0 1 2.355-.552v-.003c4.585 0 7.178 3.783 7.193 9.498 0 7.227-2.809 11.413-8.641 11.413-2.278 0-4.37-.387-5.903-1.111l-.015-25.514h3.053l.014 4.475v3.383a5.808 5.808 0 0 1 1.944-1.589zm-48.757-6.274h3.057l.014 6.198h5.111v2.865h-5.115v10.463c0 2.479 1.132 3.96 3.697 3.96a7.97 7.97 0 0 0 1.418-.113v3.075a8.981 8.981 0 0 1 -1.877.193c-4.657 0-6.29-2.833-6.29-7.067v-15.18zm-7.762 26.161h3.052v-19.96h-3.052z" fill="#757575" fill-rule="evenodd"/></svg>