<svg fill="none" height="23" width="23" xmlns="http://www.w3.org/2000/svg"><g clip-rule="evenodd" fill-rule="evenodd"><path d="m11.5 11.617v11.17a.897.897 0 0 0 .497-.142l8.944-5.111c.354-.202.498-.516.498-.923v-10.364a.87.87 0 0 0 -.143-.497l-9.51 5.373a.568.568 0 0 0 -.286.494zm4.97 6.414c0 .284-.107.426-.356.568l-2.981 1.703c-.213.142-.497.072-.497-.212v-7.596c0-.203.179-.467.355-.568l6.815-3.904c.189-.11.354.065.354.284v4.046c0 .21-.098.398-.284.497l-3.052 1.633c-.185.098-.355.287-.355.496v3.053z" fill="#fff"/><path d="m1.562 16.61v-10.366c0-.408.214-.792.568-.994l8.66-4.897c.187-.099.497-.142.71-.142s.541.053.71.142l8.59 4.897c.17.1.4.332.496.497l-9.512 5.395a.572.572 0 0 0 -.284.497v11.145c-.194 0-.393-.042-.568-.142l-8.731-5.04c-.354-.202-.64-.586-.64-.994zm1.278-8.307v4.046c0 .284.07.426.354.568l2.982 1.703a.585.585 0 0 1 .355.568v2.84c0 .284.07.426.355.568l2.981 1.704c.284.142.497.071.497-.213v-7.595a.585.585 0 0 0 -.355-.568l-6.673-3.834c-.212-.142-.496-.071-.496.213zm11.642-4.828-2.627 1.491a.645.645 0 0 1 -.71 0l-2.625-1.489a.588.588 0 0 0 -.568 0l-3.267 1.844c-.284.142-.284.426 0 .568l6.531 3.762c.175.1.393.1.568 0l6.53-3.762c.214-.142.285-.426 0-.568l-3.264-1.845a.588.588 0 0 0 -.567 0z" fill="#f2f2f2"/></g></svg>