<svg fill="none" height="37" viewBox="0 0 170 37" width="170" xmlns="http://www.w3.org/2000/svg"><g fill="#fff"><path d="m0 17.2656h17.2656v-17.2656h-17.2656z"/><path d="m19.0851.0929688c-.0531.0398432-.0929 3.9312512-.0929 8.6328112v8.53982h17.2656v-17.2656h-8.5399c-4.7015 0-8.5929.0398438-8.6328.0929688z"/><path d="m157.648 5.84375c-1.394.30547-2.868 1.3414-3.493 2.48359-.544 1.00938-.757 2.04536-.757 3.65236v1.4211l-2.589.0797-.08 2.9882h2.669v12.6172h3.719v-12.6172h5.445v4.011c.014 4.7945.107 5.6976.691 6.8797.492.9562 1.262 1.5937 2.271 1.8726.85.2258 2.696.186 3.653-.0797l.823-.239v-2.975l-.757.2523c-1.222.4117-2.178.1594-2.656-.7304-.213-.3719-.239-.9165-.279-4.7149l-.04-4.2766h3.732v-3.0546h-3.719v-4.54223l-.358.09297c-.213.03984-1.05.29219-1.86.54453l-1.501.46485v3.50628l-5.471-.0797.039-1.5539c.054-1.7.226-2.19143.943-2.72268.492-.3586 1.634-.45157 2.418-.18594l.611.2125v-1.58047c0-1.34141-.027-1.58047-.226-1.64688-.399-.15937-2.617-.19921-3.228-.07968z"/><path d="m74.9594 7.15857c-.6906.425-1.0226 1.00937-1.0226 1.81953 0 1.3016.9828 2.1383 2.4039 2.0188 1.2086-.1063 1.9523-.8766 1.9523-2.03208 0-.79688-.2656-1.26172-.9961-1.76641-.5711-.38515-1.7398-.41172-2.3375-.03984z"/><path d="m47.1484 29.086h3.586l-.0266-8.3672c-.0265-4.6086 0-8.3672.0399-8.3672.0398 0 1.5804 3.7719 3.4398 8.3672l3.3734 8.3805 2.6563-.0797 3.2805-8.2742c1.8062-4.5555 3.3203-8.3141 3.3601-8.3539.0399-.0532.0797 3.6921.0797 8.3007v8.3938h3.7187v-21.78126h-5.1265l-3.0414 7.46406c-1.6735 4.1172-3.161 7.743-3.2938 8.0617l-.2656.5977-1.1555-2.9219c-.6375-1.5937-2.0718-5.2195-3.1875-8.0617l-2.032-5.13986h-5.4055z"/><path d="m86.5938 13.3476c-2.6961.6109-4.8078 2.5367-5.7109 5.2461-.4118 1.1953-.518 3.8117-.2125 5.1.4781 2.0055 1.9257 3.9445 3.5992 4.8211 2.0719 1.0758 5.1664 1.182 7.464.2789l.7704-.3055.0664-1.7c.0398-.9297.0531-1.6867.0398-1.6867s-.4117.2125-.8898.4648c-2.218 1.2352-4.7016 1.0227-6.1493-.5046-1.089-1.1422-1.514-2.7891-1.2351-4.7282.2656-1.8461 1.3281-3.2804 2.8687-3.8515 1.4477-.5446 3.5063-.2922 4.8344.6109.2524.1594.4914.3055.5313.3055.0398 0 .0531-.7969.0265-1.7797l-.0398-1.7797-.8899-.2922c-1.1554-.3851-3.7718-.4914-5.0734-.1992z"/><path d="m102.398 13.2946c-1.301.1859-2.324.943-2.9746 2.2047l-.332.6375-.0133-1.368v-1.368l-3.6523.0797-.0399 7.7961-.0266 7.8094h3.7055l.0797-9.6289.3719-.7969c.5846-1.2351 1.2616-1.8594 2.2706-2.0453.678-.1195 1.78.0266 2.365.332l.371.1993v-1.793c0-1.2883-.053-1.8195-.159-1.8992-.279-.1594-1.328-.2524-1.966-.1594z"/><path d="m110.646 13.3476c-2.882.6508-4.927 2.6696-5.658 5.5782-.305 1.2086-.318 3.639-.013 4.9008.624 2.6429 2.616 4.6484 5.286 5.3523 1.142.2922 3.466.2922 4.688-.0266 2.378-.5976 4.303-2.2711 5.127-4.4226.478-1.3149.69-2.736.598-4.2102-.133-2.4039-.771-3.9578-2.125-5.3258-.85-.8367-1.461-1.2218-2.736-1.6734-.983-.3586-3.932-.4516-5.167-.1727zm3.905 3.1743c.89.3984 1.687 1.3281 2.005 2.2976.2.611.253 1.1555.253 2.5633-.014 1.5539-.053 1.8992-.319 2.5633-.385.9828-.943 1.607-1.793 2.0453-.584.3055-.85.3453-1.873.3453-1.315 0-2.032-.2258-2.829-.8898-1.248-1.0758-1.819-3.6391-1.288-5.8969.372-1.5406 1.063-2.4703 2.258-3.0281.943-.4516 2.643-.4516 3.586 0z"/><path d="m126.345 13.3477c-1.568.4382-2.962 1.5406-3.507 2.7625-.438.9961-.438 2.8023.014 3.7453.544 1.1156 1.155 1.5937 3.506 2.7226 1.182.5711 2.258 1.1688 2.39 1.3149.346.3851.439 1.3812.16 1.8062-.757 1.1555-3.573 1.036-5.685-.2523l-.77-.4649v3.5727l.478.1992c1.475.6109 4.317.8102 5.871.4117 1.713-.4383 2.975-1.3679 3.612-2.6695.266-.5578.319-.8633.319-1.9258 0-1.0359-.04-1.3547-.279-1.8062-.664-1.2618-1.514-1.8993-3.905-2.975-1.753-.7704-2.231-1.1821-2.337-1.9789-.253-1.8196 2.497-2.3508 5.179-.9961l.638.332-.08-3.3867-.797-.2524c-1.089-.3453-3.838-.4382-4.807-.1593z"/><path d="m140.184 13.4008c-1.873.4648-3.507 1.5937-4.463 3.0812-1.381 2.1649-1.687 5.6977-.717 8.3141 1.195 3.2008 4.582 5.0336 8.42 4.5555 2.192-.2657 3.387-.8102 4.728-2.1782 1.621-1.6336 2.245-3.3203 2.245-6.0562 0-2.6695-.624-4.4227-2.085-5.8969-.983-.9695-1.833-1.4476-3.228-1.8062-1.314-.3454-3.572-.3454-4.9-.0133zm4.263 3.1609c.744.3985 1.434 1.1953 1.793 2.1117.252.6641.305 1.036.305 2.5102.014 2.7226-.544 3.9976-2.098 4.7812-.704.3454-.93.3852-1.926.3852-1.434-.0133-2.324-.3586-3.068-1.2086-.863-.9961-1.115-1.8195-1.129-3.7586 0-2.6562.598-3.9578 2.218-4.7812.797-.3985.89-.4118 2.099-.3719.956.0398 1.394.1195 1.806.332z"/><path d="m74.2421 29.086h3.7188l-.0266-7.8094-.0399-7.7961-3.6523-.0797z"/><path d="m0 36.3906h17.2656v-17.2656h-17.2656z"/><path d="m19.0187 27.718.0399 8.6063 8.6062.0398 8.593.0266v-17.2656h-17.2656z"/></g></svg>