<svg fill="none" height="37" width="114" xmlns="http://www.w3.org/2000/svg"><g fill="#fff"><path clip-rule="evenodd" d="m24.797 6.656a.274.274 0 0 0 -.14-.041c-.1 0-2.032-.165-2.45-.2l.013.013s2.418.208 2.529.208a.618.618 0 0 1 .048.02zm-6.043 28.704 1.343-31.128c-.186-.077-.421-.033-.535 0-.018 0-.37.124-.941.33-.573-1.845-1.55-3.524-3.304-3.524h-.166c-.481-.706-1.108-1.038-1.625-1.038-4.06 0-6.016 5.702-6.626 8.605-.727.257-1.357.474-1.84.64-.57.197-.932.322-1.002.356-.886.31-.905.331-1.016 1.265-.092.705-2.4 20.756-2.4 20.756l17.96 3.774.152-.037zm-1.13-30.507a31.03 31.03 0 0 0 -1.514.54v-.374c0-1.12-.129-2.032-.369-2.758.923.125 1.495 1.265 1.883 2.592zm-3.009-2.364c.24.705.406 1.7.406 3.07v.207l-1.221.424c-.623.215-1.262.436-1.915.673.609-2.613 1.771-3.899 2.731-4.376zm-1.181-1.285c.185 0 .37.083.517.207-1.31.684-2.695 2.405-3.267 5.889-.402.144-.796.28-1.181.412-.448.153-.885.303-1.311.459.665-2.654 2.326-6.967 5.242-6.967zm1.883 11.425-1.182 4.002s-1.07-.643-2.344-.643c-1.9 0-1.993 1.348-1.993 1.68 0 .72.661 1.266 1.462 1.927 1.228 1.013 2.783 2.297 2.783 4.895 0 3.38-1.901 5.557-4.467 5.557-3.1 0-4.651-2.157-4.651-2.157l.83-3.068s1.625 1.575 2.99 1.575c.905 0 1.274-.787 1.274-1.368 0-1.043-.664-1.65-1.411-2.333-.961-.877-2.059-1.88-2.059-4.095 0-3.297 2.104-6.49 6.368-6.49 1.588-.02 2.4.518 2.4.518z" fill-rule="evenodd"/><path d="m39.718 20.156c-.978-.58-1.477-1.1-1.477-1.784 0-.87.702-1.43 1.79-1.43 1.274 0 2.4.58 2.4.58l.886-3.048s-.812-.705-3.212-.705c-3.34 0-5.666 2.157-5.666 5.184 0 1.721 1.089 3.027 2.529 3.96 1.181.726 1.587 1.265 1.587 2.053 0 .809-.59 1.473-1.68 1.473-1.605 0-3.137-.933-3.137-.933l-.942 3.048s1.403 1.057 3.766 1.057c3.433 0 5.925-1.908 5.925-5.329-.037-1.866-1.274-3.152-2.77-4.126zm13.695-6.428c-1.698 0-3.026.912-4.042 2.28l-.037-.02 1.477-8.626h-3.82l-3.73 21.98h3.822l1.273-7.507c.498-2.84 1.809-4.603 3.027-4.603.868 0 1.2.663 1.2 1.597 0 .58-.037 1.327-.166 1.907l-1.44 8.606h3.82l1.496-8.875c.166-.933.277-2.053.277-2.82-.019-2.468-1.145-3.92-3.157-3.92zm11.795 0c-4.614 0-7.66 4.665-7.66 9.87 0 3.318 1.827 6.013 5.26 6.013 4.523 0 7.568-4.541 7.568-9.87.019-3.09-1.569-6.013-5.168-6.013zm-1.883 12.607c-1.31 0-1.845-1.244-1.845-2.82 0-2.468 1.126-6.47 3.211-6.47 1.348 0 1.809 1.327 1.809 2.592 0 2.634-1.163 6.698-3.175 6.698zm16.852-12.607c-2.584 0-4.042 2.57-4.042 2.57h-.037l.222-2.3h-3.397c-.166 1.554-.48 3.939-.775 5.702l-2.64 15.738h3.821l1.071-6.366h.092s.794.56 2.234.56c4.503 0 7.438-5.184 7.438-10.41-.018-2.902-1.181-5.494-3.987-5.494zm-3.654 12.648c-.997 0-1.588-.642-1.588-.642l.628-4.002c.443-2.696 1.698-4.459 3.027-4.459 1.181 0 1.532 1.224 1.532 2.364.018 2.779-1.458 6.74-3.6 6.74zm13.086-18.806c-1.218 0-2.196 1.1-2.196 2.488 0 1.265.72 2.157 1.809 2.157h.036c1.2 0 2.215-.912 2.234-2.488.018-1.265-.739-2.157-1.883-2.157zm-5.353 21.752h3.821l2.584-15.262h-3.839zm16.151-15.282h-2.658l.13-.705c.22-1.473.996-2.758 2.288-2.758.683 0 1.218.228 1.218.228l.738-3.38s-.646-.373-2.085-.373c-1.348 0-2.714.435-3.747 1.43-1.31 1.245-1.92 3.049-2.215 4.873l-.11.705h-1.791l-.572 3.256h1.79l-2.03 12.027h3.82l2.03-12.027h2.64zm9.21.02s-2.399 6.781-3.451 10.493h-.037c-.074-1.203-.942-10.493-.942-10.493h-4.023l2.307 13.976c.037.311.018.498-.092.705-.443.975-1.2 1.908-2.086 2.592-.72.58-1.532.975-2.178 1.224l1.07 3.649c.776-.187 2.4-.912 3.747-2.343 1.735-1.825 3.36-4.666 5.021-8.522l4.67-11.301h-4.006zm-84.961-7.487c-.11 0-2.528-.207-2.528-.207s-1.68-1.887-1.883-2.074a.341.341 0 0 0 -.24-.124l-1.347 31.227 9.745-2.363s-3.413-25.962-3.433-26.148a.52.52 0 0 0 -.314-.31z"/></g></svg>