<svg fill="none" height="41" viewBox="0 0 124 51" width="114" xmlns="http://www.w3.org/2000/svg"><path d="m96.031 16.7049c-.8447-1.7399-2.0929-3.051-3.9966-3.5805-2.9123-.8069-5.7112-.5169-8.2453 1.2607-.2395.1639-.479.3278-.8194.5673-.7187-1.9037-2.2694-1.8659-3.8579-1.7398-.2396.0252-.4791 0-.706 0-1.5381 0-3.0763 0-4.7026 0v1.059 35.3261c0 .29.0252.6052.0378.8952h9.8212c0-3.2654 0-6.5307 0-9.7204 1.4625.1387 2.8367.3908 4.2235.3908 4.7404-.0504 7.5897-2.2315 9.0017-6.7576.0631-.2017.1135-.3908.1639-.6051.9456-3.6436.933-7.3502.6052-11.0694-.2017-2.0928-.6052-4.1352-1.5255-6.0263zm-8.6109 15.2802c-.4413 2.1685-1.7272 2.7737-3.9083 1.9794 0-.5926 0-1.2103 0-1.8281 0-3.5301.0252-7.0728-.0126-10.6029 0-.6177.2143-.9329.7564-1.1094.3026-.1009.6052-.227.9204-.3278 1.349-.3908 2.2189.0504 2.3954 1.4246.4665 3.4797.5673 6.9972-.1513 10.4642zm-30.0562-17.9908c-.0378 2.4332-.0126 4.8665-.0126 7.3501-1.0968-.1387-2.055-.2773-3.0384-.3782-.4917-.0378-1.0086-.0126-1.5129.0504-2.0298.2648-2.3071.5926-2.3071 2.5972v15.961 1.0086c-3.2906 0-6.4803 0-9.7582 0 0-9.0774 0-18.1547 0-27.3204.2017-.0252.4286-.0756.643-.0756 2.1054 0 4.2235.0126 6.3415-.0126.5547-.0126.8699.1639 1.0969.6682.3025.643.6808 1.2481 1.0338 1.8911 1.8028-2.8619 3.6183-3.5931 6.6819-2.7736.5926.1639.8447.3908.8321 1.0338zm12.2419-9.06478c0 2.73581-2.2063 4.94212-4.9422 4.94212h-.0126c-.3908 0-.7942-.03782-1.1977-.13868-.8825-.22694-1.6389-.65559-2.2441-1.24814-.9203-.89513-1.5003-2.15588-1.5003-3.5553 0-2.47107 1.8155-4.526078 4.1983-4.8790871.0504-.0252149.1135-.0378254.1765-.0504329h1.0716c.0252.0126075.0505.0252172.0757.0378247 2.4584.2647563 4.3748 2.3449853 4.3748 4.8916953zm-9.8591 8.32088h9.7204v27.3708c-3.2527 0-6.455 0-9.7204 0 0-9.1656 0-18.243 0-27.3708zm63.1633 8.3462c-.328-2.4459-1.286-4.7026-3.164-6.4424-2.282-2.1181-5.106-2.5594-8.057-2.4207-5.749.2522-9.178 2.8115-10.59 7.9553-1.1471 4.1731-1.1471 8.4092-.025 12.6075 1.059 4.0092 3.618 6.5811 7.779 7.4132 3.706.7438 7.388.5799 11.031-.3404 2.106-.5295 2.106-.5295 2.106-2.6854 0-1.6516 0-3.3032 0-5.0304-.908.1639-1.69.3026-2.471.4413-2.307.3782-4.627.8699-6.985.5043-1.79-.2774-2.597-1.4751-2.332-3.4167h13.351c-.202-2.9753-.265-5.7994-.643-8.5856zm-12.897 3.2023c.138-1.5255.239-3.0006.428-4.4631.051-.416.29-.8573.568-1.1725.895-1.0338 2.521-.7564 2.798.5674.341 1.6263.391 3.3283.58 5.0682-1.588 0-2.887 0-4.374 0zm-76.6159-4.4253v10.8803c0 .29 0 .6051.0253.8951.1513 1.2103.5925 1.6264 1.8154 1.5507 1.0717-.063 2.1181-.2269 3.278-.353v6.9593c-3.3788.6178-6.7576 1.349-10.1868.5043-3.0384-.7312-4.7152-3.2401-4.7531-6.9971-.0504-4.4378-.0126-8.863-.0126-13.3009 0-.3152 0-.6303 0-1.0212-1.2229 0-2.3323 0-3.5301 0 0-2.0928 0-4.1226 0-6.2407h3.5175c.3656-1.828.7565-3.59309 1.0717-5.37074.1134-.59255.3025-.92034.9455-1.05903 2.5719-.57994 5.1313-1.22292 7.7914-1.8659v8.23267h5.2069c-.4413 2.1433-.8573 4.1731-1.286 6.2659-1.2733 0-2.5088 0-3.8452 0-.0126.353-.0379.6304-.0379.9203zm-14.549 12.7336c-.5169 4.9169-3.2779 7.5014-8.2452 7.9553-3.21493.29-6.34158-.1387-9.4178-1.0086-.264756-.0631-.642979-.4035-.655587-.6178-.05043-2.1559-.025215-4.3369-.025215-6.5811 1.575932.3278 3.051002.706 4.551292.933.93295.1513 1.90373.1891 2.82407.0504.47908-.0756 1.05903-.5421 1.29857-.996.32779-.6304.02521-1.3238-.57995-1.702-.80687-.5043-1.67679-.8951-2.50888-1.3364-.95817-.5169-1.97937-.9834-2.86189-1.6011-1.75244-1.2356-2.773642-2.9754-3.063613-5.1187-.025215-.2017-.1134672-.3908-.163897-.5925 0-.5295 0-1.0716 0-1.6011.151289-.7187.239542-1.4499.441261-2.1559.932949-3.341 3.378799-4.9926 6.593699-5.6356 3.41664-.6934 6.79544-.3908 10.11114.6682.5296.1765.7439.4161.7313.996-.0378 2.0172-.0126 4.0344-.0126 6.0264-1.6894-.3152-3.3158-.6304-4.9548-.8825-.6682-.1009-1.3994-.1513-2.0298.0252-.4538.1261-1.08421.6051-1.14725.996-.07564.4664.23955 1.1977.63035 1.5003.7187.5547 1.6138.8573 2.4207 1.2985 1.0464.5548 2.1558 1.0338 3.1014 1.7273 2.6223 1.8785 3.2779 4.6269 2.9627 7.6527z" fill="#fff"/></svg>