<svg fill="none" height="35" width="158" xmlns="http://www.w3.org/2000/svg" xmlns:xlink="http://www.w3.org/1999/xlink"><clipPath id="a"><path d="m0 0h157.942v34.566h-157.942z"/></clipPath><g clip-path="url(#a)"><path d="m123.043 24.49a5.162 5.162 0 0 0 3.716-1.434l1.842 2.002c-1.216 1.252-2.904 2.182-5.527 2.182-4.497 0-7.401-2.98-7.401-7.02a6.912 6.912 0 0 1 6.994-7.038c4.466 0 6.998 3.399 6.776 8.11h-10.558c.376 1.955 1.747 3.206 4.153 3.206l.005-.007zm3.212-5.444c-.287-1.83-1.376-3.175-3.561-3.175-2.029 0-3.444 1.148-3.809 3.175zm-72.527 5.298 8.126-8.254h-7.93v-2.604h11.7v2.659l-8.126 8.25h8.233v2.592h-12zm21.123.147a5.162 5.162 0 0 0 3.717-1.435l1.845 2.002c-1.217 1.252-2.904 2.182-5.527 2.182-4.497 0-7.401-2.98-7.401-7.02a6.914 6.914 0 0 1 6.994-7.038c4.466 0 6.998 3.399 6.776 8.11h-10.558c.376 1.955 1.747 3.206 4.153 3.206zm3.216-5.445c-.286-1.83-1.376-3.175-3.561-3.175-2.029 0-3.445 1.148-3.809 3.175zm20.728 1.157c0-4.304 3.222-7.014 6.772-7.014a5.835 5.835 0 0 1 4.497 2.023v-7.951h2.87v19.707h-2.869v-1.877a5.771 5.771 0 0 1 -4.523 2.13c-3.444 0-6.744-2.721-6.744-7.011l-.004-.007zm11.431-.018c-.101-3.785-4.692-5.584-7.351-2.872s-.719 7.27 3.071 7.268c2.465 0 4.279-1.97 4.279-4.38zm21.088 3.927 2.599-1.348a3.857 3.857 0 0 0 3.468 1.97c1.626 0 2.465-.835 2.465-1.78 0-1.094-1.571-1.323-3.277-1.673-2.296-.47-4.686-1.243-4.686-4.02 0-2.131 2.029-4.1 5.224-4.072 2.503 0 4.389 1 5.452 2.615l-2.408 1.323a3.504 3.504 0 0 0 -3.035-1.54c-1.543 0-2.346.756-2.346 1.62 0 .97 1.245 1.24 3.197 1.673 2.221.47 4.739 1.214 4.739 4.02 0 1.877-1.626 4.368-5.469 4.342-2.816 0-4.793-1.134-5.933-3.128zm19.185-3.127-2.276 2.483v3.503h-2.872v-19.707h2.87v12.894l6.093-6.691h3.495l-5.283 5.787 5.418 7.714h-3.264zm-60.393-7.773c-3.413 0-6.256 2.213-6.256 5.88v7.88h2.924v-7.543c0-2.213 1.272-3.535 3.445-3.535 2.172 0 3.253 1.324 3.253 3.535v7.514h2.91v-7.877c0-3.667-2.871-5.88-6.257-5.88zm-69.092-4.106v25.37h-21.014zm0-9.106c0 5.804-4.703 10.51-10.506 10.512-5.804-.002-10.508-4.708-10.506-10.512zm3.461 34.473c.003-5.802 4.705-10.504 10.506-10.506 5.801.002 10.503 4.704 10.506 10.506zm0-9.107v-25.363h21.014z" fill="#9d9d9d"/></g></svg>