<svg height="400" viewBox="0 0 400 400" width="400" xmlns="http://www.w3.org/2000/svg"><path d="m158.771875 17.6135922c.364062 2.7126214-.728125 4.9747573-4.365625 7.2349515-4.729688-3.1650486-14.91875-4.9747573-23.285938-4.0699029-9.096875.9048543-16.7375 4.5223301-15.645312 12.207767 1.454687 7.6873786 10.1875 12.2097087 25.832812 10.4 38.203125-4.0699029 37.839063-36.17281557 93.871875-42.50291265 43.660938-4.97281554 68.0375 11.75728155 71.312501 32.10291265 2.546874 15.8252427-8.004688 31.2-39.659376 34.3650485-28.015625 3.1650486-44.389062-6.3300971-45.84375-15.8252427-.728125-4.9747573 1.454688-12.2097087 14.917188-14.0174757 1.45625 7.6873786 9.096875 15.8252427 27.289062 13.5650485 13.098438-1.3572815 24.0125-7.2349514 22.557813-16.2776699-1.454688-9.4951456-15.28125-14.9223301-37.1125-12.6601942-44.389063 4.9728156-55.303125 35.2679612-93.14375 39.3378641-26.923438 3.1650486-48.754688-9.0466019-51.665625-27.1300971-1.090625-6.7825243-1.090625-22.607767 27.289062-25.77281551 14.553125-1.35728156 26.196875 1.80776701 27.651563 9.04271841zm-141.8984375 189.0019418c-12.3703125 19.442718-17.828125 42.048544-16.7375 64.205825 1.0921875 22.15534 9.8234375 40.240777 23.65 54.258253 14.553125 14.015534 30.1984375 18.085437 48.028125 14.015534 6.9125-1.35534 14.553125-5.87767 21.465625-8.590292-14.553125 0-26.9234375-5.87767-39.2953125-18.085437-13.4609375-12.209708-22.5578125-29.390291-24.740625-50.190291-3.275-19.442718 0-37.528155 8.7328125-53.353398 9.8234375-15.372815 22.5578125-23.965048 39.29375-26.67767 16.7375-1.35534 31.2906245 4.069903 45.8437495 16.730097-3.273437-5.87767-8.003125-9.947572-12.36875-15.372815-14.554687-12.209709-30.1999995-18.087379-49.4843745-12.209709-17.4640625 4.524272-32.0171875 15.825243-44.3875 35.269903zm195.0203125-104.448544c-46.9375 0-88.778125-5.8776696-118.978125-14.0174754-32.38125-9.9475729-49.4828125-20.7980583-49.4828125-34.815534 0-5.8776699 2.184375-10.8524272 8.734375-16.7300971-20.3765625 9.9475728-31.2921875 18.0873786-31.2921875 30.7475728 1.0921875 14.015534 19.284375 28.0330097 56.3953125 38.8854367 34.9296875 10.850486 79.6828125 16.728156 133.5312495 16.728156 54.940626 0 98.601563-5.87767 133.53125-16.728156 37.110938-10.852427 54.939063-25.3203881 54.939063-38.8854367 0-9.9475728-8.004688-19.4427184-22.557813-26.6776699 3.275 2.7126214 5.821875 7.2349515 5.821875 12.207767 0 14.0174757-16.7375 25.3203883-50.575 34.815534-31.290625 8.592233-71.312499 14.4699026-120.067187 14.4699026zm133.89375 38.885437c-34.929687 9.947573-79.68125 16.730097-133.53125 16.730097-54.939062 0-99.692187-7.234951-134.621875-16.730097-31.290625-9.947573-48.025-20.8-53.8484375-32.102912 5.821875 48.833009 19.284375 94.951456 37.1125 135.646602 13.4625 25.320388 26.9234375 47.475728 40.3859375 71.440776 5.821875 14.015534 9.823437 28.03301 12.370312 42.050486 8.732813 15.372815 21.46875 25.320388 37.1125 30.745631 19.284375 8.590291 39.295313 12.207767 59.671875 10.852427h2.18125c20.375 1.35534 41.84375-2.714563 61.490625-10.852427 14.553125-5.87767 26.923438-15.372816 36.020313-30.745631h1.090625c2.182813-14.019418 5.821875-28.034952 11.279687-42.050486 13.4625-23.965048 26.925-46.120388 40.385938-71.440776 17.828125-40.242719 30.2-86.361166 37.1125-135.646602-7.276563 12.660194-24.014063 23.512621-54.2125 32.102912z" fill="#28334c"/></svg>