<svg height="400" width="400" xmlns="http://www.w3.org/2000/svg"><path d="M158.772 17.614c.364 2.712-.728 4.974-4.366 7.235-4.73-3.166-14.919-4.975-23.286-4.07-9.097.904-16.737 4.522-15.645 12.207 1.455 7.688 10.188 12.21 25.833 10.4C179.51 39.316 179.147 7.214 235.18.883c43.66-4.972 68.037 11.758 71.312 32.103 2.547 15.826-8.005 31.2-39.66 34.365-28.015 3.166-44.388-6.33-45.843-15.825-.728-4.975 1.455-12.21 14.917-14.017 1.456 7.687 9.097 15.825 27.29 13.565 13.098-1.357 24.012-7.235 22.557-16.278-1.455-9.495-15.281-14.922-37.112-12.66-44.39 4.973-55.303 35.268-93.144 39.338-26.924 3.165-48.755-9.047-51.666-27.13-1.09-6.783-1.09-22.608 27.29-25.773 14.552-1.357 26.196 1.808 27.65 9.043zM16.873 206.616C4.503 226.058-.955 248.664.136 270.82c1.092 22.156 9.823 40.241 23.65 54.259 14.553 14.015 30.198 18.085 48.028 14.015 6.913-1.355 14.553-5.878 21.466-8.59-14.553 0-26.924-5.878-39.296-18.086-13.46-12.21-22.557-29.39-24.74-50.19-3.275-19.443 0-37.528 8.733-53.353 9.823-15.373 22.557-23.965 39.293-26.678 16.738-1.355 31.29 4.07 45.844 16.73-3.273-5.878-8.003-9.947-12.369-15.373-14.554-12.21-30.2-18.087-49.484-12.21-17.464 4.525-32.017 15.826-44.388 35.27zm195.02-104.449c-46.937 0-88.777-5.878-118.977-14.017-32.382-9.948-49.483-20.799-49.483-34.816 0-5.878 2.184-10.852 8.734-16.73C31.791 46.55 20.875 54.69 20.875 67.35c1.092 14.016 19.284 28.033 56.395 38.886 34.93 10.85 79.683 16.728 133.532 16.728 54.94 0 98.601-5.878 133.53-16.728 37.112-10.853 54.94-25.32 54.94-38.886 0-9.947-8.005-19.442-22.558-26.677 3.275 2.712 5.822 7.235 5.822 12.208 0 14.017-16.738 25.32-50.575 34.815-31.29 8.592-71.313 14.47-120.067 14.47zm133.894 38.885c-34.93 9.948-79.68 16.73-133.53 16.73-54.94 0-99.693-7.234-134.623-16.73-31.29-9.947-48.025-20.8-53.848-32.102 5.822 48.833 19.284 94.951 37.112 135.646 13.463 25.32 26.924 47.476 40.386 71.44 5.822 14.016 9.824 28.034 12.37 42.051 8.734 15.373 21.47 25.32 37.113 30.746 19.285 8.59 39.296 12.208 59.672 10.852h2.181c20.375 1.356 41.844-2.714 61.49-10.852 14.554-5.878 26.924-15.373 36.021-30.746h1.09c2.184-14.019 5.823-28.035 11.28-42.05 13.463-23.965 26.926-46.12 40.387-71.44 17.828-40.244 30.2-86.362 37.112-135.647-7.277 12.66-24.014 23.512-54.212 32.102z" fill="#28334c"/></svg>