<svg xmlns="http://www.w3.org/2000/svg" viewBox="0 0 32 32"><title>file_type_typescript_official</title><polygon points="2 16 2 30 16 30 30 30 30 16 30 2 16 2 2 2 2 16" style="fill:#007acc"/><path d="M24.564,14.884a3.485,3.485,0,0,1,1.751,1.009,4.611,4.611,0,0,1,.671.9c.009.036-1.209.853-1.947,1.311-.027.018-.133-.1-.253-.276a1.587,1.587,0,0,0-1.316-.791c-.849-.058-1.4.387-1.391,1.129a1.027,1.027,0,0,0,.12.524c.187.387.533.618,1.622,1.089,2,.862,2.862,1.431,3.4,2.24a4.063,4.063,0,0,1,.324,3.413,3.753,3.753,0,0,1-3.1,2.218,8.584,8.584,0,0,1-2.133-.022,5.145,5.145,0,0,1-2.849-1.484,4.947,4.947,0,0,1-.729-1.08,2.092,2.092,0,0,1,.258-.164c.124-.071.6-.342,1.04-.6l.8-.467L21,24.08A3.759,3.759,0,0,0,22.067,25.1a2.6,2.6,0,0,0,2.724-.138,1.217,1.217,0,0,0,.156-1.551c-.218-.311-.662-.573-1.924-1.12a6.93,6.93,0,0,1-2.636-1.622,3.692,3.692,0,0,1-.769-1.4,5.606,5.606,0,0,1-.049-1.787,3.413,3.413,0,0,1,2.871-2.658A7.092,7.092,0,0,1,24.564,14.884Zm-6.573,1.169L18,17.2H14.356V27.556H11.778V17.2H8.133V16.076a11.018,11.018,0,0,1,.031-1.156c.013-.018,2.231-.027,4.92-.022l4.893.013Z" style="fill:#fff"/></svg>
