<svg width="210" height="210" xmlns="http://www.w3.org/2000/svg"><g fill="none" fill-rule="evenodd"><rect fill="#56B3B4" x="150" y="40" width="20" height="10" rx="5"/><rect fill="#EA5E5E" y="200" width="60" height="10" rx="5"/><rect fill="#BF85BF" x="120" y="120" width="40" height="10" rx="5"/><rect fill="#EA5E5E" x="60" y="120" width="50" height="10" rx="5"/><rect fill="#56B3B4" y="120" width="50" height="10" rx="5"/><rect fill="#BF85BF" y="160" width="60" height="10" rx="5"/><rect fill="#BF85BF" y="80" width="60" height="10" rx="5"/><rect fill="#F7BA3E" x="50" y="20" width="110" height="10" rx="5"/><rect fill="#EA5E5E" y="20" width="40" height="10" rx="5"/><rect fill="#F7BA3E" x="40" y="180" width="20" height="10" rx="5"/><rect fill="#56B3B4" x="40" y="60" width="20" height="10" rx="5"/><rect fill="#56B3B4" y="180" width="30" height="10" rx="5"/><rect fill="#F7BA3E" y="60" width="30" height="10" rx="5"/><rect fill="#4D616E" opacity=".5" x="130" y="180" width="20" height="10" rx="5"/><rect fill="#4D616E" opacity=".5" x="70" y="180" width="50" height="10" rx="5"/><rect fill="#4D616E" opacity=".5" x="160" y="180" width="50" height="10" rx="5"/><rect fill="#56B3B4" x="80" y="100" width="90" height="10" rx="5"/><rect fill="#F7BA3E" x="30" y="100" width="40" height="10" rx="5"/><rect fill="#EA5E5E" y="100" width="20" height="10" rx="5"/><rect fill="#BF85BF" x="90" y="40" width="50" height="10" rx="5"/><rect fill="#56B3B4" y="40" width="80" height="10" rx="5"/><rect fill="#F7BA3E" x="30" y="140" width="100" height="10" rx="5"/><rect fill="#BF85BF" y="140" width="20" height="10" rx="5"/><rect fill="#EA5E5E" x="120" y="60" width="60" height="10" rx="5"/><rect fill="#F7BA3E" x="120" y="80" width="60" height="10" rx="5"/><rect fill="#56B3B4" width="130" height="10" rx="5"/><rect fill="#4D616E" opacity=".5" x="140" width="70" height="10" rx="5"/><rect fill="#4D616E" opacity=".5" x="140" y="140" width="30" height="10" rx="5"/><rect fill="#4D616E" opacity=".5" x="180" y="140" width="30" height="10" rx="5"/><rect fill="#4D616E" opacity=".5" x="170" y="120" width="40" height="10" rx="5"/><rect fill="#4D616E" opacity=".5" x="170" y="20" width="40" height="10" rx="5"/><rect fill="#4D616E" opacity=".5" x="180" y="100" width="30" height="10" rx="5"/><rect fill="#4D616E" opacity=".5" x="180" y="40" width="30" height="10" rx="5"/><rect fill="#4D616E" opacity=".5" x="190" y="60" width="20" height="10" rx="5"/><rect fill="#4D616E" opacity=".5" x="190" y="80" width="20" height="10" rx="5"/><rect fill="#4D616E" opacity=".5" x="110" y="160" width="100" height="10" rx="5"/><rect fill="#4D616E" opacity=".5" x="70" y="160" width="30" height="10" rx="5"/><rect fill="#4D616E" opacity=".5" x="150" y="200" width="60" height="10" rx="5"/><rect fill="#4D616E" opacity=".5" x="70" y="200" width="70" height="10" rx="5"/><rect fill="#4D616E" opacity=".5" x="70" y="60" width="40" height="10" rx="5"/><rect fill="#4D616E" opacity=".5" x="70" y="80" width="40" height="10" rx="5"/></g></svg>