<svg xmlns="http://www.w3.org/2000/svg" width="32" height="32"><path fill="#AA759F" fill-rule="evenodd" d="M28.97 20.438a2.352 2.352 0 0 0-.363-.988 3.077 3.077 0 0 0-.726-.762 3.071 3.071 0 0 0-1.087-.582 4.981 4.981 0 0 0-1.217-.203 6.82 6.82 0 0 0-2.02.305 2.152 2.152 0 0 0-.285.113c-.086.043-.181.08-.285.114 0-.017-.009-.038-.027-.063a.565.565 0 0 0-.051-.064 8.732 8.732 0 0 0-.272-.582 1.992 1.992 0 0 1-.194-.61 9.026 9.026 0 0 1-.038-.481 1.718 1.718 0 0 1 .038-.456c.033-.152.072-.3.116-.444.044-.144.092-.291.143-.443a.35.35 0 0 0 0-.19c-.018-.042-.061-.08-.13-.113a.376.376 0 0 0-.182-.05 1.883 1.883 0 0 0-.53-.027 2.63 2.63 0 0 0-.53.103.449.449 0 0 0-.17.076c-.043.033-.064.084-.064.153-.018.05-.03.093-.038.126a.445.445 0 0 1-.038.102c-.052.17-.1.334-.143.496-.043.16-.1.309-.17.443-.19.388-.387.764-.594 1.128-.207.364-.414.732-.622 1.104a.62.62 0 0 0-.09.113 1.3 1.3 0 0 0-.065.114 8.267 8.267 0 0 1-.234-.443 1.37 1.37 0 0 1-.13-.47 4.178 4.178 0 0 1-.064-.558 2.437 2.437 0 0 1 .038-.558 6.99 6.99 0 0 1 .259-.812.328.328 0 0 0 .013-.152c-.009-.034-.048-.068-.116-.103l-.105-.05-.077-.026a2.193 2.193 0 0 0-.57-.026c-.19.016-.372.05-.544.102-.07.018-.117.047-.143.09a.742.742 0 0 0-.064.14l-.156.507-.18.483-1.763 3.855c-.052.135-.112.27-.18.406a6.736 6.736 0 0 1-.208.38.4.4 0 0 0-.077.102.4.4 0 0 1-.078.102c-.018-.017-.027-.034-.027-.05v-.05a2.43 2.43 0 0 0-.013-.254.814.814 0 0 1 .013-.253l.156-.71.18-.712c.053-.203.104-.402.156-.596.052-.193.104-.392.156-.595a.76.76 0 0 0 .027-.19.233.233 0 0 0-.078-.166.513.513 0 0 0-.35-.177c-.147-.016-.263.018-.35.102a.11.11 0 0 0-.051.013.245.245 0 0 0-.051.038c0-.034.004-.064.013-.09a.207.207 0 0 0 .013-.063 3.96 3.96 0 0 0 .027-.456c0-.152-.017-.296-.052-.432a.775.775 0 0 0-.285-.432.807.807 0 0 0-.492-.152 1.518 1.518 0 0 0-.544.102 3.38 3.38 0 0 0-.944.558 5.235 5.235 0 0 0-.764.786l-.065.063-.091.064a32.013 32.013 0 0 1-1.814.964 3.806 3.806 0 0 1-.323.19 4.93 4.93 0 0 1-.35.165 6.547 6.547 0 0 0-.258-.24 6.547 6.547 0 0 1-.259-.24c-.276-.22-.556-.44-.842-.66a46.29 46.29 0 0 1-.866-.684 11.64 11.64 0 0 1-.726-.609 5.01 5.01 0 0 1-.648-.711 2.86 2.86 0 0 1-.324-.622 2.48 2.48 0 0 1-.142-.672 2.53 2.53 0 0 1 .104-.888c.088-.288.209-.558.363-.811.208-.34.45-.644.726-.914.276-.271.562-.533.855-.786.329-.253.665-.49 1.01-.711.345-.221.699-.433 1.062-.635.518-.27 1.04-.524 1.567-.761.525-.237 1.065-.44 1.619-.61.57-.168 1.148-.29 1.735-.368a7.358 7.358 0 0 1 1.787-.013c.242.018.475.056.7.114.224.059.44.147.647.266.156.085.299.186.428.305a1.2 1.2 0 0 1 .298.432c.052.186.078.368.078.546 0 .177-.017.35-.051.52a3.34 3.34 0 0 1-.415.988 4.61 4.61 0 0 1-.672.838 6.624 6.624 0 0 1-1.373 1.116 7.55 7.55 0 0 1-1.606.736 7.12 7.12 0 0 1-.998.279c-.337.068-.678.12-1.022.153a5.298 5.298 0 0 1-.829-.013 3.323 3.323 0 0 1-.829-.19 3.494 3.494 0 0 1-.492-.24 1.485 1.485 0 0 1-.414-.37.4.4 0 0 0-.065-.05c-.025-.016-.064-.016-.116 0a.122.122 0 0 0-.065.09.164.164 0 0 0 .014.114 1.1 1.1 0 0 0 .155.355c.087.153.19.284.312.393a2.78 2.78 0 0 0 1.255.648c.301.068.616.11.944.126a7.86 7.86 0 0 0 1.424-.076c.465-.068.932-.161 1.4-.28a8.359 8.359 0 0 0 1.837-.76 6.363 6.363 0 0 0 1.555-1.244c.38-.423.7-.876.958-1.357a4.058 4.058 0 0 0 .466-1.56 3.426 3.426 0 0 0 0-.838 2.21 2.21 0 0 0-.259-.786 2.3 2.3 0 0 0-.544-.698 4.276 4.276 0 0 0-.75-.52 4.99 4.99 0 0 0-1.244-.442A7.882 7.882 0 0 0 15.224 7h-.88a9.314 9.314 0 0 0-1.593.19 10.71 10.71 0 0 0-1.542.443c-.396.135-.78.28-1.152.432-.371.153-.738.322-1.1.508A20.76 20.76 0 0 0 6.665 9.88a11.217 11.217 0 0 0-2.008 1.687 7.33 7.33 0 0 0-.828 1.027c-.242.364-.44.749-.595 1.154-.035.136-.07.267-.105.393-.035.127-.061.25-.078.369-.017.017-.022.03-.013.037.009.008-.004.02-.038.037v.356a.226.226 0 0 1 .065.127.89.89 0 0 1 .013.152c.086.288.207.563.363.825s.329.511.519.748c.294.322.608.622.944.901.336.28.686.546 1.05.799l.92.635a85.758 85.758 0 0 1 1.1.772c.052.043.104.09.156.14a.773.773 0 0 0-.143.063 2.4 2.4 0 0 1-.116.064c-.414.203-.82.423-1.216.659-.397.236-.777.49-1.14.761a16.1 16.1 0 0 0-.622.533c-.207.186-.38.389-.519.608a3.064 3.064 0 0 0-.466 1.154c-.068.398-.016.808.156 1.231.052.135.121.254.207.356.086.101.181.194.285.279.035.017.073.038.116.063a2.4 2.4 0 0 0 .116.063l.35.05c.113.017.22.042.323.077h.622a3.93 3.93 0 0 0 .998-.229c.319-.119.626-.271.92-.456.448-.304.82-.66 1.113-1.065a3.8 3.8 0 0 0 .622-1.394 4.18 4.18 0 0 0 .156-1.129c0-.38-.06-.756-.181-1.128a.224.224 0 0 0-.027-.102.224.224 0 0 1-.026-.103l-.052-.102-.05-.126c.241-.136.479-.271.712-.406.233-.136.47-.262.712-.38h.027a3.77 3.77 0 0 1-.051.14.347.347 0 0 0-.027.113 8.707 8.707 0 0 0-.207.914c-.052.305-.07.618-.051.938.034.34.098.665.193.978.095.312.246.604.453.875.156.237.389.355.7.355.31 0 .552-.11.725-.33a3.63 3.63 0 0 0 .194-.253 1.32 1.32 0 0 0 .143-.253 26.181 26.181 0 0 0 .673-1.422c0-.017.004-.03.013-.037a.231.231 0 0 0 .038-.064 4.573 4.573 0 0 0-.051.635 1.968 1.968 0 0 0 0 .456c.017.152.052.296.104.432a.891.891 0 0 0 .207.33.579.579 0 0 0 .337.152.46.46 0 0 0 .285-.037c.086-.042.164-.089.234-.14.103-.084.203-.181.298-.292a1.8 1.8 0 0 0 .245-.368c.208-.355.41-.71.608-1.065s.384-.71.557-1.065c.19-.389.372-.786.544-1.192.172-.406.354-.803.544-1.191 0-.034.004-.06.013-.077l.038-.076a7.51 7.51 0 0 0 .259.938c.051.186.116.364.193.533.078.169.16.338.246.508.052.084.073.152.064.203a.427.427 0 0 1-.09.177 219.11 219.11 0 0 0-1.4 1.674 3.256 3.256 0 0 1-.155.19.88.88 0 0 0-.13.19 3.77 3.77 0 0 1-.051.139 3.77 3.77 0 0 0-.051.14.339.339 0 0 0 .05.253c.053.084.13.135.235.152.103.018.203.03.298.038.095.007.186.003.272-.013.328-.018.635-.08.92-.19.285-.11.557-.257.815-.443.328-.237.553-.52.673-.85.12-.328.138-.688.051-1.077a1.393 1.393 0 0 0-.09-.305 4.302 4.302 0 0 1-.117-.306.222.222 0 0 1-.013-.126c.009-.034.021-.076.038-.127.276-.372.531-.757.764-1.154a23.2 23.2 0 0 0 .66-1.205c0-.017.004-.03.013-.037l.038-.037c.07.338.16.677.272 1.014.112.338.262.66.452.965a4.127 4.127 0 0 0-.285.253l-.258.253c-.19.204-.363.415-.519.635-.156.22-.277.456-.363.71-.034.119-.06.233-.078.343a1.16 1.16 0 0 0 0 .343.614.614 0 0 0 .234.443.53.53 0 0 0 .492.09 3.738 3.738 0 0 0 1.1-.42c.338-.194.635-.452.894-.774.172-.22.272-.452.298-.698a1.995 1.995 0 0 0-.064-.748 3.23 3.23 0 0 0-.065-.216 3.23 3.23 0 0 1-.065-.216c.087-.034.182-.068.286-.102.103-.035.198-.06.285-.077a5.67 5.67 0 0 1 1.541-.14 5.03 5.03 0 0 1 1.515.317c.294.102.553.246.777.432.225.186.406.415.544.685.172.339.215.665.13.977-.087.313-.294.58-.622.8l-.105.05-.104.076a.196.196 0 0 1-.014.063.196.196 0 0 0-.013.063c0 .018.013.03.038.038a.297.297 0 0 0 .065.013.727.727 0 0 0 .298-.064 1.26 1.26 0 0 0 .272-.165 1.9 1.9 0 0 0 .519-.495c.138-.195.216-.42.234-.672.017-.018.022-.026.013-.026s.004-.009.038-.026v-.33c-.034-.017-.047-.026-.038-.026.009 0 .004-.009-.013-.026h.026l-.005-.005zm-20.199 1.37a3.1 3.1 0 0 1-.35 1.244 3.31 3.31 0 0 1-.815.989 3.17 3.17 0 0 1-.622.431 2.112 2.112 0 0 1-.726.23 1.378 1.378 0 0 1-.271.025.743.743 0 0 1-.272-.05c-.138-.068-.229-.153-.272-.253a.829.829 0 0 1-.065-.33c0-.186.03-.368.092-.545.06-.178.134-.343.22-.495.12-.22.267-.414.44-.583.174-.17.356-.33.545-.482A17.049 17.049 0 0 1 8.59 20.72c.018 0 .03-.005.039-.013l.013-.013c.052.186.09.372.116.558.025.186.03.373.013.559v-.004zm5.204-3.931a3.75 3.75 0 0 1-.077.443l-.105.419c-.156.49-.324.968-.505 1.433a35.83 35.83 0 0 1-.584 1.408 5.801 5.801 0 0 1-.156.24 1.265 1.265 0 0 0-.129.24l-.078.076c-.052.051-.104.077-.156.077-.051 0-.095-.043-.129-.127a2.61 2.61 0 0 1-.156-.558.539.539 0 0 1-.026-.177v-.203c0-.457.069-.893.207-1.307.138-.415.328-.816.57-1.205.104-.152.212-.3.323-.443.112-.143.255-.266.428-.368.052-.034.104-.064.156-.09a.833.833 0 0 1 .18-.063c.087-.017.151-.009.194.026.043.035.056.094.038.177l.005.002zm3.576 4.438a380.754 380.754 0 0 1 1.27-1.445c.033.27-.122.6-.467.989-.344.388-.612.54-.802.456h-.001zm4.065-.989a.331.331 0 0 1-.13.077.69.69 0 0 0-.155.076c-.034.017-.06.017-.078 0-.017-.017-.026-.043-.026-.076v-.09l.026-.063c.086-.304.207-.583.363-.838a2.81 2.81 0 0 1 .595-.685h.027c.12.304.12.609 0 .914-.12.305-.328.534-.622.685z"/></svg>