<svg xmlns="http://www.w3.org/2000/svg" xmlns:xlink="http://www.w3.org/1999/xlink" x="0" y="0" enable-background="new 0 0 10.3 10" version="1.1" viewBox="0 0 10.3 10" xml:space="preserve"><style type="text/css">.st13{fill:#d2d2d2}</style><g id="CARDS-RL"><g><g><path d="M8,9.7c-0.1,0-0.2,0-0.2-0.1L5.1,7.8L2.5,9.6c-0.1,0.1-0.3,0.1-0.5,0C1.9,9.5,1.9,9.4,1.9,9.2l1-3.1 L0.3,4.2C0.2,4.1,0.1,4,0.2,3.8c0.1-0.2,0.2-0.3,0.4-0.3h3.2l1-3.1C4.8,0.3,5,0.2,5.1,0.2c0.2,0,0.3,0.1,0.4,0.3l1,3.1h3.2 c0.2,0,0.3,0.1,0.4,0.3c0.1,0.2,0,0.3-0.1,0.5L7.4,6.1l1,3.1c0.1,0.2,0,0.3-0.1,0.5C8.2,9.7,8.1,9.7,8,9.7z" class="st13"/></g></g></g></svg>