<svg xmlns="http://www.w3.org/2000/svg" xmlns:xlink="http://www.w3.org/1999/xlink" x="0" y="0" enable-background="new 0 0 10.3 10" version="1.1" viewBox="0 0 10.3 10" xml:space="preserve"><style type="text/css">.st13{fill:#d2d2d2}.st18{fill:#ff8e00}</style><g id="CARDS-RL"><g><path d="M10.1,3.8c-0.1-0.2-0.2-0.3-0.4-0.3H6.5l-1-3.1C5.5,0.3,5.3,0.2,5.2,0.2v7.6l2.6,1.9C7.8,9.7,7.9,9.7,8,9.7 s0.2,0,0.2-0.1c0.1-0.1,0.2-0.3,0.1-0.5l-1-3.1L10,4.2C10.1,4.1,10.2,4,10.1,3.8z" class="st13"/><path d="M5.2,0.2L5.2,0.2C5,0.2,4.8,0.3,4.8,0.5l-1,3.1H0.6c-0.2,0-0.3,0.1-0.4,0.3C0.1,4,0.2,4.1,0.3,4.2l2.6,1.9 l-1,3.1c-0.1,0.2,0,0.3,0.1,0.5c0.1,0.1,0.3,0.1,0.5,0l2.6-1.9l0,0V0.2z" class="st18"/></g></g></svg>