<svg width="638" height="385" viewBox="0 0 638 385" fill="none" xmlns="http://www.w3.org/2000/svg">
<mask id="mask0" mask-type="alpha" maskUnits="userSpaceOnUse" x="-230" y="0" width="868" height="453">
<rect x="-230" width="867.687" height="453" rx="5.79175" fill="#151515"/>
</mask>
<g mask="url(#mask0)">
<g filter="url(#filter0_d)">
<rect x="-84" width="727" height="491" rx="4.13401" fill="#151515"/>
</g>
<g filter="url(#filter1_i)">
<path d="M-84.0078 4.21604C-84.0078 1.93289 -82.157 0.0820312 -79.8738 0.0820312H639.358V46.7859H-84.0078V4.21604Z" fill="#202124"/>
</g>
<rect x="-47" y="90" width="726.796" height="359.918" fill="#151515"/>
<rect x="319" y="87" width="320.03" height="439.478" fill="#BF5AF2"/>
<rect x="319" y="87" width="320.03" height="439.478" fill="url(#paint0_linear)"/>
<rect x="319" y="87" width="320.03" height="439.478" fill="url(#paint1_linear)"/>
<rect x="319" y="87" width="320.03" height="439.478" fill="#242424"/>
<rect x="421.987" y="204.219" width="65.6339" height="65.6339" transform="rotate(15 421.987 204.219)" fill="white" fill-opacity="0.2"/>
<rect x="462.72" y="199.582" width="65.6339" height="65.6339" transform="rotate(30 462.72 199.582)" fill="white" fill-opacity="0.6"/>
<rect x="507.547" y="198" width="65.6339" height="65.6339" transform="rotate(45 507.547 198)" fill="white"/>
<g filter="url(#filter2_dd)">
<rect x="258.338" y="117.758" width="57.6645" height="413.118" fill="#151515"/>
</g>
<g filter="url(#filter3_d)">
<rect x="-83.3723" y="90.1484" width="400.784" height="27.1536" fill="#151515"/>
</g>
<rect x="-16.8098" y="142.492" width="62.8285" height="6.8855" rx="3.44265" fill="#999999"/>
<rect x="54.6235" y="142.492" width="41.3119" height="6.8855" rx="3.44265" fill="#BF5AF2"/>
<rect x="104.544" y="142.492" width="62.8284" height="6.8855" rx="3.44265" fill="#757575"/>
<rect x="-16.8096" y="157.125" width="28.4019" height="6.88531" rx="3.44265" fill="#0971F1"/>
<rect x="15.0361" y="157.125" width="28.4019" height="6.88531" rx="3.44265" fill="#0971F1"/>
<rect x="46.8818" y="157.125" width="28.4019" height="6.88531" rx="3.44265" fill="#0971F1"/>
<rect x="80.4468" y="157.125" width="15.4919" height="6.88531" rx="3.44265" fill="#BF5AF2"/>
<rect x="104.544" y="157.125" width="122.214" height="6.88531" rx="3.44265" fill="#757575"/>
<rect x="-16.8096" y="170.895" width="30.1232" height="6.88531" rx="3.44265" fill="#999999"/>
<rect x="15.0361" y="170.895" width="30.1232" height="6.88531" rx="3.44265" fill="#0971F1"/>
<rect x="46.8818" y="170.895" width="9.4673" height="6.88531" rx="3.44265" fill="#0971F1"/>
<rect x="58.9303" y="170.895" width="9.4673" height="6.88531" rx="3.44265" fill="#0971F1"/>
<rect x="71.8367" y="170.895" width="18.0739" height="6.88531" rx="3.44265" fill="#BF5AF2"/>
<rect x="92.4952" y="171.754" width="25.8199" height="6.8855" rx="3.44265" fill="#999999"/>
<rect x="124.341" y="171.754" width="96.3944" height="6.8855" rx="3.44265" fill="#757575"/>
<rect x="-16.8096" y="184.664" width="28.4019" height="6.88531" rx="3.44265" fill="#999999"/>
<rect x="15.8975" y="184.664" width="24.0986" height="6.88531" rx="3.44265" fill="#BF5AF2"/>
<rect x="43.4364" y="184.664" width="122.214" height="6.88531" rx="3.44265" fill="#757575"/>
<rect x="-16.8096" y="198.438" width="28.4019" height="6.88531" rx="3.44265" fill="#0971F1"/>
<rect x="13.3135" y="198.438" width="38.7299" height="6.88531" rx="3.44265" fill="#BF5AF2"/>
<rect x="54.6235" y="198.438" width="49.9185" height="6.88531" rx="3.44265" fill="#757575"/>
<rect x="107.128" y="198.438" width="49.9185" height="6.88531" rx="3.44265" fill="#BF5AF2"/>
<rect x="159.625" y="198.438" width="49.9185" height="6.88531" rx="3.44265" fill="#757575"/>
<rect x="-16.8096" y="212.207" width="37.8692" height="6.8855" rx="3.44265" fill="#BF5AF2"/>
<rect x="23.6462" y="212.207" width="24.0986" height="6.8855" rx="3.44265" fill="#757575"/>
<rect x="52.0465" y="212.207" width="49.9185" height="6.8855" rx="3.44265" fill="#757575"/>
<rect x="104.544" y="212.207" width="26.6806" height="6.8855" rx="3.44265" fill="#757575"/>
<rect x="-16.8096" y="225.977" width="80.9024" height="6.88531" rx="3.44265" fill="#0971F1"/>
<rect x="71.8367" y="225.977" width="24.0986" height="6.88531" rx="3.44265" fill="#BF5AF2"/>
<rect x="104.999" y="226" width="52" height="7" rx="3.44265" fill="#999999"/>
<rect x="2.04565" y="239.746" width="45.6152" height="6.8855" rx="3.44265" fill="#757575"/>
<rect x="-16.8098" y="272.453" width="49.9522" height="6.88549" rx="3.44265" fill="#0971F1"/>
<rect x="39.9875" y="272.453" width="32.8453" height="6.88531" rx="3.44265" fill="#BF5AF2"/>
<rect x="79.6792" y="272.453" width="49.9522" height="6.88531" rx="3.44265" fill="#757575"/>
<rect x="-16.8096" y="287.086" width="22.5811" height="6.8855" rx="3.44265" fill="#0971F1"/>
<rect x="8.51001" y="287.086" width="22.5811" height="6.8855" rx="3.44265" fill="#0971F1"/>
<rect x="33.826" y="287.086" width="22.5812" height="6.8855" rx="3.44265" fill="#0971F1"/>
<rect x="60.5142" y="287.086" width="12.317" height="6.8855" rx="3.44265" fill="#BF5AF2"/>
<rect x="79.6792" y="287.086" width="97.1672" height="6.88549" rx="3.44265" fill="#757575"/>
<rect x="-16.8096" y="300.855" width="23.9496" height="6.8855" rx="3.44265" fill="#999999"/>
<rect x="8.51001" y="300.855" width="23.9496" height="6.8855" rx="3.44265" fill="#0971F1"/>
<rect x="39.1366" y="300.855" width="29.2626" height="6.8855" rx="3.44265" fill="#BF5AF2"/>
<rect x="70.0897" y="301.715" width="20.5283" height="6.88531" rx="3.44265" fill="#757575"/>
<rect x="95.4058" y="301.715" width="76.639" height="6.88531" rx="3.44265" fill="#757575"/>
<rect x="-16.8096" y="314.625" width="22.5811" height="6.88531" rx="3.44265" fill="#999999"/>
<rect x="9.01013" y="314.625" width="47.3365" height="6.88531" rx="3.44265" fill="#0971F1"/>
<rect x="66.6755" y="314.625" width="61.9678" height="6.8853" rx="3.44265" fill="#757575"/>
<rect x="-16.8096" y="328.395" width="22.5811" height="6.88531" rx="3.44265" fill="#0971F1"/>
<rect x="7.13464" y="328.395" width="30.7924" height="6.88531" rx="3.44265" fill="#757575"/>
<rect x="39.9875" y="328.395" width="39.688" height="6.88531" rx="3.44265" fill="#757575"/>
<rect x="81.7284" y="328.395" width="39.688" height="6.88531" rx="3.44265" fill="#757575"/>
<rect x="123.466" y="328.395" width="39.688" height="6.88531" rx="3.44265" fill="#757575"/>
<rect x="-16.8096" y="342.168" width="30.1082" height="6.88531" rx="3.44265" fill="#999999"/>
<rect x="15.3488" y="342.168" width="19.1597" height="6.88531" rx="3.44265" fill="#757575"/>
<rect x="37.9349" y="342.168" width="39.688" height="6.88531" rx="3.44265" fill="#BF5AF2"/>
<rect x="79.6792" y="342.168" width="21.2126" height="6.88531" rx="3.44265" fill="#999999"/>
<rect x="-16.8096" y="355.938" width="64.322" height="6.88531" rx="3.44265" fill="#0971F1"/>
<rect x="53.6719" y="355.938" width="19.1597" height="6.88531" rx="3.44265" fill="#BF5AF2"/>
<rect x="79.6792" y="355.938" width="97.1673" height="6.88531" rx="3.44265" fill="#757575"/>
<rect x="-3.11829" y="369.707" width="75.9547" height="6.88531" rx="3.44265" fill="#999999"/>
<rect x="79.6792" y="369.707" width="36.2667" height="6.88531" rx="3.44265" fill="#999999"/>
<rect x="121.413" y="369.707" width="36.2667" height="6.88531" rx="3.44265" fill="#0971F1"/>
<rect x="269.2" y="127.336" width="8.13883" height="0.76229" rx="0.381145" fill="#999999"/>
<rect x="278.453" y="127.336" width="5.35156" height="0.76229" rx="0.381145" fill="#BF5AF2"/>
<rect x="284.92" y="127.336" width="8.13883" height="0.76229" rx="0.381145" fill="#757575"/>
<rect x="269.2" y="128.957" width="3.6792" height="0.76229" rx="0.381145" fill="#0971F1"/>
<rect x="273.33" y="128.957" width="3.6792" height="0.76229" rx="0.381145" fill="#0971F1"/>
<rect x="277.453" y="128.957" width="3.6792" height="0.76229" rx="0.381145" fill="#0971F1"/>
<rect x="281.798" y="128.957" width="2.00684" height="0.76229" rx="0.381145" fill="#BF5AF2"/>
<rect x="284.92" y="128.957" width="15.8317" height="0.76229" rx="0.381145" fill="#757575"/>
<rect x="269.2" y="130.48" width="3.90222" height="0.762451" rx="0.381145" fill="#999999"/>
<rect x="273.33" y="130.48" width="3.90222" height="0.762451" rx="0.381145" fill="#0971F1"/>
<rect x="277.453" y="130.48" width="1.22644" height="0.762451" rx="0.381145" fill="#0971F1"/>
<rect x="279.016" y="130.48" width="1.22644" height="0.762451" rx="0.381145" fill="#0971F1"/>
<rect x="280.686" y="130.48" width="2.34131" height="0.762451" rx="0.381145" fill="#BF5AF2"/>
<rect x="283.361" y="130.574" width="3.34473" height="0.76229" rx="0.381145" fill="#999999"/>
<rect x="287.487" y="130.574" width="12.487" height="0.76229" rx="0.381145" fill="#757575"/>
<rect x="269.2" y="132.004" width="3.6792" height="0.76229" rx="0.381145" fill="#999999"/>
<rect x="273.434" y="132.004" width="3.12174" height="0.76229" rx="0.381145" fill="#BF5AF2"/>
<rect x="277.008" y="132.004" width="15.8317" height="0.76229" rx="0.381145" fill="#757575"/>
<rect x="269.2" y="133.531" width="3.6792" height="0.76229" rx="0.381145" fill="#0971F1"/>
<rect x="273.104" y="133.531" width="5.01709" height="0.76229" rx="0.381145" fill="#BF5AF2"/>
<rect x="278.453" y="133.531" width="6.46647" height="0.76229" rx="0.381145" fill="#757575"/>
<rect x="285.257" y="133.531" width="6.46647" height="0.76229" rx="0.381145" fill="#757575"/>
<rect x="292.057" y="133.531" width="6.46647" height="0.76229" rx="0.381145" fill="#757575"/>
<rect x="269.2" y="135.055" width="4.9056" height="0.76229" rx="0.381145" fill="#999999"/>
<rect x="274.441" y="135.055" width="3.12174" height="0.76229" rx="0.381145" fill="#BF5AF2"/>
<rect x="278.123" y="135.055" width="6.46647" height="0.76229" rx="0.381145" fill="#BF5AF2"/>
<rect x="284.92" y="135.055" width="3.45622" height="0.76229" rx="0.381145" fill="#757575"/>
<rect x="269.2" y="136.578" width="10.4801" height="0.762451" rx="0.381145" fill="#0971F1"/>
<rect x="280.686" y="136.578" width="3.1217" height="0.762451" rx="0.381145" fill="#BF5AF2"/>
<rect x="284.92" y="136.578" width="15.8318" height="0.762451" rx="0.381145" fill="#999999"/>
<rect x="269.2" y="138.102" width="1.67236" height="0.76229" rx="0.381145" fill="#0971F1"/>
<rect x="271.434" y="138.102" width="12.3755" height="0.76229" rx="0.381145" fill="#757575"/>
<rect x="284.92" y="138.102" width="5.90901" height="0.76229" rx="0.381145" fill="#757575"/>
<rect x="291.724" y="138.102" width="5.90901" height="0.76229" rx="0.381145" fill="#757575"/>
<rect x="269.2" y="141.723" width="6.47083" height="0.762451" rx="0.381145" fill="#0971F1"/>
<rect x="276.557" y="141.723" width="4.25476" height="0.762451" rx="0.381145" fill="#BF5AF2"/>
<rect x="281.7" y="141.723" width="6.47083" height="0.762451" rx="0.381145" fill="#757575"/>
<rect x="269.2" y="143.344" width="2.92517" height="0.76229" rx="0.381145" fill="#0971F1"/>
<rect x="272.486" y="143.344" width="2.92517" height="0.76229" rx="0.381145" fill="#0971F1"/>
<rect x="275.761" y="143.344" width="2.92517" height="0.76229" rx="0.381145" fill="#0971F1"/>
<rect x="279.221" y="143.344" width="1.59555" height="0.76229" rx="0.381145" fill="#BF5AF2"/>
<rect x="281.7" y="143.344" width="12.5871" height="0.76229" rx="0.381145" fill="#757575"/>
<rect x="269.2" y="144.867" width="3.10245" height="0.76229" rx="0.381145" fill="#999999"/>
<rect x="272.486" y="144.867" width="3.10245" height="0.76229" rx="0.381145" fill="#0971F1"/>
<rect x="276.449" y="144.867" width="3.79069" height="0.76229" rx="0.381145" fill="#BF5AF2"/>
<rect x="280.457" y="144.961" width="2.65925" height="0.76229" rx="0.381145" fill="#757575"/>
<rect x="283.736" y="144.961" width="9.92786" height="0.76229" rx="0.381145" fill="#757575"/>
<rect x="269.2" y="146.391" width="2.92517" height="0.76229" rx="0.381145" fill="#999999"/>
<rect x="272.549" y="146.391" width="6.132" height="0.76229" rx="0.381145" fill="#0971F1"/>
<rect x="280.016" y="146.391" width="8.02734" height="0.76229" rx="0.381145" fill="#757575"/>
<rect x="269.2" y="147.918" width="2.92517" height="0.76229" rx="0.381145" fill="#0971F1"/>
<rect x="272.305" y="147.918" width="3.98887" height="0.76229" rx="0.381145" fill="#BF5AF2"/>
<rect x="276.557" y="147.918" width="5.14121" height="0.76229" rx="0.381145" fill="#757575"/>
<rect x="281.968" y="147.918" width="5.14121" height="0.76229" rx="0.381145" fill="#757575"/>
<rect x="287.372" y="147.918" width="5.14121" height="0.76229" rx="0.381145" fill="#757575"/>
<rect x="269.2" y="149.441" width="3.90023" height="0.76229" rx="0.381145" fill="#999999"/>
<rect x="273.368" y="149.441" width="2.48196" height="0.76229" rx="0.381145" fill="#BF5AF2"/>
<rect x="276.289" y="149.441" width="5.14121" height="0.76229" rx="0.381145" fill="#BF5AF2"/>
<rect x="281.7" y="149.441" width="2.74789" height="0.76229" rx="0.381145" fill="#999999"/>
<rect x="269.2" y="150.965" width="8.33228" height="0.762451" rx="0.381145" fill="#0971F1"/>
<rect x="278.331" y="150.965" width="2.48206" height="0.762451" rx="0.381145" fill="#BF5AF2"/>
<rect x="281.7" y="150.965" width="12.5872" height="0.76245" rx="0.381145" fill="#757575"/>
<rect x="269.2" y="152.488" width="1.32962" height="0.76229" rx="0.381145" fill="#0971F1"/>
<rect x="270.975" y="152.488" width="9.83921" height="0.76229" rx="0.381145" fill="#999999"/>
<rect x="281.7" y="152.488" width="4.698" height="0.76229" rx="0.381145" fill="#999999"/>
<rect x="287.105" y="152.488" width="4.698" height="0.76229" rx="0.381145" fill="#757575"/>
<rect x="269.2" y="162.27" width="8.13883" height="0.76229" rx="0.381145" fill="#999999"/>
<rect x="278.453" y="162.27" width="5.35156" height="0.76229" rx="0.381145" fill="#BF5AF2"/>
<rect x="284.92" y="162.27" width="8.13883" height="0.76229" rx="0.381145" fill="#757575"/>
<rect x="269.2" y="163.891" width="3.6792" height="0.762451" rx="0.381145" fill="#0971F1"/>
<rect x="273.33" y="163.891" width="3.6792" height="0.762451" rx="0.381145" fill="#0971F1"/>
<rect x="277.453" y="163.891" width="3.6792" height="0.762451" rx="0.381145" fill="#0971F1"/>
<rect x="281.798" y="163.891" width="2.00684" height="0.762451" rx="0.381145" fill="#BF5AF2"/>
<rect x="284.92" y="163.891" width="15.8318" height="0.762451" rx="0.381145" fill="#757575"/>
<rect x="269.2" y="165.414" width="3.90218" height="0.76229" rx="0.381145" fill="#999999"/>
<rect x="273.33" y="165.414" width="3.90218" height="0.76229" rx="0.381145" fill="#0971F1"/>
<rect x="277.453" y="165.414" width="1.2264" height="0.76229" rx="0.381145" fill="#0971F1"/>
<rect x="279.016" y="165.414" width="1.2264" height="0.76229" rx="0.381145" fill="#0971F1"/>
<rect x="280.686" y="165.414" width="2.34131" height="0.76229" rx="0.381145" fill="#BF5AF2"/>
<rect x="283.361" y="165.508" width="3.34473" height="0.76229" rx="0.381145" fill="#999999"/>
<rect x="287.487" y="165.508" width="12.487" height="0.76229" rx="0.381145" fill="#757575"/>
<rect x="269.2" y="166.938" width="3.6792" height="0.762451" rx="0.381145" fill="#999999"/>
<rect x="273.434" y="166.938" width="3.12183" height="0.762451" rx="0.381145" fill="#BF5AF2"/>
<rect x="277.008" y="166.938" width="15.8317" height="0.762451" rx="0.381145" fill="#757575"/>
<rect x="269.2" y="168.465" width="3.6792" height="0.76229" rx="0.381145" fill="#0971F1"/>
<rect x="273.104" y="168.465" width="5.01709" height="0.76229" rx="0.381145" fill="#BF5AF2"/>
<rect x="278.453" y="168.465" width="6.46647" height="0.76229" rx="0.381145" fill="#757575"/>
<rect x="285.257" y="168.465" width="6.46647" height="0.76229" rx="0.381145" fill="#757575"/>
<rect x="292.057" y="168.465" width="6.46647" height="0.76229" rx="0.381145" fill="#757575"/>
<rect x="269.2" y="169.988" width="4.90564" height="0.762451" rx="0.381145" fill="#999999"/>
<rect x="274.441" y="169.988" width="3.1217" height="0.762451" rx="0.381145" fill="#BF5AF2"/>
<rect x="278.123" y="169.988" width="6.46643" height="0.762451" rx="0.381145" fill="#BF5AF2"/>
<rect x="284.92" y="169.988" width="3.4563" height="0.762451" rx="0.381145" fill="#757575"/>
<rect x="269.2" y="171.512" width="10.4801" height="0.76229" rx="0.381145" fill="#0971F1"/>
<rect x="280.686" y="171.512" width="3.12174" height="0.76229" rx="0.381145" fill="#BF5AF2"/>
<rect x="284.92" y="171.512" width="15.8317" height="0.76229" rx="0.381145" fill="#999999"/>
<rect x="269.2" y="173.035" width="1.67236" height="0.76229" rx="0.381145" fill="#0971F1"/>
<rect x="271.434" y="173.035" width="12.3755" height="0.76229" rx="0.381145" fill="#757575"/>
<rect x="284.92" y="173.035" width="5.90901" height="0.76229" rx="0.381145" fill="#757575"/>
<rect x="291.724" y="173.035" width="5.90901" height="0.76229" rx="0.381145" fill="#757575"/>
<rect x="269.2" y="176.656" width="6.47084" height="0.76229" rx="0.381145" fill="#0971F1"/>
<rect x="276.557" y="176.656" width="4.2548" height="0.76229" rx="0.381145" fill="#BF5AF2"/>
<rect x="281.7" y="176.656" width="6.47084" height="0.76229" rx="0.381145" fill="#757575"/>
<rect x="269.2" y="178.277" width="2.92517" height="0.762451" rx="0.381145" fill="#0971F1"/>
<rect x="272.486" y="178.277" width="2.92517" height="0.762451" rx="0.381145" fill="#0971F1"/>
<rect x="275.761" y="178.277" width="2.92517" height="0.762451" rx="0.381145" fill="#0971F1"/>
<rect x="279.221" y="178.277" width="1.59558" height="0.762451" rx="0.381145" fill="#BF5AF2"/>
<rect x="281.7" y="178.277" width="12.5872" height="0.76245" rx="0.381145" fill="#757575"/>
<rect x="269.2" y="179.801" width="3.10242" height="0.762451" rx="0.381145" fill="#999999"/>
<rect x="272.486" y="179.801" width="3.10242" height="0.762451" rx="0.381145" fill="#0971F1"/>
<rect x="276.449" y="179.801" width="3.79065" height="0.762451" rx="0.381145" fill="#BF5AF2"/>
<rect x="280.457" y="179.895" width="2.65925" height="0.76229" rx="0.381145" fill="#757575"/>
<rect x="283.736" y="179.895" width="9.92786" height="0.76229" rx="0.381145" fill="#757575"/>
<rect x="269.2" y="181.324" width="2.92517" height="0.76229" rx="0.381145" fill="#999999"/>
<rect x="272.549" y="181.324" width="6.132" height="0.76229" rx="0.381145" fill="#0971F1"/>
<rect x="280.016" y="181.324" width="8.02734" height="0.76229" rx="0.381145" fill="#757575"/>
<rect x="269.2" y="182.852" width="2.92517" height="0.76229" rx="0.381145" fill="#0971F1"/>
<rect x="272.305" y="182.852" width="3.98887" height="0.76229" rx="0.381145" fill="#BF5AF2"/>
<rect x="276.557" y="182.852" width="5.14121" height="0.76229" rx="0.381145" fill="#757575"/>
<rect x="281.968" y="182.852" width="5.14121" height="0.76229" rx="0.381145" fill="#757575"/>
<rect x="287.372" y="182.852" width="5.14121" height="0.76229" rx="0.381145" fill="#757575"/>
<rect x="269.2" y="184.375" width="3.90027" height="0.762451" rx="0.381145" fill="#999999"/>
<rect x="273.368" y="184.375" width="2.48193" height="0.762451" rx="0.381145" fill="#BF5AF2"/>
<rect x="276.289" y="184.375" width="5.14124" height="0.762451" rx="0.381145" fill="#BF5AF2"/>
<rect x="281.7" y="184.375" width="2.74792" height="0.762451" rx="0.381145" fill="#999999"/>
<rect x="269.2" y="185.898" width="8.33228" height="0.762451" rx="0.381145" fill="#0971F1"/>
<rect x="278.331" y="185.898" width="2.48206" height="0.762451" rx="0.381145" fill="#BF5AF2"/>
<rect x="281.7" y="185.898" width="12.5872" height="0.76245" rx="0.381145" fill="#757575"/>
<rect x="269.2" y="187.422" width="1.32962" height="0.76229" rx="0.381145" fill="#0971F1"/>
<rect x="270.975" y="187.422" width="9.83921" height="0.76229" rx="0.381145" fill="#999999"/>
<rect x="281.7" y="187.422" width="4.698" height="0.76229" rx="0.381145" fill="#999999"/>
<rect x="287.105" y="187.422" width="4.698" height="0.76229" rx="0.381145" fill="#757575"/>
<rect x="-83.7612" y="46.7383" width="726.572" height="42.156" fill="#333639"/>
<circle cx="611.117" cy="66.334" r="10.8614" fill="#757575"/>
<path d="M26.412 18.3352C26.412 13.7689 30.1137 10.0703 34.68 10.0703L242.964 10.0703C247.531 10.0703 251.245 13.7689 251.276 18.335C251.319 24.9113 251.381 33.3087 251.381 37.6143C251.381 44.3143 257.932 47.292 257.932 47.292L19.712 47.292C19.712 47.292 26.412 44.3145 26.412 36.8701C26.412 32.6301 26.412 24.5261 26.412 18.3352Z" fill="#333639"/>
<path d="M234.856 25.7731L234.044 24.9609L230.389 28.6155L226.734 24.9609L225.922 25.7731L229.577 29.4276L225.922 33.0821L226.734 33.8942L230.389 30.2397L234.044 33.8942L234.856 33.0821L231.201 29.4276L234.856 25.7731Z" fill="#777777"/>
<path d="M61.5589 28.111C61.5589 25.9002 62.5064 24.6599 64.1934 24.6599C65.6108 24.6599 66.5582 25.5997 66.5891 26.9478H68.1374V26.8708C68.1374 24.7678 66.4735 23.2734 64.1857 23.2734C61.5204 23.2734 59.9643 25.0913 59.9643 28.111V29.4359C59.9643 32.4248 61.5204 34.2196 64.1857 34.2196C66.4658 34.2196 68.1374 32.7791 68.1374 30.784V30.6992H66.5891C66.5582 31.9626 65.6108 32.833 64.1934 32.833C62.5064 32.833 61.5589 31.6159 61.5589 29.4359V28.111ZM73.2292 25.7461C70.9105 25.7461 69.6549 27.3946 69.6549 29.59V30.2679C69.6549 32.5249 70.9105 34.1426 73.2292 34.1426C75.5402 34.1426 76.7804 32.5249 76.7804 30.2679V29.5823C76.7804 27.3869 75.5325 25.7461 73.2292 25.7461ZM73.2215 27.0248C74.5387 27.0248 75.2166 28.0648 75.2166 29.6208V30.2448C75.2166 31.7854 74.5464 32.8484 73.2215 32.8484C71.9043 32.8484 71.2187 31.7777 71.2187 30.2448V29.6208C71.2187 28.0725 71.9043 27.0248 73.2215 27.0248ZM81.5795 25.7615C79.5689 25.7615 78.3826 27.333 78.3826 29.5823V30.2987C78.3826 32.5942 79.5073 34.1195 81.5795 34.1195C82.6733 34.1195 83.5284 33.6033 83.9597 32.7714H84.006V34.0039H85.5158V22.9344H83.9597V27.0325H83.9058C83.513 26.293 82.6656 25.7615 81.5795 25.7615ZM81.9184 27.071C83.1894 27.071 83.9751 28.0725 83.9751 29.6362V30.2602C83.9751 31.9009 83.1971 32.8099 81.9338 32.8099C80.786 32.8099 79.9618 31.9626 79.9618 30.2525V29.6362C79.9618 27.9184 80.786 27.071 81.9184 27.071ZM90.9619 34.1426C92.8877 34.1426 93.9508 33.041 94.2204 31.7161H92.7183C92.4872 32.4402 91.8863 32.8869 90.9927 32.8869C89.7679 32.8869 89.013 31.9163 89.013 30.4758V30.3064H94.3205V29.5361C94.3205 27.2713 93.0495 25.7461 90.9003 25.7461C88.7588 25.7461 87.4647 27.2328 87.4647 29.459V30.3141C87.4647 32.679 88.8127 34.1426 90.9619 34.1426ZM89.013 29.1663V29.1432C89.013 27.9415 89.7525 26.9863 90.908 26.9863C92.0404 26.9863 92.7876 27.9338 92.7876 29.1432V29.1663H89.013ZM95.5607 31.1152C95.5992 32.5172 96.5775 34.2196 99.4431 34.2196C101.746 34.2196 103.449 33.0872 103.449 31.0228C103.449 29.2742 102.278 28.5269 100.683 28.1264L98.927 27.6796C97.9333 27.4408 97.4557 26.9247 97.4557 26.216C97.4557 25.1761 98.3262 24.5829 99.5741 24.5829C100.976 24.5829 101.7 25.3455 101.785 26.2853H103.318C103.279 24.2902 101.538 23.2503 99.5972 23.2503C97.6175 23.2503 95.8612 24.3364 95.8612 26.3315C95.8612 28.0108 97.0783 28.812 98.3878 29.1355L100.16 29.5823C101.307 29.8673 101.847 30.3218 101.847 31.1537C101.847 32.2091 100.984 32.8792 99.5818 32.8792C98.0412 32.8792 97.2169 32.0704 97.1245 31.1152H95.5607ZM109.758 33.0025H109.812V34.0039H111.298V28.4422C111.298 26.6705 109.981 25.7538 108.209 25.7538C106.122 25.7538 105.182 26.8631 105.105 28.2573H106.569C106.638 27.5024 107.193 27.0017 108.163 27.0017C109.18 27.0017 109.75 27.5409 109.75 28.5269V29.3204H107.662C105.798 29.3281 104.805 30.2371 104.805 31.6698C104.805 33.172 105.883 34.1349 107.454 34.1349C108.656 34.1349 109.38 33.6342 109.758 33.0025ZM107.909 32.9101C107.116 32.9101 106.376 32.4864 106.376 31.5928C106.376 30.8918 106.838 30.3988 107.878 30.3988H109.75V31.3155C109.75 32.2553 108.957 32.9101 107.909 32.9101ZM113.478 34.0039H115.027V29.1201C115.027 28.0339 115.62 27.125 116.899 27.125C117.977 27.125 118.755 27.7566 118.755 29.0816V34.0039H120.303V28.7889C120.303 26.8091 119.094 25.7538 117.43 25.7538C116.097 25.7538 115.35 26.4625 115.065 26.994H115.011V25.8848H113.478V34.0039ZM125.318 25.7615C123.308 25.7615 122.121 27.333 122.121 29.5823V30.2987C122.121 32.5942 123.246 34.1195 125.318 34.1195C126.412 34.1195 127.267 33.6033 127.698 32.7714H127.745V34.0039H129.254V22.9344H127.698V27.0325H127.644C127.252 26.293 126.404 25.7615 125.318 25.7615ZM125.657 27.071C126.928 27.071 127.714 28.0725 127.714 29.6362V30.2602C127.714 31.9009 126.936 32.8099 125.672 32.8099C124.525 32.8099 123.7 31.9626 123.7 30.2525V29.6362C123.7 27.9184 124.525 27.071 125.657 27.071ZM135.525 34.1272C137.451 34.1272 138.714 32.6944 138.714 30.3218V29.5515C138.714 27.1019 137.412 25.7615 135.533 25.7615C134.493 25.7615 133.568 26.293 133.168 27.0171H133.114V22.9344H131.558V34.0039H133.068V32.7714H133.121C133.576 33.6033 134.369 34.1272 135.525 34.1272ZM135.209 32.8176C133.892 32.8176 133.098 31.9163 133.098 30.2371V29.6362C133.098 27.9646 133.899 27.071 135.209 27.071C136.341 27.071 137.135 27.9723 137.135 29.6362V30.2525C137.135 31.9086 136.349 32.8176 135.209 32.8176ZM143.883 25.7461C141.564 25.7461 140.309 27.3946 140.309 29.59V30.2679C140.309 32.5249 141.564 34.1426 143.883 34.1426C146.194 34.1426 147.434 32.5249 147.434 30.2679V29.5823C147.434 27.3869 146.186 25.7461 143.883 25.7461ZM143.875 27.0248C145.192 27.0248 145.87 28.0648 145.87 29.6208V30.2448C145.87 31.7854 145.2 32.8484 143.875 32.8484C142.558 32.8484 141.872 31.7777 141.872 30.2448V29.6208C141.872 28.0725 142.558 27.0248 143.875 27.0248ZM153.966 34.0039H155.769L153.026 29.9366L155.738 25.8848H153.982L152.117 28.8582H152.102L150.238 25.8848H148.397L151.078 29.9366L148.358 34.0039H150.084L152.002 31.0382H152.025L153.966 34.0039Z" fill="white"/>
<path fill-rule="evenodd" clip-rule="evenodd" d="M23.2326 67.2863C22.6724 70.7026 19.7064 73.3091 16.1316 73.3091C12.1572 73.3091 8.93534 70.0873 8.93534 66.1129C8.93534 62.1385 12.1572 58.9167 16.1316 58.9167C19.2661 58.9167 21.9325 60.9207 22.9195 63.7174L19.6521 63.7174V64.9393L23.1705 64.9393V64.9395H24.3923V59.072H23.1705V61.876C21.7326 59.4924 19.1182 57.8984 16.1316 57.8984C11.5949 57.8984 7.91711 61.5762 7.91711 66.1129C7.91711 70.6496 11.5949 74.3274 16.1316 74.3274C20.2699 74.3274 23.6935 71.2672 24.2629 67.2863H23.2326Z" fill="white"/>
<rect x="43.0692" y="55.4727" width="548.498" height="22.8088" rx="11.4044" fill="#292C2F"/>
</g>
<defs>
<filter id="filter0_d" x="-96.402" y="-8.26801" width="760.072" height="524.072" filterUnits="userSpaceOnUse" color-interpolation-filters="sRGB">
<feFlood flood-opacity="0" result="BackgroundImageFix"/>
<feColorMatrix in="SourceAlpha" type="matrix" values="0 0 0 0 0 0 0 0 0 0 0 0 0 0 0 0 0 0 127 0"/>
<feOffset dx="4.13401" dy="8.26801"/>
<feGaussianBlur stdDeviation="8.26801"/>
<feColorMatrix type="matrix" values="0 0 0 0 0 0 0 0 0 0 0 0 0 0 0 0 0 0 0.8 0"/>
<feBlend mode="normal" in2="BackgroundImageFix" result="effect1_dropShadow"/>
<feBlend mode="normal" in="SourceGraphic" in2="effect1_dropShadow" result="shape"/>
</filter>
<filter id="filter1_i" x="-84.0078" y="0.0820312" width="723.366" height="46.7038" filterUnits="userSpaceOnUse" color-interpolation-filters="sRGB">
<feFlood flood-opacity="0" result="BackgroundImageFix"/>
<feBlend mode="normal" in="SourceGraphic" in2="BackgroundImageFix" result="shape"/>
<feColorMatrix in="SourceAlpha" type="matrix" values="0 0 0 0 0 0 0 0 0 0 0 0 0 0 0 0 0 0 127 0" result="hardAlpha"/>
<feOffset dy="0.516751"/>
<feComposite in2="hardAlpha" operator="arithmetic" k2="-1" k3="1"/>
<feColorMatrix type="matrix" values="0 0 0 0 1 0 0 0 0 1 0 0 0 0 1 0 0 0 0.1 0"/>
<feBlend mode="normal" in2="shape" result="effect1_innerShadow"/>
</filter>
<filter id="filter2_dd" x="257.477" y="117.758" width="59.3858" height="413.118" filterUnits="userSpaceOnUse" color-interpolation-filters="sRGB">
<feFlood flood-opacity="0" result="BackgroundImageFix"/>
<feColorMatrix in="SourceAlpha" type="matrix" values="0 0 0 0 0 0 0 0 0 0 0 0 0 0 0 0 0 0 127 0"/>
<feOffset dx="0.860664"/>
<feColorMatrix type="matrix" values="0 0 0 0 0.141176 0 0 0 0 0.141176 0 0 0 0 0.141176 0 0 0 1 0"/>
<feBlend mode="normal" in2="BackgroundImageFix" result="effect1_dropShadow"/>
<feColorMatrix in="SourceAlpha" type="matrix" values="0 0 0 0 0 0 0 0 0 0 0 0 0 0 0 0 0 0 127 0"/>
<feOffset dx="-0.860664"/>
<feColorMatrix type="matrix" values="0 0 0 0 0.0156863 0 0 0 0 0.0156863 0 0 0 0 0.0156863 0 0 0 1 0"/>
<feBlend mode="normal" in2="effect1_dropShadow" result="effect2_dropShadow"/>
<feBlend mode="normal" in="SourceGraphic" in2="effect2_dropShadow" result="shape"/>
</filter>
<filter id="filter3_d" x="-83.3723" y="90.1484" width="400.784" height="28.0142" filterUnits="userSpaceOnUse" color-interpolation-filters="sRGB">
<feFlood flood-opacity="0" result="BackgroundImageFix"/>
<feColorMatrix in="SourceAlpha" type="matrix" values="0 0 0 0 0 0 0 0 0 0 0 0 0 0 0 0 0 0 127 0"/>
<feOffset dy="0.860664"/>
<feColorMatrix type="matrix" values="0 0 0 0 0.141176 0 0 0 0 0.141176 0 0 0 0 0.141176 0 0 0 1 0"/>
<feBlend mode="normal" in2="BackgroundImageFix" result="effect1_dropShadow"/>
<feBlend mode="normal" in="SourceGraphic" in2="effect1_dropShadow" result="shape"/>
</filter>
<linearGradient id="paint0_linear" x1="400.664" y1="393.371" x2="504.39" y2="-23.1616" gradientUnits="userSpaceOnUse">
<stop stop-color="#9734F2"/>
<stop offset="0.520833" stop-color="#BE36E8"/>
</linearGradient>
<linearGradient id="paint1_linear" x1="479.015" y1="87" x2="479.015" y2="526.478" gradientUnits="userSpaceOnUse">
<stop stop-color="#0971F1"/>
<stop offset="1" stop-color="#64D2FF"/>
</linearGradient>
</defs>
</svg>
