<svg xmlns="http://www.w3.org/2000/svg" viewBox="0 0 16 16"><style>.icon-canvas-transparent{opacity:0;fill:#2d2d30}.icon-vs-out{fill:#2d2d30}.icon-vs-fg{fill:#2b282e}.icon-vs-action-blue{fill:#75beff}</style><path id="canvas" d="M16 16H0V0h16v16z" class="icon-canvas-transparent"/><path id="outline" d="M16 16H0V0h16v16z" class="icon-vs-out" display="none"/><path id="iconBg" d="M1 1v14h14V1H1zm6 12H3v-1h4v1zm0-3H3V9h4v1zm0-5H5v2H4V5H2V4h2V2h1v2h2v1zm3.281 8H8.719l3-4h1.563l-3.001 4zM14 5H9V4h5v1z" class="icon-vs-action-blue"/><path id="iconFg" d="M7 5H5v2H4V5H2V4h2V2h1v2h2v1zm7-1H9v1h5V4zM7 9H3v1h4V9zm0 3H3v1h4v-1zm3.281 1l3-4h-1.563l-3 4h1.563z" class="icon-vs-fg" display="none"/></svg>