<svg xmlns="http://www.w3.org/2000/svg" xmlns:svg="http://www.w3.org/2000/svg" id="svg4694" version="1.1" viewBox="0 0 16 16"><metadata id="metadata4705"/><style id="style4696">.icon-canvas-transparent{opacity:0;fill:#f6f6f6}</style><g id="g4707" transform="matrix(1.3333333,0,0,1.3333333,-245.99999,-5.333333)"><path id="path4534" fill="#f6f6f6" d="m 185,4 11,0 0,12 -11,0 z"/><path id="path4536" fill="#424242" d="m 194,13 0,-7 -7,0 0,7 -1,0 0,-8 9,0 0,8 -1,0 z m -7,2 -1,0 0,-1 1,0 0,1 z m 2,-1 -1,0 0,1 1,0 0,-1 z m 2,0 -1,0 0,1 1,0 0,-1 z m 2,1 -1,0 0,-1 1,0 0,1 z m 2,-1 -1,0 0,1 1,0 0,-1 z"/><path id="path4538" fill="#f0eff1" d="m 187,13 0,-7 7,0 0,7 -7,0 z"/></g><path id="canvas" d="M16 16H0V0h16v16z" class="icon-canvas-transparent"/></svg>