<svg fill="none" height="76" viewBox="0 0 321 76" width="321" xmlns="http://www.w3.org/2000/svg"><g fill="#fff"><path d="m255.732 48.1748c.008 2.2023.013 4.2558-.005 6.2899-.604.2341-1.099.1195-1.658.1292-.134-.3829-.246-.7463-.385-1.0999-.286-.7219-.539-1.4633-.891-2.1535-.556-1.0878-1.446-1.7073-2.716-1.6926-.932.0097-1.864.0024-2.842.0024-.066.2683-.141.4805-.168.7-.027.2317-.01.4682-.01.6999 0 6.0826-.005 12.1628.008 18.2454 0 .6585.058 1.3218.146 1.9755.132.9804.688 1.6291 1.651 1.912.185.0537.368.122.544.2025.212.0951.273.2951.202.4853-.044.122-.183.261-.305.2902-.221.0561-.463.0464-.697.0464-2.183.0024-4.366.0024-6.551 0-.232 0-.476.0073-.695-.0537-.117-.0317-.256-.1902-.28-.3122-.025-.1268.034-.3365.129-.4072.183-.1317.417-.1976.636-.2708.944-.3122 1.498-.9511 1.617-1.9438.064-.5414.152-1.0828.154-1.6243.012-6.2777.01-12.5529.005-18.8306 0-.3073-.039-.6122-.059-.8707-.107-.0927-.166-.1829-.224-.1829-1.127-.0098-2.256-.0561-3.378.0024-.783.0415-1.405.5049-1.8 1.1658-.375.6317-.673 1.3121-.953 1.9926-.22.5341-.364 1.0975-.554 1.6877-.532 0-1.027 0-1.554 0-.278-.6902-.117-1.3975-.144-2.0853-.026-.6999-.009-1.4023-.004-2.1047.004-.6951.022-1.3877.034-2.0755.468-.2585.905-.1756 1.322-.178 4.053-.0074 8.109-.0049 12.162-.0049 1.988 0 3.976-.0025 5.966.0024.385.0025.766.0342 1.297.061z"/><path d="m135.934 48.6755c.152.9975.159 3.9242.015 4.9778-.49.3024-1.024.1829-1.585.1098-.105-.2147-.21-.4195-.303-.6293-.173-.3926-.309-.8024-.509-1.1804-.991-1.8877-2.432-2.7779-4.922-2.6169-1.688.1097-3.029.9316-4.071 2.2535-1.087 1.3804-1.68 2.9877-2.029 4.6802-.509 2.4609-.597 4.9461-.353 7.4508.144 1.4805.324 2.9487.817 4.3559.256.7317.561 1.4609.951 2.1291 1.317 2.2585 3.424 3.0657 5.985 2.6584 1.629-.2609 2.788-1.1462 3.495-2.6218.302-.6292.57-1.2755.844-1.8877.826-.1951.826-.1951 1.624-.0244.2.7927.239 3.7754.054 5.1851-.332.0927-.695.2146-1.066.2951-2.295.4927-4.619.7171-6.966.6854-.98-.0122-1.939-.1732-2.88-.4342-2.051-.5682-3.61-1.7877-4.724-3.5876-.876-1.4145-1.373-2.9754-1.639-4.5997-.449-2.7487-.498-5.5143-.037-8.2703.298-1.7828.854-3.4827 1.825-5.0241 1.804-2.8681 4.392-4.468 7.782-4.7095 2.307-.1634 4.597-.0098 6.853.5244.291.0683.576.1902.839.2804z"/><path d="m317.736 66.7136h1.539c.061.1439.149.2488.147.3512-.086 2.295-.183 4.59-.281 6.946-.3.0732-.549.1756-.802.1878-.622.0268-1.247.0097-1.871.0097-4.405 0-8.812.0025-13.216-.0024-.349 0-.703-.0073-1.046-.0634-.11-.0171-.247-.1976-.266-.3195-.022-.1268.039-.3317.139-.4049.18-.1365.412-.2097.629-.2926.812-.3146 1.227-.9292 1.322-1.7731.044-.3853.058-.778.058-1.1682.005-6.0436.005-12.0847 0-18.1283 0-.3512-.012-.7024-.051-1.0511-.097-.878-.488-1.5536-1.368-1.8609-.146-.0512-.293-.1098-.434-.1732-.386-.1683-.364-.4463-.169-.8341 2.532-.0439 5.093-.0512 7.693.0049v.6805c-.286.1219-.564.2487-.849.3609-.729.2854-1.112.839-1.202 1.5902-.078.656-.149 1.3194-.149 1.9803-.012 6.1997-.01 12.3969-.005 18.5966 0 .4194-.076.8633.285 1.3072 2.01.0171 4.066.139 6.127-.0854 1.253-.1365 2.102-.8048 2.566-1.9315.339-.8244.582-1.6902.848-2.5438.134-.4414.23-.8927.356-1.3829z"/><path d="m214.498 74.1189c-.183-.4268-.107-.6609.188-.8024.173-.0853.361-.1414.544-.2121.812-.3195 1.22-.9366 1.28-1.7902.047-.6609.115-1.3219.115-1.9828.01-5.4973.01-10.9945 0-16.4893 0-.622-.063-1.2439-.112-1.8658-.071-.9024-.51-1.5365-1.378-1.8438-.146-.0512-.29-.1097-.437-.1658-.334-.1268-.346-.3756-.246-.7073.073-.0341.168-.1097.268-.1195 1.325-.1073 6.7-.0415 7.468.0829.151.3268.154.6366-.249.7439-1.434.3829-1.829 1.4316-1.821 2.7584.002.7024-.017 1.4023-.017 2.1047-.003 5.068-.003 10.136.002 15.204 0 .7024.01 1.4048.051 2.1048.061.9804.505 1.7023 1.476 2.0365.18.0634.38.1292.514.2561.093.0853.147.2877.117.4146-.026.1219-.165.2536-.29.3097-.134.061-.305.0512-.458.0512-2.144.0025-4.288.0025-6.432-.0024-.195-.0049-.383-.0561-.583-.0854z"/><path d="m154.597 65.4874c-.422.5561-.544 1.1365-.725 1.6853-.29.8877-.548 1.7877-.8 2.6852-.073.261-.095.5366-.112.8097-.078 1.2634.412 2.2389 1.705 2.5682.112.0292.217.0853.327.1268.202.078.317.217.3.4414-.017.2293-.161.3439-.373.3707-.154.0196-.31.0269-.466.0293-2.107.0024-4.215.0024-6.322 0-.192 0-.402.0073-.575-.0585-.12-.0464-.254-.2025-.274-.3268-.019-.122.096-.2683.159-.4.015-.0293.061-.0512.095-.0659 1.22-.478 1.873-1.4926 2.405-2.5949.371-.7707.693-1.5707.997-2.3706 2.43-6.3753 4.849-12.753 7.273-19.1307.166-.4341.349-.8633.534-1.3243.978-.1975 1.934-.1658 2.954-.0244.131.3707.273.7268.388 1.0926 2.031 6.5924 4.058 13.1871 6.092 19.7794.229.7439.478 1.4853.751 2.2145.381 1.0171.934 1.8902 2.034 2.2731.107.0366.217.1122.283.2.063.0853.12.2292.093.3195-.044.1317-.142.2975-.259.3463-.171.0707-.38.0658-.573.0683-2.341.0024-4.683.0024-7.024 0-.156 0-.312-.0073-.466-.0269-.214-.0268-.356-.1439-.371-.3731-.014-.222.088-.3756.291-.4488.256-.0951.519-.1682.773-.2634.824-.3097 1.249-.9194 1.253-1.7877.003-.4634-.017-.9438-.129-1.3901-.317-1.2853-.69-2.5584-1.029-3.8388-.12-.4512-.395-.6464-.846-.6366-.234.0049-.469-.0073-.703-.0073-2.146 0-4.292-.0024-6.438.0024-.425.0025-.849.0391-1.222.0561zm4.799-13.7748c-.122.2463-.263.4707-.351.7146-.363.9853-.707 1.9755-1.061 2.9632-.878 2.4511-1.763 4.8997-2.621 7.3606-.118.3365-.42.6853-.154 1.0975.117.0317.229.0854.341.0854 2.334.0073 4.668.0122 7.002.0048.176 0 .352-.0951.569-.1585-.035-.2512-.035-.4463-.088-.6219-1.132-3.7559-2.271-7.5093-3.412-11.2628-.022-.061-.117-.0976-.225-.1829z"/><path d="m277.636 47.9124c.3-.0366.566-.0927.834-.0951.659-.0049 1.32.0122 1.893.0219.478.3439.495.8073.619 1.2024 1.349 4.351 2.678 8.7093 4.02 13.0651.765 2.4926 1.536 4.9875 2.314 7.4776.173.5561.368 1.1097.588 1.6512.363.8926.888 1.6462 1.844 2.0023.107.039.234.0976.29.1853.076.122.144.2927.117.4195-.027.122-.161.2683-.283.3122-.175.0634-.383.0537-.575.0537-2.3.0024-4.6.0024-6.9 0-.193 0-.4 0-.573-.0683-.117-.0464-.242-.2098-.256-.3317-.012-.1244.073-.3171.178-.3854.192-.1219.429-.1731.646-.2536 1.105-.4146 1.539-1.0487 1.473-2.2316-.027-.4658-.085-.9365-.205-1.3853-.317-1.2048-.67-2.3998-1.019-3.5949-.042-.1439-.149-.2683-.239-.4195-.195-.0341-.383-.0926-.573-.0926-2.651-.0049-5.302-.0001-7.954.0073-.148 0-.297.0658-.421.0951-.588 1.0609-1.454 3.6656-1.559 4.6607-.012.1171-.019.2341-.024.3488-.076 1.6023.297 2.1633 1.797 2.7193.146.0537.288.122.425.1805.136.5829.085.7-.342.7365-.232.0196-.468.0147-.7.0147-1.91 0-3.819.0024-5.731 0-.273 0-.549.0049-.815-.0464-.124-.0243-.268-.1609-.319-.2804-.078-.1903-.008-.3805.19-.4927.068-.039.132-.0878.202-.1171.847-.3341 1.415-.9779 1.82-1.7462.47-.8926.907-1.8121 1.268-2.7535 2.495-6.5094 4.966-13.0285 7.446-19.5453.161-.4365.341-.8658.524-1.3145zm4.283 15.9186c.039-.1536.088-.2341.071-.2975-1.12-3.8023-2.242-7.6045-3.371-11.4018-.041-.1415-.139-.2683-.258-.4878-.159.2561-.313.4317-.386.6365-1.3 3.6218-2.592 7.246-3.878 10.875-.07.2-.056.4293-.078.6366.947.2122 4.532.2902 7.166.1658.258-.0146.512-.0878.734-.1268z"/><path clip-rule="evenodd" d="m183.508 48.1404c-.13.0078-.266.0159-.41.0227v.0219c.022.6586.022.6646.261.7756.175.0805.358.1488.541.2171.724.2707 1.144.7926 1.244 1.5535.007.056.015.112.022.1681.069.5228.139 1.049.139 1.5733.012 5.768.012 11.5384 0 17.3063 0 .4497-.054.8979-.108 1.3457-.015.1328-.031.2655-.046.3981-.083.7707-.514 1.2829-1.219 1.578-.057.0239-.115.047-.172.07-.195.0781-.391.1566-.562.2714-.095.0635-.156.2781-.13.4025.025.1219.166.278.286.3097.204.0544.429.054.645.0537h.05c2.105.0024 4.209.0024 6.314 0 .195 0 .39-.0074.583-.0293.212-.0244.358-.1341.376-.3683.017-.2219-.081-.378-.281-.456-.121-.0478-.245-.0879-.369-.128-.097-.0317-.195-.0634-.292-.0989-.746-.278-1.251-.7829-1.412-1.5779-.005-.0245-.01-.0489-.015-.0734-.088-.4326-.178-.8732-.183-1.3095-.024-2.1438-.019-4.2875-.012-6.4313 0-.1468.036-.2935.078-.4622.02-.0836.042-.1725.061-.2695.12 0 .235-.0003.346-.0006.214-.0005.415-.001.615.0006.29.0016.58.0057.869.0098.608.0086 1.215.0173 1.821.0024 1.369-.0341 2.715-.2293 4.015-.6756 2.3-.7902 3.812-2.3584 4.526-4.6802.42-1.3658.461-2.7755.254-4.1705-.339-2.2706-1.615-3.8339-3.78-4.6461-.226-.0845-.457-.1555-.688-.2267-.029-.009-.059-.0179-.088-.0269-1.241-.3805-2.519-.4829-3.809-.4805-1.671.0028-3.342.0024-5.012.002-1.253-.0003-2.505-.0006-3.759.0005-.227 0-.453.0136-.699.0285zm5.289 1.9274c.011-.0838.022-.1717.032-.2658 1.59-.2658 4.053-.1976 5.217.0829 1.802.4366 2.917 1.5877 3.412 3.3267.103.3609.18.7236.232 1.0873.169 1.1763.075 2.3609-.251 3.5298-.535 1.9194-1.874 2.9852-3.773 3.4023-1.498.3268-3.012.2975-4.532.217-.044-.0031-.088-.0274-.152-.063-.036-.0199-.078-.0434-.131-.0687-.008-.0514-.02-.1075-.032-.1669-.022-.1091-.047-.2292-.057-.3516-.002-.0328-.004-.0658-.004-.0988-.007-3.3877-.007-6.7728-.002-10.1604 0-.1514.019-.3028.041-.4708z" fill-rule="evenodd"/></g><path d="m114.889 36.0664h205.924v3.42315h-205.924z" fill="#cbb468"/><path d="m252.097 28.5214c-.012.2572-.022.4483-.031.6296-.936.1764-7.428.1984-8.577.0343-.047-.0588-.12-.1152-.13-.1789-.02-.1469-.007-.2964-.007-.4679.326-.1298.607-.2547.899-.3552.82-.2841 1.296-.8476 1.408-1.7099.059-.4655.15-.9334.152-1.4013.017-2.7829.017-5.5634.015-8.3463 0-.2278-.056-.4556-.086-.681-.419-.294-.862-.2009-1.279-.2034-2.9-.0073-5.798-.0049-8.699-.0024-.622 0-1.244.0196-1.918.0294-.068.316-.171.5732-.169.8305.012 3.0548.037 6.1121.064 9.1669.002.2328.027.4704.073.7007.14.6957.515 1.2224 1.179 1.5115.323.1396.659.2523 1.051.3993.024.1837.051.4018.076.5928-.113.0784-.169.147-.236.1568-.193.0319-.389.0539-.583.0539-2.351.0049-4.703.0049-7.052 0-.267 0-.535-.0514-.846-.0833-.024-.2229-.044-.4066-.071-.6467.378-.1494.735-.2891 1.09-.4336.711-.2891 1.152-.8011 1.25-1.5728.071-.5438.164-1.0877.164-1.634.012-6.1121.01-12.2267.002-18.33886 0-.4679-.076-.9358-.125-1.40125-.1-.95296-.587-1.5948-1.516-1.88632-.223-.07104-.473-.12249-.647-.26213-.125-.09799-.193-.33071-.188-.49974.002-.10044.181-.24254.308-.28418.182-.0588.387-.05389.581-.05389 2.352-.00245 4.704-.00245 7.053.00245.23 0 .46.04655.757.0784.012.24742.022.46055.034.70062-.328.12739-.615.24252-.904.34541-.872.31112-1.315.95787-1.411 1.84713-.066.62224-.108 1.25182-.113 1.87651-.014 2.0382-.012 4.07645-.005 6.11215 0 .3454-.039.7104.196 1.0118.909.1494 10.637.1641 11.791.0122.054-.1911.167-.4067.169-.6222.008-2.4694.005-4.93631-.017-7.40567-.002-.42625-.091-.85741-.164-1.28121-.125-.71043-.534-1.20774-1.198-1.48456-.252-.10534-.517-.17884-.772-.28418-.372-.15433-.416-.4238-.22-.80842.198-.03184.424-.09063.651-.10043 2.244-.10044 6.955-.03185 7.945.12004.012.19353.025.40421.039.64183-.362.14209-.683.27192-1.009.39441-.782.28907-1.193.87701-1.294 1.67074-.085.69818-.144 1.40616-.147 2.10924-.012 5.75941-.009 11.52121-.002 17.28061 0 .5855.064 1.1734.103 1.7589.071 1.0485.568 1.7663 1.602 2.0725.228.076.441.1691.764.2891z" fill="#fff"/><path d="m273.675 16.0255c-.052.3552-.101.5438-.101.7325.003 3.4884.008 6.9744.02 10.4629 0 .1078.071.2156.132.3822.211.0318.434.093.657.093 2.156.0049 4.311-.0171 6.465.0049 1.634.0172 2.773-.7079 3.437-2.1802.242-.5341.436-1.0902.642-1.6389.164-.4361.316-.8795.477-1.3376.306-.0269.576-.0661.848-.0686.309-.0024.617.0294.99.049.242.7594-.022 1.487-.035 2.2121-.012.7056-.039 1.4111-.083 2.1142-.047.7398-.122 1.4796-.191 2.2758-.299.0564-.556.1372-.816.1445-.666.0196-1.333.0098-1.999.0098-5.135 0-10.267.0025-15.401-.0024-.461 0-.934.0637-1.409-.1299 0-.2082 0-.3968 0-.632.365-.1421.725-.2768 1.08-.4238.713-.2964 1.13-.8452 1.218-1.6021.086-.7374.154-1.4846.157-2.2269.012-5.6834.009-11.3644.002-17.04784 0-.62469-.073-1.25183-.11-1.87652-.064-1.05095-.569-1.76628-1.595-2.0823-.223-.06859-.436-.16168-.72-.26947-.013-.20333-.027-.42381-.047-.72268.387-.03185.73-.08573 1.073-.08573 5.88-.0049 11.757-.0049 17.636 0 .341 0 .681.06123 1.083.10043.12 1.00195.061 1.93776.061 2.86867s.054 1.86427-.051 2.81723c-.654.11758-1.23.09064-1.845.0343-.145-.33807-.265-.6639-.417-.97502-.293-.59774-.563-1.21017-.916-1.77117-.578-.92111-1.428-1.43065-2.538-1.45025-.94-.0147-1.881-.03675-2.819-.0441-1.215-.00735-2.431-.00736-3.646.00244-.387.00245-.786-.06614-1.224.15679-.037.21558-.121.47771-.123.73983-.01 2.97891-.007 5.95779 0 8.93429 0 .1911.054.3821.086.5953.154.0612.296.169.438.169 1.566-.0024 3.131-.0147 4.699-.0392 1.122-.0171 1.805-.6369 2.192-1.6462.152-.3969.309-.7913.476-1.2127h1.587c.061.1936.167.3724.167.5488.01 2.1166.005 4.2307 0 6.3473 0 .1127-.052.2254-.098.4116-.238.0367-.495.0931-.755.1102-.269.0196-.544.0049-.882.0049-.112-.2695-.215-.512-.316-.7545-.105-.2523-.188-.5169-.311-.7594-.421-.833-1.068-1.3401-2.036-1.3474-1.215-.0123-2.43-.0245-3.642-.0294-.463.0049-.929.022-1.497.0343z" fill="#fff"/><path d="m302.121 28.4949c0-1.7246 0-3.4002 0-5.1175.635-.2401 1.24-.1446 1.879-.0882.177.4605.343.8942.51 1.3302.796 2.0848 2.32 3.192 4.537 3.3121.818.0441 1.646.0588 2.459-.027 2.102-.2229 3.54-1.5629 3.881-3.6452.35-2.1239-.172-3.976-1.972-5.3111-.596-.4434-1.225-.8476-1.874-1.2028-.892-.4875-1.828-.8942-2.727-1.367-1.004-.5267-2.014-1.0509-2.971-1.656-.623-.392-1.198-.8868-1.725-1.4037-2.918-2.854-2.009-7.60653.835-9.59328 1.279-.89417 2.7-1.41351 4.221-1.66584 3.026-.5022 6.005-.10534 8.966.5316.15.03184.284.12494.417.18618.161.89416.181 3.90246.029 5.0612-.59.25722-1.193.20822-1.837.02939-.145-.36501-.287-.72758-.436-1.08769-.27-.65409-.603-1.27388-1.081-1.80547-.48-.53405-1.036-.95785-1.729-1.16853-1.536-.46545-3.077-.51935-4.615-.00735-2.472.82066-3.058 3.04995-2.83 4.70108.174 1.26408.733 2.31011 1.72 3.10631.514.4164 1.063.806 1.639 1.1318.815.463 1.663.8721 2.511 1.2763 1.308.6247 2.599 1.2788 3.799 2.0945.882.5978 1.666 1.3009 2.293 2.1681.706.9774 1.139 2.0578 1.142 3.2704.002.7815.019 1.5777-.123 2.3395-.443 2.3812-1.839 4.0225-4.103 4.8849-.728.2768-1.489.512-2.256.6124-1.433.1862-2.871.3087-4.331.1813-1.835-.1593-3.653-.4042-5.449-.8109-.257-.0539-.504-.1641-.779-.2597z" fill="#fff"/><path d="m210.591 23.0422h1.686c.357.9358.159 1.8789.179 2.8001.017.8941.1 1.7981-.098 2.7314-.899.4018-1.874.5194-2.83.6345-1.553.1887-3.116.3087-4.679.4091-1.411.0882-2.815-.0318-4.201-.3429-2.955-.6639-5.047-2.3934-6.335-5.1151-.782-1.6487-1.176-3.4027-1.348-5.2033-.169-1.7565-.196-3.5203-.027-5.2817.206-2.1288.733-4.16703 1.784-6.04109 1.83-3.26798 4.635-5.09795 8.336-5.6173 2.957-.41401 5.855-.0245 8.741.56589.184.03675.355.14699.512.21313.221 1.05585.211 4.19888-.02 5.21308-.541.17148-1.112.13475-1.739.02451-.14-.30867-.264-.6345-.426-.94072-.314-.58549-.595-1.19793-.985-1.72707-.752-1.024-1.798-1.57275-3.055-1.79568-3.182-.56345-5.747.99215-7.141 3.39781-.754 1.30328-1.284 2.69719-1.529 4.16954-.619 3.7089-.592 7.408.37 11.068.289 1.1048.728 2.1508 1.37 3.1014.816 1.2101 1.881 2.1092 3.314 2.4693 1.514.3822 3.036.3283 4.513-.1813.953-.3282 1.715-.9578 2.232-1.825.379-.637.676-1.3204 1.009-1.9843.117-.2426.237-.4826.367-.7423z" fill="#fff"/><path clip-rule="evenodd" d="m172.948 27.0073c.451.7766.904 1.5556 1.517 2.1876 1.408.1666 4.934.1274 5.759-.0612.074-.5831.078-.6443-.274-.7251-1.321-.2989-2.178-1.1808-2.896-2.244-.328-.4851-.639-.9848-.943-1.487-.192-.3185-.38-.64-.567-.9615-.188-.3216-.375-.6431-.567-.9616-.102-.1693-.204-.3387-.306-.5081-.505-.8377-1.008-1.6745-1.534-2.4977-.708-1.1098-1.622-2.0088-2.82-2.5919-.018-.0086-.036-.0169-.055-.0253-.156-.0703-.325-.146-.327-.4524.194-.1515.443-.246.698-.3429.096-.0362.192-.0727.287-.1127 1.271-.5414 2.455-1.22 3.42-2.2293 1.004-1.0534 1.653-2.293 1.8-3.7408.084-.81332.089-1.65115-.002-2.46202-.201-1.77118-1.041-3.19939-2.607-4.10335-.668-.38706-1.406-.68347-2.146-.92355-1.619-.52425-3.309-.57814-4.995-.58304-3.055-.0098-6.112-.0049-9.167 0-.364.00228-.726.03204-1.088.0618-.028.00226-.055.00453-.083.00678-.042.00316-.082.03478-.134.07653-.029.02306-.062.04921-.101.07536.014.12529.031.26084.046.39137.009.0711.017.14072.025.20637.086.03312.165.06491.24.09505.175.07017.327.13134.483.17932.975.30377 1.482.97256 1.563 1.97696.011.13866.024.27732.037.41597.041.44684.083.89368.083 1.34052.01 5.79613.01 11.59473 0 17.39333-.002.5866-.06 1.1752-.117 1.7606-.008.0771-.015.1541-.023.231-.083.8599-.541 1.4478-1.355 1.7516-.213.0791-.425.1603-.635.2409-.109.0417-.217.0832-.325.1241v.6884c.104.0099.206.0217.305.0332.22.0256.43.0501.641.0501.824-.0024 1.648.001 2.473.0044 1.755.0073 3.511.0145 5.263-.0338.016-.0648.031-.1202.045-.1694.028-.0979.048-.1713.048-.2446 0-.0766-.022-.1532-.047-.2364-.01-.0365-.021-.0743-.031-.1139-.102-.0389-.203-.0783-.304-.1174-.191-.0746-.38-.1484-.571-.2158-.818-.2915-1.281-.8697-1.389-1.7271-.01-.0806-.021-.1614-.031-.2422-.051-.3854-.102-.7722-.106-1.1591-.022-2.2317-.027-4.4659-.022-6.6976 0-.1717.041-.3444.086-.5366.023-.0986.048-.2022.068-.3135 1.22-.0245 2.391-.0343 3.562.0221.116.0055.231.036.346.0665.037.0099.075.0199.112.029.801.1936 1.419.6737 1.874 1.3327.537.7692 1.039 1.5654 1.512 2.3763.56.9624 1.112 1.9299 1.665 2.8977.534.9363 1.068 1.8729 1.61 2.8053zm-10.539-11.2037c-.049-.0193-.111-.0436-.193-.0725-.013-.105-.028-.2074-.042-.3081-.031-.2119-.061-.4162-.066-.6204-.131-4.84037-.07-9.51476.144-10.76134.007-.03957.013-.07572.02-.10833.059-.01066.121-.02509.184-.04001.141-.03309.292-.06853.444-.07022.251-.00196.502-.0047.752-.00745 1.004-.01097 2.007-.02195 3.008.01725.617.02449 1.249.13718 1.842.31846 1.833.56345 3.026 1.77853 3.415 3.67464.17.82437.228 1.65743.157 2.4876-.035.4165-.102.8323-.204 1.2459-.565 2.3052-2.094 3.633-4.365 4.0764-1.617.3136-3.273.3087-4.919.2205-.048-.0015-.094-.0196-.177-.0524z" fill="#fff" fill-rule="evenodd"/><path clip-rule="evenodd" d="m132.128 1.875h-3.224c-.067.16021-.132.31452-.196.46488-.145.34394-.282.66715-.411.99273-.81 1.99889-1.619 3.9982-2.427 5.9975-1.951 4.82469-3.903 9.64929-5.868 14.46779-.385.9383-.863 1.8447-1.36 2.729-.47.8354-1.142 1.4919-2.068 1.8349-.021.0078-.045.0141-.069.0205-.06.0158-.12.0318-.141.0702-.009.0169-.019.0341-.028.0514-.08.1453-.166.3022-.163.4532.002.1004.186.2401.313.2793.155.0455.324.0438.491.0422.031-.0003.062-.0006.092-.0006 2.35.0025 4.701.0049 7.053-.0024.207 0 .413-.0234.634-.0484.106-.0121.216-.0245.331-.0349-.004-.0576-.008-.1125-.011-.1651-.014-.2001-.026-.3656-.038-.5111-.141-.0462-.276-.0878-.405-.1278-.281-.087-.536-.1658-.783-.2666-.843-.3429-1.335-.9725-1.33-1.8912.002-.6222.024-1.2665.191-1.8569.254-.8979.573-1.7787.892-2.6586.081-.2243.162-.4486.242-.6731.064-.175.157-.3393.245-.4927.037-.0656.073-.1292.106-.1908 1.435-.1494 9.174-.1127 10.105.0588.076.2335.154.4675.232.7021.442 1.3289.891 2.6801 1.15 4.0897.049.2694.085.5438.09.8157.017 1.1465-.397 1.7418-1.465 2.1362-.229.0844-.46.1628-.697.2435-.135.0458-.272.0923-.413.1411.005.051.009.0995.013.1468.014.1733.026.3295.044.522.133.0077.262.0178.389.0277.235.0184.46.036.686.036 2.428.0049 4.858.0049 7.288 0 .311-.0024.623-.0343.934-.0686.04-.0032.077-.0395.128-.0892.026-.0256.056-.0547.092-.0847-.004-.0639-.008-.1341-.013-.2075-.005-.0982-.012-.2022-.019-.3045-.051-.0261-.096-.0513-.138-.0745-.077-.0423-.142-.0782-.21-.1019-1.033-.3577-1.7-1.095-2.109-2.0774-.301-.7227-.58-1.4551-.825-2.1974-1.517-4.6114-3.03-9.2228-4.543-13.8343-.756-2.30667-1.513-4.61338-2.27-6.92009-.101-.3078-.213-.61256-.328-.92278-.063-.17123-.126-.34413-.189-.52013zm-2.469 4.07858.164-.00463c.23.70816.459 1.41662.687 2.12541.791 2.45584 1.57 4.91544 2.336 7.37934.276.8846.55 1.7699.823 2.6559.028.0901.011.1933-.008.3068-.009.0562-.019.1149-.024.1758-.088.0133-.171.0289-.253.0441-.158.0294-.307.0572-.457.0637-2.328.0955-7.048.0318-7.967-.1029-.001-.0006-.001-.0011-.001-.0017-.001 0-.001-.0001-.001-.0002-.201-.2569-.099-.5032.001-.7434.017-.0414.034-.0827.05-.1238.857-2.266 1.717-4.5296 2.58-6.7956.067-.1766.134-.3533.201-.53.489-1.28382.979-2.56889 1.472-3.85017.055-.14127.128-.27677.201-.41204.033-.06177.066-.1235.098-.1857.033 0 .066-.00035.098-.00091z" fill="#fff" fill-rule="evenodd"/><path clip-rule="evenodd" d="m9.03479 13.1254c-3.94536 5.5363-5.71939 12.2956-5.71939 17.0537v44.9289h-3.209199v-44.9289c0-5.4044 1.970049-12.819 6.315129-18.9161 4.38287-6.15016 11.25107-11.036438 20.96307-11.036438 9.2435 0 15.7726 5.133048 19.921 11.343838 4.1193 6.1674 6.0201 13.5641 6.0201 18.6087v44.9289h-3.2092v-44.9289c0-4.4047-1.7096-11.1819-5.4796-16.8262-3.7409-5.60086-9.38-9.91713-17.2523-9.91713-8.4734 0-14.442 4.20646-18.34961 9.68963z" fill="#cbb468" fill-rule="evenodd"/><path clip-rule="evenodd" d="m33.6385 13.1254c-3.9453 5.5363-5.7193 12.2956-5.7193 17.0537v44.9289h-3.2092v-44.9289c0-5.4044 1.97-12.819 6.3151-18.9161 4.3828-6.15016 11.251-11.036438 20.9631-11.036438 9.2435 0 15.7726 5.133048 19.921 11.343838 4.1193 6.1674 6.02 13.5641 6.02 18.6087v44.9289h-3.2092v-44.9289c0-4.4047-1.7096-11.1819-5.4795-16.8262-3.741-5.60086-9.3801-9.91713-17.2523-9.91713-8.4735 0-14.4421 4.20646-18.3497 9.68963z" fill="#cbb468" fill-rule="evenodd"/><path clip-rule="evenodd" d="m59.3124 13.1254c-3.9454 5.5363-5.7194 12.2956-5.7194 17.0537v44.9289h-3.2092v-44.9289c0-5.4044 1.97-12.819 6.3151-18.9161 4.3829-6.15016 11.2511-11.036438 20.9631-11.036438 9.2435 0 15.7726 5.133048 19.921 11.343838 4.119 6.1674 6.02 13.5641 6.02 18.6087v44.9289h-3.209v-44.9289c0-4.4047-1.7097-11.1819-5.4797-16.8262-3.7409-5.60086-9.3801-9.91713-17.2523-9.91713-8.4734 0-14.442 4.20646-18.3496 9.68963z" fill="#cbb468" fill-rule="evenodd"/></svg>