<svg width="321" height="76" viewBox="0 0 321 76" fill="none" xmlns="http://www.w3.org/2000/svg">
<path d="M255.732 48.1748C255.74 50.3771 255.745 52.4306 255.727 54.4647C255.123 54.6988 254.628 54.5842 254.069 54.5939C253.935 54.211 253.823 53.8476 253.684 53.494C253.398 52.7721 253.145 52.0307 252.793 51.3405C252.237 50.2527 251.347 49.6332 250.077 49.6479C249.145 49.6576 248.213 49.6503 247.235 49.6503C247.169 49.9186 247.094 50.1308 247.067 50.3503C247.04 50.582 247.057 50.8185 247.057 51.0502C247.057 57.1328 247.052 63.213 247.065 69.2956C247.065 69.9541 247.123 70.6174 247.211 71.2711C247.343 72.2515 247.899 72.9002 248.862 73.1831C249.047 73.2368 249.23 73.3051 249.406 73.3856C249.618 73.4807 249.679 73.6807 249.608 73.8709C249.564 73.9929 249.425 74.1319 249.303 74.1611C249.082 74.2172 248.84 74.2075 248.606 74.2075C246.423 74.2099 244.24 74.2099 242.055 74.2075C241.823 74.2075 241.579 74.2148 241.36 74.1538C241.243 74.1221 241.104 73.9636 241.08 73.8416C241.055 73.7148 241.114 73.5051 241.209 73.4344C241.392 73.3027 241.626 73.2368 241.845 73.1636C242.789 72.8514 243.343 72.2125 243.462 71.2198C243.526 70.6784 243.614 70.137 243.616 69.5955C243.628 63.3178 243.626 57.0426 243.621 50.7649C243.621 50.4576 243.582 50.1527 243.562 49.8942C243.455 49.8015 243.396 49.7113 243.338 49.7113C242.211 49.7015 241.082 49.6552 239.96 49.7137C239.177 49.7552 238.555 50.2186 238.16 50.8795C237.785 51.5112 237.487 52.1916 237.207 52.8721C236.987 53.4062 236.843 53.9696 236.653 54.5598C236.121 54.5598 235.626 54.5598 235.099 54.5598C234.821 53.8696 234.982 53.1623 234.955 52.4745C234.929 51.7746 234.946 51.0722 234.951 50.3698C234.955 49.6747 234.973 48.9821 234.985 48.2943C235.453 48.0358 235.89 48.1187 236.307 48.1163C240.36 48.1089 244.416 48.1114 248.469 48.1114C250.457 48.1114 252.445 48.1089 254.435 48.1138C254.82 48.1163 255.201 48.148 255.732 48.1748Z" fill="white"/>
<path d="M135.934 48.6755C136.086 49.673 136.093 52.5997 135.949 53.6533C135.459 53.9557 134.925 53.8362 134.364 53.7631C134.259 53.5484 134.154 53.3436 134.061 53.1338C133.888 52.7412 133.752 52.3314 133.552 51.9534C132.561 50.0657 131.12 49.1755 128.63 49.3365C126.942 49.4462 125.601 50.2681 124.559 51.59C123.472 52.9704 122.879 54.5777 122.53 56.2702C122.021 58.7311 121.933 61.2163 122.177 63.721C122.321 65.2015 122.501 66.6697 122.994 68.0769C123.25 68.8086 123.555 69.5378 123.945 70.206C125.262 72.4645 127.369 73.2717 129.93 72.8644C131.559 72.6035 132.718 71.7182 133.425 70.2426C133.727 69.6134 133.995 68.9671 134.269 68.3549C135.095 68.1598 135.095 68.1598 135.893 68.3305C136.093 69.1232 136.132 72.1059 135.947 73.5156C135.615 73.6083 135.252 73.7302 134.881 73.8107C132.586 74.3034 130.262 74.5278 127.915 74.4961C126.935 74.4839 125.976 74.3229 125.035 74.0619C122.984 73.4937 121.425 72.2742 120.311 70.4743C119.435 69.0598 118.938 67.4989 118.672 65.8746C118.223 63.1259 118.174 60.3603 118.635 57.6043C118.933 55.8215 119.489 54.1216 120.46 52.5802C122.264 49.7121 124.852 48.1122 128.242 47.8707C130.549 47.7073 132.839 47.8609 135.095 48.3951C135.386 48.4634 135.671 48.5853 135.934 48.6755Z" fill="white"/>
<path d="M317.736 66.7136C318.356 66.7136 318.814 66.7136 319.275 66.7136C319.336 66.8575 319.424 66.9624 319.422 67.0648C319.336 69.3598 319.239 71.6548 319.141 74.0108C318.841 74.084 318.592 74.1864 318.339 74.1986C317.717 74.2254 317.092 74.2083 316.468 74.2083C312.063 74.2083 307.656 74.2108 303.252 74.2059C302.903 74.2059 302.549 74.1986 302.206 74.1425C302.096 74.1254 301.959 73.9449 301.94 73.823C301.918 73.6962 301.979 73.4913 302.079 73.4181C302.259 73.2816 302.491 73.2084 302.708 73.1255C303.52 72.8109 303.935 72.1963 304.03 71.3524C304.074 70.9671 304.088 70.5744 304.088 70.1842C304.093 64.1406 304.093 58.0995 304.088 52.0559C304.088 51.7047 304.076 51.3535 304.037 51.0048C303.94 50.1268 303.549 49.4512 302.669 49.1439C302.523 49.0927 302.376 49.0341 302.235 48.9707C301.849 48.8024 301.871 48.5244 302.066 48.1366C304.598 48.0927 307.159 48.0854 309.759 48.1415C309.759 48.4098 309.759 48.5976 309.759 48.822C309.473 48.9439 309.195 49.0707 308.91 49.1829C308.181 49.4683 307.798 50.0219 307.708 50.7731C307.63 51.4291 307.559 52.0925 307.559 52.7534C307.547 58.9531 307.549 65.1503 307.554 71.35C307.554 71.7694 307.478 72.2133 307.839 72.6572C309.849 72.6743 311.905 72.7962 313.966 72.5718C315.219 72.4353 316.068 71.767 316.532 70.6403C316.871 69.8159 317.114 68.9501 317.38 68.0965C317.514 67.6551 317.61 67.2038 317.736 66.7136Z" fill="white"/>
<path d="M214.498 74.1189C214.315 73.6921 214.391 73.458 214.686 73.3165C214.859 73.2312 215.047 73.1751 215.23 73.1044C216.042 72.7849 216.45 72.1678 216.51 71.3142C216.557 70.6533 216.625 69.9923 216.625 69.3314C216.635 63.8341 216.635 58.3369 216.625 52.8421C216.625 52.2201 216.562 51.5982 216.513 50.9763C216.442 50.0739 216.003 49.4398 215.135 49.1325C214.989 49.0813 214.845 49.0228 214.698 48.9667C214.364 48.8399 214.352 48.5911 214.452 48.2594C214.525 48.2253 214.62 48.1497 214.72 48.1399C216.045 48.0326 221.42 48.0984 222.188 48.2228C222.339 48.5496 222.342 48.8594 221.939 48.9667C220.505 49.3496 220.11 50.3983 220.118 51.7251C220.12 52.4275 220.101 53.1274 220.101 53.8298C220.098 58.8978 220.098 63.9658 220.103 69.0338C220.103 69.7362 220.113 70.4386 220.154 71.1386C220.215 72.119 220.659 72.8409 221.63 73.1751C221.81 73.2385 222.01 73.3043 222.144 73.4312C222.237 73.5165 222.291 73.7189 222.261 73.8458C222.235 73.9677 222.096 74.0994 221.971 74.1555C221.837 74.2165 221.666 74.2067 221.513 74.2067C219.369 74.2092 217.225 74.2092 215.081 74.2043C214.886 74.1994 214.698 74.1482 214.498 74.1189Z" fill="white"/>
<path d="M154.597 65.4874C154.175 66.0435 154.053 66.6239 153.872 67.1727C153.582 68.0604 153.324 68.9604 153.072 69.8579C152.999 70.1189 152.977 70.3945 152.96 70.6676C152.882 71.931 153.372 72.9065 154.665 73.2358C154.777 73.265 154.882 73.3211 154.992 73.3626C155.194 73.4406 155.309 73.5796 155.292 73.804C155.275 74.0333 155.131 74.1479 154.919 74.1747C154.765 74.1943 154.609 74.2016 154.453 74.204C152.346 74.2064 150.238 74.2064 148.131 74.204C147.939 74.204 147.729 74.2113 147.556 74.1455C147.436 74.0991 147.302 73.943 147.282 73.8187C147.263 73.6967 147.378 73.5504 147.441 73.4187C147.456 73.3894 147.502 73.3675 147.536 73.3528C148.756 72.8748 149.409 71.8602 149.941 70.7579C150.312 69.9872 150.634 69.1872 150.938 68.3873C153.368 62.012 155.787 55.6343 158.211 49.2566C158.377 48.8225 158.56 48.3933 158.745 47.9323C159.723 47.7348 160.679 47.7665 161.699 47.9079C161.83 48.2786 161.972 48.6347 162.087 49.0005C164.118 55.5929 166.145 62.1876 168.179 68.7799C168.408 69.5238 168.657 70.2652 168.93 70.9944C169.311 72.0115 169.864 72.8846 170.964 73.2675C171.071 73.3041 171.181 73.3797 171.247 73.4675C171.31 73.5528 171.367 73.6967 171.34 73.787C171.296 73.9187 171.198 74.0845 171.081 74.1333C170.91 74.204 170.701 74.1991 170.508 74.2016C168.167 74.204 165.825 74.204 163.484 74.2016C163.328 74.2016 163.172 74.1943 163.018 74.1747C162.804 74.1479 162.662 74.0308 162.647 73.8016C162.633 73.5796 162.735 73.426 162.938 73.3528C163.194 73.2577 163.457 73.1846 163.711 73.0894C164.535 72.7797 164.96 72.17 164.964 71.3017C164.967 70.8383 164.947 70.3579 164.835 69.9116C164.518 68.6263 164.145 67.3532 163.806 66.0728C163.686 65.6216 163.411 65.4264 162.96 65.4362C162.726 65.4411 162.491 65.4289 162.257 65.4289C160.111 65.4289 157.965 65.4265 155.819 65.4313C155.394 65.4338 154.97 65.4704 154.597 65.4874ZM159.396 51.7126C159.274 51.9589 159.133 52.1833 159.045 52.4272C158.682 53.4125 158.338 54.4027 157.984 55.3904C157.106 57.8415 156.221 60.2901 155.363 62.751C155.245 63.0875 154.943 63.4363 155.209 63.8485C155.326 63.8802 155.438 63.9339 155.55 63.9339C157.884 63.9412 160.218 63.9461 162.552 63.9387C162.728 63.9387 162.904 63.8436 163.121 63.7802C163.086 63.529 163.086 63.3339 163.033 63.1583C161.901 59.4024 160.762 55.649 159.621 51.8955C159.599 51.8345 159.504 51.7979 159.396 51.7126Z" fill="white"/>
<path d="M277.636 47.9124C277.936 47.8758 278.202 47.8197 278.47 47.8173C279.129 47.8124 279.79 47.8295 280.363 47.8392C280.841 48.1831 280.858 48.6465 280.982 49.0416C282.331 53.3926 283.66 57.7509 285.002 62.1067C285.767 64.5993 286.538 67.0942 287.316 69.5843C287.489 70.1404 287.684 70.694 287.904 71.2355C288.267 72.1281 288.792 72.8817 289.748 73.2378C289.855 73.2768 289.982 73.3354 290.038 73.4231C290.114 73.5451 290.182 73.7158 290.155 73.8426C290.128 73.9646 289.994 74.1109 289.872 74.1548C289.697 74.2182 289.489 74.2085 289.297 74.2085C286.997 74.2109 284.697 74.2109 282.397 74.2085C282.204 74.2085 281.997 74.2085 281.824 74.1402C281.707 74.0938 281.582 73.9304 281.568 73.8085C281.556 73.6841 281.641 73.4914 281.746 73.4231C281.938 73.3012 282.175 73.25 282.392 73.1695C283.497 72.7549 283.931 72.1208 283.865 70.9379C283.838 70.4721 283.78 70.0014 283.66 69.5526C283.343 68.3478 282.99 67.1528 282.641 65.9577C282.599 65.8138 282.492 65.6894 282.402 65.5382C282.207 65.5041 282.019 65.4456 281.829 65.4456C279.178 65.4407 276.527 65.4455 273.875 65.4529C273.727 65.4529 273.578 65.5187 273.454 65.548C272.866 66.6089 272 69.2136 271.895 70.2087C271.883 70.3258 271.876 70.4428 271.871 70.5575C271.795 72.1598 272.168 72.7208 273.668 73.2768C273.814 73.3305 273.956 73.3988 274.093 73.4573C274.229 74.0402 274.178 74.1573 273.751 74.1938C273.519 74.2134 273.283 74.2085 273.051 74.2085C271.141 74.2085 269.232 74.2109 267.32 74.2085C267.047 74.2085 266.771 74.2134 266.505 74.1621C266.381 74.1378 266.237 74.0012 266.186 73.8817C266.108 73.6914 266.178 73.5012 266.376 73.389C266.444 73.35 266.508 73.3012 266.578 73.2719C267.425 72.9378 267.993 72.294 268.398 71.5257C268.868 70.6331 269.305 69.7136 269.666 68.7722C272.161 62.2628 274.632 55.7437 277.112 49.2269C277.273 48.7904 277.453 48.3611 277.636 47.9124ZM281.919 63.831C281.958 63.6774 282.007 63.5969 281.99 63.5335C280.87 59.7312 279.748 55.929 278.619 52.1317C278.578 51.9902 278.48 51.8634 278.361 51.6439C278.202 51.9 278.048 52.0756 277.975 52.2804C276.675 55.9022 275.383 59.5264 274.097 63.1554C274.027 63.3554 274.041 63.5847 274.019 63.792C274.966 64.0042 278.551 64.0822 281.185 63.9578C281.443 63.9432 281.697 63.87 281.919 63.831Z" fill="white"/>
<path fill-rule="evenodd" clip-rule="evenodd" d="M183.508 48.1404C183.378 48.1482 183.242 48.1563 183.098 48.1631C183.098 48.1704 183.098 48.1778 183.098 48.185C183.12 48.8436 183.12 48.8496 183.359 48.9606C183.534 49.0411 183.717 49.1094 183.9 49.1777C184.624 49.4484 185.044 49.9703 185.144 50.7312C185.151 50.7872 185.159 50.8432 185.166 50.8993C185.235 51.4221 185.305 51.9483 185.305 52.4726C185.317 58.2406 185.317 64.011 185.305 69.7789C185.305 70.2286 185.251 70.6768 185.197 71.1246C185.182 71.2574 185.166 71.3901 185.151 71.5227C185.068 72.2934 184.637 72.8056 183.932 73.1007C183.875 73.1246 183.817 73.1477 183.76 73.1707C183.565 73.2488 183.369 73.3273 183.198 73.4421C183.103 73.5056 183.042 73.7202 183.068 73.8446C183.093 73.9665 183.234 74.1226 183.354 74.1543C183.558 74.2087 183.783 74.2083 183.999 74.208C184.016 74.208 184.032 74.208 184.049 74.208C186.154 74.2104 188.258 74.2104 190.363 74.208C190.558 74.208 190.753 74.2006 190.946 74.1787C191.158 74.1543 191.304 74.0446 191.322 73.8104C191.339 73.5885 191.241 73.4324 191.041 73.3544C190.92 73.3066 190.796 73.2665 190.672 73.2264C190.575 73.1947 190.477 73.163 190.38 73.1275C189.634 72.8495 189.129 72.3446 188.968 71.5496C188.963 71.5251 188.958 71.5007 188.953 71.4762C188.865 71.0436 188.775 70.603 188.77 70.1667C188.746 68.0229 188.751 65.8792 188.758 63.7354C188.758 63.5886 188.794 63.4419 188.836 63.2732C188.856 63.1896 188.878 63.1007 188.897 63.0037C189.017 63.0037 189.132 63.0034 189.243 63.0031C189.457 63.0026 189.658 63.0021 189.858 63.0037C190.148 63.0053 190.438 63.0094 190.727 63.0135C191.335 63.0221 191.942 63.0308 192.548 63.0159C193.917 62.9818 195.263 62.7866 196.563 62.3403C198.863 61.5501 200.375 59.9819 201.089 57.6601C201.509 56.2943 201.55 54.8846 201.343 53.4896C201.004 51.219 199.728 49.6557 197.563 48.8435C197.337 48.759 197.106 48.688 196.875 48.6168C196.846 48.6078 196.816 48.5989 196.787 48.5899C195.546 48.2094 194.268 48.107 192.978 48.1094C191.307 48.1122 189.636 48.1118 187.966 48.1114C186.713 48.1111 185.461 48.1108 184.207 48.1119C183.98 48.1119 183.754 48.1255 183.508 48.1404ZM188.797 50.0678C188.808 49.984 188.819 49.8961 188.829 49.802C190.419 49.5362 192.882 49.6044 194.046 49.8849C195.848 50.3215 196.963 51.4726 197.458 53.2116C197.561 53.5725 197.638 53.9352 197.69 54.2989C197.859 55.4752 197.765 56.6598 197.439 57.8287C196.904 59.7481 195.565 60.8139 193.666 61.231C192.168 61.5578 190.654 61.5285 189.134 61.448C189.09 61.4449 189.046 61.4206 188.982 61.385C188.946 61.3651 188.904 61.3416 188.851 61.3163C188.843 61.2649 188.831 61.2088 188.819 61.1494C188.797 61.0403 188.772 60.9202 188.762 60.7978C188.76 60.765 188.758 60.732 188.758 60.699C188.751 57.3113 188.751 53.9262 188.756 50.5386C188.756 50.3872 188.775 50.2358 188.797 50.0678Z" fill="white"/>
<rect x="114.889" y="36.0664" width="205.924" height="3.42315" fill="#CBB468"/>
<path d="M252.097 28.5214C252.085 28.7786 252.075 28.9697 252.066 29.151C251.13 29.3274 244.638 29.3494 243.489 29.1853C243.442 29.1265 243.369 29.0701 243.359 29.0064C243.339 28.8595 243.352 28.71 243.352 28.5385C243.678 28.4087 243.959 28.2838 244.251 28.1833C245.071 27.8992 245.547 27.3357 245.659 26.4734C245.718 26.0079 245.809 25.54 245.811 25.0721C245.828 22.2892 245.828 19.5087 245.826 16.7258C245.826 16.498 245.77 16.2702 245.74 16.0448C245.321 15.7508 244.878 15.8439 244.461 15.8414C241.561 15.8341 238.663 15.8365 235.762 15.839C235.14 15.839 234.518 15.8586 233.844 15.8684C233.776 16.1844 233.673 16.4416 233.675 16.6989C233.687 19.7537 233.712 22.811 233.739 25.8658C233.741 26.0986 233.766 26.3362 233.812 26.5665C233.952 27.2622 234.327 27.7889 234.991 28.078C235.314 28.2176 235.65 28.3303 236.042 28.4773C236.066 28.661 236.093 28.8791 236.118 29.0701C236.005 29.1485 235.949 29.2171 235.882 29.2269C235.689 29.2588 235.493 29.2808 235.299 29.2808C232.948 29.2857 230.596 29.2857 228.247 29.2808C227.98 29.2808 227.712 29.2294 227.401 29.1975C227.377 28.9746 227.357 28.7909 227.33 28.5508C227.708 28.4014 228.065 28.2617 228.42 28.1172C229.131 27.8281 229.572 27.3161 229.67 26.5444C229.741 26.0006 229.834 25.4567 229.834 24.9104C229.846 18.7983 229.844 12.6837 229.836 6.57154C229.836 6.10364 229.76 5.63574 229.711 5.17029C229.611 4.21733 229.124 3.57549 228.195 3.28397C227.972 3.21293 227.722 3.16148 227.548 3.02184C227.423 2.92385 227.355 2.69113 227.36 2.5221C227.362 2.42166 227.541 2.27956 227.668 2.23792C227.85 2.17912 228.055 2.18403 228.249 2.18403C230.601 2.18158 232.953 2.18158 235.302 2.18648C235.532 2.18648 235.762 2.23303 236.059 2.26488C236.071 2.5123 236.081 2.72543 236.093 2.9655C235.765 3.09289 235.478 3.20802 235.189 3.31091C234.317 3.62203 233.874 4.26878 233.778 5.15804C233.712 5.78028 233.67 6.40986 233.665 7.03455C233.651 9.07275 233.653 11.111 233.66 13.1467C233.66 13.4921 233.621 13.8571 233.856 14.1585C234.765 14.3079 244.493 14.3226 245.647 14.1707C245.701 13.9796 245.814 13.764 245.816 13.5485C245.824 11.0791 245.821 8.61219 245.799 6.14283C245.797 5.71658 245.708 5.28542 245.635 4.86162C245.51 4.15119 245.101 3.65388 244.437 3.37706C244.185 3.27172 243.92 3.19822 243.665 3.09288C243.293 2.93855 243.249 2.66908 243.445 2.28446C243.643 2.25262 243.869 2.19383 244.096 2.18403C246.34 2.08359 251.051 2.15218 252.041 2.30407C252.053 2.4976 252.066 2.70828 252.08 2.9459C251.718 3.08799 251.397 3.21782 251.071 3.34031C250.289 3.62938 249.878 4.21732 249.777 5.01105C249.692 5.70923 249.633 6.41721 249.63 7.12029C249.618 12.8797 249.621 18.6415 249.628 24.4009C249.628 24.9864 249.692 25.5743 249.731 26.1598C249.802 27.2083 250.299 27.9261 251.333 28.2323C251.561 28.3083 251.774 28.4014 252.097 28.5214Z" fill="white"/>
<path d="M273.675 16.0255C273.623 16.3807 273.574 16.5693 273.574 16.758C273.577 20.2464 273.582 23.7324 273.594 27.2209C273.594 27.3287 273.665 27.4365 273.726 27.6031C273.937 27.6349 274.16 27.6961 274.383 27.6961C276.539 27.701 278.694 27.679 280.848 27.701C282.482 27.7182 283.621 26.9931 284.285 25.5208C284.527 24.9867 284.721 24.4306 284.927 23.8819C285.091 23.4458 285.243 23.0024 285.404 22.5443C285.71 22.5174 285.98 22.4782 286.252 22.4757C286.561 22.4733 286.869 22.5051 287.242 22.5247C287.484 23.2841 287.22 24.0117 287.207 24.7368C287.195 25.4424 287.168 26.1479 287.124 26.851C287.077 27.5908 287.002 28.3306 286.933 29.1268C286.634 29.1832 286.377 29.264 286.117 29.2713C285.451 29.2909 284.784 29.2811 284.118 29.2811C278.983 29.2811 273.851 29.2836 268.717 29.2787C268.256 29.2787 267.783 29.3424 267.308 29.1488C267.308 28.9406 267.308 28.752 267.308 28.5168C267.673 28.3747 268.033 28.24 268.388 28.093C269.101 27.7966 269.518 27.2478 269.606 26.4909C269.692 25.7535 269.76 25.0063 269.763 24.264C269.775 18.5806 269.772 12.8996 269.765 7.21616C269.765 6.59147 269.692 5.96433 269.655 5.33964C269.591 4.28869 269.086 3.57336 268.06 3.25734C267.837 3.18875 267.624 3.09566 267.34 2.98787C267.327 2.78454 267.313 2.56406 267.293 2.26519C267.68 2.23334 268.023 2.17946 268.366 2.17946C274.246 2.17456 280.123 2.17456 286.002 2.17946C286.343 2.17946 286.683 2.24069 287.085 2.27989C287.205 3.28184 287.146 4.21765 287.146 5.14856C287.146 6.07947 287.2 7.01283 287.095 7.96579C286.441 8.08337 285.865 8.05643 285.25 8.00009C285.105 7.66202 284.985 7.33619 284.833 7.02507C284.54 6.42733 284.27 5.8149 283.917 5.2539C283.339 4.33279 282.489 3.82325 281.379 3.80365C280.439 3.78895 279.498 3.7669 278.56 3.75955C277.345 3.7522 276.129 3.75219 274.914 3.76199C274.527 3.76444 274.128 3.69585 273.69 3.91878C273.653 4.13436 273.569 4.39649 273.567 4.65861C273.557 7.63752 273.56 10.6164 273.567 13.5929C273.567 13.784 273.621 13.975 273.653 14.1882C273.807 14.2494 273.949 14.3572 274.091 14.3572C275.657 14.3548 277.222 14.3425 278.79 14.318C279.912 14.3009 280.595 13.6811 280.982 12.6718C281.134 12.2749 281.291 11.8805 281.458 11.4591C281.994 11.4591 282.496 11.4591 283.045 11.4591C283.106 11.6527 283.212 11.8315 283.212 12.0079C283.222 14.1245 283.217 16.2386 283.212 18.3552C283.212 18.4679 283.16 18.5806 283.114 18.7668C282.876 18.8035 282.619 18.8599 282.359 18.877C282.09 18.8966 281.815 18.8819 281.477 18.8819C281.365 18.6124 281.262 18.3699 281.161 18.1274C281.056 17.8751 280.973 17.6105 280.85 17.368C280.429 16.535 279.782 16.0279 278.814 16.0206C277.599 16.0083 276.384 15.9961 275.172 15.9912C274.709 15.9961 274.243 16.0132 273.675 16.0255Z" fill="white"/>
<path d="M302.121 28.4949C302.121 26.7703 302.121 25.0947 302.121 23.3774C302.756 23.1373 303.361 23.2328 304 23.2892C304.177 23.7497 304.343 24.1834 304.51 24.6194C305.306 26.7042 306.83 27.8114 309.047 27.9315C309.865 27.9756 310.693 27.9903 311.506 27.9045C313.608 27.6816 315.046 26.3416 315.387 24.2593C315.737 22.1354 315.215 20.2833 313.415 18.9482C312.819 18.5048 312.19 18.1006 311.541 17.7454C310.649 17.2579 309.713 16.8512 308.814 16.3784C307.81 15.8517 306.8 15.3275 305.843 14.7224C305.22 14.3304 304.645 13.8356 304.118 13.3187C301.2 10.4647 302.109 5.71217 304.953 3.72542C306.232 2.83125 307.653 2.31191 309.174 2.05958C312.2 1.55738 315.179 1.95424 318.14 2.59118C318.29 2.62302 318.424 2.71612 318.557 2.77736C318.718 3.67152 318.738 6.67982 318.586 7.83856C317.996 8.09578 317.393 8.04678 316.749 7.86795C316.604 7.50294 316.462 7.14037 316.313 6.78026C316.043 6.12617 315.71 5.50638 315.232 4.97479C314.752 4.44074 314.196 4.01694 313.503 3.80626C311.967 3.34081 310.426 3.28691 308.888 3.79891C306.416 4.61957 305.83 6.84886 306.058 8.49999C306.232 9.76407 306.791 10.8101 307.778 11.6063C308.292 12.0227 308.841 12.4123 309.417 12.7381C310.232 13.2011 311.08 13.6102 311.928 14.0144C313.236 14.6391 314.527 15.2932 315.727 16.1089C316.609 16.7067 317.393 17.4098 318.02 18.277C318.726 19.2544 319.159 20.3348 319.162 21.5474C319.164 22.3289 319.181 23.1251 319.039 23.8869C318.596 26.2681 317.2 27.9094 314.936 28.7718C314.208 29.0486 313.447 29.2838 312.68 29.3842C311.247 29.5704 309.809 29.6929 308.349 29.5655C306.514 29.4062 304.696 29.1613 302.9 28.7546C302.643 28.7007 302.396 28.5905 302.121 28.4949Z" fill="white"/>
<path d="M210.591 23.0422C211.162 23.0422 211.701 23.0422 212.277 23.0422C212.634 23.978 212.436 24.9211 212.456 25.8423C212.473 26.7364 212.556 27.6404 212.358 28.5737C211.459 28.9755 210.484 29.0931 209.528 29.2082C207.975 29.3969 206.412 29.5169 204.849 29.6173C203.438 29.7055 202.034 29.5855 200.648 29.2744C197.693 28.6105 195.601 26.881 194.313 24.1593C193.531 22.5106 193.137 20.7566 192.965 18.956C192.796 17.1995 192.769 15.4357 192.938 13.6743C193.144 11.5455 193.671 9.50727 194.722 7.63321C196.552 4.36523 199.357 2.53526 203.058 2.01591C206.015 1.6019 208.913 1.99141 211.799 2.5818C211.983 2.61855 212.154 2.72879 212.311 2.79493C212.532 3.85078 212.522 6.99381 212.291 8.00801C211.75 8.17949 211.179 8.14276 210.552 8.03252C210.412 7.72385 210.288 7.39802 210.126 7.0918C209.812 6.50631 209.531 5.89387 209.141 5.36473C208.389 4.34073 207.343 3.79198 206.086 3.56905C202.904 3.0056 200.339 4.5612 198.945 6.96686C198.191 8.27014 197.661 9.66405 197.416 11.1364C196.797 14.8453 196.824 18.5444 197.786 22.2044C198.075 23.3092 198.514 24.3552 199.156 25.3058C199.972 26.5159 201.037 27.415 202.47 27.7751C203.984 28.1573 205.506 28.1034 206.983 27.5938C207.936 27.2656 208.698 26.636 209.215 25.7688C209.594 25.1318 209.891 24.4484 210.224 23.7845C210.341 23.5419 210.461 23.3019 210.591 23.0422Z" fill="white"/>
<path fill-rule="evenodd" clip-rule="evenodd" d="M172.948 27.0073C173.399 27.7839 173.852 28.5629 174.465 29.1949C175.873 29.3615 179.399 29.3223 180.224 29.1337C180.298 28.5506 180.302 28.4894 179.95 28.4086C178.629 28.1097 177.772 27.2278 177.054 26.1646C176.726 25.6795 176.415 25.1798 176.111 24.6776C175.919 24.3591 175.731 24.0376 175.544 23.7161C175.356 23.3945 175.169 23.073 174.977 22.7545C174.875 22.5852 174.773 22.4158 174.671 22.2464C174.166 21.4087 173.663 20.5719 173.137 19.7487C172.429 18.6389 171.515 17.7399 170.317 17.1568C170.299 17.1482 170.281 17.1399 170.262 17.1315C170.106 17.0612 169.937 16.9855 169.935 16.6791C170.129 16.5276 170.378 16.4331 170.633 16.3362C170.729 16.3 170.825 16.2635 170.92 16.2235C172.191 15.6821 173.375 15.0035 174.34 13.9942C175.344 12.9408 175.993 11.7012 176.14 10.2534C176.224 9.44008 176.229 8.60225 176.138 7.79138C175.937 6.0202 175.097 4.59199 173.531 3.68803C172.863 3.30097 172.125 3.00456 171.385 2.76448C169.766 2.24023 168.076 2.18634 166.39 2.18144C163.335 2.17164 160.278 2.17654 157.223 2.18144C156.859 2.18372 156.497 2.21348 156.135 2.24324C156.107 2.2455 156.08 2.24777 156.052 2.25002C156.01 2.25318 155.97 2.2848 155.918 2.32655C155.889 2.34961 155.856 2.37576 155.817 2.40191C155.831 2.5272 155.848 2.66275 155.863 2.79328C155.872 2.86438 155.88 2.934 155.888 2.99965C155.974 3.03277 156.053 3.06456 156.128 3.0947C156.303 3.16487 156.455 3.22604 156.611 3.27402C157.586 3.57779 158.093 4.24658 158.174 5.25098C158.185 5.38964 158.198 5.5283 158.211 5.66695C158.252 6.11379 158.294 6.56063 158.294 7.00747C158.304 12.8036 158.304 18.6022 158.294 24.4008C158.292 24.9874 158.234 25.576 158.177 26.1614C158.169 26.2385 158.162 26.3155 158.154 26.3924C158.071 27.2523 157.613 27.8402 156.799 28.144C156.586 28.2231 156.374 28.3043 156.164 28.3849C156.055 28.4266 155.947 28.4681 155.839 28.509V29.1974C155.943 29.2073 156.045 29.2191 156.144 29.2306C156.364 29.2562 156.574 29.2807 156.785 29.2807C157.609 29.2783 158.433 29.2817 159.258 29.2851C161.013 29.2924 162.769 29.2996 164.521 29.2513C164.537 29.1865 164.552 29.1311 164.566 29.0819C164.594 28.984 164.614 28.9106 164.614 28.8373C164.614 28.7607 164.592 28.6841 164.567 28.6009C164.557 28.5644 164.546 28.5266 164.536 28.487C164.434 28.4481 164.333 28.4087 164.232 28.3696C164.041 28.295 163.852 28.2212 163.661 28.1538C162.843 27.8623 162.38 27.2841 162.272 26.4267C162.262 26.3461 162.251 26.2653 162.241 26.1845C162.19 25.7991 162.139 25.4123 162.135 25.0254C162.113 22.7937 162.108 20.5595 162.113 18.3278C162.113 18.1561 162.154 17.9834 162.199 17.7912C162.222 17.6926 162.247 17.589 162.267 17.4777C163.487 17.4532 164.658 17.4434 165.829 17.4998C165.945 17.5053 166.06 17.5358 166.175 17.5663C166.212 17.5762 166.25 17.5862 166.287 17.5953C167.088 17.7889 167.706 18.269 168.161 18.928C168.698 19.6972 169.2 20.4934 169.673 21.3043C170.233 22.2667 170.785 23.2342 171.338 24.202C171.872 25.1383 172.406 26.0749 172.948 27.0073ZM162.409 15.8036C162.36 15.7843 162.298 15.76 162.216 15.7311C162.203 15.6261 162.188 15.5237 162.174 15.423C162.143 15.2111 162.113 15.0068 162.108 14.8026C161.977 9.96223 162.038 5.28784 162.252 4.04126C162.259 4.00169 162.265 3.96554 162.272 3.93293C162.331 3.92227 162.393 3.90784 162.456 3.89292C162.597 3.85983 162.748 3.82439 162.9 3.8227C163.151 3.82074 163.402 3.818 163.652 3.81525C164.656 3.80428 165.659 3.7933 166.66 3.8325C167.277 3.85699 167.909 3.96968 168.502 4.15096C170.335 4.71441 171.528 5.92949 171.917 7.8256C172.087 8.64997 172.145 9.48303 172.074 10.3132C172.039 10.7297 171.972 11.1455 171.87 11.5591C171.305 13.8643 169.776 15.1921 167.505 15.6355C165.888 15.9491 164.232 15.9442 162.586 15.856C162.538 15.8545 162.492 15.8364 162.409 15.8036Z" fill="white"/>
<path fill-rule="evenodd" clip-rule="evenodd" d="M132.128 1.875H128.904C128.837 2.03521 128.772 2.18952 128.708 2.33988C128.563 2.68382 128.426 3.00703 128.297 3.33261C127.487 5.3315 126.678 7.33081 125.87 9.33011C123.919 14.1548 121.967 18.9794 120.002 23.7979C119.617 24.7362 119.139 25.6426 118.642 26.5269C118.172 27.3623 117.5 28.0188 116.574 28.3618C116.553 28.3696 116.529 28.3759 116.505 28.3823C116.445 28.3981 116.385 28.4141 116.364 28.4525C116.355 28.4694 116.345 28.4866 116.336 28.5039C116.256 28.6492 116.17 28.8061 116.173 28.9571C116.175 29.0575 116.359 29.1972 116.486 29.2364C116.641 29.2819 116.81 29.2802 116.977 29.2786C117.008 29.2783 117.039 29.278 117.069 29.278C119.419 29.2805 121.77 29.2829 124.122 29.2756C124.329 29.2756 124.535 29.2522 124.756 29.2272C124.862 29.2151 124.972 29.2027 125.087 29.1923C125.083 29.1347 125.079 29.0798 125.076 29.0272C125.062 28.8271 125.05 28.6616 125.038 28.5161C124.897 28.4699 124.762 28.4283 124.633 28.3883C124.352 28.3013 124.097 28.2225 123.85 28.1217C123.007 27.7788 122.515 27.1492 122.52 26.2305C122.522 25.6083 122.544 24.964 122.711 24.3736C122.965 23.4757 123.284 22.5949 123.603 21.715C123.684 21.4907 123.765 21.2664 123.845 21.0419C123.909 20.8669 124.002 20.7026 124.09 20.5492C124.127 20.4836 124.163 20.42 124.196 20.3584C125.631 20.209 133.37 20.2457 134.301 20.4172C134.377 20.6507 134.455 20.8847 134.533 21.1193C134.975 22.4482 135.424 23.7994 135.683 25.209C135.732 25.4784 135.768 25.7528 135.773 26.0247C135.79 27.1712 135.376 27.7665 134.308 28.1609C134.079 28.2453 133.848 28.3237 133.611 28.4044C133.476 28.4502 133.339 28.4967 133.198 28.5455C133.203 28.5965 133.207 28.645 133.211 28.6923C133.225 28.8656 133.237 29.0218 133.255 29.2143C133.388 29.222 133.517 29.2321 133.644 29.242C133.879 29.2604 134.104 29.278 134.33 29.278C136.758 29.2829 139.188 29.2829 141.618 29.278C141.929 29.2756 142.241 29.2437 142.552 29.2094C142.592 29.2062 142.629 29.1699 142.68 29.1202C142.706 29.0946 142.736 29.0655 142.772 29.0355C142.768 28.9716 142.764 28.9014 142.759 28.828C142.754 28.7298 142.747 28.6258 142.74 28.5235C142.689 28.4974 142.644 28.4722 142.602 28.449C142.525 28.4067 142.46 28.3708 142.392 28.3471C141.359 27.9894 140.692 27.2521 140.283 26.2697C139.982 25.547 139.703 24.8146 139.458 24.0723C137.941 19.4609 136.428 14.8495 134.915 10.238C134.159 7.93133 133.402 5.62462 132.645 3.31791C132.544 3.01011 132.432 2.70535 132.317 2.39513C132.254 2.2239 132.191 2.051 132.128 1.875ZM129.659 5.95358L129.823 5.94895C130.053 6.65711 130.282 7.36557 130.51 8.07436C131.301 10.5302 132.08 12.9898 132.846 15.4537C133.122 16.3383 133.396 17.2236 133.669 18.1096C133.697 18.1997 133.68 18.3029 133.661 18.4164C133.652 18.4726 133.642 18.5313 133.637 18.5922C133.549 18.6055 133.466 18.6211 133.384 18.6363C133.226 18.6657 133.077 18.6935 132.927 18.7C130.599 18.7955 125.879 18.7318 124.96 18.5971C124.959 18.5965 124.959 18.596 124.959 18.5954C124.958 18.5954 124.958 18.5953 124.958 18.5952C124.757 18.3383 124.859 18.092 124.959 17.8518C124.976 17.8104 124.993 17.7691 125.009 17.728C125.866 15.462 126.726 13.1984 127.589 10.9324C127.656 10.7558 127.723 10.5791 127.79 10.4024C128.279 9.11858 128.769 7.83351 129.262 6.55223C129.317 6.41096 129.39 6.27546 129.463 6.14019C129.496 6.07842 129.529 6.01669 129.561 5.95449C129.594 5.95449 129.627 5.95414 129.659 5.95358Z" fill="white"/>
<path fill-rule="evenodd" clip-rule="evenodd" d="M9.03479 13.1254C5.08943 18.6617 3.3154 25.421 3.3154 30.1791V75.108H0.106201V30.1791C0.106201 24.7747 2.07625 17.3601 6.42133 11.263C10.8042 5.11284 17.6724 0.226562 27.3844 0.226562C36.6279 0.226562 43.157 5.35961 47.3054 11.5704C51.4247 17.7378 53.3255 25.1345 53.3255 30.1791V75.108H50.1163V30.1791C50.1163 25.7744 48.4067 18.9972 44.6367 13.3529C40.8958 7.75204 35.2567 3.43577 27.3844 3.43577C18.911 3.43577 12.9424 7.64223 9.03479 13.1254Z" fill="#CBB468"/>
<path fill-rule="evenodd" clip-rule="evenodd" d="M33.6385 13.1254C29.6932 18.6617 27.9192 25.421 27.9192 30.1791V75.108H24.71V30.1791C24.71 24.7747 26.68 17.3601 31.0251 11.263C35.4079 5.11284 42.2761 0.226562 51.9882 0.226562C61.2317 0.226562 67.7608 5.35961 71.9092 11.5704C76.0285 17.7378 77.9292 25.1345 77.9292 30.1791V75.108H74.72V30.1791C74.72 25.7744 73.0104 18.9972 69.2405 13.3529C65.4995 7.75204 59.8604 3.43577 51.9882 3.43577C43.5147 3.43577 37.5461 7.64223 33.6385 13.1254Z" fill="#CBB468"/>
<path fill-rule="evenodd" clip-rule="evenodd" d="M59.3124 13.1254C55.367 18.6617 53.593 25.421 53.593 30.1791V75.108H50.3838V30.1791C50.3838 24.7747 52.3538 17.3601 56.6989 11.263C61.0818 5.11284 67.95 0.226562 77.662 0.226562C86.9055 0.226562 93.4346 5.35961 97.583 11.5704C101.702 17.7378 103.603 25.1345 103.603 30.1791V75.108H100.394V30.1791C100.394 25.7744 98.6843 18.9972 94.9143 13.3529C91.1734 7.75204 85.5342 3.43577 77.662 3.43577C69.1886 3.43577 63.22 7.64223 59.3124 13.1254Z" fill="#CBB468"/>
</svg>
