<svg width="197" height="57" viewBox="0 0 197 57" fill="none" xmlns="http://www.w3.org/2000/svg">
<path d="M122.972 56.3719L100.01 33.5746L106.607 27.0251L129.569 49.8225L122.972 56.3719ZM165.961 20.6625H175.291V55.3969H165.961V20.6625ZM0 1.425H9.32969V55.3969H0V1.425ZM19.377 46.1344H52.5692V55.3969H19.377V46.1344ZM19.377 23.6906H52.5692V32.9531H19.377V23.6906ZM19.377 1.425H52.5692V10.6875H19.377V1.425ZM144.251 1.425H197V10.6875H144.251V1.425ZM82.5319 28.5C82.5319 17.9906 91.1439 9.2625 101.909 9.2625C112.674 9.2625 121.107 17.9906 121.107 28.5C121.107 28.5 121.107 28.5 121.107 28.6781H130.436C130.436 28.6781 130.436 28.6781 130.436 28.5C130.436 12.825 117.518 0 101.73 0C85.9408 0 73.0228 12.825 73.0228 28.5C73.0228 44.175 85.7614 57 101.55 57V47.7375C90.9645 47.5594 82.5319 39.0094 82.5319 28.5Z" fill="#FF6C2C"/>
</svg>
