<svg width="65" height="97" viewBox="0 0 65 97" fill="none" xmlns="http://www.w3.org/2000/svg">
<path d="M0.27832 16.4093C0.27832 7.54733 7.46237 0.363281 16.3243 0.363281H32.3703V32.4553H16.3243C7.46237 32.4553 0.27832 25.2713 0.27832 16.4093Z" fill="#F24E1E"/>
<path d="M0.27832 48.4991C0.27832 39.6372 7.46237 32.4531 16.3243 32.4531H32.3703V64.5452H16.3243C7.46237 64.5452 0.27832 57.3611 0.27832 48.4991Z" fill="#A259FF"/>
<path d="M64.4624 16.4093C64.4624 7.54733 57.2784 0.363281 48.4164 0.363281H32.3704V32.4553H48.4164C57.2784 32.4553 64.4624 25.2713 64.4624 16.4093Z" fill="#FF7262"/>
<path d="M64.4624 48.4991C64.4624 57.3611 57.2783 64.5452 48.4164 64.5452C39.5544 64.5452 32.3704 57.3611 32.3704 48.4991C32.3704 39.6372 39.5544 32.4531 48.4164 32.4531C57.2783 32.4531 64.4624 39.6372 64.4624 48.4991Z" fill="#1ABCFE"/>
<path d="M0.27832 80.5929C0.27832 71.7309 7.46237 64.5469 16.3243 64.5469H32.3703V80.5929C32.3703 89.4549 25.1863 96.6389 16.3243 96.6389C7.46237 96.6389 0.27832 89.4549 0.27832 80.5929Z" fill="#0ACF83"/>
</svg>
