<svg fill="none" height="97" viewBox="0 0 65 97" width="65" xmlns="http://www.w3.org/2000/svg"><path d="m.27832 16.4093c0-8.86197 7.18405-16.046019 16.04598-16.046019h16.046v32.092019h-16.046c-8.86193 0-16.04598-7.184-16.04598-16.046z" fill="#f24e1e"/><path d="m.27832 48.4991c0-8.8619 7.18405-16.046 16.04598-16.046h16.046v32.0921h-16.046c-8.86193 0-16.04598-7.1841-16.04598-16.0461z" fill="#a259ff"/><path d="m64.4624 16.4093c0-8.86197-7.184-16.046019-16.046-16.046019h-16.046v32.092019h16.046c8.862 0 16.046-7.184 16.046-16.046z" fill="#ff7262"/><path d="m64.4624 48.4991c0 8.862-7.1841 16.0461-16.046 16.0461-8.862 0-16.046-7.1841-16.046-16.0461 0-8.8619 7.184-16.046 16.046-16.046 8.8619 0 16.046 7.1841 16.046 16.046z" fill="#1abcfe"/><path d="m.27832 80.5929c0-8.862 7.18405-16.046 16.04598-16.046h16.046v16.046c0 8.862-7.184 16.046-16.046 16.046-8.86193 0-16.04598-7.184-16.04598-16.046z" fill="#0acf83"/></svg>