<svg fill="none" height="42" viewBox="0 0 434 42" width="434" xmlns="http://www.w3.org/2000/svg"><g fill="#fff"><path d="m80.8282 10.9336h-4.7737l-10.6907 8.9908v-8.9908h-3.836v19.6463h3.836v-6.3632l4.0115-3.1841 8.3389 9.5473h4.9793l-10.5502-12.1047z"/><path d="m94.2868 10.9336h-3.841v19.6463h16.6382v-3.4248h-12.7972z"/><path d="m118.23 22.0354h8.028v-3.3897h-8.028v-4.2873h13.248v-3.4248h-17.084v19.6463h17.882v-3.4248h-14.046z"/><path d="m145.734 10.9336h-3.841v19.6463h3.841z"/><path d="m172.536 24.317h-.035l-11.759-13.3834h-3.389v19.6463h3.836v-13.3884h.035l11.763 13.3884h3.39v-19.6463h-3.841z"/><path d="m191.837 22.0354h8.023v-3.3897h-8.023v-4.2873h13.248v-3.4248h-17.089v19.6463h17.886v-3.4248h-14.045z"/><path d="m234.97 17.0913c0-1.5194-.622-2.9034-1.66-3.9764-1.278-1.3138-3.184-2.1813-6.262-2.1813h-11.554v19.6463h3.841v-7.3009h7.126l4.428 7.2959h4.427l-4.909-7.8525c2.623-.8575 4.563-2.9334 4.563-5.6311zm-7.371 2.798h-8.269v-5.5359h7.712c1.314 0 2.493.1053 3.39 1.1082.416.4513.692 1.038.692 1.6597.005 1.4893-1.584 2.768-3.525 2.768z"/><path d="m266.616 10.9336h-11.653v19.6463h3.841v-7.3009h7.712c2.768 0 4.703-.5867 6.228-2.1111 1.038-1.0379 1.694-2.3517 1.694-4.0466 0-1.5895-.586-3.0086-1.659-4.0817-1.595-1.6246-3.776-2.106-6.163-2.106zm3.219 7.9528c-.762.7271-1.73 1.0029-3.319 1.0029h-7.712v-5.5359h7.817c.968 0 2.352.0351 3.32 1.0731.416.4513.656 1.038.656 1.6948 0 .6619-.28 1.2837-.762 1.7651z"/><path d="m286.478 22.06h8.023v-3.3948h-8.023v-4.2873h13.248v-3.4248h-17.089v19.6464h17.881v-3.4249h-14.04z"/><path d="m329.606 17.1108c0-1.5194-.621-2.9033-1.659-3.9764-1.279-1.3138-3.184-2.1813-6.263-2.1813h-11.553v19.6464h3.841v-7.296h7.13l4.428 7.296h4.427l-4.909-7.8526c2.623-.8624 4.558-2.9384 4.558-5.6361zm-7.366 2.803h-8.268v-5.5359h7.712c1.313 0 2.492.1053 3.389 1.1082.417.4513.692 1.038.692 1.6598.005 1.4893-1.589 2.7679-3.525 2.7679z"/><path d="m358.866 10.9531h-4.774l-10.686 8.9958v-8.9958h-3.841v19.6464h3.841v-6.3633l4.012-3.1841 8.334 9.5474h4.984l-10.55-12.1048z"/><path d="m372.319 10.9531h-3.841v19.6464h3.841z"/><path d="m399.121 24.3415h-.035l-11.759-13.3884h-3.39v19.6464h3.841v-13.3834h.035l11.759 13.3834h3.39v-19.6464h-3.841z"/><path d="m424.012 18.3159c-3.114-.2056-6.122-.2758-6.122-2.1812 0-1.8654 2.041-2.5223 4.498-2.5223 3.876 0 6.604 1.2436 7.747 2.2114l2.352-2.6627c-1.695-1.2435-5.501-2.9033-9.964-2.9033-3.871 0-8.509 1.4191-8.509 6.2229 0 4.879 5.325 5.2249 9.993 5.5709 3.701.2758 5.847.8324 5.847 3.0438 0 1.9706-2.316 2.8381-5.29 2.8381-4.703 0-7.677-2.1462-9.372-3.5301l-2.317 2.6626c2.387 2.0058 6.018 4.2221 11.624 4.2221 5.014 0 9.236-1.8653 9.236-6.7092-.005-5.6362-5.952-6.0173-9.723-6.263z"/><path d="m3.35606.953125c-1.84529 0-3.3445854 1.494285-3.3445854 3.344585v16.71289l20.0575254-20.057475z"/><path d="m.0114746 37.7286c0 1.8453 1.4942854 3.3446 3.3445854 3.3446h16.71294l-20.0575254-20.0576z"/><path d="m20.0691 24.3563v16.7129l20.0575-20.0575h-16.7129c-1.8453 0-3.3446 1.4993-3.3446 3.3446z"/><path d="m36.7869.953125h-16.7129l20.0575 20.057475v-16.71289c-.005-1.84529-1.4993-3.344585-3.3446-3.344585z"/></g></svg>