<svg fill="none" height="97" viewBox="0 0 97 97" width="97" xmlns="http://www.w3.org/2000/svg" xmlns:xlink="http://www.w3.org/1999/xlink"><radialGradient id="a" cx="0" cy="0" gradientTransform="matrix(0 96.1702 -111.154 0 -2.86912 47.1352)" gradientUnits="userSpaceOnUse" r="1"><stop offset="0" stop-color="#20c6b7"/><stop offset="1" stop-color="#4d9abf"/></radialGradient><path d="m70.1377 33.7658-.0351-.0151c-.0201-.0075-.0403-.0151-.0579-.0326-.0288-.031-.0501-.0681-.0623-.1086-.0123-.0405-.015-.0832-.008-.1249l1.943-11.8666 9.1121 9.1046-9.4766 4.0275c-.0263.0106-.0545.0157-.0829.015h-.0377c-.0126-.0075-.0251-.0176-.0503-.0427-.3527-.3922-.7744-.7165-1.2443-.9566zm13.2169-.7232 9.743 9.7323c2.0235 2.0238 3.0365 3.0332 3.406 4.2033.0553.1732.1006.3465.1358.5248l-23.2842-9.8503c-.0125-.0052-.025-.0102-.0377-.0151-.093-.0377-.2011-.0803-.2011-.1758 0-.0954.1106-.1406.2037-.1782l.0301-.0126zm12.8876 17.5839c-.5027.9441-1.4831 1.9234-3.1421 3.5831l-10.9847 10.9702-14.2073-2.9554-.0754-.015c-.1257-.0201-.2589-.0427-.2589-.1557-.054-.5855-.228-1.1535-.5112-1.6689-.2833-.5153-.6697-.9669-1.1353-1.3266-.0578-.0578-.0427-.1482-.0251-.231 0-.0126 0-.0252.005-.0352l2.6721-16.3862.01-.0552c.0151-.1256.0377-.2712.1509-.2712.5726-.0712 1.1253-.2554 1.6259-.5421s.9391-.67 1.2899-1.1277c.0226-.0251.0377-.0527.0679-.0677.0804-.0377.1759 0 .2589.0351l24.2569 10.2495zm-16.6531 17.0767-18.0632 18.0434 3.0918-18.9825.0051-.0251c.0025-.0251.0075-.0502.015-.0728.0252-.0603.0905-.0854.1534-.1105l.0301-.0125c.677-.2885 1.2758-.7334 1.747-1.2982.0604-.0703.1333-.1381.2263-.1506.0241-.004.0487-.004.0729 0l12.7191 2.6113zm-21.8865 21.8625-2.0361 2.0338-22.5099-32.4961c-.0081-.0119-.0165-.0236-.0251-.0352-.0352-.0477-.0729-.0954-.0654-.1506.0025-.0402.0277-.0754.0553-.1055l.0252-.0327c.0678-.1004.1257-.2008.1885-.3088l.0503-.0879.0075-.0075c.0352-.0603.0679-.118.1282-.1507.0528-.0251.1257-.015.1835-.0025l24.9381 5.1373c.0698.0109.1355.0394.1911.0829.0326.0326.0402.0678.0477.108.174.6574.4977 1.2658.946 1.7776.4482.5118 1.0089.9131 1.6381 1.1727.0704.0351.0402.113.0075.1958-.0163.0364-.0289.0742-.0377.113-.3142 1.9083-3.0088 18.3246-3.7328 22.7564zm-4.2531 4.2459c-1.5007 1.484-2.3855 2.2699-3.3859 2.5863-.9864.3115-2.0451.3115-3.0315 0-1.1714-.3716-2.1844-1.381-4.2079-3.4048l-22.6054-22.5806 5.9046-9.1473c.0276-.0451.0553-.0853.1005-.118.0629-.0452.1534-.0251.2288 0 1.3552.4085 2.8104.3348 4.1174-.2084.0678-.0251.1357-.0427.1885.0051.0264.024.05.051.0704.0803l22.6205 32.7899zm-35.4101-25.5761-5.1857-5.18 10.2407-4.3639c.0262-.0114.0544-.0174.083-.0176.0854 0 .1357.0854.1809.1632.103.1582.212.3123.3268.462l.0327.0402c.0302.0427.01.0854-.0201.1255l-5.6558 8.7706zm-7.4807-7.4724-6.56065-6.5535c-1.11607-1.1148-1.92547-1.9234-2.48854-2.6189l19.94849 4.133c.0251.0046.0502.0088.0754.0125.1232.0201.2589.0427.2589.1582 0 .1256-.1483.1833-.274.231l-.0578.0251zm-10.195419-12.542c.022734-.4222.098746-.8398.226231-1.2429.372023-1.1701 1.382518-2.1795 3.408538-4.2033l8.39565-8.3864c3.8656 5.604 7.7417 11.2009 11.6282 16.7904.0679.0904.1433.1909.0654.2662-.367.4042-.734.8462-.9929 1.3257-.0281.0617-.0713.1152-.1257.1557-.0327.0201-.0679.0126-.1056.005h-.005l-22.494819-4.7129zm14.277619-16.0774 11.2889-11.2765c1.0608.4646 4.9218 2.0941 8.3756 3.5505 2.6142 1.1048 4.9972 2.1091 5.7462 2.4356.0754.0301.1433.0602.176.1355.0201.0452.01.103 0 .1507-.1787.814-.1521 1.6595.0773 2.4607.2295.8012.6547 1.5328 1.2373 2.1292.0754.0754 0 .1833-.0653.2762l-.0352.0528-11.4624 17.7345c-.0301.0502-.0578.0929-.108.1256-.0604.0376-.1458.02-.2162.0025-.4458-.1167-.9041-.1791-1.3649-.1858-.4123 0-.8597.0753-1.3122.1581h-.0025c-.0503.0076-.0955.0176-.1357-.0125-.0444-.0363-.0827-.0795-.1131-.1281zm13.5688-13.5538 14.6145-14.59847c2.0235-2.02128 3.0365-3.033173 4.2079-3.402277.9864-.311579 2.0451-.311579 3.0315 0 1.1713.369104 2.1844 1.380997 4.2079 3.402277l3.1672 3.16375-10.394 16.07982c-.0258.0468-.0608.0879-.1031.1206-.0628.0426-.1508.0251-.2262 0-.8195-.2485-1.6873-.2937-2.5282-.1318s-1.6297.526-2.2981 1.0608c-.0678.0703-.1684.0301-.2539-.0075-1.3573-.5901-11.9148-5.047-13.4255-5.6872zm31.436-9.23014 9.5972 9.58664-2.3126 14.3072v.0376c-.0021.0326-.0088.0648-.0201.0954-.0251.0503-.0754.0603-.1257.0754-.4944.1496-.9601.3813-1.3775.6854-.0179.0128-.0347.0271-.0503.0427-.0276.0302-.0553.0578-.1005.0628-.0368.0011-.0735-.0048-.1081-.0176l-14.6245-6.2069-.0277-.0126c-.093-.0377-.2036-.0829-.2036-.1783-.0859-.814-.3521-1.5988-.7792-2.2975-.0704-.1155-.1483-.236-.088-.354zm-9.8838 21.60884 13.7096 5.8002c.0754.0352.1584.0678.191.1457.0131.0468.0131.0963 0 .1431-.0402.2009-.0754.4293-.0754.6603v.3842c0 .0954-.098.1356-.1885.1733l-.0277.01c-2.1718.9265-30.4908 12.9889-30.5335 12.9889s-.088 0-.1307-.0426c-.0754-.0754 0-.1808.0678-.2762.012-.0166.0238-.0333.0352-.0503l11.2663-17.4257.0201-.0301c.0654-.1055.1408-.2235.2614-.2235l.1132.0176c.2564.0352.4826.0678.7113.0678 1.7093 0 3.2929-.8311 4.2481-2.2523.0228-.0379.0517-.0719.0855-.1004.0679-.0502.1684-.0251.2463.01zm-15.7004 23.0627 30.8679-13.1496s.0453 0 .088.0427c.1684.1682.3117.2812.4499.3867l.0679.0426c.0629.0352.1257.0754.1307.1407 0 .0251 0 .0401-.005.0627l-2.6444 16.2255-.01.0653c-.0176.1255-.0352.2687-.1534.2687-.705.0475-1.3878.266-1.9891.6366-.6014.3706-1.1033.8821-1.4621 1.4901l-.0126.0201c-.0352.0577-.0679.113-.1257.1431-.0528.0251-.1206.0151-.1759.0025l-24.6164-5.072c-.0252-.005-.3821-1.3032-.4098-1.3057z" fill="url(#a)"/></svg>