<svg width="96" height="96" viewBox="0 0 96 96" fill="none" xmlns="http://www.w3.org/2000/svg">
<rect x="18" y="20" width="55" height="52" fill="white"/>
<path fill-rule="evenodd" clip-rule="evenodd" d="M84 10H10V84H84V10ZM28.9104 59.6635L28.87 59.5948L28.8552 60.0832C28.8478 61.1506 28.8441 62.2218 28.8404 63.2948C28.8367 64.3641 28.833 65.4352 28.8256 66.5064C28.8108 67.3203 28.7812 68.1343 28.7516 68.9482L28.7516 68.9484V69.0372C28.7072 69.6144 28.5444 69.6736 28.0412 69.7476C27.6268 69.8068 27.1976 69.8364 26.7684 69.8364C26.2257 69.8561 25.6831 69.8496 25.1404 69.843C24.8691 69.8397 24.5977 69.8364 24.3264 69.8364H24.3263C24.0303 69.8216 23.7344 69.8068 23.4384 69.7624C22.95 69.7032 22.802 69.5404 22.7872 69.0372C22.7774 68.494 22.7644 67.9492 22.7513 67.4033C22.7249 66.2982 22.6984 65.1887 22.6984 64.0792C22.6885 61.9771 22.6918 59.8683 22.6951 57.7618C22.6968 56.7093 22.6984 55.6575 22.6984 54.6072C22.6984 53.512 22.7132 52.402 22.728 51.3068C22.7428 50.6704 22.7724 50.0192 22.802 49.3828C22.8168 48.9684 22.95 48.8204 23.3644 48.776C23.8972 48.7168 24.4448 48.6724 24.9776 48.6724C25.8212 48.6576 26.6648 48.6724 27.5084 48.6872C27.6046 48.6872 27.7045 48.702 27.8044 48.7168C27.9043 48.7316 28.0042 48.7464 28.1004 48.7464C28.426 48.7612 28.7072 48.9684 28.8256 49.2644C29.4028 50.3004 29.9948 51.3216 30.5868 52.3428L33.8724 57.9372C33.9129 58.007 33.9531 58.0768 33.9932 58.1465C34.217 58.5352 34.4399 58.9223 34.716 59.2988V58.9436C34.716 56.99 34.716 55.0216 34.7308 53.068C34.7407 52.2688 34.7637 51.4696 34.7867 50.6704C34.7982 50.2708 34.8097 49.8712 34.8196 49.4716C34.8344 48.9832 34.9676 48.8204 35.4856 48.7612C35.9888 48.702 36.4772 48.6724 36.9804 48.6724C37.8832 48.6724 38.8008 48.6724 39.7184 48.702C40.0736 48.6724 40.4288 48.776 40.71 49.0128C40.7396 49.2052 40.7692 49.3976 40.784 49.59C40.8018 49.8922 40.8035 50.1996 40.8053 50.5092C40.8065 50.7153 40.8077 50.9222 40.8136 51.1292C40.9069 53.8956 40.8986 56.6692 40.8903 59.4399C40.8867 60.627 40.8832 61.8136 40.8876 62.9988C40.8876 64.2716 40.8728 65.5444 40.858 66.8172C40.8432 67.5424 40.8136 68.2676 40.784 68.9928C40.778 69.0412 40.767 69.0871 40.7561 69.1326C40.7403 69.1984 40.7248 69.2632 40.7248 69.3332C40.71 69.496 40.5916 69.6292 40.4436 69.6736C40.3252 69.718 40.2068 69.7476 40.0736 69.7624C38.786 69.866 37.5132 69.8956 36.2256 69.8364C36.1002 69.8364 35.9694 69.8201 35.8397 69.804C35.7551 69.7935 35.671 69.783 35.5892 69.7772C35.2192 69.7624 34.8936 69.57 34.7308 69.2444L29.2252 60.1868C29.1313 60.0392 29.0374 59.8795 28.9104 59.6635ZM29.083 42.376C28.9918 42.3678 28.893 42.359 28.7812 42.3528V42.3529C28.7812 43.0189 28.7812 43.6404 28.7664 44.262C28.7664 44.4248 28.7664 44.5728 28.7516 44.7356C28.7072 45.076 28.574 45.2092 28.2336 45.2536C27.76 45.3128 27.3012 45.3424 26.8276 45.3572C25.8582 45.3719 24.9033 45.3574 23.9341 45.3427L23.912 45.3424L23.8913 45.3408C23.7048 45.3265 23.5055 45.3112 23.32 45.2684C22.9204 45.1944 22.8168 45.076 22.7872 44.6764C22.7724 44.484 22.7724 44.2768 22.7724 44.0844V44.0844C22.7625 43.3455 22.7509 42.6083 22.7393 41.8716C22.7164 40.4097 22.6934 38.9499 22.6836 37.4836C22.6737 35.8556 22.677 34.2276 22.6803 32.5996C22.682 31.7856 22.6836 30.9716 22.6836 30.1576C22.6836 28.9736 22.6984 27.8044 22.7132 26.6352C22.728 26.0728 22.7576 25.4956 22.7872 24.9332C22.8168 24.5336 22.9648 24.3856 23.3792 24.356C23.4918 24.3476 23.6049 24.3386 23.7183 24.3296C24.2014 24.2912 24.6906 24.2524 25.17 24.2524C25.607 24.2449 26.0431 24.2365 26.4788 24.2281C27.7692 24.2032 29.0554 24.1784 30.35 24.1784C32.2148 24.1636 34.0648 24.4596 35.8408 25.0516C37.0988 25.4512 38.2384 26.132 39.1856 27.0496C40.0588 27.908 40.6952 28.9884 41.0356 30.1724C41.228 30.8236 41.3464 31.5044 41.3908 32.1852C41.3956 32.3694 41.4053 32.5568 41.415 32.7458C41.4349 33.1338 41.4551 33.5286 41.4352 33.9168C41.4056 35.16 41.1096 36.4032 40.562 37.528C39.896 38.8748 38.86 39.9848 37.5576 40.7248C36.3884 41.4056 35.1008 41.8644 33.7688 42.0864C32.9992 42.2344 32.2 42.3232 31.4008 42.3528C31.186 42.3577 30.9695 42.3642 30.7525 42.3707C30.3118 42.3839 29.8688 42.3972 29.4324 42.3972C29.3207 42.3972 29.2091 42.3872 29.083 42.376ZM71.5499 67.0764C71.566 67.13 71.5841 67.1905 71.6124 67.2612C71.4966 67.3569 71.3859 67.4508 71.2786 67.5419C71.0706 67.7185 70.8753 67.8843 70.68 68.0308C69.3924 68.9484 67.9272 69.5996 66.388 69.94C65.3372 70.1768 64.242 70.2656 63.1616 70.1916C61.3116 70.1324 59.5208 69.644 57.8928 68.7708C55.362 67.3944 53.5564 65.0116 52.9052 62.1996C52.624 61.06 52.5056 59.8908 52.5648 58.7216C52.6536 56.3832 53.29 54.2224 54.7552 52.3428C55.9688 50.774 57.6116 49.6048 59.4912 48.9684C60.7048 48.554 61.948 48.3024 63.2208 48.2432C63.9016 48.1988 64.5824 48.2136 65.2632 48.2876C67.35 48.5096 69.348 49.294 71.0204 50.5816C71.1092 50.7888 71.0796 51.0404 70.9464 51.218C70.4284 52.328 69.7772 53.3936 69.0224 54.3704C68.8818 54.5412 68.7343 54.7051 68.5847 54.8715C68.5139 54.9502 68.4425 55.0296 68.3712 55.1104L68.0604 55.3768C67.9272 55.3176 67.794 55.2584 67.6756 55.1844C66.3584 54.3408 64.7748 53.9708 63.2208 54.1632C61.1932 54.3852 59.4468 55.6432 58.9436 57.73C58.47 59.6688 58.8104 61.4448 60.2756 62.8804C61.06 63.6204 62.0664 64.094 63.132 64.2124C64.7748 64.4344 66.2548 63.9904 67.6608 63.1764C67.9124 63.0284 68.164 62.8804 68.46 62.7028C68.6228 62.7916 68.7708 62.91 68.904 63.0284C69.1704 63.3244 69.4368 63.6204 69.6736 63.946C70.3544 64.8784 70.976 65.8848 71.494 66.9208C71.5172 66.9672 71.5323 67.0177 71.5499 67.0764ZM70.9258 26.123C70.9753 26.1661 71.0308 26.2143 71.0944 26.2652C71.0845 26.3195 71.073 26.3721 71.0615 26.4247C71.0385 26.53 71.0155 26.6352 71.0056 26.7536C70.3988 28.1152 69.5996 29.388 68.6228 30.5276C68.5044 30.6608 68.3712 30.794 68.238 30.9272C68.0604 30.9864 67.868 30.942 67.7348 30.8236C67.0096 30.3648 66.2104 30.0392 65.3668 29.8764C63.7092 29.5508 62.1552 29.758 60.764 30.7496C59.8316 31.3712 59.1804 32.348 58.9436 33.4432C58.5884 35.0268 58.766 36.5364 59.7428 37.8832C60.3348 38.712 61.1932 39.3188 62.17 39.6148C63.7388 40.118 65.4556 39.97 66.9356 39.2004C67.3352 39.008 67.6904 38.8008 68.09 38.564C68.4896 38.3272 68.6376 38.3272 68.9484 38.6676C69.2888 39.0376 69.5996 39.4224 69.8808 39.8368C70.4728 40.6656 70.9908 41.524 71.4496 42.4268C71.4939 42.5066 71.5276 42.5917 71.5634 42.6821C71.5874 42.7426 71.6123 42.8055 71.642 42.8708C71.5088 43.004 71.3904 43.1224 71.2572 43.226C69.9104 44.336 68.312 45.1204 66.5952 45.52C65.6776 45.742 64.7304 45.8456 63.798 45.8308C61.6816 45.7716 59.6392 45.3868 57.7892 44.3064C55.4952 43.0188 53.808 40.8876 53.068 38.3716C52.6536 37.0396 52.4908 35.6336 52.5648 34.2424C52.6684 32.0668 53.2308 30.0392 54.5184 28.2484C55.5988 26.7536 57.0492 25.5844 58.7364 24.8592C59.8168 24.3856 60.9564 24.0748 62.1256 23.9268C63.0136 23.7936 63.9164 23.764 64.8192 23.838C66.9504 23.986 69.0076 24.7408 70.754 25.984C70.8046 26.0177 70.86 26.0659 70.9258 26.123ZM44.5136 41.376C44.2916 41.3316 44.114 41.1984 44.0252 40.9912H43.9808C43.9761 40.7221 43.9683 40.4455 43.9605 40.1642C43.9437 39.5637 43.9263 38.942 43.9364 38.3272C43.9315 37.2984 43.9249 36.268 43.9184 35.237C43.9052 33.1682 43.892 31.0972 43.892 29.0328C43.892 28.2139 43.9183 27.3949 43.9446 26.576C43.9578 26.1665 43.9709 25.7571 43.9808 25.3476C43.9909 25.1758 44.0148 24.997 44.0384 24.8208C44.0493 24.739 44.0602 24.6578 44.0696 24.578C44.1732 24.4004 44.3656 24.282 44.5876 24.2672C44.7208 24.2609 44.854 24.2464 44.9872 24.2319C45.1648 24.2125 45.3424 24.1932 45.52 24.1932C46.556 24.1784 47.6068 24.1784 48.6428 24.1932C48.924 24.1932 49.1904 24.2228 49.4568 24.2672C49.8268 24.3116 49.9452 24.4596 49.96 24.8296C49.9697 25.1015 49.9826 25.375 49.9956 25.6495C50.0221 26.2119 50.0488 26.7787 50.0488 27.3456C50.0784 29.8024 50.0932 32.2592 50.108 34.716V36.2108C50.0932 36.8694 50.0784 37.5318 50.0636 38.1941C50.0488 38.8564 50.034 39.5186 50.0192 40.1772C50.0192 40.3115 50.003 40.4512 49.9868 40.5897C49.9763 40.6803 49.9659 40.7703 49.96 40.858V40.8728C49.9748 41.1392 49.7676 41.3612 49.5012 41.376C49.2644 41.4352 48.998 41.4648 48.7464 41.4648C47.592 41.4796 46.4228 41.4796 45.2684 41.4648C45.0168 41.45 44.7652 41.4204 44.5136 41.376ZM49.9711 69.1954C49.9621 69.2848 49.9531 69.3751 49.9452 69.4664C49.7824 69.6292 49.5604 69.7328 49.3088 69.7328L49.2667 69.7363C48.7487 69.7795 48.244 69.8216 47.7252 69.8216C47.0148 69.8512 46.3192 69.8364 45.6236 69.8216L45.6235 69.8216C45.2979 69.8068 44.9724 69.792 44.6468 69.7476C44.2028 69.7032 44.04 69.5404 44.0252 69.0964C43.9808 68.2972 43.9364 67.4832 43.9364 66.6692C43.9315 65.727 43.9249 64.7848 43.9183 63.8426C43.9052 61.958 43.892 60.0734 43.892 58.1888C43.892 57.2295 43.9184 56.2637 43.9448 55.3C43.9579 54.8215 43.971 54.3435 43.9808 53.8672C43.9943 53.597 44.0201 53.3269 44.0471 53.0455C44.0496 53.0186 44.0522 52.9915 44.0548 52.9644C44.1584 52.7572 44.3656 52.624 44.6024 52.624C44.7526 52.614 44.9011 52.6006 45.049 52.5872C45.3384 52.5611 45.6258 52.5352 45.9196 52.5352C46.5111 52.5253 47.1091 52.5286 47.7093 52.5319C48.0102 52.5336 48.3117 52.5352 48.6132 52.5352C48.8944 52.5352 49.1756 52.5648 49.4568 52.6092C49.812 52.6684 49.9452 52.8164 49.96 53.1864C50.0044 53.8968 50.0488 54.6072 50.0488 55.3176L50.0488 55.3187C50.0784 58.1303 50.108 60.942 50.108 63.7536C50.108 64.8116 50.0816 65.8629 50.0552 66.9121C50.0421 67.4333 50.029 67.9541 50.0192 68.4748C50.0192 68.7131 49.9954 68.9513 49.9711 69.1954ZM46.9852 50.1228C45.2684 50.108 43.892 48.7168 43.9068 47C43.9068 46.9852 43.9068 46.9852 43.892 46.9852C43.9068 45.2684 45.3128 43.9068 47.0148 43.9216H47.0296C48.7464 43.9364 50.1228 45.3276 50.108 47.0444C50.0932 48.7612 48.702 50.1376 46.9852 50.1228Z" fill="#E40612"/>
<path d="M29 36.9961V30.0323C29.3309 30.0323 29.6481 30.0014 29.9652 30.0014C30.7787 30.0014 31.5785 29.9705 32.3782 30.2021C32.7781 30.3102 33.1642 30.4646 33.5365 30.6653C34.3362 31.0977 34.874 31.9624 34.9567 32.9352C35.0532 33.5682 34.9843 34.2168 34.7912 34.819C34.5017 35.6219 33.9087 36.255 33.178 36.5484C32.5575 36.8263 31.9094 36.9653 31.2475 36.9807C30.503 37.0116 29.7722 36.9961 29 36.9961Z" fill="#E40612"/>
</svg>
