<svg width="36" height="36" viewBox="0 0 36 36" fill="none" xmlns="http://www.w3.org/2000/svg">
<path fill-rule="evenodd" clip-rule="evenodd" d="M33.75 33.75C36 31.5 36 27 36 18C36 9 36 4.5 33.75 2.25C31.5 0 27 0 18 0C9 0 4.5 0 2.25 2.25C0 4.5 0 9 0 18C0 27 0 31.5 2.25 33.75C4.5 36 9 36 18 36C27 36 31.5 36 33.75 33.75ZM15.52 13.2258C19.0557 7.10529 25.5661 3.0887 27.4814 4.17817C29.3945 5.26647 29.0749 12.8874 25.5391 19.0079C25.1669 19.6523 24.7768 20.2681 24.3745 20.855L24.3798 20.8493C23.5368 22.1647 22.5554 25.3991 22.7701 27.0735C23.1081 28.9263 21.4613 31.6455 20.7665 32.5543C20.7528 32.5722 20.7391 32.5904 20.7252 32.6089L20.7246 32.6097L20.7245 32.6098C20.454 32.9698 20.1133 33.4232 19.0979 32.5699L19.0488 32.5287C18.4126 31.9946 18.0568 31.6959 18.3854 31.216C19.9079 28.5753 18.7266 26.758 18.7266 26.758L17.6656 27.8406C17.5616 28.0207 17.301 28.0555 17.0951 27.9365L11.9463 24.9621C11.7405 24.8431 11.6403 24.5998 11.7443 24.4199L12.2412 22.981C12.2412 22.981 10.0798 22.8263 8.51899 25.4445C8.26319 25.9606 7.82953 25.7961 7.06666 25.5067L6.98387 25.4753C5.7293 25.0007 5.96365 24.4657 6.14538 24.0508L6.16709 24.001C6.62075 22.9508 8.15634 20.1681 9.93833 19.5581C11.5042 18.9279 13.6428 16.3991 14.4681 15.0518C14.6254 14.6187 14.8814 14.2269 15.1408 13.83C15.2703 13.6318 15.4007 13.4323 15.52 13.2258ZM20.5832 16.0024C21.5756 16.5842 22.8517 16.2514 23.4335 15.2591C24.0152 14.2667 23.6825 12.9906 22.6902 12.4088C21.6978 11.827 20.4217 12.1598 19.8399 13.1522C19.2581 14.1445 19.5909 15.4206 20.5832 16.0024ZM10.1527 33.9286C9.05922 33.2874 10.4656 28.0198 11.3529 26.3071C11.4248 26.1683 11.6238 25.9421 11.9544 26.1359C12.3086 26.3436 12.3571 26.8844 12.4075 27.4465C12.462 28.0546 12.5188 28.6876 12.9673 28.9505C13.4312 29.2225 13.9692 28.9531 14.4929 28.6907C14.9898 28.4418 15.474 28.1993 15.87 28.4316C16.4163 28.7518 16.2146 29.024 16.1103 29.1648C16.103 29.1747 16.0961 29.184 16.09 29.1926C15.0035 30.7252 11.2462 34.5697 10.1527 33.9286Z" fill="#F2F2F2"/>
</svg>
