<svg width="48" height="48" viewBox="0 0 48 48" fill="none" xmlns="http://www.w3.org/2000/svg">
<path fill-rule="evenodd" clip-rule="evenodd" d="M23.9991 6C5.99996 6 6.00004 6.00001 6 24.457C5.99996 41.9662 6 41.9662 18.3102 41.969C19.2102 42.1378 19.5387 41.5685 19.5387 41.0794C19.5387 40.6411 19.5234 39.4802 19.5144 37.94C14.5077 39.0557 13.4511 35.466 13.4511 35.466C12.633 33.3343 11.4522 32.7659 11.4522 32.7659C9.8178 31.6207 11.5755 31.6437 11.5755 31.6437C13.3818 31.7739 14.3322 33.5456 14.3322 33.5456C15.9378 36.3657 18.5451 35.5518 19.5711 35.0793C19.7349 33.8871 20.1993 33.0732 20.7141 32.6118C16.7172 32.1457 12.5151 30.5622 12.5151 23.4899C12.5151 21.4754 13.2162 19.8273 14.3682 18.5372C14.1828 18.0702 13.5654 16.1942 14.5446 13.6528C14.5446 13.6528 16.0557 13.1563 19.4946 15.5445C20.9301 15.1348 22.47 14.9309 24.0009 14.9235C25.5291 14.9309 27.069 15.1357 28.5072 15.5445C31.9434 13.1563 33.4518 13.6528 33.4518 13.6528C34.4337 16.1942 33.8163 18.0702 33.6309 18.5372C34.7847 19.8273 35.4813 21.4745 35.4813 23.4899C35.4813 30.5798 31.2729 32.1402 27.2625 32.597C27.9087 33.1664 28.4847 34.2931 28.4847 36.0151C28.4847 38.4826 28.4622 40.4731 28.4622 41.0785C28.4622 41.5722 28.7862 42.1462 29.6997 41.9662C42 41.9662 42 41.969 42 24.457C42 6 42 6 23.9991 6Z" fill="#F2F2F2"/>
</svg>
