<svg width="36" height="36" viewBox="0 0 36 36" fill="none" xmlns="http://www.w3.org/2000/svg">
<path fill-rule="evenodd" clip-rule="evenodd" d="M33.75 33.75C36 31.5 36 27 36 18C36 9 36 4.5 33.75 2.25C31.5 0 27 0 18 0C9 0 4.5 0 2.25 2.25C0 4.5 0 9 0 18C0 27 0 31.5 2.25 33.75C4.5 36 9 36 18 36C27 36 31.5 36 33.75 33.75ZM17.25 13.5556C17.25 15.5111 15.6925 17.1111 13.75 17.1111C11.825 17.1111 10.25 15.5111 10.25 13.5556C10.25 11.6 11.825 10 13.75 10C15.6925 10 17.25 11.6 17.25 13.5556ZM27.75 13.5556C27.75 15.5111 26.1925 17.1111 24.25 17.1111C22.325 17.1111 20.75 15.5111 20.75 13.5556C20.75 11.6 22.3075 10 24.25 10C26.1925 10 27.75 11.6 27.75 13.5556ZM5 23.6889C5 20.72 10.8275 19.2444 13.75 19.2444C16.6725 19.2444 22.5 20.72 22.5 23.6889V24C22.5 25.1046 21.6046 26 20.5 26H7C5.89543 26 5 25.1046 5 24V23.6889ZM23.8536 20.3589C23.4969 19.9437 23.7027 19.2444 24.25 19.2444C27.1725 19.2444 33 20.72 33 23.6889V24C33 25.1046 32.1046 26 31 26H27.125C26.0204 26 25.125 25.1046 25.125 24V23.6889C25.125 22.3705 24.6356 21.2691 23.8536 20.3589Z" fill="#F2F2F2"/>
</svg>
