<svg width="48" height="48" viewBox="0 0 48 48" fill="none" xmlns="http://www.w3.org/2000/svg">
<path d="M44.396 11.6159L24.5201 0.140544C24.1954 -0.0468481 23.7955 -0.0468481 23.4708 0.140544L3.59493 11.6159C3.2703 11.8033 3.07031 12.1496 3.07031 12.5245V35.4753C3.07031 35.8502 3.2703 36.1965 3.59493 36.3839L23.4709 47.8594C23.6332 47.953 23.8143 47.9999 23.9955 47.9999C24.1767 47.9999 24.3578 47.953 24.5202 47.8594L44.3962 36.3839C44.7208 36.1965 44.9208 35.8502 44.9208 35.4753V12.5245C44.9207 12.1497 44.7206 11.8033 44.396 11.6159ZM42.8222 33.3228L42.1445 32.9315C41.6429 32.6417 41.001 32.8137 40.7113 33.3155C40.4215 33.8174 40.5934 34.4591 41.0953 34.7489L42.0633 35.3078L25.0447 45.1336V25.3411C25.0581 25.3416 25.0714 25.3436 25.0849 25.3436C25.4475 25.3436 25.8001 25.1555 25.9945 24.8189C26.1436 24.5608 26.1696 24.2658 26.0923 24.0006L42.8222 14.3416V33.3228ZM7.27983 33.3155C6.99013 32.8138 6.34874 32.6417 5.84658 32.9315L5.16877 33.3228V14.3417L21.8987 24.0007C21.8213 24.2658 21.8474 24.5608 21.9964 24.8189C22.1909 25.1555 22.5434 25.3436 22.9061 25.3436C22.9194 25.3436 22.9329 25.3415 22.9463 25.3411V45.1334L5.92758 35.3077L6.8957 34.7488C7.39765 34.4591 7.56952 33.8174 7.27983 33.3155ZM23.9955 4.36296C24.5749 4.36296 25.0448 3.89322 25.0448 3.31373V2.86645L41.7728 12.5244L25.0235 22.1946C24.9258 21.7163 24.5026 21.3564 23.9955 21.3564C23.4883 21.3564 23.0652 21.7163 22.9675 22.1947L6.21811 12.5244L22.9463 2.86645V3.31384C22.9463 3.89322 23.4162 4.36296 23.9955 4.36296Z" fill="#F2F2F2"/>
<path d="M31.8959 29.4385L33.7676 30.5192C33.9329 30.6146 34.1132 30.6599 34.2912 30.6599C34.6538 30.6599 35.0064 30.4718 35.2009 30.1352C35.4907 29.6333 35.3187 28.9917 34.8168 28.7019L32.9451 27.6212C32.4432 27.3315 31.8017 27.5034 31.5119 28.0052C31.2221 28.5071 31.394 29.1487 31.8959 29.4385Z" fill="#F2F2F2"/>
<path d="M27.2904 26.7784L29.1623 27.859C29.3275 27.9545 29.5079 27.9997 29.6858 27.9997C30.0484 27.9997 30.4012 27.8116 30.5955 27.475C30.8853 26.9731 30.7133 26.3314 30.2115 26.0417L28.3397 24.9611C27.8377 24.6712 27.1961 24.8433 26.9064 25.3452C26.6166 25.847 26.7886 26.4887 27.2904 26.7784Z" fill="#F2F2F2"/>
<path d="M36.4896 32.087L38.3615 33.1677C38.5267 33.263 38.7071 33.3084 38.885 33.3084C39.2477 33.3084 39.6004 33.1202 39.7947 32.7836C40.0845 32.2818 39.9125 31.6401 39.4107 31.3504L37.5389 30.2697C37.0369 29.9799 36.3952 30.1519 36.1056 30.6537C35.8158 31.1556 35.9878 31.7973 36.4896 32.087Z" fill="#F2F2F2"/>
<path d="M18.3005 27.9997C18.4784 27.9997 18.6589 27.9544 18.824 27.859L20.6959 26.7783C21.1977 26.4886 21.3697 25.8469 21.0799 25.3451C20.7902 24.8432 20.1485 24.6714 19.6466 24.961L17.7748 26.0418C17.273 26.3314 17.101 26.9732 17.3908 27.475C17.5851 27.8117 17.9377 27.9997 18.3005 27.9997Z" fill="#F2F2F2"/>
<path d="M9.10125 33.3082C9.27919 33.3082 9.45956 33.2629 9.62481 33.1675L11.4966 32.0869C11.9985 31.7972 12.1705 31.1555 11.8807 30.6536C11.5911 30.1519 10.9496 29.9799 10.4474 30.2696L8.57558 31.3502C8.07373 31.6399 7.90176 32.2816 8.19156 32.7835C8.38588 33.1201 8.73853 33.3082 9.10125 33.3082Z" fill="#F2F2F2"/>
<path d="M13.7067 30.6599C13.8847 30.6599 14.0651 30.6146 14.2303 30.5192L16.102 29.4385C16.6039 29.1487 16.7758 28.5071 16.486 28.0052C16.1963 27.5034 15.5546 27.3315 15.0528 27.6212L13.181 28.7019C12.6792 28.9917 12.5072 29.6333 12.797 30.1352C12.9915 30.4718 13.344 30.6599 13.7067 30.6599Z" fill="#F2F2F2"/>
<path d="M22.9453 8.6246C22.9453 9.20409 23.4152 9.67384 23.9945 9.67384C24.5739 9.67384 25.0438 9.20409 25.0438 8.6246V6.46329C25.0438 5.8838 24.5739 5.41406 23.9945 5.41406C23.4152 5.41406 22.9453 5.8838 22.9453 6.46329V8.6246Z" fill="#F2F2F2"/>
<path d="M23.9945 10.7344C23.4152 10.7344 22.9453 11.2041 22.9453 11.7836V13.9449C22.9453 14.5244 23.4152 14.9941 23.9945 14.9941C24.5739 14.9941 25.0438 14.5244 25.0438 13.9449V11.7836C25.0438 11.2041 24.574 10.7344 23.9945 10.7344Z" fill="#F2F2F2"/>
<path d="M23.9945 16.043C23.4152 16.043 22.9453 16.5127 22.9453 17.0922V19.2535C22.9453 19.833 23.4152 20.3027 23.9945 20.3027C24.5739 20.3027 25.0438 19.833 25.0438 19.2535V17.0922C25.0438 16.5127 24.574 16.043 23.9945 16.043Z" fill="#F2F2F2"/>
</svg>
