<svg xmlns="http://www.w3.org/2000/svg" xmlns:xlink="http://www.w3.org/1999/xlink" id="Layer_3" x="0" y="0" enable-background="new 0 0 566.9 566.9" version="1.1" viewBox="0 0 566.9 566.9" xml:space="preserve"><style type="text/css">.st0{fill:#fff}.st1{fill:#208ecd}.st2{opacity:.3;fill:#fff}.st3{fill:#d1d3d4}</style><polygon id="white" points="50.9 280.7 283.7 47.9 516.6 280.8 283.7 513.6" class="st0"/><g id="Color_Diamond"><polygon points="50.9 280.7 108.6 223 108.6 338.5" class="st1"/><polygon points="369.9 134.1 196.5 307.5 197.5 134.1 212 119.6 283.7 47.9" class="st1"/><polygon points="516.6 280.8 283.7 513.6 195.8 425.7 253.6 367.9 342.5 279.1 357 264.6 377.1 244.5 428.8 192.9" class="st1"/></g><g id="Reflections"><polygon points="283.7 220.3 196.5 307.5 197.5 134.1" class="st2"/><polygon points="430.3 366.8 341.3 455.7 253.6 367.9 342.5 279.1" class="st2"/><rect width="28.5" height="121.9" x="250.9" y="91.7" class="st2" transform="matrix(0.7071 -0.7071 0.7071 0.7071 -30.2983 232.2034)"/><polygon points="464.8 332.2 444.7 352.4 357 264.6 377.1 244.5" class="st2"/></g><g id="Grey_tips"><polygon points="108.6 338.5 195.8 425.7 108.6 512.8" class="st3"/><polygon points="108.6 134.1 197.5 134.1 108.6 223" class="st3"/><polygon points="487.3 134.1 443.2 178.5 428.8 192.9 369.9 134.1" class="st3"/></g></svg>