<svg width="74" height="68" viewBox="0 0 74 68" fill="none" xmlns="http://www.w3.org/2000/svg">
<path fill-rule="evenodd" clip-rule="evenodd" d="M72.61 3.95022L69.4138 0.754028L5.39057 64.7772L8.58676 67.9734L21.6902 54.8699C26.9733 57.9032 32.4173 60 37 60C51.3042 60 74 41.4285 74 34C74 30.0473 67.5743 22.9398 59.4062 17.154L72.61 3.95022ZM49.8813 26.6788L44.2156 32.3446C44.3363 32.8769 44.4 33.431 44.4 34C44.4 38.1027 41.0869 41.4285 37 41.4285C36.4233 41.4285 35.8619 41.3623 35.3232 41.237L29.6575 46.9027C31.8213 48.1463 34.328 48.8571 37 48.8571C45.1738 48.8571 51.8 42.2053 51.8 34C51.8 31.3381 51.1026 28.8397 49.8813 26.6788ZM37 7.99997C41.467 7.99997 46.7525 9.81114 51.9095 12.5285L43.6928 20.7452C41.6829 19.7204 39.4087 19.1428 37 19.1428C28.8262 19.1428 22.2 25.7946 22.2 34C22.2 36.3975 22.7657 38.6625 23.7705 40.6676L14.3916 50.0464C6.31989 44.0171 0 36.94 0 34C0 26.5714 22.6958 7.99997 37 7.99997ZM37 26.5714C37.2776 26.5714 37.5517 26.5867 37.8214 26.6166L29.642 34.7961C29.6142 34.5345 29.6 34.2689 29.6 34C29.6 29.8973 32.9131 26.5714 37 26.5714Z" fill="white"/>
</svg>
