<svg width="110" height="110" viewBox="0 0 110 110" fill="none" xmlns="http://www.w3.org/2000/svg">
<path d="M32.8222 25.7258C30.3768 25.7258 28.3867 27.7159 28.3867 30.1613V83.3871C28.3867 85.8326 30.3768 87.8226 32.8222 87.8226H34.3007V84.8656H32.8222C32.0076 84.8656 31.3437 84.2033 31.3437 83.3871V75.9947H78.6555V83.3871C78.6555 84.2033 77.9932 84.8656 77.177 84.8656H54.9996V87.8226H77.177C79.6225 87.8226 81.6125 85.8326 81.6125 83.3871V30.1613C81.6125 27.7159 79.6225 25.7258 77.177 25.7258H32.8222ZM37.2577 78.9516V94.6607L44.6502 90.9644L52.0426 94.6607V78.9516H37.2577Z" fill="white"/>
</svg>
